<svg width="21" height="21" viewBox="0 0 21 21" fill="none" xmlns="http://www.w3.org/2000/svg">
<g clip-path="url(#clip0_2_5659)">
<path d="M20.6388 5.18555C19.9355 5.49116 19.1913 5.6925 18.4298 5.78321C19.2301 5.31461 19.8319 4.57015 20.1224 3.68946C19.3658 4.13188 18.5394 4.4423 17.6787 4.60743C17.3162 4.22756 16.8803 3.92536 16.3974 3.7192C15.9145 3.51305 15.3947 3.40724 14.8697 3.40821C12.7439 3.40821 11.0236 5.10352 11.0236 7.19336C11.0221 7.48405 11.0554 7.77387 11.1228 8.05664C9.59848 7.98518 8.10583 7.59632 6.74039 6.91495C5.37494 6.23357 4.16676 5.27468 3.19313 4.09962C2.85156 4.67544 2.67091 5.33244 2.67008 6.00196C2.67008 7.31445 3.35485 8.47461 4.38883 9.1543C3.77623 9.13976 3.17617 8.97762 2.63961 8.68164V8.72852C2.63961 10.5645 3.96774 12.0918 5.72555 12.4395C5.395 12.5276 5.05437 12.5722 4.71227 12.5723C4.46953 12.5727 4.22734 12.5491 3.98922 12.5019C4.47789 14.0059 5.90016 15.0996 7.58493 15.1309C6.21593 16.1859 4.53517 16.7561 2.8068 16.7519C2.50001 16.7515 2.19351 16.7332 1.88883 16.6973C3.64711 17.82 5.69096 18.4139 7.77711 18.4082C14.8615 18.4082 18.7318 12.6387 18.7318 7.63477C18.7318 7.47071 18.7275 7.30664 18.7197 7.14649C19.4709 6.61214 20.1208 5.94809 20.6388 5.18555Z" fill="black"/>
</g>
<defs>
<clipPath id="clip0_2_5659">
<rect width="20" height="20" fill="white" transform="translate(0.222168 0.908203)"/>
</clipPath>
</defs>
</svg>
