<svg width="17" height="16" viewBox="0 0 17 16" fill="none" xmlns="http://www.w3.org/2000/svg">
<path fill-rule="evenodd" clip-rule="evenodd" d="M7.82636 3.19995H8.64514C9.00652 5.347 10.9275 7.12755 13.0222 7.58456V8.39295C10.9482 8.82269 8.99094 10.6811 8.64601 12.8H7.82416C7.45212 10.6669 5.52305 8.83474 3.42216 8.39246V7.58759C5.5456 7.08021 7.41429 5.38388 7.82636 3.19995ZM8.13455 3.5753C7.66598 5.6347 5.79372 7.34517 3.79752 7.88167V8.09075C5.7846 8.58501 7.69583 10.4218 8.13616 12.4246H8.33075C8.76306 10.3885 10.6724 8.58839 12.6468 8.09078V7.88431C10.6633 7.38325 8.76385 5.58686 8.33136 3.5753H8.13455Z" fill="#A18D61"/>
</svg>
