<svg width="20" height="21" viewBox="0 0 20 21" fill="none" xmlns="http://www.w3.org/2000/svg">
<path d="M15.9796 5.47908C15.8671 5.42094 15.7576 5.35721 15.6515 5.28812C15.3429 5.08412 15.06 4.84375 14.8088 4.57218C14.1804 3.85312 13.9457 3.12364 13.8592 2.6129H13.8627C13.7905 2.18896 13.8204 1.91467 13.8249 1.91467H10.9625V12.9829C10.9625 13.1315 10.9625 13.2783 10.9563 13.4235C10.9563 13.4415 10.9545 13.4582 10.9535 13.4776C10.9535 13.4856 10.9535 13.494 10.9517 13.5023C10.9517 13.5044 10.9517 13.5065 10.9517 13.5085C10.9216 13.9057 10.7943 14.2893 10.581 14.6257C10.3678 14.962 10.0752 15.2409 9.72889 15.4376C9.36799 15.6429 8.95979 15.7506 8.54457 15.7501C7.21096 15.7501 6.13011 14.6626 6.13011 13.3197C6.13011 11.9767 7.21096 10.8892 8.54457 10.8892C8.79702 10.889 9.04791 10.9287 9.28794 11.0069L9.29141 8.09249C8.56275 7.99837 7.8225 8.05628 7.11734 8.26256C6.41219 8.46885 5.75744 8.81904 5.19439 9.29104C4.70104 9.7197 4.28627 10.2312 3.96876 10.8024C3.84793 11.0107 3.39205 11.8479 3.33685 13.2065C3.30213 13.9776 3.53371 14.7765 3.64412 15.1067V15.1137C3.71356 15.3081 3.98265 15.9716 4.42117 16.531C4.77477 16.9796 5.19255 17.3738 5.66104 17.7007V17.6937L5.66798 17.7007C7.05368 18.6423 8.59006 18.5805 8.59006 18.5805C8.85602 18.5697 9.74694 18.5805 10.7587 18.101C11.8809 17.5694 12.5197 16.7775 12.5197 16.7775C12.9279 16.3043 13.2524 15.765 13.4794 15.1828C13.7384 14.5019 13.8249 13.6853 13.8249 13.3589V7.48696C13.8596 7.5078 14.3221 7.81368 14.3221 7.81368C14.3221 7.81368 14.9883 8.24075 16.0279 8.51886C16.7737 8.71676 17.7785 8.75843 17.7785 8.75843V5.9169C17.4264 5.9551 16.7115 5.84399 15.9796 5.47908Z" fill="black"/>
</svg>
