<svg width="20" height="21" viewBox="0 0 20 21" fill="none" xmlns="http://www.w3.org/2000/svg">
<g clip-path="url(#clip0_2_5563)">
<path d="M20.4167 4.5254C19.7133 4.831 18.9692 5.03234 18.2077 5.12305C19.0079 4.65445 19.6098 3.90999 19.9003 3.0293C19.1437 3.47172 18.3173 3.78214 17.4565 3.94727C17.094 3.5674 16.6581 3.2652 16.1752 3.05905C15.6923 2.85289 15.1726 2.74708 14.6475 2.74805C12.5217 2.74805 10.8014 4.44336 10.8014 6.53321C10.7999 6.82389 10.8332 7.11372 10.9006 7.39649C9.37631 7.32503 7.88367 6.93617 6.51822 6.25479C5.15277 5.57341 3.94459 4.61452 2.97096 3.43946C2.62939 4.01529 2.44875 4.67229 2.44791 5.3418C2.44791 6.6543 3.13268 7.81445 4.16666 8.49414C3.55406 8.4796 2.954 8.31746 2.41745 8.02148V8.06836C2.41745 9.90429 3.74557 11.4316 5.50338 11.7793C5.17283 11.8674 4.8322 11.9121 4.4901 11.9121C4.24736 11.9125 4.00517 11.889 3.76705 11.8418C4.25573 13.3457 5.67799 14.4394 7.36276 14.4707C5.99377 15.5257 4.313 16.096 2.58463 16.0918C2.27784 16.0913 1.97134 16.0731 1.66666 16.0371C3.42494 17.1598 5.46879 17.7537 7.55495 17.748C14.6393 17.748 18.5096 11.9785 18.5096 6.97461C18.5096 6.81055 18.5053 6.64649 18.4975 6.48633C19.2487 5.95198 19.8986 5.28794 20.4167 4.5254Z" fill="black"/>
</g>
<defs>
<clipPath id="clip0_2_5563">
<rect width="20" height="20" fill="white" transform="translate(0 0.248047)"/>
</clipPath>
</defs>
</svg>
