<svg width="21" height="21" viewBox="0 0 21 21" fill="none" xmlns="http://www.w3.org/2000/svg">
<path fill-rule="evenodd" clip-rule="evenodd" d="M16.4429 4.68751C15.7597 4.00436 14.834 3.61929 13.8679 3.61641H6.57646C5.61035 3.61929 4.68463 4.00436 4.00147 4.68751C3.31832 5.37066 2.93326 6.29638 2.93037 7.2625V14.5539C2.93326 15.52 3.31832 16.4457 4.00147 17.1289C4.68463 17.812 5.61035 18.1971 6.57646 18.2H13.8679C14.834 18.1971 15.7597 17.812 16.4429 17.1289C17.126 16.4457 17.5111 15.52 17.514 14.5539V7.2625C17.5111 6.29638 17.126 5.37066 16.4429 4.68751ZM6.57646 2.1582H13.8679C16.6753 2.1582 18.9722 4.45508 18.9722 7.2625V14.5539C18.9722 17.3613 16.6753 19.6582 13.8679 19.6582H6.57646C3.76904 19.6582 1.47217 17.3613 1.47217 14.5539V7.2625C1.47217 4.45508 3.76904 2.1582 6.57646 2.1582ZM14.3539 7.07819C14.5338 7.19838 14.7453 7.26252 14.9616 7.26252C15.1053 7.26283 15.2477 7.23475 15.3805 7.1799C15.5134 7.12504 15.6341 7.04449 15.7357 6.94286C15.8373 6.84124 15.9179 6.72054 15.9727 6.5877C16.0276 6.45486 16.0557 6.31249 16.0553 6.16877C16.0553 5.95245 15.9912 5.74098 15.871 5.56112C15.7508 5.38125 15.58 5.24106 15.3802 5.15828C15.1803 5.0755 14.9604 5.05384 14.7482 5.09604C14.5361 5.13824 14.3412 5.24241 14.1882 5.39537C14.0352 5.54834 13.9311 5.74323 13.8889 5.95539C13.8467 6.16756 13.8683 6.38748 13.9511 6.58733C14.0339 6.78719 14.1741 6.95801 14.3539 7.07819ZM11.8426 8.483C11.363 8.1625 10.799 7.99143 10.2222 7.99143C9.44883 7.99226 8.70742 8.29983 8.16059 8.84666C7.61377 9.39348 7.3062 10.1349 7.30537 10.9082C7.30537 11.4851 7.47644 12.0491 7.79694 12.5287C8.11744 13.0084 8.57298 13.3822 9.10595 13.603C9.63893 13.8238 10.2254 13.8815 10.7912 13.769C11.357 13.6564 11.8767 13.3786 12.2846 12.9707C12.6926 12.5628 12.9704 12.0431 13.0829 11.4773C13.1954 10.9115 13.1377 10.325 12.9169 9.79202C12.6962 9.25905 12.3223 8.8035 11.8426 8.483ZM7.79155 7.27055C8.51101 6.78982 9.35687 6.53323 10.2222 6.53323C11.3825 6.53323 12.4953 6.99416 13.3157 7.81464C14.1362 8.63511 14.5972 9.74791 14.5972 10.9082C14.5972 11.7735 14.3406 12.6194 13.8598 13.3389C13.3791 14.0583 12.6958 14.6191 11.8964 14.9502C11.097 15.2813 10.2173 15.368 9.36864 15.1992C8.51998 15.0304 7.74043 14.6137 7.12857 14.0018C6.51672 13.39 6.10004 12.6104 5.93123 11.7618C5.76242 10.9131 5.84906 10.0334 6.1802 9.23399C6.51133 8.43456 7.07208 7.75128 7.79155 7.27055Z" fill="black"/>
</svg>
