<svg width="21" height="21" viewBox="0 0 21 21" fill="none" xmlns="http://www.w3.org/2000/svg">
<g clip-path="url(#clip0_2_5657)">
<path d="M20.0909 6.72031C20.0909 4.9625 18.7979 3.54844 17.2003 3.54844C15.0362 3.44727 12.8292 3.4082 10.5737 3.4082H9.87059C7.6206 3.4082 5.40966 3.44727 3.2456 3.54883C1.65185 3.54883 0.35888 4.9707 0.35888 6.72852C0.261224 8.11875 0.219818 9.50937 0.222161 10.9C0.218255 12.2906 0.262526 13.6826 0.354974 15.0758C0.354974 16.8336 1.64794 18.2594 3.24169 18.2594C5.51513 18.3648 7.84716 18.4117 10.2183 18.4078C12.5932 18.4156 14.9188 18.3661 17.1948 18.2594C18.7925 18.2594 20.0854 16.8336 20.0854 15.0758C20.1792 13.6812 20.2222 12.2906 20.2182 10.8961C20.2271 9.50547 20.1847 8.11354 20.0909 6.72031ZM8.30809 14.732V7.05625L13.9722 10.8922L8.30809 14.732Z" fill="black"/>
</g>
<defs>
<clipPath id="clip0_2_5657">
<rect width="20" height="20" fill="white" transform="translate(0.222168 0.908203)"/>
</clipPath>
</defs>
</svg>
