<svg width="17" height="17" viewBox="0 0 17 17" fill="none" xmlns="http://www.w3.org/2000/svg">
<path fill-rule="evenodd" clip-rule="evenodd" d="M7.82638 4.1084H8.64516C9.00654 6.25544 10.9276 8.036 13.0222 8.49301V9.3014C10.9482 9.73114 8.99095 11.5895 8.64602 13.7084H7.82418C7.45213 11.5753 5.52306 9.74319 3.42218 9.3009V8.49603C5.54562 7.98866 7.41431 6.29233 7.82638 4.1084ZM8.13457 4.48375C7.66599 6.54315 5.79373 8.25362 3.79753 8.79012V8.99919C5.78461 9.49346 7.69585 11.3303 8.13617 13.333H8.33076C8.76308 11.297 10.6724 9.49684 12.6468 8.99923V8.79275C10.6633 8.2917 8.76387 6.49531 8.33138 4.48375H8.13457Z" fill="#A18D61"/>
</svg>
