<svg width="20" height="21" viewBox="0 0 20 21" fill="none" xmlns="http://www.w3.org/2000/svg">
<path fill-rule="evenodd" clip-rule="evenodd" d="M16.2207 4.02735C15.5375 3.3442 14.6118 2.95914 13.6457 2.95625H6.3543C5.38818 2.95914 4.46246 3.3442 3.77931 4.02735C3.09616 4.7105 2.71109 5.63623 2.7082 6.60234V13.8937C2.71109 14.8599 3.09616 15.7856 3.77931 16.4687C4.46246 17.1519 5.38818 17.537 6.3543 17.5398H13.6457C14.6118 17.537 15.5375 17.1519 16.2207 16.4687C16.9038 15.7856 17.2889 14.8599 17.2918 13.8937V6.60234C17.2889 5.63623 16.9038 4.7105 16.2207 4.02735ZM6.3543 1.49805H13.6457C16.4531 1.49805 18.75 3.79492 18.75 6.60234V13.8937C18.75 16.7012 16.4531 18.998 13.6457 18.998H6.3543C3.54687 18.998 1.25 16.7012 1.25 13.8937V6.60234C1.25 3.79492 3.54687 1.49805 6.3543 1.49805ZM14.1318 6.41804C14.3116 6.53822 14.5231 6.60237 14.7394 6.60237C14.8832 6.60268 15.0255 6.5746 15.1584 6.51974C15.2912 6.46488 15.4119 6.38433 15.5135 6.28271C15.6151 6.18108 15.6957 6.06038 15.7506 5.92754C15.8054 5.7947 15.8335 5.65234 15.8332 5.50862C15.8332 5.29229 15.769 5.08083 15.6489 4.90096C15.5287 4.7211 15.3579 4.58091 15.158 4.49812C14.9581 4.41534 14.7382 4.39368 14.5261 4.43588C14.3139 4.47809 14.119 4.58225 13.966 4.73522C13.8131 4.88818 13.7089 5.08307 13.6667 5.29524C13.6245 5.5074 13.6462 5.72732 13.7289 5.92718C13.8117 6.12703 13.9519 6.29786 14.1318 6.41804ZM11.6205 7.82284C11.1408 7.50234 10.5769 7.33128 9.99999 7.33128C9.22667 7.3321 8.48525 7.63967 7.93842 8.1865C7.3916 8.73333 7.08403 9.47475 7.0832 10.2481C7.0832 10.825 7.25427 11.3889 7.57477 11.8686C7.89527 12.3482 8.35081 12.7221 8.88379 12.9428C9.41676 13.1636 10.0032 13.2214 10.569 13.1088C11.1348 12.9963 11.6546 12.7185 12.0625 12.3106C12.4704 11.9026 12.7482 11.3829 12.8607 10.8171C12.9733 10.2513 12.9155 9.66484 12.6948 9.13186C12.474 8.59889 12.1001 8.14335 11.6205 7.82284ZM7.56938 6.61039C8.28884 6.12966 9.1347 5.87307 9.99999 5.87307C11.1603 5.87307 12.2731 6.33401 13.0936 7.15448C13.914 7.97495 14.375 9.08775 14.375 10.2481C14.375 11.1134 14.1184 11.9592 13.6377 12.6787C13.1569 13.3982 12.4737 13.9589 11.6742 14.2901C10.8748 14.6212 9.99514 14.7078 9.14647 14.539C8.29781 14.3702 7.51826 13.9535 6.90641 13.3417C6.29455 12.7298 5.87788 11.9503 5.70907 11.1016C5.54026 10.2529 5.6269 9.37326 5.95803 8.57383C6.28916 7.77441 6.84991 7.09112 7.56938 6.61039Z" fill="black"/>
</svg>
