<svg width="16" height="16" viewBox="0 0 16 16" fill="none" xmlns="http://www.w3.org/2000/svg">
<path fill-rule="evenodd" clip-rule="evenodd" d="M7.6042 3.2002H8.42297C8.78436 5.34724 10.7054 7.1278 12.8 7.5848V8.3932C10.726 8.82294 8.76877 10.6813 8.42384 12.8002H7.602C7.22995 10.6671 5.30088 8.83499 3.2 8.3927V7.58783C5.32344 7.08046 7.19213 5.38413 7.6042 3.2002ZM7.91239 3.57555C7.44381 5.63495 5.57155 7.34542 3.57535 7.88191V8.09099C5.56243 8.58526 7.47366 10.4221 7.91399 12.4248H8.10858C8.54089 10.3888 10.4502 8.58863 12.4246 8.09103V7.88455C10.4411 7.38349 8.54169 5.58711 8.10919 3.57555H7.91239Z" fill="#A18D61"/>
</svg>
