<svg width="21" height="21" viewBox="0 0 21 21" fill="none" xmlns="http://www.w3.org/2000/svg">
<path d="M16.2018 6.13911C16.0893 6.08097 15.9798 6.01724 15.8737 5.94815C15.5651 5.74415 15.2822 5.50378 15.031 5.23221C14.4026 4.51315 14.1679 3.78367 14.0814 3.27294H14.0849C14.0127 2.849 14.0425 2.57471 14.047 2.57471H11.1847V13.6429C11.1847 13.7915 11.1847 13.9384 11.1784 14.0835C11.1784 14.1016 11.1767 14.1182 11.1756 14.1377C11.1756 14.1457 11.1756 14.154 11.1739 14.1623C11.1739 14.1644 11.1739 14.1665 11.1739 14.1686C11.1437 14.5657 11.0164 14.9493 10.8032 15.2857C10.59 15.6221 10.2973 15.9009 9.95106 16.0976C9.59015 16.303 9.18196 16.4107 8.76674 16.4101C7.43313 16.4101 6.35228 15.3227 6.35228 13.9797C6.35228 12.6367 7.43313 11.5493 8.76674 11.5493C9.01919 11.549 9.27008 11.5888 9.51011 11.667L9.51358 8.75252C8.78492 8.6584 8.04467 8.71631 7.33951 8.9226C6.63435 9.12889 5.9796 9.47908 5.41656 9.95108C4.92321 10.3797 4.50844 10.8912 4.19093 11.4625C4.0701 11.6708 3.61422 12.5079 3.55901 13.8665C3.52429 14.6376 3.75588 15.4366 3.86629 15.7668V15.7737C3.93573 15.9681 4.20482 16.6316 4.64334 17.191C4.99694 17.6397 5.41472 18.0338 5.8832 18.3607V18.3538L5.89015 18.3607C7.27584 19.3023 8.81223 19.2405 8.81223 19.2405C9.07818 19.2298 9.96911 19.2405 10.9809 18.7611C12.103 18.2295 12.7419 17.4375 12.7419 17.4375C13.15 16.9643 13.4746 16.425 13.7016 15.8428C13.9606 15.1619 14.047 14.3453 14.047 14.0189V8.147C14.0818 8.16783 14.5442 8.47372 14.5442 8.47372C14.5442 8.47372 15.2105 8.90078 16.25 9.17889C16.9958 9.3768 18.0007 9.41846 18.0007 9.41846V6.57694C17.6486 6.61513 16.9337 6.50403 16.2018 6.13911Z" fill="black"/>
</svg>
