<svg width="16" height="17" viewBox="0 0 16 17" fill="none" xmlns="http://www.w3.org/2000/svg">
<path fill-rule="evenodd" clip-rule="evenodd" d="M7.60415 3.44806H8.42293C8.78431 5.5951 10.7053 7.37566 12.8 7.83267V8.64106C10.726 9.0708 8.76873 10.9292 8.42379 13.0481H7.60195C7.2299 10.915 5.30083 9.08285 3.19995 8.64056V7.8357C5.32339 7.32832 7.19208 5.63199 7.60415 3.44806ZM7.91234 3.82341C7.44376 5.88281 5.5715 7.59328 3.5753 8.12978V8.33886C5.56238 8.83312 7.47362 10.67 7.91394 12.6727H8.10853C8.54085 10.6366 10.4501 8.8365 12.4246 8.33889V8.13241C10.4411 7.63136 8.54164 5.83497 8.10915 3.82341H7.91234Z" fill="#A18D61"/>
</svg>
