<svg width="17" height="17" viewBox="0 0 17 17" fill="none" xmlns="http://www.w3.org/2000/svg">
<path fill-rule="evenodd" clip-rule="evenodd" d="M7.82632 3.44995H8.64509C9.00648 5.597 10.9275 7.37755 13.0221 7.83456V8.64295C10.9481 9.07269 8.99089 10.9311 8.64596 13.05H7.82412C7.45207 10.9169 5.523 9.08474 3.42212 8.64246V7.83759C5.54556 7.33021 7.41425 5.63388 7.82632 3.44995ZM8.13451 3.8253C7.66593 5.8847 5.79367 7.59517 3.79747 8.13167V8.34075C5.78455 8.83501 7.69578 10.6718 8.13611 12.6746H8.3307C8.76301 10.6385 10.6723 8.83839 12.6468 8.34078V8.13431C10.6632 7.63325 8.76381 5.83686 8.33132 3.8253H8.13451Z" fill="#A18D61"/>
</svg>
