<svg width="20" height="21" viewBox="0 0 20 21" fill="none" xmlns="http://www.w3.org/2000/svg">
<g clip-path="url(#clip0_1_17479)">
<path d="M19.8687 6.06016C19.8687 4.30234 18.5758 2.88828 16.9781 2.88828C14.814 2.78711 12.607 2.74805 10.3516 2.74805H9.64843C7.39843 2.74805 5.18749 2.78711 3.02343 2.88867C1.42968 2.88867 0.136712 4.31055 0.136712 6.06836C0.0390559 7.45859 -0.00235035 8.84922 -6.59855e-06 10.2398C-0.00391285 11.6305 0.040358 13.0224 0.132806 14.4156C0.132806 16.1734 1.42577 17.5992 3.01952 17.5992C5.29296 17.7047 7.62499 17.7516 9.99608 17.7477C12.3711 17.7555 14.6966 17.706 16.9726 17.5992C18.5703 17.5992 19.8633 16.1734 19.8633 14.4156C19.957 13.0211 20 11.6305 19.9961 10.2359C20.0049 8.84531 19.9625 7.45339 19.8687 6.06016ZM8.08593 14.0719V6.39609L13.75 10.232L8.08593 14.0719Z" fill="black"/>
</g>
<defs>
<clipPath id="clip0_1_17479">
<rect width="20" height="20" fill="white" transform="translate(0 0.248047)"/>
</clipPath>
</defs>
</svg>
