<svg width="17" height="17" viewBox="0 0 17 17" fill="none" xmlns="http://www.w3.org/2000/svg">
<path fill-rule="evenodd" clip-rule="evenodd" d="M7.82632 3.44805H8.64509C9.00648 5.59509 10.9275 7.37565 13.0221 7.83266V8.64105C10.9481 9.07079 8.99089 10.9292 8.64596 13.048H7.82412C7.45207 10.915 5.523 9.08284 3.42212 8.64055V7.83568C5.54556 7.32831 7.41425 5.63198 7.82632 3.44805ZM8.13451 3.8234C7.66593 5.8828 5.79367 7.59327 3.79747 8.12977V8.33884C5.78455 8.83311 7.69578 10.6699 8.13611 12.6727H8.3307C8.76301 10.6366 10.6723 8.83649 12.6468 8.33888V8.1324C10.6632 7.63135 8.76381 5.83496 8.33132 3.8234H8.13451Z" fill="#A18D61"/>
</svg>
