<svg width="160" height="163" viewBox="0 0 160 163" fill="none" xmlns="http://www.w3.org/2000/svg">
<path fill-rule="evenodd" clip-rule="evenodd" d="M84.1836 0.495997C81.0449 0.275092 86.5676 0.183054 91.2802 0.818156C91.8693 0.873382 92.7897 1.06668 93.839 1.28759C94.1556 1.35424 94.4856 1.41838 94.8222 1.4838L94.8223 1.48382C95.6012 1.6352 96.4154 1.79344 97.1802 2.00553L100.052 2.76027C100.465 2.86072 100.864 3.01224 101.239 3.2113C98.4672 2.40938 95.6442 1.79437 92.7897 1.37042C91.5541 1.16449 90.348 1.03227 89.0921 0.8946L88.6477 0.845768C87.8256 0.75501 86.9848 0.698313 86.1166 0.639757C85.4878 0.597357 84.8447 0.553982 84.1836 0.495997ZM155.223 58.8618C155.425 59.6534 155.545 60.132 155.618 60.4634C155.294 59.1556 155.016 58.1534 154.808 57.4031C154.574 56.5587 154.428 56.0334 154.403 55.7507C154.357 55.2169 154.624 55.5574 155.048 56.3214C155.607 57.3292 156.102 58.3714 156.53 59.4417C156.722 59.9051 156.915 60.3599 157.093 60.7799L157.093 60.7801C157.369 61.4279 157.609 61.9926 157.754 62.3779L158.38 64.6146C159.47 69.8426 160.013 75.17 160 80.5105C159.99 85.9129 159.453 91.3014 158.398 96.5998C158.969 94.0686 158.987 94.446 158.84 95.6793L158.564 97.8976C158.526 98.1261 158.484 98.3498 158.445 98.5625L158.445 98.5648L158.445 98.5658C158.351 99.0713 158.269 99.5145 158.269 99.8121C157.086 104.524 155.548 109.139 153.667 113.619C151.667 118.399 149.138 122.94 146.129 127.158L144.463 129.625C144.189 130.035 143.926 130.393 143.678 130.73C143.508 130.961 143.346 131.181 143.193 131.402C142.815 131.945 142.475 132.432 142.06 133.003C141.719 133.473 141.34 133.944 140.903 134.486C140.81 134.602 140.714 134.721 140.615 134.844C140.558 134.914 140.502 134.983 140.446 135.051C140.087 135.49 139.747 135.906 139.373 136.28C139.082 136.571 138.804 136.857 138.529 137.14L138.525 137.144L138.525 137.145L138.524 137.145L138.524 137.145L138.518 137.151C138.388 137.285 138.259 137.418 138.13 137.55C137.4 138.306 136.693 138.975 136.032 139.602L136.031 139.602L135.866 139.759C135.607 140.004 135.361 140.244 135.123 140.477C134.709 140.881 134.319 141.261 133.933 141.6C133.325 142.134 132.828 142.631 132.405 143.1C130.168 144.98 127.826 146.731 125.391 148.347C126.379 147.631 126.162 147.773 125.278 148.354C125.082 148.482 124.854 148.631 124.6 148.798C120.895 151.305 116.98 153.488 112.901 155.324C110.913 156.281 108.934 157.109 107.231 157.689C105.939 158.129 104.822 158.564 103.957 158.901L103.956 158.901C103.681 159.008 103.431 159.105 103.209 159.19L100.788 159.944C100.024 160.184 99.0667 160.395 98.1371 160.579C97.8598 160.634 97.5858 160.691 97.3205 160.746L97.3187 160.746L97.3185 160.746L97.3175 160.746L97.3161 160.747C96.6934 160.875 96.1186 160.994 95.6611 161.058C94.3449 161.233 93.9675 161.242 96.1858 160.764L96.9589 160.506C93.3587 161.425 89.6723 161.965 85.9597 162.117C82.2872 162.356 78.4489 162.301 73.7823 162.117C72.4477 162.006 71.113 161.868 69.7784 161.693C68.4438 161.518 67.1184 161.343 65.8021 161.067C65.8942 161.058 66.6121 161.15 67.4773 161.27L70.1006 161.5C71.5088 161.61 71.7113 161.61 66.9066 160.902C66.0875 160.736 65.1026 160.543 64.0533 160.359C63.4397 160.251 62.8073 160.105 62.1707 159.959L62.1695 159.959L62.1683 159.959L62.1671 159.958L62.1658 159.958C61.7153 159.854 61.2627 159.75 60.8133 159.659C59.7674 159.446 58.7641 159.165 57.8692 158.915L57.7667 158.886C57.4626 158.801 57.1706 158.723 56.8949 158.649L56.8946 158.649C56.336 158.499 55.8446 158.368 55.4564 158.232L53.4682 157.671C50.4952 156.622 48.1757 155.692 45.7182 154.615C42.8267 153.345 40.0305 151.869 37.3514 150.197C36.0099 149.389 36.3475 149.633 37.0507 150.141L37.2041 150.252C37.7005 150.612 38.3632 151.017 38.7821 151.273C39.0389 151.43 39.204 151.532 39.1831 151.532L41.2817 152.691L43.0489 153.612L44.5584 154.394L46.0219 155.112C46.3881 155.353 46.2877 155.354 45.8159 155.175C45.8985 155.213 45.987 155.253 46.0773 155.295L45.8274 155.185L45.7472 155.149L45.7032 155.131L45.6537 155.112C44.6351 154.707 43.6395 154.246 42.6715 153.731C40.4016 152.625 38.2118 151.36 36.118 149.948C35.2344 149.35 35.3172 149.313 35.5105 149.35C35.5404 149.356 35.5737 149.363 35.6071 149.371C35.7894 149.413 35.9767 149.457 35.6578 149.184C35.5313 149.045 35.3136 148.884 34.9897 148.645C34.8422 148.536 34.6726 148.411 34.4796 148.264C33.8629 147.795 32.9793 147.141 31.7183 146.221C31.6197 146.175 31.3484 145.991 31.1027 145.825C30.7066 145.558 30.377 145.335 30.9451 145.806L28.4507 143.873L26.3153 142.033C25.6158 141.425 24.9899 140.818 24.3732 140.192C24.1265 139.941 23.8782 139.698 23.6309 139.456L23.6305 139.456L23.6302 139.455L23.6298 139.455L23.6295 139.455C23.2591 139.092 22.8908 138.731 22.5323 138.351C19.7385 135.438 17.0994 132.381 14.6258 129.193C13.7663 128.057 12.9675 126.878 12.2326 125.658C12.0227 125.301 11.8151 124.964 11.6052 124.623L11.6043 124.622L11.6039 124.621L11.6038 124.621L11.6036 124.62L11.6034 124.62C11.2341 124.02 10.8573 123.408 10.447 122.657C11.846 124.82 11.7908 124.452 11.3122 123.578C10.8848 122.791 10.5037 121.979 10.1709 121.148C9.43451 119.859 8.5969 118.221 7.80532 116.362L7.67862 116.064L7.54355 115.748C6.82102 114.056 6.03877 112.224 5.36617 110.305C3.87464 106.112 2.64502 101.829 1.68442 97.4834C2.1377 99.7018 2.08121 99.4499 1.91564 98.7114C1.73156 97.8903 1.41261 96.4678 1.50953 97.1704C1.61942 97.8182 1.77293 98.4624 1.92665 99.1075C2.01756 99.489 2.10855 99.8708 2.19065 100.254C2.85495 103.347 3.70951 106.397 4.74946 109.385C5.55168 111.631 6.41912 113.754 7.01989 115.225L7.01999 115.225C7.34973 116.032 7.59912 116.643 7.71328 116.969C6.27136 113.919 6.22333 114.014 6.19853 114.063C6.19721 114.065 6.19595 114.068 6.19456 114.07C6.16763 114.106 6.15821 114.089 5.90161 113.636L5.88161 113.6C5.65209 113.195 5.34625 112.414 4.80024 111.02L4.80021 111.02C4.68934 110.737 4.56857 110.429 4.43652 110.093C3.83145 108.476 3.86807 108.386 3.91032 108.281C3.9407 108.206 3.97399 108.123 3.7738 107.461C3.86029 107.484 3.62534 106.691 3.34496 105.744L3.3449 105.744L3.34486 105.744C3.17766 105.18 2.99432 104.561 2.85336 104.028C2.76546 103.764 2.6758 103.502 2.58629 103.24L2.58627 103.24L2.58625 103.24L2.58623 103.24L2.58618 103.24C2.38517 102.653 2.18484 102.067 2.00655 101.469L1.27942 98.8825C1.51426 100.17 2.05266 102.234 2.40322 103.579C2.76715 104.975 2.92865 105.594 2.33792 103.761L2.31822 103.689C2.08114 102.823 1.76943 101.684 1.51872 100.493L1.46361 100.232C1.2211 99.0811 0.962646 97.8549 0.791591 96.8115C0.753308 96.578 0.715024 96.3496 0.677981 96.1287L0.677868 96.128C0.536838 95.2868 0.413824 94.5531 0.377383 94.0502C0.331361 93.4151 0.340582 93.1573 0.423422 93.4979C0.484238 93.554 0.81373 95.1272 1.09165 96.4541L1.09167 96.4542L1.0917 96.4543C1.36058 97.738 1.58117 98.7912 1.46349 98.0173C1.38964 97.5315 1.30877 97.0475 1.22793 96.5637C1.04681 95.4797 0.865801 94.3964 0.763979 93.2954C0.717861 92.7968 0.663617 92.2999 0.609447 91.8037L0.609431 91.8036C0.490622 90.7154 0.372166 89.6304 0.340558 88.5367L0.128875 87.6899C0.112607 87.4687 0.0917367 87.2498 0.0715508 87.038L0.0715484 87.038C0.0346296 86.6506 0 86.2873 0 85.9779V84.5789V82.6551C0.00920438 81.7255 0.101263 81.4954 0.101263 81.8268C0.15776 82.1173 0.191254 82.8307 0.239758 83.8638C0.301883 85.1871 0.388632 87.0348 0.57988 89.1903C0.573003 89.768 0.612371 90.3405 0.651914 90.9156L0.651919 90.9157C0.665297 91.1102 0.678695 91.3051 0.690329 91.5005C0.781747 92.5365 0.950988 93.5642 1.19659 94.5748C1.28361 94.8359 1.3135 94.817 1.34477 94.7972C1.35319 94.7919 1.36171 94.7865 1.37147 94.7865L1.91453 97.6767C1.91865 97.7282 1.91631 97.7544 1.91402 97.78C1.90608 97.8685 1.89876 97.9502 2.16304 99.0574C2.54962 100.705 2.62327 100.981 2.98224 102.168C2.64168 101.027 2.33793 99.6464 2.0618 98.2658C1.86379 97.2757 1.6989 96.2714 1.54339 95.3242L1.54338 95.3242L1.54336 95.3241L1.54335 95.324L1.54333 95.3239L1.5433 95.3237C1.48198 94.9502 1.42212 94.5856 1.36226 94.2342C1.06772 91.7491 0.911237 89.9358 1.06771 90.2764C1.14622 90.8123 1.21713 91.4456 1.29312 92.1243C1.42204 93.2758 1.56559 94.5579 1.78565 95.7162C1.91894 96.4332 1.90535 96.2712 1.89156 96.1068C1.87774 95.9421 1.86372 95.775 1.99736 96.4893C2.14309 97.646 2.36091 98.7125 2.62407 100.001L2.62409 100.001L2.63247 100.042C2.966 101.665 3.38694 103.269 3.89346 104.847C4.72186 107.194 5.17286 108.409 6.90329 112.845C7.15712 113.462 7.38077 114.031 7.59453 114.575L7.59478 114.575L7.59481 114.575C8.01654 115.649 8.39984 116.624 8.90065 117.669C9.81224 119.718 10.8481 121.71 12.0025 123.633L12.3238 124.103C13.2497 125.457 14.0758 126.665 14.9019 127.747L14.9755 127.845C15.4103 128.419 15.8382 128.984 16.2826 129.524L17.6908 131.19C19.5593 133.408 21.5382 135.58 24.2996 138.388L25.8091 139.906C26.2134 140.124 25.599 139.513 24.5248 138.444L24.5244 138.444C23.6911 137.615 22.5811 136.51 21.4554 135.304C19.3501 133.102 17.4436 130.718 15.7579 128.18C15.224 127.49 14.5705 126.615 13.917 125.695L11.9473 122.694L10.2721 119.859C9.9398 119.26 9.67208 118.73 9.46567 118.321C9.38048 118.152 9.30574 118.004 9.24121 117.88C8.7994 116.84 8.35757 115.791 7.9894 114.723C9.45991 117.881 10.1732 118.96 11.0183 120.239L11.0185 120.239C11.3952 120.81 11.7982 121.419 12.3063 122.271C12.5204 122.621 12.7664 123.032 13.0259 123.466L13.0263 123.467L13.0267 123.467L13.0277 123.469C13.5932 124.414 14.2227 125.466 14.727 126.229C15.4634 127.342 15.7947 127.922 14.9479 126.836C16.1813 128.64 18.51 131.641 18.2431 131.079C19.274 132.396 20.3141 133.647 21.391 134.761C21.7857 135.169 22.1693 135.579 22.5481 135.983C23.2028 136.682 23.8432 137.366 24.5021 138.001C26.4595 139.949 28.518 141.792 30.669 143.524C34.9779 147.05 39.6934 150.047 44.7149 152.452C47.4854 153.823 49.3447 154.689 50.5229 155.213C51.1202 155.425 51.6773 155.736 52.1704 156.134C51.9779 156.134 50.7662 155.645 49.9169 155.303L49.9165 155.303C49.1419 154.991 48.669 154.801 49.5472 155.213C49.9315 155.354 50.3619 155.514 50.8265 155.686L50.8268 155.687C52.9216 156.466 55.7117 157.503 58.1073 158.159C59.5616 158.6 60.8686 158.904 61.7062 159.079C62.5438 159.254 62.9396 159.309 62.6266 159.144L60.7857 158.683C60.8486 158.695 61.0118 158.728 61.2082 158.768C61.7487 158.878 62.5408 159.039 62.1876 158.939C64.1256 159.421 65.6211 159.797 63.7127 159.53C67.5449 160.186 67.3831 160.106 67.1411 159.986C66.9587 159.895 66.7308 159.782 68.1308 159.944C74.7015 160.889 81.3637 161.019 87.9663 160.331C94.4608 159.592 100.846 158.093 106.992 155.867C108.087 155.499 107.765 155.738 106.734 156.115C106.474 156.21 106.175 156.325 105.847 156.45L105.841 156.453L105.84 156.453C104.867 156.826 103.64 157.295 102.417 157.652C101.573 157.899 100.772 158.151 100.116 158.357C99.5001 158.551 99.0119 158.704 98.7354 158.775L98.6868 158.79L98.6462 158.801C98.4807 158.849 98.4806 158.849 98.7354 158.849C99.4026 158.738 100.063 158.59 100.714 158.407L101.153 158.266L101.153 158.266C102.381 157.871 103.401 157.543 104.341 157.155C104.747 156.988 105.148 156.837 105.552 156.685L105.553 156.684L105.554 156.684L105.554 156.684L105.555 156.684L105.555 156.684L105.555 156.684L105.556 156.683L105.556 156.683L105.556 156.683L105.557 156.683C106.195 156.443 106.839 156.2 107.526 155.885C107.976 155.678 108.457 155.481 108.976 155.267C109.752 154.949 110.611 154.596 111.576 154.127C112.413 153.777 113.343 153.382 114.337 152.857C114.743 152.642 115.173 152.426 115.623 152.2C116.273 151.873 116.967 151.524 117.696 151.127C118.2 150.795 118.807 150.409 119.493 149.973C121.776 148.521 124.924 146.519 127.969 144.168C131.595 141.436 134.922 138.326 137.891 134.89C140.571 131.941 143.032 128.8 145.254 125.492C147.274 122.387 149.132 119.179 150.823 115.883C151.799 113.646 152.342 112.394 152.793 111.18C152.873 110.963 152.952 110.754 153.03 110.547C153.391 109.589 153.74 108.663 154.164 107.203C154.723 105.615 155.038 104.618 155.244 103.964L155.244 103.964C155.377 103.542 155.465 103.263 155.545 103.061C155.621 102.867 155.68 102.74 155.738 102.615C155.835 102.408 155.927 102.209 156.088 101.727L155.554 103.926C155.682 103.51 155.8 103.132 155.911 102.778L155.912 102.777C156.194 101.877 156.429 101.129 156.64 100.291C157.066 98.7755 157.413 97.2394 157.68 95.6885L157.874 94.0226C157.878 93.967 157.883 93.9113 157.888 93.8556L157.905 93.6628C157.944 93.2277 157.984 92.7893 157.984 92.3566C158.026 92.0501 158.078 91.7324 158.132 91.4033L158.132 91.403L158.132 91.4027L158.132 91.4022L158.132 91.4021C158.232 90.7925 158.338 90.1442 158.398 89.4572C158.45 88.8605 158.505 88.2434 158.561 87.6124L158.561 87.6064L158.567 87.54L158.568 87.5378L158.569 87.5183C158.61 87.0602 158.651 86.595 158.693 86.1252C158.803 83.8149 158.868 81.4034 158.748 79.2127C158.599 76.9533 158.531 77.4276 158.474 77.8247V77.8248C158.443 78.0407 158.415 78.2338 158.38 77.9517C158.302 76.99 158.247 76.0413 158.196 75.1632C158.151 74.3856 158.11 73.6634 158.058 73.0366C157.963 72.2671 157.92 71.4922 157.929 70.7171L158.021 71.435C158.315 72.4935 157.386 65.9676 156.613 63.2063C156.363 62.0264 156.081 61.1762 155.871 60.5413L155.871 60.541L155.871 60.5408L155.87 60.5363C155.802 60.3312 155.742 60.1487 155.692 59.9848C155.577 59.5943 155.42 59.2177 155.223 58.8618ZM62.1876 158.939L62.0643 158.908L61.5594 158.782C61.4276 158.75 61.2952 158.716 61.1631 158.683C61.7358 158.821 62.0494 158.9 62.1876 158.939ZM51.6799 157.527L51.3685 157.431C51.204 157.431 51.2844 157.472 51.3704 157.516C51.3836 157.522 51.397 157.529 51.4096 157.536C51.4252 157.544 51.4396 157.552 51.4513 157.56C51.5341 157.615 51.4513 157.615 50.7334 157.321C50.5751 157.256 50.3761 157.18 50.1339 157.088L50.1338 157.088L50.1334 157.088C49.2767 156.762 47.8792 156.231 45.8274 155.241C47.8673 156.127 46.8988 155.672 46.0773 155.295L46.1119 155.31C47.3243 155.84 48.5389 156.371 49.7853 156.814L51.6799 157.527ZM51.6799 157.527L53.9089 158.214L51.7919 157.569L51.6799 157.527ZM51.0718 154.931L51.0737 154.932L51.0755 154.933L51.0756 154.933L51.0758 154.933C51.626 155.165 52.1808 155.399 52.75 155.611C52.4387 155.5 52.1564 155.402 51.8757 155.305L51.8752 155.305C51.0642 155.025 50.2674 154.749 48.8282 154.155C49.1675 154.279 49.516 154.38 49.864 154.48L50.0222 154.526L50.1306 154.558L50.2071 154.58L50.2917 154.606C50.5482 154.711 50.8048 154.819 51.0624 154.928L51.0631 154.928L51.0638 154.928L51.0645 154.928L51.0663 154.929L51.0682 154.93L51.07 154.931L51.0718 154.931ZM53.099 155.738C52.9781 155.693 52.8621 155.651 52.75 155.611C52.8657 155.654 52.982 155.697 53.099 155.738ZM59.0497 159.323C58.8467 159.276 58.6435 159.229 58.4388 159.188C59.4849 159.502 60.3905 159.709 61.2028 159.894L61.3382 159.925L63.6945 160.514C65.2225 160.753 64.8543 160.652 63.805 160.431L59.9483 159.51C59.6468 159.461 59.3485 159.392 59.0497 159.323ZM2.21323 95.4115L2.6146 97.7039L3.15766 100.042L3.06564 99.3883C2.91705 98.5519 2.80958 98.1307 2.69627 97.6866C2.56646 97.1778 2.42899 96.639 2.21323 95.4115ZM60.6752 160.524C63.0039 161.104 65.3602 161.518 67.7258 161.895C67.3708 161.819 67.0159 161.717 66.664 161.616C66.5048 161.57 66.3463 161.524 66.1886 161.481C64.7527 161.205 63.9335 161.058 63.4273 160.984C63.1969 160.918 62.9584 160.884 62.7186 160.883C62.7096 160.884 62.7012 160.884 62.6931 160.885L62.6781 160.887L62.6705 160.888C62.5475 160.904 62.3913 160.924 60.6752 160.524ZM74.942 3.68169C75.5799 3.61731 76.2253 3.60504 76.8687 3.59281C77.2371 3.58581 77.6049 3.57882 77.9702 3.56206C78.4619 3.53951 78.9712 3.51032 79.4073 3.48533C79.861 3.45933 80.2353 3.43788 80.4278 3.43318C80.581 3.42945 80.6402 3.41509 80.5825 3.39628H82.1769C82.5166 3.41343 82.8571 3.38558 83.1894 3.31344C83.8965 3.35763 84.6349 3.4254 85.3867 3.49438C86.0442 3.55471 86.7118 3.61597 87.3774 3.66321C88.3311 3.73089 89.3013 3.8685 90.2604 4.00455C90.736 4.07202 91.209 4.1391 91.6759 4.19708C92.8321 4.34066 93.9511 4.5711 94.9972 4.78652C95.2252 4.83348 95.4498 4.87973 95.6706 4.92421C96.6744 5.12647 97.5868 5.37753 98.3879 5.59796C98.5711 5.64836 98.7484 5.69716 98.9197 5.74341C103.43 6.71756 107.813 8.20933 111.981 10.1891C116.491 12.3313 120.844 14.792 125.005 17.5526C129.103 20.4595 132.941 23.7179 136.474 27.2909C139.922 30.7462 143.037 34.5182 145.779 38.557C146.598 39.4775 146.893 39.5603 146.626 38.7871C146.383 38.1563 146.1 37.5415 145.779 36.9463C145.31 36.1455 144.693 35.1238 143.911 33.872C140.804 29.3401 137.205 25.1666 133.178 21.4277C128.39 16.9698 123.055 13.1378 117.301 10.0234C116.933 9.85375 116.566 9.67798 116.195 9.50094C115.36 9.10177 114.512 8.69612 113.619 8.33905C113.207 8.17439 112.791 8.00033 112.367 7.82318C111.465 7.4458 110.528 7.05438 109.532 6.70986L107.544 5.87226L105.519 5.13592C105.289 5.05377 105.058 4.96838 104.827 4.88271C104.384 4.71878 103.938 4.55384 103.485 4.40876L101.423 3.77366C97.1552 2.58365 92.791 1.77056 88.3807 1.34372C87.6275 1.26512 86.8789 1.22381 86.145 1.1833C85.8475 1.16688 85.5524 1.15059 85.2604 1.13201L83.7785 1.04917H82.361H79.747L77.5103 1.19644C76.9133 1.19644 76.5427 1.18438 76.2257 1.17407C75.7121 1.15735 75.3393 1.14521 74.3716 1.19644L71.6103 1.44495L68.2323 1.88677C67.4441 1.97435 66.6644 2.12571 65.9134 2.27149C65.5594 2.3402 65.2118 2.40768 64.8727 2.46665L63.3908 2.77039L62.139 3.11094L58.4573 3.84731C58.2272 3.89333 58.0138 3.93377 57.7977 3.97473C57.279 4.07305 56.7447 4.17433 55.926 4.36275C51.4488 5.79766 47.0833 7.56045 42.865 9.63685C38.6572 11.7174 34.6726 14.2217 30.973 17.1108C30.1354 17.6539 29.1321 18.4086 27.9815 19.3014C26.831 20.1943 25.6897 21.2712 24.5483 22.4033C24.32 22.6298 24.0902 22.8563 23.8604 23.0828C22.9415 23.9884 22.0226 24.8941 21.1979 25.7998L19.6608 27.3737C19.1914 27.8891 18.7403 28.3586 18.3169 28.782C15.3084 32.1834 12.6215 35.8563 10.2907 39.7536C8.8813 42.1127 7.65061 44.5741 6.60896 47.1171C6.68974 46.7728 6.79433 46.4345 6.92193 46.1046C7.01397 45.8377 6.79307 45.9574 6.00149 47.743L5.4308 49.0868L5.1915 49.6575C5.15648 49.7355 5.12575 49.8154 5.09945 49.8968C4.93377 50.2466 4.17902 52.069 3.40585 54.0756L2.36575 57.1499C2.11752 57.8591 1.94581 58.5683 1.81691 59.1007C1.77852 59.2592 1.74393 59.4021 1.71225 59.5246C1.48214 60.445 1.43611 60.7488 1.53736 60.5463C2.23689 58.3372 2.4578 57.9322 2.37496 58.6594C2.33616 59 2.21856 59.5851 2.06383 60.355C1.88827 61.2285 1.6649 62.3399 1.45452 63.6021L1.14158 65.443C1.0816 65.8247 1.03454 66.2161 0.987001 66.6115C0.954299 66.8835 0.921372 67.1573 0.883858 67.4312C0.791814 68.1031 0.708947 68.7934 0.626108 69.4837L0.460436 71.5455L0.313162 73.5521L0.257938 75.439C0.257938 75.8553 0.247911 76.2582 0.238322 76.6435C0.22035 77.3657 0.203921 78.0259 0.257938 78.5961V81.8176C0.357704 77.4234 0.757507 73.0411 1.45452 68.7014C1.28169 69.368 1.46209 68.2317 1.6404 67.1085C1.6615 66.9755 1.68258 66.8428 1.70303 66.7132C1.80428 66.0965 1.89632 65.5535 1.92393 65.4062C1.95154 65.2589 1.84111 65.4798 1.65702 66.4279L1.65683 66.429C1.52804 67.1834 1.39924 67.9378 1.27964 68.6922C1.22896 69.0118 1.16177 69.3777 1.09136 69.7612C0.995521 70.2831 0.893706 70.8375 0.81942 71.3522C0.776462 71.6499 0.72941 71.9475 0.682358 72.2452C0.588271 72.8403 0.494183 73.4355 0.432824 74.0307C0.492608 73.2004 0.619512 72.1783 0.761633 71.0336C0.816441 70.5922 0.873511 70.1325 0.929868 69.6586L1.3993 67.0446C1.47294 66.5936 1.55576 66.1242 1.6386 65.6915L1.95154 64.3477L2.54985 61.7429L3.19414 59.3865C3.36503 58.7072 3.54584 58.0894 3.70435 57.5478C3.88733 56.9225 4.0406 56.3988 4.11458 55.9993C5.23586 52.8342 6.63744 49.7753 8.30259 46.8594C10.2603 42.9012 12.561 39.1222 15.1783 35.5656C17.5479 32.3215 20.1146 29.2261 22.8639 26.2968C27.5503 21.5814 29.5577 20.2575 31.102 19.2391C31.5201 18.9634 31.9042 18.71 32.2984 18.4178L34.9677 16.4757C35.5856 16.0368 36.2433 15.6197 36.8954 15.2061C37.2828 14.9605 37.6681 14.7161 38.0419 14.4691L42.5337 11.7815C44.7925 10.6377 47.123 9.64159 49.5106 8.79927C49.6734 8.747 49.8322 8.69592 49.9874 8.64598C51.4996 8.15944 52.6785 7.78012 54.0392 7.44623C55.5537 6.94505 56.6234 6.635 57.469 6.38989C58.0366 6.22536 58.5033 6.09009 58.9359 5.94591C60.0128 5.58694 60.924 5.33843 62.7465 4.8598C67.9838 3.83811 67.4683 4.11422 67.1186 4.26149C67.1101 4.26507 67.1017 4.26858 67.0935 4.272C66.7649 4.40927 66.7589 4.41174 72.6412 3.79209C73.1213 3.76476 73.618 3.72419 74.1222 3.68301C74.6201 3.64234 75.1252 3.60108 75.6288 3.5714C75.3994 3.60501 75.1705 3.64178 74.942 3.68169Z" fill="white" fill-opacity="0.5"/>
</svg>
