<svg width="161" height="163" viewBox="0 0 161 163" fill="none" xmlns="http://www.w3.org/2000/svg">
<path fill-rule="evenodd" clip-rule="evenodd" d="M84.4058 0.415919C81.2671 0.195014 86.7897 0.102975 91.5024 0.738078C92.0914 0.793304 93.0119 0.986605 94.0612 1.20751C94.3778 1.27416 94.7078 1.33831 95.0444 1.40372L95.0445 1.40374C95.8234 1.55512 96.6376 1.71336 97.4024 1.92545L100.274 2.68019C100.687 2.78064 101.086 2.93216 101.462 3.13122C98.6893 2.3293 95.8664 1.71429 93.0119 1.29035C91.7763 1.08441 90.5701 0.952189 89.3143 0.814522L88.8699 0.76569C88.0477 0.674932 87.207 0.618235 86.3387 0.559679C85.71 0.517279 85.0668 0.473904 84.4058 0.415919ZM155.445 58.7817C155.647 59.5733 155.767 60.0519 155.841 60.3833C155.516 59.0755 155.238 58.0733 155.03 57.323C154.796 56.4786 154.65 55.9533 154.626 55.6707C154.58 55.1368 154.847 55.4774 155.27 56.2413C155.829 57.2492 156.324 58.2914 156.752 59.3616C156.944 59.825 157.137 60.2799 157.316 60.6999L157.316 60.7001C157.591 61.3478 157.831 61.9126 157.976 62.2978L158.602 64.5345C159.693 69.7625 160.235 75.0899 160.222 80.4304C160.212 85.8328 159.675 91.2213 158.62 96.5197C159.191 93.9885 159.209 94.3659 159.062 95.5993L158.786 97.8175C158.748 98.046 158.707 98.2697 158.667 98.4824L158.667 98.4848L158.667 98.4857C158.573 98.9913 158.492 99.4344 158.492 99.732C157.308 104.444 155.77 109.059 153.889 113.539C151.889 118.319 149.361 122.86 146.351 127.078L144.685 129.545C144.412 129.955 144.148 130.313 143.9 130.65C143.73 130.881 143.568 131.101 143.415 131.321C143.037 131.865 142.697 132.352 142.283 132.923C141.941 133.393 141.562 133.864 141.125 134.406C141.032 134.522 140.936 134.641 140.838 134.764C140.78 134.834 140.724 134.903 140.668 134.971C140.309 135.41 139.969 135.826 139.595 136.2C139.304 136.491 139.026 136.777 138.752 137.06L138.747 137.064L138.747 137.065L138.746 137.065L138.746 137.065L138.74 137.071C138.61 137.205 138.481 137.338 138.352 137.47C137.622 138.226 136.916 138.895 136.254 139.522L136.253 139.522L136.088 139.679C135.83 139.924 135.583 140.164 135.345 140.396C134.931 140.801 134.541 141.181 134.155 141.52C133.548 142.054 133.051 142.551 132.627 143.02C130.39 144.9 128.048 146.651 125.613 148.267C126.601 147.55 126.384 147.693 125.5 148.274C125.304 148.402 125.077 148.551 124.822 148.718C121.117 151.225 117.203 153.408 113.123 155.244C111.135 156.201 109.156 157.029 107.453 157.609C106.161 158.049 105.045 158.484 104.179 158.821L104.179 158.821C103.903 158.928 103.653 159.025 103.431 159.109L101.01 159.864C100.246 160.104 99.2889 160.315 98.3593 160.499C98.082 160.554 97.808 160.611 97.5426 160.666L97.5409 160.666L97.5407 160.666L97.5397 160.666L97.5382 160.666C96.9156 160.795 96.3408 160.914 95.8833 160.978C94.5671 161.153 94.1897 161.162 96.4079 160.683L97.1811 160.426C93.5809 161.345 89.8944 161.884 86.1819 162.036C82.5093 162.276 78.6711 162.221 74.0045 162.036C72.6699 161.926 71.3352 161.788 70.0006 161.613C68.6659 161.438 67.3405 161.263 66.0243 160.987C66.1163 160.978 66.8343 161.07 67.6995 161.19L70.3227 161.42C71.731 161.53 71.9335 161.53 67.1288 160.822C66.3096 160.656 65.3247 160.463 64.2755 160.278C63.6619 160.171 63.0294 160.025 62.3928 159.879L62.3917 159.879L62.3905 159.879L62.3893 159.878L62.3879 159.878C61.9375 159.774 61.4849 159.67 61.0355 159.579C59.9895 159.366 58.9862 159.085 58.0914 158.834L57.9889 158.806C57.6848 158.721 57.3927 158.642 57.1171 158.569L57.1168 158.569C56.5582 158.419 56.0668 158.288 55.6786 158.152L53.6904 157.591C50.7174 156.541 48.3979 155.612 45.9403 154.535C43.0488 153.265 40.2527 151.789 37.5736 150.117C36.2321 149.308 36.5697 149.553 37.2728 150.061L37.4263 150.172C37.9227 150.531 38.5854 150.937 39.0042 151.193C39.261 151.35 39.4262 151.451 39.4052 151.451L41.5038 152.611L43.2711 153.532L44.7806 154.314L46.2441 155.032C46.6103 155.273 46.5099 155.274 46.038 155.095C46.1206 155.132 46.2092 155.173 46.2995 155.214L46.0496 155.105L45.9693 155.068L45.9254 155.051L45.8759 155.032C44.8573 154.627 43.8617 154.166 42.8937 153.651C40.6238 152.544 38.4339 151.28 36.3402 149.868C35.4566 149.27 35.5394 149.233 35.7327 149.27C35.7626 149.276 35.7959 149.283 35.8293 149.291C36.0116 149.333 36.1989 149.377 35.88 149.104C35.7535 148.965 35.5358 148.804 35.2119 148.565C35.0644 148.456 34.8948 148.331 34.7018 148.184C34.0851 147.714 33.2015 147.061 31.9405 146.141C31.8418 146.095 31.5706 145.911 31.3249 145.745C30.9288 145.478 30.5992 145.255 31.1673 145.726L28.6729 143.793L26.5375 141.953C25.838 141.345 25.2121 140.738 24.5954 140.112C24.3486 139.861 24.1004 139.618 23.8531 139.376L23.8527 139.376L23.8524 139.375L23.852 139.375L23.8517 139.375C23.4813 139.012 23.1129 138.651 22.7545 138.271C19.9607 135.358 17.3216 132.301 14.8479 129.112C13.9885 127.977 13.1897 126.797 12.4548 125.578C12.2448 125.221 12.0373 124.884 11.8274 124.543L11.8265 124.542L11.8261 124.541L11.8259 124.541L11.8257 124.54L11.8255 124.54C11.4562 123.94 11.0795 123.328 10.6691 122.577C12.0682 124.74 12.013 124.372 11.5344 123.498C11.1069 122.711 10.7259 121.899 10.393 121.068C9.65667 119.779 8.81907 118.141 8.02749 116.282L7.90078 115.984L7.76572 115.668C7.04319 113.976 6.26094 112.144 5.58834 110.225C4.09681 106.031 2.86719 101.749 1.90659 97.4033C2.35986 99.6218 2.30338 99.3698 2.13781 98.6314C1.95372 97.8103 1.63478 96.3877 1.7317 97.0904C1.84159 97.7382 1.9951 98.3823 2.14882 99.0274C2.23973 99.4089 2.33072 99.7907 2.41282 100.174C3.07712 103.267 3.93168 106.317 4.97163 109.305C5.77385 111.551 6.64129 113.674 7.24205 115.145L7.24216 115.145C7.57189 115.952 7.82128 116.563 7.93544 116.889C6.49353 113.839 6.4455 113.934 6.4207 113.983C6.41938 113.985 6.41812 113.988 6.41673 113.99C6.3898 114.026 6.38038 114.009 6.12378 113.556L6.10378 113.52C5.87426 113.115 5.56842 112.334 5.02241 110.94L5.02238 110.94C4.91151 110.657 4.79074 110.349 4.65869 110.013C4.05362 108.396 4.09024 108.305 4.13249 108.201C4.16287 108.126 4.19616 108.043 3.99597 107.381C4.08245 107.404 3.84751 106.611 3.56713 105.664L3.56707 105.664L3.56703 105.664C3.39983 105.099 3.21649 104.481 3.07553 103.948C2.98763 103.684 2.89797 103.422 2.80845 103.16L2.80843 103.16L2.80841 103.16L2.8084 103.16L2.80835 103.16C2.60734 102.573 2.40701 101.987 2.22872 101.389L1.50159 98.8024C1.73643 100.089 2.27483 102.154 2.62539 103.499C2.98932 104.894 3.15081 105.514 2.56009 103.681L2.54039 103.609C2.30331 102.743 1.9916 101.604 1.74089 100.413L1.68578 100.152C1.44327 99.001 1.18481 97.7748 1.01376 96.7314C0.975476 96.4979 0.937192 96.2695 0.900149 96.0486L0.900036 96.0479C0.759006 95.2067 0.635992 94.473 0.599551 93.9701C0.553529 93.335 0.56275 93.0773 0.64559 93.4178C0.706406 93.474 1.0359 95.0471 1.31382 96.374L1.31384 96.3741L1.31387 96.3742C1.58274 97.6579 1.80334 98.7111 1.68566 97.9372C1.61181 97.4514 1.53094 96.9675 1.4501 96.4836C1.26898 95.3996 1.08797 94.3163 0.986147 93.2153C0.940029 92.7167 0.885785 92.2198 0.831615 91.7237L0.831599 91.7235C0.71279 90.6353 0.594334 89.5503 0.562726 88.4566L0.351043 87.6099C0.334775 87.3886 0.313905 87.1697 0.293719 86.9579L0.293716 86.9579C0.256798 86.5706 0.222168 86.2073 0.222168 85.8978V84.4988V82.5751C0.231372 81.6454 0.323431 81.4153 0.323431 81.7467C0.379928 82.0372 0.413422 82.7507 0.461926 83.7838C0.524051 85.107 0.6108 86.9548 0.802048 89.1102C0.795171 89.6879 0.834539 90.2604 0.874082 90.8355L0.874087 90.8356C0.887465 91.0302 0.900863 91.225 0.912497 91.4205C1.00391 92.4565 1.17316 93.4841 1.41875 94.4947C1.50578 94.7558 1.53566 94.7369 1.56694 94.7171C1.57536 94.7118 1.58388 94.7064 1.59364 94.7064L2.13669 97.5966C2.14082 97.6482 2.13848 97.6743 2.13618 97.6999C2.12825 97.7885 2.12093 97.8702 2.3852 98.9773C2.77179 100.625 2.84544 100.901 3.20441 102.088C2.86384 100.947 2.5601 99.5663 2.28397 98.1857C2.08596 97.1956 1.92107 96.1913 1.76556 95.2442L1.76554 95.2441L1.76553 95.244L1.76552 95.2439L1.7655 95.2438L1.76547 95.2436C1.70415 94.8701 1.64429 94.5055 1.58443 94.1542C1.28989 91.669 1.1334 89.8557 1.28988 90.1963C1.36838 90.7322 1.4393 91.3655 1.51528 92.0442C1.64421 93.1958 1.78776 94.4779 2.00782 95.6361C2.14111 96.3531 2.12752 96.1911 2.11373 96.0268C2.09991 95.862 2.08589 95.695 2.21953 96.4092C2.36525 97.5659 2.58308 98.6325 2.84624 99.921L2.84626 99.9211L2.85464 99.9621C3.18817 101.585 3.60911 103.189 4.11563 104.767C4.94403 107.114 5.39503 108.329 7.12545 112.765C7.37929 113.381 7.60294 113.951 7.8167 114.495L7.81695 114.495L7.81698 114.495C8.23871 115.569 8.622 116.544 9.12282 117.589C10.0344 119.638 11.0703 121.63 12.2247 123.553L12.5459 124.023C13.4719 125.377 14.298 126.585 15.1241 127.667L15.1977 127.765C15.6325 128.339 16.0604 128.904 16.5047 129.444L17.913 131.11C19.7815 133.328 21.7604 135.5 24.5217 138.308L26.0313 139.826C26.4356 140.044 25.8212 139.433 24.7469 138.364L24.7465 138.364C23.9132 137.535 22.8033 136.43 21.6776 135.224C19.5723 133.022 17.6657 130.638 15.9801 128.1C15.4462 127.41 14.7927 126.535 14.1392 125.615L12.1695 122.614L10.4943 119.779C10.162 119.18 9.89425 118.649 9.68783 118.241C9.60265 118.072 9.52791 117.924 9.46337 117.8C9.02156 116.76 8.57974 115.711 8.21156 114.643C9.68208 117.801 10.3953 118.88 11.2404 120.159L11.2406 120.159C11.6174 120.729 12.0204 121.339 12.5284 122.191C12.7426 122.541 12.9885 122.952 13.2481 123.386L13.2485 123.386L13.2489 123.387L13.2499 123.389C13.8154 124.334 14.4449 125.386 14.9492 126.149C15.6855 127.262 16.0169 127.842 15.1701 126.756C16.4035 128.56 18.7322 131.561 18.4653 130.999C19.4961 132.316 20.5363 133.567 21.6132 134.681C22.0079 135.089 22.3915 135.499 22.7703 135.903C23.425 136.602 24.0654 137.285 24.7242 137.921C26.6816 139.869 28.7401 141.712 30.8912 143.444C35.2001 146.97 39.9156 149.967 44.9371 152.372C47.7076 153.743 49.5669 154.609 50.745 155.133C51.3424 155.345 51.8995 155.656 52.3926 156.054C52.2001 156.054 50.9883 155.565 50.1391 155.223L50.1387 155.223C49.364 154.911 48.8912 154.72 49.7694 155.133C50.1537 155.274 50.5841 155.434 51.0487 155.606L51.049 155.606C53.1437 156.386 55.9339 157.423 58.3294 158.079C59.7837 158.52 61.0907 158.824 61.9283 158.999C62.7659 159.174 63.1617 159.229 62.8488 159.063L61.0079 158.603C61.0708 158.615 61.234 158.648 61.4304 158.688C61.9709 158.798 62.763 158.958 62.4098 158.859C64.3478 159.341 65.8432 159.717 63.9349 159.45C67.7671 160.106 67.6053 160.026 67.3632 159.906C67.1809 159.815 66.953 159.702 68.353 159.864C74.9237 160.809 81.5859 160.939 88.1884 160.251C94.683 159.512 101.068 158.013 107.214 155.787C108.309 155.419 107.987 155.658 106.956 156.035C106.696 156.13 106.398 156.245 106.07 156.37L106.064 156.372L106.062 156.373C105.089 156.745 103.862 157.215 102.639 157.572C101.795 157.819 100.994 158.071 100.339 158.277C99.7223 158.47 99.2341 158.624 98.9576 158.695L98.9089 158.71L98.8684 158.721C98.7028 158.769 98.7028 158.769 98.9576 158.769C99.6247 158.658 100.285 158.51 100.937 158.327L101.375 158.186L101.375 158.186C102.603 157.791 103.623 157.463 104.563 157.075C104.97 156.908 105.371 156.757 105.775 156.605L105.775 156.604L105.776 156.604L105.776 156.604L105.777 156.604L105.777 156.604L105.778 156.603L105.778 156.603L105.778 156.603L105.778 156.603L105.78 156.603C106.417 156.363 107.062 156.12 107.748 155.805C108.198 155.598 108.68 155.401 109.199 155.187C109.974 154.869 110.833 154.516 111.798 154.047C112.635 153.697 113.565 153.302 114.559 152.777C114.965 152.562 115.395 152.346 115.845 152.12C116.496 151.793 117.189 151.444 117.919 151.046C118.422 150.715 119.03 150.329 119.715 149.893C121.999 148.44 125.146 146.438 128.191 144.088C131.818 141.356 135.144 138.246 138.113 134.81C140.793 131.861 143.254 128.72 145.477 125.412C147.496 122.306 149.354 119.099 151.045 115.803C152.021 113.566 152.564 112.314 153.015 111.099C153.095 110.883 153.174 110.674 153.252 110.467C153.614 109.509 153.963 108.583 154.386 107.123C154.946 105.535 155.26 104.538 155.466 103.884L155.466 103.884C155.6 103.462 155.688 103.183 155.767 102.981C155.843 102.787 155.903 102.659 155.961 102.535C156.057 102.328 156.149 102.129 156.31 101.647L155.776 103.846C155.904 103.43 156.022 103.052 156.134 102.697L156.134 102.697C156.416 101.797 156.651 101.049 156.862 100.211C157.288 98.6954 157.635 97.1594 157.902 95.6085L158.096 93.9425C158.1 93.8869 158.105 93.8313 158.11 93.7755L158.127 93.5828C158.167 93.1476 158.206 92.7092 158.206 92.2765C158.248 91.97 158.3 91.6523 158.354 91.3232L158.354 91.3229L158.354 91.3226L158.354 91.3222L158.354 91.322C158.454 90.7125 158.561 90.0642 158.62 89.3771C158.672 88.7804 158.727 88.1633 158.783 87.5323L158.784 87.5263L158.79 87.4599L158.79 87.4577L158.792 87.4383C158.832 86.9802 158.874 86.5149 158.915 86.0451C159.025 83.7348 159.09 81.3233 158.97 79.1326C158.821 76.8732 158.753 77.3475 158.696 77.7446V77.7447C158.665 77.9607 158.638 78.1537 158.602 77.8716C158.524 76.91 158.469 75.9612 158.418 75.0831C158.373 74.3055 158.332 73.5833 158.28 72.9565C158.185 72.1871 158.142 71.4122 158.151 70.637L158.243 71.3549C158.538 72.4134 157.608 65.8875 156.835 63.1262C156.585 61.9463 156.304 61.0961 156.094 60.4612L156.093 60.461L156.093 60.4608L156.092 60.4562C156.024 60.2512 155.964 60.0686 155.914 59.9047C155.8 59.5142 155.642 59.1376 155.445 58.7817ZM62.4098 158.859L62.2865 158.828L61.7816 158.702C61.6498 158.669 61.5174 158.636 61.3853 158.603C61.958 158.741 62.2716 158.82 62.4098 158.859ZM51.9021 157.447L51.5906 157.351C51.4262 157.351 51.5066 157.392 51.5926 157.436C51.6058 157.442 51.6191 157.449 51.6318 157.456C51.6473 157.464 51.6618 157.472 51.6735 157.48C51.7563 157.535 51.6735 157.535 50.9555 157.241C50.7973 157.176 50.5983 157.1 50.356 157.008L50.3559 157.008L50.3556 157.008C49.4989 156.682 48.1013 156.15 46.0496 155.16C48.0894 156.047 47.1209 155.592 46.2995 155.214L46.334 155.23C47.5464 155.76 48.7611 156.29 50.0075 156.734L51.9021 157.447ZM51.9021 157.447L54.131 158.133L52.014 157.489L51.9021 157.447ZM51.294 154.851L51.2958 154.852L51.2977 154.853L51.2978 154.853L51.2979 154.853C51.8482 155.085 52.403 155.319 52.9722 155.531C52.6609 155.419 52.3786 155.322 52.0979 155.225L52.0974 155.225C51.2864 154.944 50.4896 154.669 49.0503 154.075C49.3896 154.199 49.7382 154.299 50.0862 154.4L50.2444 154.446L50.3528 154.478L50.4293 154.5L50.5138 154.526C50.7704 154.631 51.027 154.739 51.2846 154.847L51.2853 154.848L51.286 154.848L51.2866 154.848L51.2885 154.849L51.2903 154.85L51.2922 154.851L51.294 154.851ZM53.3211 155.658C53.2003 155.613 53.0843 155.571 52.9722 155.531C53.0879 155.574 53.2042 155.617 53.3211 155.658ZM59.2718 159.243C59.0689 159.196 58.8657 159.149 58.661 159.108C59.707 159.422 60.6127 159.629 61.425 159.814L61.5604 159.845L63.9167 160.434C65.4446 160.673 65.0764 160.572 64.0271 160.351L60.1705 159.43C59.869 159.381 59.5707 159.312 59.2718 159.243ZM2.4354 95.3314L2.83677 97.6238L3.37983 99.9617L3.2878 99.3082C3.13922 98.4719 3.03175 98.0506 2.91844 97.6065C2.78863 97.0977 2.65115 96.5589 2.4354 95.3314ZM60.8974 160.444C63.2261 161.024 65.5824 161.438 67.9479 161.815C67.593 161.739 67.2381 161.637 66.8861 161.536C66.727 161.49 66.5684 161.444 66.4108 161.401C64.9749 161.125 64.1557 160.978 63.6495 160.904C63.419 160.838 63.1805 160.804 62.9407 160.803C62.9317 160.803 62.9234 160.804 62.9153 160.805L62.9002 160.807L62.8927 160.808C62.7697 160.824 62.6135 160.844 60.8974 160.444ZM75.1642 3.60161C75.8021 3.53723 76.4475 3.52497 77.0909 3.51273C77.4593 3.50573 77.8271 3.49874 78.1924 3.48198C78.6841 3.45943 79.1934 3.43024 79.6294 3.40525C80.0832 3.37925 80.4575 3.3578 80.65 3.35311C80.8032 3.34937 80.8623 3.33501 80.8046 3.3162H82.3991C82.7388 3.33335 83.0792 3.3055 83.4116 3.23336C84.1186 3.27755 84.8571 3.34532 85.6088 3.4143C86.2663 3.47463 86.9339 3.5359 87.5996 3.58313C88.5533 3.65081 89.5234 3.78843 90.4825 3.92447C90.9582 3.99194 91.4312 4.05902 91.898 4.117C93.0543 4.26059 94.1733 4.49102 95.2194 4.70645C95.4474 4.75341 95.672 4.79965 95.8927 4.84413C96.8966 5.0464 97.809 5.29745 98.6101 5.51788C98.7932 5.56828 98.9706 5.61708 99.1419 5.66333C103.652 6.63748 108.035 8.12925 112.203 10.109C116.714 12.2512 121.066 14.7119 125.227 17.4725C129.325 20.3794 133.163 23.6379 136.696 27.2108C140.144 30.6661 143.26 34.4381 146.001 38.4769C146.821 39.3974 147.115 39.4802 146.848 38.7071C146.605 38.0762 146.322 37.4614 146.001 36.8662C145.532 36.0654 144.915 35.0437 144.133 33.7919C141.026 29.2601 137.427 25.0865 133.401 21.3476C128.612 16.8897 123.277 13.0577 117.523 9.94336C117.155 9.77367 116.788 9.59791 116.417 9.42086C115.582 9.0217 114.734 8.61604 113.841 8.25897C113.43 8.09431 113.013 7.92026 112.59 7.7431C111.687 7.36572 110.75 6.9743 109.755 6.62978L107.766 5.79218L105.741 5.05584C105.511 4.9737 105.28 4.8883 105.049 4.80263C104.606 4.6387 104.161 4.47377 103.707 4.32869L101.645 3.69358C97.3774 2.50357 93.0131 1.69048 88.6029 1.26364C87.8497 1.18504 87.1011 1.14373 86.3672 1.10322C86.0697 1.0868 85.7746 1.07051 85.4826 1.05193L84.0007 0.969092H82.5832H79.9692L77.7325 1.11637C77.1354 1.11637 76.7648 1.1043 76.4479 1.09399C75.9342 1.07727 75.5615 1.06514 74.5938 1.11637L71.8325 1.36487L68.4545 1.80669C67.6663 1.89427 66.8865 2.04563 66.1355 2.19141C65.7816 2.26013 65.434 2.3276 65.0949 2.38657L63.613 2.69031L62.3612 3.03086L58.6794 3.76723C58.4493 3.81325 58.236 3.8537 58.0199 3.89466C57.5012 3.99297 56.9669 4.09425 56.1482 4.28267C51.6709 5.71758 47.3054 7.48037 43.0872 9.55677C38.8794 11.6373 34.8947 14.1416 31.1951 17.0307C30.3575 17.5738 29.3542 18.3285 28.2037 19.2214C27.0532 20.1142 25.9118 21.1911 24.7705 22.3233C24.5422 22.5497 24.3124 22.7762 24.0826 23.0027C23.1637 23.9083 22.2447 24.814 21.4201 25.7197L19.883 27.2936C19.4135 27.8091 18.9625 28.2785 18.5391 28.7019C15.5305 32.1033 12.8436 35.7762 10.5129 39.6735C9.10347 42.0326 7.87277 44.494 6.83112 47.037C6.91191 46.6927 7.0165 46.3544 7.1441 46.0245C7.23614 45.7576 7.01524 45.8773 6.22366 47.6629L5.65296 49.0068L5.41367 49.5774C5.37865 49.6555 5.34792 49.7354 5.32162 49.8167C5.15594 50.1665 4.40119 51.989 3.62802 53.9955L2.58792 57.0698C2.33969 57.779 2.16797 58.4882 2.03908 59.0206C2.00069 59.1792 1.9661 59.322 1.93441 59.4445C1.7043 60.365 1.65828 60.6687 1.75953 60.4662C2.45906 58.2572 2.67997 57.8522 2.59713 58.5793C2.55832 58.92 2.44073 59.505 2.286 60.2749C2.11044 61.1484 1.88707 62.2598 1.67669 63.5221L1.36375 65.3629C1.30376 65.7446 1.2567 66.136 1.20917 66.5314C1.17647 66.8034 1.14354 67.0772 1.10603 67.3511C1.01398 68.023 0.931115 68.7133 0.848276 69.4037L0.682604 71.4654L0.53533 73.472L0.480106 75.3589C0.480106 75.7752 0.470079 76.1782 0.46049 76.5635C0.442518 77.2856 0.426089 77.9458 0.480106 78.516V81.7375C0.579872 77.3433 0.979675 72.961 1.67669 68.6213C1.50386 69.2879 1.68426 68.1516 1.86257 67.0284C1.88367 66.8954 1.90474 66.7627 1.9252 66.6331C2.02645 66.0164 2.11848 65.4734 2.1461 65.3261C2.17371 65.1789 2.06328 65.3998 1.87919 66.3478L1.879 66.3489C1.7502 67.1033 1.62141 67.8577 1.50181 68.6121C1.45113 68.9317 1.38394 69.2976 1.31353 69.6811C1.21769 70.203 1.11587 70.7575 1.04159 71.2722C0.99863 71.5698 0.951578 71.8674 0.904526 72.1651C0.810439 72.7603 0.716351 73.3555 0.654992 73.9506C0.714776 73.1203 0.84168 72.0982 0.983801 70.9535C1.03861 70.5121 1.09568 70.0525 1.15204 69.5786L1.62147 66.9645C1.6951 66.5135 1.77792 66.0441 1.86076 65.6115L2.17371 64.2676L2.77202 61.6628L3.41631 59.3065C3.5872 58.6272 3.76801 58.0093 3.92652 57.4677C4.1095 56.8425 4.26276 56.3188 4.33674 55.9193C5.45803 52.7541 6.85961 49.6953 8.52475 46.7793C10.4824 42.8211 12.7831 39.0421 15.4004 35.4855C17.7701 32.2414 20.3368 29.146 23.0861 26.2167C27.7725 21.5013 29.7799 20.1775 31.3241 19.159C31.7422 18.8833 32.1264 18.63 32.5206 18.3378L35.1898 16.3956C35.8077 15.9568 36.4655 15.5396 37.1176 15.126C37.5049 14.8804 37.8903 14.636 38.2641 14.3891L42.7559 11.7014C45.0146 10.5577 47.3451 9.56151 49.7328 8.71919C49.8956 8.66692 50.0543 8.61584 50.2096 8.5659C51.7217 8.07937 52.9007 7.70005 54.2613 7.36615C55.7759 6.86497 56.8456 6.55492 57.6912 6.30981C58.2588 6.14528 58.7255 6.01001 59.158 5.86583C60.235 5.50686 61.1462 5.25835 62.9687 4.77972C68.206 3.75803 67.6905 4.03414 67.3407 4.18141C67.3322 4.18499 67.3239 4.1885 67.3157 4.19192C66.987 4.32919 66.9811 4.33167 72.8634 3.71201C73.3435 3.68468 73.8402 3.64411 74.3443 3.60293C74.8422 3.56226 75.3474 3.521 75.8509 3.49132C75.6216 3.52494 75.3926 3.5617 75.1642 3.60161Z" fill="white" fill-opacity="0.5"/>
</svg>
