<svg width="160" height="161" viewBox="0 0 160 161" fill="none" xmlns="http://www.w3.org/2000/svg">
<path fill-rule="evenodd" clip-rule="evenodd" d="M42.112 12.0397C45.0615 10.4832 48.108 9.11909 51.2321 7.95573C48.1094 9.12321 45.0632 10.4872 42.112 12.0397ZM45.895 10.3699C50.7168 8.0887 55.7563 6.30645 60.9347 5.0493C62.2 4.75888 63.4741 4.49994 64.7558 4.27296C76.1643 2.13433 87.9055 2.55763 99.1305 5.51226C109.555 8.31126 119.273 13.2735 127.652 20.0762C131.677 23.3607 135.382 27.0196 138.716 31.0038C142.593 35.6223 145.908 40.6842 148.594 46.0834C149.964 48.8202 151.172 51.6354 152.212 54.5142C152.343 54.9154 152.477 55.3144 152.61 55.7121L152.61 55.7123L152.61 55.7124L152.61 55.7125L152.61 55.7127L152.61 55.7128L152.61 55.7129L152.61 55.7131C152.953 56.741 153.294 57.7601 153.587 58.7839L153.631 58.9383C154.024 60.3058 154.411 61.6574 154.673 63.0174C155.799 67.9487 156.403 72.9842 156.478 78.0411C156.462 77.398 156.409 76.7667 156.356 76.1444C156.34 75.9593 156.325 75.7749 156.31 75.5913C156.291 75.3494 156.274 75.1087 156.256 74.8688C156.209 74.2027 156.161 73.5426 156.075 72.8775C156.155 73.7052 156.196 74.5183 156.235 75.3168C156.258 75.775 156.28 76.2283 156.31 76.6768C156.365 77.5023 156.346 78.3074 156.328 79.0921C156.319 79.4769 156.31 79.8568 156.31 80.2319C156.466 94.9879 152.386 109.479 144.553 121.986C136.721 134.492 125.464 144.489 112.12 150.79L109.244 152.075L106.53 153.115C105.672 153.467 104.814 153.713 103.895 153.976L103.895 153.977L103.894 153.977L103.744 154.02L102.287 154.499L100.741 154.943C96.4921 156.18 92.142 157.037 87.7416 157.503H87.8954C78.8492 158.483 69.7009 157.852 60.8751 155.639C51.9132 153.366 43.4405 149.479 35.872 144.169C28.6157 139.13 22.2788 132.881 17.1379 125.697L17.0823 125.619L17.0811 125.618L17.0803 125.616C16.6292 124.987 16.2841 124.505 15.989 124.123C15.8066 123.887 15.6655 123.679 15.5375 123.491C15.4497 123.362 15.3681 123.242 15.2834 123.128C15.1777 122.979 15.0759 122.838 14.972 122.695L14.9706 122.693L14.9704 122.693C14.6832 122.296 14.3799 121.878 13.9356 121.201C11.7381 117.74 9.81738 114.11 8.19139 110.346C6.45486 106.311 5.10104 102.123 4.14783 97.8353H4.03928C3.82976 96.9489 3.68405 96.1072 3.55101 95.3385C3.46002 94.8129 3.37495 94.3214 3.27945 93.8732C3.29379 94.0075 3.3085 94.1479 3.32375 94.2937C3.44313 95.4344 3.59676 96.9021 3.88551 98.3057C4.03929 99.1018 4.18405 99.8888 4.3107 100.603L4.73582 102.413C4.95294 103.408 5.03436 103.878 4.80821 103.317C4.18291 101.58 3.66328 99.807 3.25227 98.0072C3.40605 98.7128 3.54176 99.3551 3.66841 99.9612V100.169C4.37399 103.145 4.85342 104.945 5.36 106.718C4.73589 104.99 4.23759 103.213 3.74049 101.441L3.63225 101.056C3.68652 101.427 3.70462 101.671 3.63225 101.49L3.7498 101.996L4.1931 103.552C4.24736 103.842 4.27449 104.05 4.29259 104.195C4.51749 105.04 4.80777 105.95 5.10576 106.884C5.25122 107.341 5.39851 107.802 5.54094 108.265C5.89578 109.419 6.34125 110.53 6.74406 111.534L6.74411 111.534L6.74644 111.54L6.74934 111.547L6.75221 111.554L6.75497 111.561L6.86061 111.825C6.91017 111.949 6.95885 112.071 7.00638 112.191C7.98334 114.489 8.61653 116.027 8.22755 115.339C7.93808 114.806 7.42247 113.657 6.75307 112.155C6.52478 111.607 6.29652 111.003 6.05467 110.363L6.05412 110.361L6.05392 110.361L6.05318 110.359L6.05276 110.357L6.05095 110.353C5.95856 110.108 5.86418 109.858 5.76709 109.604C5.41429 108.681 5.07054 107.695 4.74489 106.664L4.42824 105.859C5.4852 109.03 5.21764 108.527 5.0451 108.202C4.9223 107.971 4.84764 107.831 5.33284 109.17C6.91255 113.451 8.88072 117.578 11.2127 121.5C13.5043 125.363 16.1125 129.031 19.0104 132.463C21.7601 135.758 24.7864 138.812 28.0564 141.591C31.3192 144.364 34.7944 146.878 38.4501 149.108C42.242 151.41 46.2177 153.395 50.3365 155.042C50.6892 155.176 51.0341 155.321 51.3785 155.464L51.3788 155.465L51.3791 155.465L51.3794 155.465L51.3797 155.465L51.38 155.465L51.3806 155.465C51.7774 155.631 52.1735 155.797 52.5799 155.947C56.6646 157.431 60.868 158.566 65.1448 159.339C69.3732 160.125 73.6622 160.539 77.9629 160.578L76.2441 160.47C83.2322 160.717 90.2235 160.076 97.0499 158.561C105.497 156.712 113.581 153.481 120.976 148.999C133.008 141.642 142.876 131.228 149.577 118.819C150.872 116.42 152.04 113.962 153.079 111.457C153.168 111.228 153.257 110.999 153.345 110.77L153.346 110.769L153.346 110.769L153.346 110.769L153.346 110.768L153.346 110.768L153.346 110.768C153.447 110.506 153.548 110.245 153.65 109.984L154.148 108.709L154.591 107.415L155.059 106.085C154.669 107.282 154.251 108.468 153.804 109.644C154.371 108.177 154.893 106.694 155.372 105.198L155.496 104.846L155.642 104.337C158.216 95.9598 159.404 87.1812 159.123 78.3503C159.294 84.7856 158.702 91.2127 157.365 97.4981C158.448 92.2364 159.016 86.8779 159.06 81.4983C159.081 76.3682 158.67 71.2474 157.832 66.1899C158.574 70.2094 159.01 74.2809 159.134 78.3692C159.013 73.4334 158.427 68.5327 157.39 63.731C157.345 63.496 157.298 63.2612 157.251 63.0265C157.212 62.8829 157.178 62.7572 157.148 62.6448C155.966 57.5258 154.27 52.5254 152.078 47.7215C151.173 45.6048 149.608 42.493 148.459 40.4848C145.443 35.1926 141.798 30.2843 137.604 25.8665C133.259 21.2281 128.355 17.1472 123.004 13.7177C123.764 14.2334 124.533 14.758 125.265 15.3279C140.415 26.0479 151.349 41.6627 156.269 59.4801C155.274 56.0802 154.061 52.7474 152.637 49.5028C151.169 46.1251 149.504 42.8358 147.653 39.6517C147.653 39.6517 147.554 39.4617 147.391 39.1994L146.83 38.2948C146.45 37.6797 146.16 37.1912 146.495 37.6526L145.799 36.5489C145.706 36.4162 145.611 36.2834 145.517 36.1502L145.516 36.1493L145.516 36.1483L145.515 36.1479C145.353 35.9188 145.189 35.6884 145.03 35.4544L143.447 33.2291C143.187 32.8989 142.927 32.5658 142.668 32.2318C141.788 31.1017 140.9 29.9602 139.937 28.878C138.688 27.4758 137.413 26.0918 136.156 24.753C135.714 24.3177 135.268 23.8865 134.827 23.4595L134.827 23.4592L134.827 23.4589C134.617 23.2561 134.408 23.0543 134.202 22.8533L133.243 21.9488L132.257 21.0442L130.574 19.5516C130.22 19.2478 129.858 18.9546 129.497 18.6609C129.277 18.4824 129.056 18.3036 128.837 18.1223C127.698 17.1454 126.495 16.2499 125.292 15.3545L125.291 15.3543C115.056 8.10217 103.265 3.34678 90.8624 1.46871C84.5231 0.53496 78.0973 0.334625 71.7121 0.871672C65.115 1.45002 58.6137 2.83534 52.3538 4.99663C45.6702 7.34414 39.3278 10.5686 33.4929 14.5854C41.8624 8.96326 51.2039 4.94864 61.0396 2.74509C55.3365 4.0945 49.7926 6.04699 44.5019 8.56979L44.8275 8.43408C49.1227 6.44 53.5883 4.83545 58.1703 3.63973C66.2025 1.39937 74.5506 0.506769 82.8749 0.998301C83.4564 0.998301 84.0379 1.06559 84.6194 1.13289C84.9425 1.17027 85.2656 1.20766 85.5886 1.23351C86.9289 1.32732 88.2691 1.52042 89.6277 1.71719C83.3202 0.876958 76.935 0.768902 70.5995 1.39633C66.4108 1.82294 62.2614 2.57298 58.1884 3.63973C55.6288 4.33963 53.1076 5.17301 50.635 6.13643L51.422 5.85601C52.9548 5.34265 54.5127 4.90787 56.0897 4.55339C57.5462 4.26391 58.297 4.19154 56.6506 4.71621C47.6984 7.35654 39.27 11.5248 31.738 17.0368C28.9268 19.1215 26.2499 21.3815 23.7233 23.8032C22.8856 24.5861 22.2444 25.2538 21.7646 25.7535C21.69 25.8312 21.6192 25.9048 21.5523 25.9742C21.2867 26.2495 21.0932 26.4552 20.9679 26.5885L20.8777 26.6841C20.8474 26.7162 20.8251 26.7394 20.8108 26.7537C20.8709 26.7036 21.0735 26.5344 21.4709 26.137C21.5753 26.0326 21.6901 25.9158 21.8153 25.7885L21.8162 25.7876L21.8164 25.7875L21.8169 25.787C22.2988 25.297 22.9342 24.6509 23.7233 23.9479C26.1387 21.664 28.6849 19.5225 31.349 17.5343C35.1094 14.7588 39.1083 12.322 43.2988 10.2523C43.0602 10.3788 42.8207 10.5025 42.5815 10.6261L42.5813 10.6262C42.0677 10.8916 41.5552 11.1564 41.0554 11.4464L38.8572 12.7309C39.0526 12.6232 39.2471 12.5155 39.4408 12.4083L39.441 12.4081L39.4411 12.4081C40.646 11.7409 41.8173 11.0923 42.955 10.578C43.2637 10.4308 43.5781 10.2694 43.8993 10.1045C44.3876 9.8538 44.8917 9.59499 45.4155 9.36582L48.0117 8.19891C49.7304 7.48428 51.3406 6.86913 52.4261 6.50729C60.7316 3.67098 69.44 2.19259 78.2162 2.12905C79.146 2.12905 80.1064 2.16734 81.09 2.20655C81.6183 2.22762 82.1534 2.24895 82.6939 2.26476C83.7183 2.29471 84.7626 2.40798 85.824 2.52311L85.8241 2.52311C86.3654 2.58183 86.9112 2.64104 87.4612 2.68992C90.796 3.11419 94.1011 3.74561 97.3575 4.58052C97.8559 4.74243 98.3633 4.87533 98.8772 4.97855C99.5556 5.16851 100.098 5.34038 99.5466 5.22278C99.9414 5.33725 100.342 5.44931 100.746 5.56223L100.746 5.56225L100.746 5.56227L100.746 5.56228L100.746 5.5623C101.906 5.88659 103.092 6.21797 104.232 6.63395L106.521 7.42094L108.674 8.32554C109.817 8.76071 110.846 9.25602 111.766 9.69869C111.974 9.79892 112.177 9.89646 112.374 9.98999C113.103 10.3285 113.815 10.7044 114.506 11.116C107.713 7.62185 100.446 5.1365 92.934 3.73923C90.7378 3.34029 88.5262 3.0342 86.3051 2.82166C87.9929 2.93869 89.6798 3.12779 91.3603 3.43194C91.7555 3.50349 92.1515 3.57326 92.5478 3.64308L92.5484 3.6432L92.5485 3.64321C93.7419 3.8535 94.9379 4.06424 96.1251 4.32511C85.4078 1.87638 74.2978 1.64757 63.4806 3.65809C57.3942 4.83773 51.4718 6.74504 45.841 9.33896C40.7274 11.7079 35.8611 14.5774 31.3131 17.9055L30.9151 18.204C22.3947 24.7875 15.2698 33.001 9.95564 42.3658C4.62672 51.7303 1.31151 62.1042 0.222183 72.8235C0.249313 73.5472 0.366882 73.4839 0.529709 72.914C1.61909 62.8676 4.61891 53.1221 9.36763 44.2021C13.9538 35.5909 20.1187 27.9193 27.541 21.5872C28.9974 20.3208 30.49 19.0995 32.064 18.014C32.4102 17.7752 32.7556 17.5343 33.1013 17.2931L33.1014 17.293C34.322 16.4413 35.5472 15.5864 36.8323 14.813C27.0158 20.9794 18.7015 29.2618 12.4973 39.0547C6.21088 48.8924 2.23369 60.026 0.864136 71.6201C0.904129 71.4383 0.944153 71.2462 0.985916 71.0457C1.04805 70.7474 1.11411 70.4304 1.18983 70.1004C1.95364 64.6666 3.29396 59.3295 5.18813 54.1795C6.91209 49.512 9.11288 45.0347 11.7555 40.8186C10.2839 43.2806 8.94026 45.8168 7.73004 48.4172C7.16014 49.6294 6.5993 50.8416 6.11084 52.1442L5.32384 54.1162C5.26837 54.2784 5.21239 54.4415 5.15601 54.6058C4.9734 55.1381 4.78674 55.6821 4.60011 56.242C4.60011 56.242 4.60016 56.3053 4.80821 55.8259C3.33607 59.939 2.24297 64.1781 1.54257 68.4902C1.6604 68.0337 1.77345 67.5579 1.88919 67.0707C2.12886 66.0619 2.38013 65.0043 2.70955 63.9673C2.79144 63.6576 2.87477 63.3248 2.96284 62.9731L2.96313 62.9719L2.96326 62.9714L2.9635 62.9704L2.96359 62.9701C3.18666 62.0793 3.44002 61.0677 3.77696 60.0051C3.87231 59.6924 3.96446 59.3715 4.05812 59.0454C4.1866 58.5981 4.31796 58.1407 4.46446 57.6803L5.29668 55.2922C10.1009 41.7166 18.5512 29.7265 29.7208 20.6371C34.6774 16.5736 40.1084 13.1261 45.895 10.3699ZM97.3577 4.61696C96.9475 4.51641 96.5366 4.41912 96.1251 4.32511C96.5372 4.41566 96.9482 4.51225 97.3577 4.61696ZM20.8108 26.7537L20.8097 26.7546L20.7951 26.7669C20.7911 26.7704 20.7903 26.7714 20.7924 26.7703C20.7948 26.7691 20.8009 26.7636 20.8108 26.7537ZM153.804 109.644C153.434 110.618 153.045 111.585 152.637 112.544C152.791 112.183 152.936 111.82 153.079 111.457C153.328 110.856 153.57 110.251 153.804 109.644ZM38.8448 13.5853C41.7741 11.8592 44.8152 10.3287 47.9484 9.00398L45.0899 10.3247L42.2766 11.7902L45.3432 10.2433L48.4459 8.84116C49.1254 8.54469 49.8132 8.27773 50.5066 8.00863L50.5069 8.0085L50.507 8.00848L50.5071 8.00846L50.5071 8.00843L50.5072 8.00841L50.5072 8.00839L50.5073 8.00836C50.8292 7.88344 51.1523 7.75804 51.4763 7.62901C54.8577 6.37111 58.3252 5.35836 61.8521 4.5986C62.3348 4.48158 62.8208 4.36784 63.3097 4.26023C60.3626 4.84295 57.4501 5.60204 54.5881 6.53445C56.0814 6.03169 57.5887 5.5755 59.1078 5.16633C57.9855 5.46485 56.8644 5.77507 55.7463 6.10051C54.6038 6.43307 53.4772 6.80697 52.3608 7.22034L54.552 6.53397C54.2449 6.64077 53.9379 6.74284 53.6318 6.8446C52.9007 7.08761 52.175 7.32885 51.4673 7.62853C51.0324 7.80248 50.595 7.9653 50.1593 8.12751C49.4168 8.40393 48.6791 8.67857 47.9665 9.0035C48.1762 8.90416 48.3893 8.80987 48.604 8.71806C45.2408 10.1103 41.9797 11.7367 38.8448 13.5853ZM51.3758 7.59625L51.966 7.36833C51.769 7.44308 51.5723 7.51906 51.3758 7.59625ZM59.9244 4.95121C60.4644 4.81028 61.0046 4.67186 61.5447 4.53555C63.4806 4.04707 65.4345 3.62192 67.4156 3.38673C67.7447 3.34765 68.0738 3.30908 68.4029 3.27105C65.5473 3.67109 62.7166 4.23205 59.9244 4.95121ZM73.5606 2.7258C74.2993 2.65993 75.0404 2.62041 75.783 2.59321C75.083 2.62547 74.3833 2.66676 73.6842 2.71706L73.5606 2.7258ZM79.0843 2.50788C79.1689 2.50544 79.2536 2.50289 79.3382 2.50021L79.514 2.5066C79.3708 2.50665 79.2276 2.50708 79.0843 2.50788ZM89.0714 1.39633C80.0164 0.13771 70.8093 0.529903 61.896 2.55285C72.4706 0.32237 83.3825 0.213249 93.9988 2.23138L91.7851 1.80341C91.182 1.70087 90.5789 1.61442 89.9758 1.52797C89.6743 1.48476 89.3728 1.44155 89.0714 1.39633ZM128.602 20.3476C125.118 17.4298 121.357 14.8602 117.373 12.6754L119.24 13.8255C122.728 15.953 126.054 18.3356 129.19 20.9537C132.383 23.6693 135.367 26.6206 138.119 29.7826C135.216 26.3766 132.033 23.2206 128.602 20.3476ZM138.119 29.7826L139.548 31.4741L141.981 34.5769C142.295 35.0204 142.612 35.4652 142.92 35.8962C143.408 36.5819 143.872 37.2328 144.261 37.7882C142.379 34.9967 140.328 32.3231 138.119 29.7826ZM70.705 3.17604C69.5771 3.28456 68.4523 3.41849 67.3314 3.57764L67.3429 3.57641C67.9246 3.51429 68.5089 3.4416 69.0963 3.36851C69.6298 3.30214 70.1659 3.23544 70.705 3.17604ZM12.0359 120.143L12.9405 121.671L13.8451 123.182L13.5375 122.748C12.978 121.916 12.4676 121.052 12.0088 120.161L12.0359 120.143ZM28.7076 140.198C25.3853 137.399 22.3271 134.301 19.5712 130.944C16.4857 127.185 13.76 123.145 11.4299 118.876V118.786C13.5968 122.69 16.0871 126.406 18.8747 129.894C21.8321 133.621 25.1234 137.069 28.7076 140.198ZM156.826 91.4127C156.103 96.3314 154.94 101.175 153.352 105.886C151.587 111.124 149.267 116.158 146.432 120.903C144.497 124.076 142.338 127.108 139.973 129.976C138.164 132.138 136.671 133.793 135.188 135.277C134.533 135.973 133.848 136.608 133.153 137.253L132.962 137.43C132.903 137.485 132.844 137.54 132.784 137.595L132.571 137.795L132.57 137.795L132.57 137.795C131.941 138.384 131.302 138.98 130.583 139.564C131.434 138.832 132.22 138.036 133.007 137.24L133.007 137.24L133.008 137.24C130.599 139.576 128.016 141.726 125.282 143.671C124.896 143.933 124.514 144.204 124.128 144.476L124.128 144.476L124.127 144.477L124.127 144.477L124.126 144.477L124.126 144.478L124.125 144.478L124.125 144.478L124.124 144.479L124.124 144.479L124.124 144.479L124.124 144.479L124.123 144.479L124.123 144.48L124.123 144.48C123.245 145.1 122.353 145.73 121.374 146.295C121.109 146.46 120.844 146.631 120.575 146.803L120.575 146.803L120.575 146.804L120.574 146.804L120.574 146.804L120.573 146.805L120.573 146.805L120.572 146.805L120.572 146.805C120.136 147.086 119.691 147.372 119.222 147.651L116.815 149.054C116.593 149.127 116.378 149.221 116.173 149.334C115.793 149.506 115.268 149.75 114.789 150.003C110.176 152.393 105.325 154.291 100.315 155.666C95.2948 157.063 90.1397 157.921 84.9373 158.226C84.1999 158.31 82.9738 158.307 81.5828 158.303H81.5826H81.5823H81.5821H81.5818H81.5816H81.5814H81.5811H81.5807H81.5803H81.5799H81.5795H81.5791H81.5787H81.5782C80.8718 158.301 80.1229 158.298 79.3741 158.308L75.3124 158.181C74.7437 158.132 74.175 158.087 73.6077 158.043L73.6064 158.043C72.8205 157.981 72.0371 157.92 71.2598 157.846H71.5945L74.9144 158.1C75.5833 158.148 76.2523 158.168 76.9232 158.188C77.3682 158.201 77.8141 158.214 78.2614 158.235C85.3087 158.412 92.3466 157.614 99.1757 155.865C118.077 150.877 134.445 139.033 145.093 122.639C147.966 118.209 150.364 113.488 152.248 108.555C153.822 104.399 155.086 100.133 156.03 95.7909C156.147 95.2301 156.31 94.4069 156.473 93.5747C156.556 93.1473 156.619 92.7223 156.675 92.3353C156.729 91.9686 156.777 91.6359 156.835 91.3675L156.826 91.4127ZM158.969 78.7574C159.077 84.9955 158.498 91.2265 157.242 97.3378C155.961 103.256 154.044 109.019 151.525 114.525C150.219 117.352 148.738 120.095 147.092 122.739C145.089 125.905 142.867 128.928 140.443 131.785C135.758 137.212 131.497 140.578 133.053 138.904C137.236 135.359 140.942 131.288 144.08 126.791C148.84 120.114 152.521 112.73 154.989 104.909C156.125 101.191 157.013 97.4013 157.649 93.5657C157.7 93.1832 157.752 92.8084 157.803 92.4405C157.992 91.0679 158.168 89.7902 158.282 88.5632L158.326 88.0918C158.455 86.7195 158.573 85.4581 158.59 84.3207C158.602 83.4403 158.641 82.6342 158.676 81.9146C158.691 81.599 158.705 81.3001 158.716 81.0189C158.742 80.3708 158.731 79.8164 158.723 79.3652C158.719 79.174 158.716 79.0013 158.716 78.8479C158.77 77.898 158.852 77.7624 158.969 78.7574ZM143.591 35.4544C142.874 34.3588 142.075 33.3132 141.264 32.2532L141.264 32.253L141.264 32.2528L141.264 32.2526L141.263 32.2511L141.262 32.2506L141.262 32.2499C140.929 31.8143 140.594 31.3763 140.262 30.9314C139.123 29.4026 137.856 28.0277 136.526 26.6617C135.639 25.7498 134.727 24.8459 133.82 23.9473L133.82 23.9473L133.82 23.9473L133.82 23.9473L133.82 23.9473L133.82 23.9473L133.82 23.9473L133.82 23.9473L133.819 23.9467C133.368 23.4996 132.919 23.0539 132.474 22.6091C131.135 21.2703 129.606 20.0491 128.078 18.8731C125.08 16.4728 121.901 14.3074 118.57 12.3962C117.485 11.7328 116.359 11.1499 115.233 10.5669C114.67 10.2754 114.108 9.98396 113.55 9.68243C111.876 8.77783 110.148 8.08129 108.412 7.41189C102.965 5.23087 97.286 3.67997 91.4866 2.78941C85.9683 1.98248 80.3881 1.6797 74.8149 1.88482V1.77627H75.9547C76.2561 1.76681 76.5529 1.75694 76.8455 1.74722L76.8456 1.74721C78.511 1.69185 80.0407 1.641 81.518 1.69486C81.8236 1.706 82.1266 1.71658 82.4278 1.72709C83.8382 1.77634 85.2062 1.8241 86.5927 1.92101L86.0048 1.86673L86.9065 1.93855H86.5574C90.8275 2.38406 95.0599 3.13682 99.2218 4.19099C103.908 5.44456 108.473 7.11259 112.863 9.17532C108.082 6.88513 103.088 5.09514 97.9607 3.82769C98.8526 4.01598 99.6838 4.23107 100.533 4.49911L103.129 5.24991C103.707 5.45608 104.289 5.65178 104.87 5.84734C105.998 6.22668 107.123 6.60548 108.222 7.05911C111.561 8.36884 114.804 9.91042 117.928 11.6726C120.97 13.3968 123.898 15.3155 126.694 17.4167C129.351 19.4398 131.871 21.6367 134.238 23.9931C136.96 26.6488 139.468 29.5163 141.737 32.5687C142.551 33.6002 143.287 34.6861 144.03 35.7815C144.336 36.2327 144.643 36.6856 144.957 37.1369C146.034 38.6838 146.984 40.3573 147.924 42.1213L147.02 40.493C146.869 40.2452 146.71 39.9959 146.547 39.7413C146.33 39.4009 146.106 39.0512 145.889 38.6838C145.556 38.1209 145.216 37.6205 144.881 37.1279L144.881 37.1278L144.74 36.9198L143.591 35.4544ZM97.411 3.69394C94.2162 2.92888 90.9709 2.36625 87.6944 2.01142C89.8985 2.23122 92.0908 2.55725 94.2637 2.98842C95.2299 3.15303 96.1904 3.39125 97.1586 3.63139L97.1592 3.63154L97.1594 3.63157L97.411 3.69394ZM123.479 15.2811C123.826 15.5139 124.171 15.7495 124.514 15.9876L124.927 16.2896C125.401 16.6284 125.872 16.9726 126.339 17.3222L126.567 17.4893C126.75 17.6261 126.93 17.765 127.106 17.9044C129.571 19.7987 131.923 21.8437 134.148 24.0295C133.324 23.2425 132.474 22.4646 131.606 21.7318C131.285 21.4613 130.945 21.1513 130.581 20.8196L130.58 20.8196L130.58 20.8195C129.958 20.2529 129.267 19.6229 128.485 19.0181C128.272 18.8488 128.058 18.6742 127.84 18.4971L127.84 18.497C127.6 18.3011 127.356 18.1021 127.106 17.9044C126.851 17.7087 126.596 17.5146 126.339 17.3222L124.927 16.2896C124.448 15.9479 123.966 15.6117 123.479 15.2811ZM112.835 9.22126C116.545 10.9585 120.104 12.9858 123.479 15.2811C120.087 13.001 116.529 10.9754 112.835 9.22126ZM153.66 60.6377C152.52 56.402 151.007 52.2759 149.137 48.308C144.261 37.8755 137.159 28.6373 128.331 21.2425C134.724 26.5075 140.246 32.7474 144.695 39.7324C146.799 43.0417 148.615 46.5251 150.123 50.1444C151.566 53.5474 152.749 57.0553 153.66 60.6377ZM128.376 21.2709C126.048 19.3242 123.611 17.5121 121.076 15.8434C112.384 10.1934 102.639 6.35946 92.4275 4.57209C106.584 7.01176 119.775 13.326 130.545 22.7983L130.457 22.7183C129.223 21.5694 127.895 20.5071 126.554 19.4343L126.554 19.4342C126.333 19.2569 126.111 19.0793 125.889 18.9009L123.437 17.0917C122.89 16.6845 122.319 16.3141 121.745 15.942C121.464 15.7602 121.183 15.5781 120.904 15.3911C110.022 8.34402 97.5138 4.2049 84.5756 3.36899C80.078 3.07712 75.5639 3.15577 71.0791 3.60417C66.5252 4.08459 62.0234 4.97161 57.6277 6.25463C49.8206 8.51891 42.4241 11.9919 35.7046 16.541L38.4593 14.8031C49.6339 8.06917 62.3142 4.2349 75.3478 3.64878C88.3813 3.06267 101.355 5.74331 113.089 11.447C118.538 14.1358 123.666 17.4313 128.376 21.2709ZM35.4238 16.7321C35.5173 16.6682 35.6109 16.6045 35.7046 16.541L35.5917 16.6123L35.4238 16.7321ZM32.8779 18.5481C33.715 17.9253 34.5638 17.3198 35.4238 16.7321L32.8779 18.5481ZM130.545 22.7983C130.717 22.9551 130.898 23.1159 131.08 23.279C131.314 23.4872 131.552 23.6992 131.783 23.9113C131.374 23.5356 130.961 23.1646 130.545 22.7983ZM117.251 10.216C118.21 10.7207 120.006 11.7732 121.06 12.391L121.285 12.5227L123.031 13.7167C122.818 13.5804 122.605 13.4416 122.391 13.3021L122.391 13.3018C121.696 12.8492 120.992 12.39 120.245 11.989C119.749 11.7225 119.246 11.4118 118.738 11.0981C118.246 10.7942 117.749 10.4875 117.251 10.216Z" fill="white" fill-opacity="0.5"/>
</svg>
