<svg width="163" height="162" viewBox="0 0 163 162" fill="none" xmlns="http://www.w3.org/2000/svg">
<path d="M1.73695 80.7505C1.65724 86.1137 2.12459 91.471 3.1317 96.7393C3.85748 100.351 4.82648 103.909 6.03204 107.389C7.35829 111.2 8.97003 114.905 10.8536 118.473C12.8198 122.12 15.0454 125.62 17.5133 128.948C19.931 132.148 22.5798 135.167 25.4384 137.981C28.044 140.542 30.8215 142.921 33.7514 145.103C36.1751 146.91 38.6976 148.582 41.3071 150.109C46.7778 153.313 52.6102 155.856 58.6813 157.683C59.605 157.96 59.7805 158.006 59.2909 157.868C58.8014 157.729 57.6283 157.424 55.975 156.824C50.8641 155.105 45.9479 152.855 41.3071 150.109C34.9406 146.404 29.1185 141.835 24.0067 136.531C27.5404 140.284 31.4287 143.687 35.6173 146.691C39.1354 149.201 42.841 151.437 46.7013 153.379C60.1993 159.845 75.232 162.423 90.1132 160.822C104.994 159.222 119.135 153.506 130.949 144.318C135.804 140.541 140.214 136.224 144.093 131.451C147.926 126.722 151.228 121.586 153.94 116.136C146.004 132.374 132.856 145.483 116.596 153.37C100.33 161.214 81.9096 163.398 64.2603 159.577C65.184 159.817 66.1538 159.965 67.0959 160.149C85.8081 163.568 105.126 160.264 121.639 150.82C124.46 149.193 127.189 147.41 129.813 145.481C127.193 147.416 124.464 149.199 121.639 150.82C118.025 152.922 114.247 154.729 110.342 156.224C100.745 159.978 90.4957 161.78 80.1936 161.526C75.7957 161.454 71.4127 160.994 67.0959 160.149L65.0177 159.771L62.9672 159.29C62.2836 159.124 61.6001 158.986 60.9166 158.792L58.8938 158.21C58.1086 157.997 57.2589 157.775 56.4091 157.471H56.5107C61.3352 159.166 66.3266 160.342 71.4003 160.981C80.6323 162.208 90.0072 161.83 99.1104 159.863C104.011 158.806 108.801 157.291 113.418 155.337C117.662 153.546 121.739 151.382 125.601 148.871C130.65 145.59 135.313 141.751 139.503 137.427C142.722 134.096 145.629 130.475 148.185 126.611C150.881 122.535 153.229 118.241 155.205 113.772C156.474 110.999 157.566 108.148 158.475 105.237C158.549 104.923 158.881 103.667 159.214 102.374C160.989 96.1717 161.96 89.7677 162.105 83.3184C162.151 81.471 162.308 77.8687 162.16 74.6728C162.16 73.8692 162.096 73.0933 162.068 72.3728L161.892 70.4054C161.781 69.2508 161.698 68.4473 161.643 68.2533C161.331 67.4302 161.111 66.5753 160.987 65.7039C160.904 65.2329 160.849 64.577 160.618 63.5056C160.387 62.4341 160.137 60.9101 159.491 58.7764C159.334 58.2684 159.038 57.16 158.567 56.0054L157.274 52.4585C156.32 49.7957 155.194 47.1978 153.903 44.6812C153.311 43.5913 152.766 42.4274 151.981 41.162L150.762 39.0837C150.319 38.3356 149.774 37.5597 149.22 36.6822C146.713 32.9186 143.935 29.3437 140.907 25.9861C139.669 24.6837 138.477 23.3813 136.999 22.042C136.279 21.3492 135.503 20.6288 134.607 19.9083C133.711 19.1879 132.76 18.3473 131.67 17.5345C129.106 15.5298 126.426 13.6792 123.643 11.9924C119.819 9.6925 115.93 7.8821 115.93 7.8821C110.768 5.42261 105.355 3.53033 99.7847 2.23848C94.9221 1.12613 89.9814 0.388092 85.0059 0.030899C78.2693 -0.142609 71.5337 0.411774 64.9161 1.6843C58.0994 3.04799 51.4953 5.31561 45.2788 8.42709C40.703 10.7388 36.3308 13.4332 32.2089 16.4815C28.3889 19.2821 24.8305 22.423 21.5774 25.866C20.4783 27.039 19.5731 28.129 18.7418 29.0619L16.6912 31.602C16.0631 32.3132 15.1856 33.6803 14.1603 35.1397C13.6708 35.8878 13.2366 36.6914 12.7009 37.4581C12.1652 38.2247 11.7773 38.9914 11.3524 39.6933L11.6572 38.936C11.1215 39.8596 9.98537 41.707 9.50505 42.6861C9.02475 43.6652 9.09862 43.388 9.19098 43.1294C9.36649 42.6121 9.55124 42.1041 8.6368 43.7667C4.21132 51.9368 1.4487 60.9028 0.508499 70.1468C0.529892 70.5529 0.529892 70.9599 0.508499 71.366C0.333008 72.7054 0.323776 74.0632 0.222168 75.4025C0.268356 76.2153 0.406891 75.9475 0.434601 76.4924C0.730164 76.4924 0.887207 82.1268 1.20126 80.7783C1.25668 80.5104 1.29358 78.4506 1.45061 76.0306C1.57069 74.8206 1.66307 73.5275 1.81085 72.3359C1.95865 71.1444 2.16188 70.0267 2.30043 69.1677C2.43898 68.3087 2.30043 70.2392 2.30043 71.015C2.43898 69.8974 2.54059 69.0476 2.65143 68.4288C2.76227 67.8099 2.86385 67.422 2.91927 67.228C3.03011 66.8493 3.01164 67.228 2.91927 68.1517L3.30721 66.0826V67.1449C4.36382 61.3766 6.05199 55.7422 8.34122 50.3433C10.6432 45.0392 13.4616 39.9746 16.7558 35.2228L17.9104 33.5602L19.3237 31.7128C20.2474 30.4105 21.3465 29.1727 22.1778 28.1567C22.5842 27.6395 23.3324 26.8913 24.0251 26.1708C24.7179 25.4503 25.4199 24.7299 25.8171 24.3789C26.3756 23.8165 26.874 23.1973 27.3042 22.5315C28.819 21.1553 30.8326 19.4465 33.0679 17.7746C34.1671 16.851 35.3863 16.1305 36.5317 15.2992C37.677 14.4679 38.924 13.7751 40.0508 13.0455C44.6692 10.2744 48.5579 8.5287 48.2346 8.42709L50.2759 7.50342L52.0216 6.80142C53.0931 6.35806 54.0075 5.96088 54.9589 5.63759C55.9103 5.3143 56.8617 4.92638 57.9978 4.5569C59.1339 4.18744 60.4455 3.79025 62.1174 3.39307C67.0285 2.14903 72.0494 1.38799 77.1086 1.12082C88.8725 0.465912 100.635 2.42484 111.552 6.85684C112.614 7.24478 113.603 7.78052 114.61 8.19617C115.616 8.61183 116.568 9.11986 117.491 9.59093C136.099 19.0606 150.238 35.4654 156.858 55.2665C163.362 74.7825 162.173 96.0449 153.533 114.714C148.802 124.937 141.946 134.033 133.421 141.396C124.897 148.76 114.9 154.221 104.098 157.415C93.6943 160.505 82.7709 161.448 71.9914 160.186C61.951 158.998 52.2311 155.897 43.3576 151.051C35.4204 146.694 28.268 141.04 22.1963 134.323C19.5324 131.326 17.0876 128.14 14.8808 124.791C12.9038 121.756 11.1236 118.596 9.55122 115.333C7.03514 109.984 5.11467 104.374 3.82445 98.6051C2.97804 94.8344 2.41309 91.006 2.13417 87.1516C1.87555 85.0087 1.8755 82.8842 1.73695 80.7505Z" fill="white" fill-opacity="0.5"/>
</svg>
