<svg width="161" height="163" viewBox="0 0 161 163" fill="none" xmlns="http://www.w3.org/2000/svg">
<path fill-rule="evenodd" clip-rule="evenodd" d="M84.4058 1.08389C81.2671 0.862982 86.7897 0.770944 91.5024 1.40605C92.0914 1.46127 93.0119 1.65457 94.0612 1.87548C94.3778 1.94213 94.7078 2.00627 95.0444 2.07169L95.0445 2.07171C95.8234 2.22309 96.6376 2.38133 97.4024 2.59342L100.274 3.34816C100.687 3.44861 101.086 3.60013 101.462 3.79919C98.6893 2.99727 95.8664 2.38226 93.0119 1.95831C91.7763 1.75238 90.5701 1.62016 89.3143 1.48249L88.8699 1.43366C88.0477 1.3429 87.207 1.2862 86.3387 1.22765C85.71 1.18525 85.0668 1.14187 84.4058 1.08389ZM155.445 59.4497C155.647 60.2413 155.767 60.7199 155.841 61.0513C155.516 59.7435 155.238 58.7413 155.03 57.991C154.796 57.1466 154.65 56.6213 154.626 56.3386C154.58 55.8048 154.847 56.1453 155.27 56.9093C155.829 57.9171 156.324 58.9593 156.752 60.0296C156.944 60.493 157.137 60.9478 157.316 61.3678L157.316 61.368C157.591 62.0158 157.831 62.5805 157.976 62.9658L158.602 65.2024C159.692 70.4305 160.235 75.7579 160.222 81.0984C160.212 86.5008 159.675 91.8893 158.62 97.1877C159.191 94.6565 159.209 95.0338 159.062 96.2672L158.786 98.4855C158.748 98.714 158.707 98.9377 158.667 99.1503L158.667 99.1527L158.667 99.1537C158.573 99.6592 158.492 100.102 158.492 100.4C157.308 105.112 155.77 109.727 153.889 114.207C151.889 118.987 149.361 123.528 146.351 127.746L144.685 130.213C144.412 130.623 144.148 130.981 143.9 131.318C143.73 131.549 143.568 131.769 143.415 131.989C143.037 132.532 142.697 133.02 142.283 133.591C141.941 134.061 141.562 134.532 141.125 135.074C141.032 135.19 140.936 135.309 140.838 135.432C140.78 135.502 140.724 135.571 140.668 135.639C140.309 136.078 139.969 136.494 139.595 136.868C139.304 137.159 139.026 137.445 138.752 137.728L138.747 137.732L138.747 137.733L138.746 137.733L138.746 137.733L138.74 137.739C138.61 137.873 138.481 138.006 138.352 138.138C137.622 138.893 136.916 139.563 136.254 140.19L136.253 140.19L136.088 140.347C135.83 140.592 135.583 140.832 135.345 141.064C134.931 141.469 134.541 141.849 134.155 142.188C133.548 142.722 133.051 143.219 132.627 143.688C130.39 145.568 128.048 147.319 125.613 148.935C126.601 148.218 126.384 148.361 125.5 148.942C125.304 149.07 125.077 149.219 124.822 149.386C121.117 151.893 117.203 154.076 113.123 155.912C111.135 156.869 109.156 157.697 107.453 158.277C106.161 158.717 105.045 159.152 104.179 159.488L104.179 159.489C103.903 159.596 103.653 159.693 103.431 159.777L101.01 160.532C100.246 160.772 99.2889 160.983 98.3593 161.167C98.082 161.222 97.808 161.279 97.5426 161.334L97.5409 161.334L97.5407 161.334L97.5397 161.334L97.5382 161.334C96.9156 161.463 96.3408 161.582 95.8833 161.646C94.5671 161.821 94.1897 161.83 96.4079 161.351L97.1811 161.094C93.5809 162.013 89.8944 162.552 86.1819 162.704C82.5093 162.944 78.6711 162.889 74.0045 162.704C72.6699 162.594 71.3352 162.456 70.0006 162.281C68.6659 162.106 67.3405 161.931 66.0243 161.655C66.1163 161.646 66.8343 161.738 67.6995 161.858L70.3227 162.088C71.731 162.198 71.9335 162.198 67.1288 161.489C66.3096 161.324 65.3247 161.131 64.2754 160.946C63.6619 160.839 63.0294 160.693 62.3928 160.547L62.3917 160.547L62.3905 160.546L62.3893 160.546L62.3879 160.546C61.9375 160.442 61.4849 160.338 61.0355 160.247C59.9895 160.034 58.9862 159.753 58.0914 159.502L57.9889 159.474C57.6848 159.389 57.3927 159.31 57.1171 159.237L57.1168 159.237C56.5582 159.087 56.0668 158.956 55.6786 158.82L53.6904 158.259C50.7174 157.209 48.3979 156.28 45.9403 155.203C43.0488 153.933 40.2527 152.457 37.5736 150.785C36.2321 149.976 36.5697 150.221 37.2728 150.729L37.4263 150.84C37.9227 151.199 38.5854 151.605 39.0042 151.861C39.261 152.018 39.4262 152.119 39.4052 152.119L41.5038 153.279L43.2711 154.2L44.7806 154.982L46.2441 155.7C46.6103 155.941 46.5099 155.942 46.038 155.763C46.1206 155.8 46.2092 155.841 46.2995 155.882L46.0496 155.773L45.9693 155.736L45.9254 155.719L45.8759 155.7C44.8573 155.295 43.8617 154.834 42.8937 154.319C40.6238 153.212 38.4339 151.948 36.3402 150.536C35.4566 149.938 35.5394 149.901 35.7327 149.938C35.7626 149.944 35.7959 149.951 35.8293 149.959C36.0116 150.001 36.1989 150.045 35.88 149.772C35.7535 149.633 35.5358 149.472 35.2119 149.233C35.0644 149.124 34.8948 148.999 34.7018 148.852C34.0851 148.382 33.2015 147.729 31.9405 146.808C31.8418 146.763 31.5706 146.579 31.3249 146.413C30.9288 146.146 30.5992 145.923 31.1673 146.394L28.6729 144.461L26.5375 142.621C25.838 142.013 25.2121 141.406 24.5954 140.78C24.3486 140.529 24.1004 140.286 23.8531 140.044L23.8527 140.044L23.8524 140.043L23.852 140.043L23.8517 140.043C23.4813 139.68 23.1129 139.319 22.7545 138.939C19.9607 136.026 17.3216 132.969 14.8479 129.78C13.9885 128.645 13.1897 127.465 12.4548 126.246C12.2448 125.889 12.0373 125.552 11.8274 125.211L11.8265 125.21L11.8261 125.209L11.8259 125.209L11.8257 125.208L11.8255 125.208C11.4562 124.608 11.0795 123.996 10.6691 123.245C12.0682 125.408 12.013 125.04 11.5344 124.166C11.1069 123.379 10.7259 122.567 10.393 121.736C9.65667 120.447 8.81907 118.809 8.02749 116.949L7.90078 116.652L7.76571 116.336C7.04319 114.644 6.26094 112.812 5.58834 110.893C4.09681 106.699 2.86719 102.417 1.90659 98.0713C2.35986 100.29 2.30338 100.038 2.13781 99.2993C1.95372 98.4782 1.63478 97.0557 1.7317 97.7583C1.84159 98.4061 1.9951 99.0503 2.14882 99.6954C2.23973 100.077 2.33072 100.459 2.41282 100.842C3.07712 103.935 3.93168 106.985 4.97163 109.973C5.77385 112.219 6.64129 114.342 7.24205 115.813L7.24216 115.813C7.57189 116.62 7.82128 117.231 7.93544 117.557C6.49353 114.507 6.4455 114.602 6.4207 114.651C6.41938 114.653 6.41812 114.656 6.41673 114.658C6.3898 114.693 6.38038 114.677 6.12378 114.223L6.10378 114.188C5.87426 113.783 5.56842 113.002 5.02241 111.608L5.02238 111.608C4.91151 111.325 4.79074 111.017 4.65869 110.681C4.05362 109.064 4.09024 108.973 4.13249 108.869C4.16287 108.793 4.19616 108.711 3.99597 108.049C4.08245 108.072 3.84751 107.279 3.56713 106.332L3.56707 106.332L3.56703 106.332C3.39983 105.767 3.21649 105.149 3.07553 104.616C2.98763 104.352 2.89797 104.09 2.80845 103.828L2.80843 103.828L2.80841 103.828L2.8084 103.828L2.80835 103.828C2.60734 103.241 2.40701 102.655 2.22872 102.057L1.50159 99.4704C1.73643 100.757 2.27483 102.822 2.62539 104.167C2.98932 105.562 3.15081 106.182 2.56009 104.349L2.54039 104.277C2.30331 103.411 1.9916 102.272 1.74089 101.081L1.68578 100.82C1.44327 99.669 1.18481 98.4428 1.01376 97.3994C0.975476 97.1658 0.937192 96.9375 0.900149 96.7165L0.900036 96.7159C0.759006 95.8747 0.635992 95.141 0.599551 94.6381C0.553529 94.003 0.56275 93.7452 0.64559 94.0858C0.706406 94.1419 1.0359 95.715 1.31382 97.042L1.31384 97.0421L1.31387 97.0422C1.58274 98.3259 1.80334 99.3791 1.68566 98.6051C1.61181 98.1194 1.53094 97.6354 1.4501 97.1516C1.26898 96.0676 1.08797 94.9842 0.986147 93.8833C0.940029 93.3846 0.885785 92.8878 0.831615 92.3916L0.831599 92.3915C0.71279 91.3033 0.594334 90.2183 0.562726 89.1246L0.351043 88.2778C0.334775 88.0566 0.313905 87.8376 0.293719 87.6259L0.293716 87.6259C0.256798 87.2385 0.222168 86.8752 0.222168 86.5658V85.1668V83.243C0.231372 82.3134 0.323431 82.0833 0.323431 82.4147C0.379928 82.7052 0.413422 83.4186 0.461926 84.4517C0.524051 85.775 0.6108 87.6227 0.802048 89.7781C0.795171 90.3559 0.834539 90.9284 0.874082 91.5035L0.874087 91.5036C0.887465 91.6981 0.900863 91.893 0.912497 92.0884C1.00391 93.1244 1.17316 94.1521 1.41875 95.1627C1.50578 95.4238 1.53566 95.4049 1.56694 95.3851C1.57536 95.3798 1.58388 95.3744 1.59364 95.3744L2.13669 98.2646C2.14082 98.3161 2.13848 98.3423 2.13618 98.3678C2.12825 98.4564 2.12093 98.5381 2.3852 99.6452C2.77179 101.293 2.84544 101.569 3.20441 102.756C2.86384 101.615 2.5601 100.234 2.28397 98.8537C2.08596 97.8636 1.92107 96.8593 1.76556 95.9121L1.76554 95.912L1.76553 95.912L1.76552 95.9119L1.7655 95.9118L1.76547 95.9116C1.70415 95.5381 1.64429 95.1735 1.58443 94.8221C1.28989 92.337 1.1334 90.5237 1.28988 90.8643C1.36838 91.4001 1.4393 92.0335 1.51528 92.7122C1.64421 93.8637 1.78776 95.1458 2.00782 96.304C2.14111 97.021 2.12752 96.859 2.11373 96.6947C2.09991 96.53 2.08589 96.3629 2.21953 97.0772C2.36525 98.2339 2.58308 99.3004 2.84624 100.589L2.84626 100.589L2.85464 100.63C3.18817 102.253 3.60911 103.857 4.11563 105.435C4.94403 107.782 5.39503 108.997 7.12545 113.433C7.37929 114.049 7.60294 114.619 7.8167 115.163L7.81695 115.163L7.81698 115.163C8.23871 116.237 8.622 117.212 9.12282 118.257C10.0344 120.306 11.0703 122.298 12.2247 124.221L12.5459 124.691C13.4719 126.045 14.298 127.253 15.1241 128.335L15.1977 128.433C15.6325 129.007 16.0604 129.572 16.5047 130.112L17.913 131.778C19.7815 133.996 21.7604 136.168 24.5217 138.976L26.0313 140.494C26.4356 140.712 25.8212 140.101 24.7469 139.032L24.7465 139.032C23.9132 138.202 22.8033 137.098 21.6776 135.892C19.5723 133.69 17.6657 131.306 15.9801 128.768C15.4462 128.078 14.7927 127.203 14.1392 126.283L12.1695 123.282L10.4943 120.447C10.162 119.848 9.89425 119.317 9.68783 118.909C9.60265 118.74 9.52791 118.592 9.46337 118.468C9.02156 117.428 8.57974 116.379 8.21156 115.311C9.68208 118.469 10.3953 119.548 11.2404 120.827L11.2406 120.827C11.6174 121.397 12.0204 122.007 12.5284 122.859C12.7426 123.209 12.9885 123.62 13.2481 124.054L13.2485 124.054L13.2489 124.055L13.2499 124.057C13.8154 125.002 14.4449 126.054 14.9492 126.817C15.6855 127.93 16.0169 128.51 15.1701 127.424C16.4035 129.228 18.7322 132.229 18.4653 131.667C19.4961 132.983 20.5363 134.235 21.6132 135.349C22.0079 135.757 22.3915 136.167 22.7703 136.571C23.425 137.27 24.0654 137.953 24.7242 138.589C26.6816 140.537 28.7401 142.38 30.8912 144.112C35.2001 147.638 39.9156 150.635 44.9371 153.04C47.7076 154.411 49.5669 155.277 50.745 155.801C51.3424 156.012 51.8995 156.324 52.3926 156.722C52.2001 156.722 50.9883 156.233 50.1391 155.891L50.1387 155.891C49.364 155.579 48.8912 155.388 49.7694 155.801C50.1537 155.942 50.5841 156.102 51.0487 156.274L51.049 156.274C53.1437 157.054 55.9339 158.091 58.3294 158.747C59.7837 159.188 61.0907 159.492 61.9283 159.667C62.7659 159.842 63.1617 159.897 62.8488 159.731L61.0079 159.271C61.0708 159.283 61.234 159.316 61.4304 159.356C61.9709 159.466 62.763 159.626 62.4098 159.527C64.3478 160.009 65.8432 160.385 63.9349 160.118C67.7671 160.774 67.6053 160.694 67.3632 160.574C67.1809 160.483 66.953 160.37 68.353 160.532C74.9237 161.477 81.5859 161.607 88.1884 160.919C94.683 160.18 101.068 158.681 107.214 156.455C108.309 156.087 107.987 156.326 106.956 156.703C106.696 156.798 106.398 156.913 106.07 157.038L106.064 157.04L106.062 157.041C105.089 157.413 103.862 157.883 102.639 158.24C101.795 158.487 100.994 158.739 100.339 158.945C99.7223 159.138 99.2341 159.292 98.9576 159.363L98.9089 159.378L98.8684 159.389C98.7028 159.437 98.7028 159.437 98.9576 159.437C99.6247 159.326 100.285 159.178 100.937 158.995L101.375 158.854L101.375 158.854C102.603 158.459 103.623 158.131 104.563 157.743C104.97 157.576 105.371 157.425 105.775 157.273L105.775 157.272L105.776 157.272L105.776 157.272L105.777 157.272L105.777 157.272L105.778 157.271L105.778 157.271L105.778 157.271L105.778 157.271L105.78 157.271C106.417 157.031 107.062 156.788 107.748 156.473C108.198 156.266 108.68 156.069 109.199 155.855C109.974 155.537 110.833 155.184 111.798 154.715C112.635 154.365 113.565 153.969 114.559 153.445C114.965 153.23 115.395 153.014 115.845 152.788C116.496 152.461 117.189 152.112 117.919 151.714C118.422 151.383 119.03 150.997 119.715 150.561C121.999 149.108 125.146 147.106 128.191 144.756C131.818 142.024 135.144 138.913 138.113 135.478C140.793 132.529 143.254 129.388 145.476 126.08C147.496 122.974 149.354 119.767 151.045 116.471C152.021 114.234 152.564 112.982 153.015 111.767C153.095 111.551 153.174 111.342 153.252 111.135C153.614 110.177 153.963 109.251 154.386 107.791C154.946 106.203 155.26 105.206 155.466 104.552L155.466 104.552C155.6 104.13 155.688 103.851 155.767 103.649C155.843 103.455 155.903 103.327 155.961 103.203C156.057 102.996 156.149 102.796 156.31 102.315L155.776 104.514C155.904 104.098 156.022 103.72 156.134 103.365L156.134 103.365C156.416 102.465 156.651 101.717 156.862 100.879C157.288 99.3634 157.635 97.8273 157.902 96.2764L158.096 94.6104C158.1 94.5549 158.105 94.4992 158.11 94.4435L158.127 94.2507C158.167 93.8156 158.206 93.3772 158.206 92.9445C158.248 92.638 158.3 92.3202 158.354 91.9912L158.354 91.9909L158.354 91.9905L158.354 91.9901L158.354 91.99C158.454 91.3804 158.561 90.7321 158.62 90.0451C158.672 89.4484 158.727 88.8313 158.783 88.2002L158.784 88.1943L158.79 88.1279L158.79 88.1257L158.791 88.1062C158.832 87.6481 158.874 87.1829 158.915 86.7131C159.025 84.4028 159.09 81.9912 158.97 79.8006C158.821 77.5412 158.753 78.0155 158.696 78.4126V78.4127C158.665 78.6286 158.638 78.8217 158.602 78.5396C158.524 77.5779 158.469 76.6292 158.418 75.7511C158.373 74.9735 158.332 74.2513 158.28 73.6244C158.185 72.855 158.142 72.0801 158.151 71.305L158.243 72.0229C158.538 73.0814 157.608 66.5555 156.835 63.7942C156.585 62.6143 156.304 61.7641 156.094 61.1292L156.093 61.1289L156.093 61.1287L156.092 61.1242C156.024 60.9191 155.964 60.7366 155.914 60.5726C155.8 60.1822 155.642 59.8056 155.445 59.4497ZM62.4098 159.527L62.2865 159.496L61.7816 159.37C61.6498 159.337 61.5174 159.304 61.3853 159.271C61.958 159.409 62.2716 159.488 62.4098 159.527ZM51.9021 158.115L51.5906 158.019C51.4262 158.019 51.5066 158.06 51.5926 158.104C51.6058 158.11 51.6191 158.117 51.6318 158.124C51.6473 158.132 51.6618 158.14 51.6735 158.148C51.7563 158.203 51.6735 158.203 50.9555 157.909C50.7973 157.844 50.5983 157.768 50.356 157.676L50.3559 157.676L50.3556 157.676C49.4989 157.35 48.1013 156.818 46.0496 155.828C48.0894 156.715 47.1209 156.26 46.2995 155.882L46.334 155.898C47.5464 156.427 48.7611 156.958 50.0075 157.402L51.9021 158.115ZM51.9021 158.115L54.131 158.801L52.014 158.157L51.9021 158.115ZM51.294 155.519L51.2958 155.52L51.2977 155.521L51.2978 155.521L51.2979 155.521C51.8482 155.753 52.403 155.987 52.9722 156.199C52.6609 156.087 52.3786 155.99 52.0979 155.893L52.0974 155.893C51.2864 155.612 50.4896 155.337 49.0503 154.743C49.3896 154.867 49.7382 154.967 50.0862 155.068L50.2444 155.114L50.3528 155.146L50.4293 155.168L50.5138 155.194C50.7704 155.299 51.027 155.407 51.2846 155.515L51.2853 155.516L51.286 155.516L51.2866 155.516L51.2885 155.517L51.2903 155.518L51.2922 155.519L51.294 155.519ZM53.3211 156.326C53.2003 156.281 53.0843 156.239 52.9722 156.199C53.0879 156.242 53.2042 156.284 53.3211 156.326ZM59.2718 159.911C59.0689 159.864 58.8657 159.817 58.661 159.776C59.707 160.09 60.6127 160.297 61.425 160.482L61.5604 160.513L63.9167 161.102C65.4446 161.341 65.0764 161.24 64.0271 161.019L60.1705 160.098C59.869 160.049 59.5707 159.98 59.2718 159.911ZM2.4354 95.9994L2.83677 98.2918L3.37983 100.63L3.2878 99.9762C3.13922 99.1398 3.03175 98.7186 2.91844 98.2745C2.78863 97.7657 2.65115 97.2269 2.4354 95.9994ZM60.8974 161.112C63.2261 161.692 65.5824 162.106 67.9479 162.483C67.593 162.407 67.2381 162.305 66.8861 162.204C66.727 162.158 66.5684 162.112 66.4108 162.069C64.9749 161.793 64.1557 161.646 63.6495 161.572C63.419 161.506 63.1805 161.472 62.9407 161.471C62.9317 161.471 62.9234 161.472 62.9153 161.473L62.9002 161.475L62.8927 161.476C62.7697 161.492 62.6135 161.512 60.8974 161.112ZM75.1642 4.26958C75.8021 4.2052 76.4475 4.19293 77.0909 4.1807C77.4593 4.1737 77.8271 4.16671 78.1924 4.14995C78.6841 4.1274 79.1934 4.09821 79.6294 4.07322C80.0832 4.04722 80.4575 4.02577 80.65 4.02107C80.8032 4.01734 80.8623 4.00298 80.8046 3.98417H82.3991C82.7388 4.00132 83.0792 3.97347 83.4116 3.90133C84.1186 3.94552 84.8571 4.01329 85.6089 4.08227C86.2663 4.1426 86.9339 4.20386 87.5996 4.2511C88.5533 4.31878 89.5234 4.45639 90.4825 4.59244C90.9582 4.65991 91.4312 4.72699 91.898 4.78497C93.0543 4.92856 94.1733 5.15899 95.2194 5.37441C95.4474 5.42137 95.672 5.46762 95.8927 5.5121C96.8966 5.71437 97.809 5.96542 98.6101 6.18585C98.7932 6.23625 98.9706 6.28505 99.1419 6.3313C103.652 7.30545 108.035 8.79722 112.203 10.777C116.714 12.9192 121.066 15.3799 125.227 18.1405C129.325 21.0474 133.163 24.3058 136.696 27.8788C140.144 31.3341 143.26 35.106 146.001 39.1449C146.821 40.0653 147.115 40.1482 146.848 39.375C146.605 38.7442 146.322 38.1293 146.001 37.5341C145.532 36.7334 144.915 35.7117 144.133 34.4599C141.026 29.928 137.427 25.7544 133.401 22.0156C128.612 17.5577 123.277 13.7257 117.523 10.6113C117.155 10.4416 116.788 10.2659 116.417 10.0888C115.582 9.68967 114.734 9.28401 113.841 8.92694C113.43 8.76228 113.013 8.58822 112.59 8.41107C111.687 8.03369 110.75 7.64227 109.755 7.29775L107.766 6.46015L105.741 5.72381C105.511 5.64167 105.28 5.55627 105.049 5.4706C104.606 5.30667 104.161 5.14174 103.707 4.99665L101.645 4.36155C97.3774 3.17154 93.0131 2.35845 88.6029 1.93161C87.8497 1.85301 87.1011 1.8117 86.3672 1.77119C86.0697 1.75477 85.7746 1.73848 85.4826 1.7199L84.0007 1.63706H82.5832H79.9692L77.7325 1.78433C77.1354 1.78433 76.7648 1.77227 76.4479 1.76196C75.9342 1.74524 75.5615 1.73311 74.5938 1.78433L71.8325 2.03284L68.4545 2.47466C67.6662 2.56224 66.8865 2.7136 66.1355 2.85938C65.7816 2.9281 65.434 2.99557 65.0949 3.05454L63.613 3.35828L62.3612 3.69883L58.6794 4.4352C58.4493 4.48122 58.236 4.52166 58.0199 4.56263C57.5012 4.66094 56.9669 4.76222 56.1482 4.95064C51.6709 6.38555 47.3054 8.14834 43.0872 10.2247C38.8794 12.3053 34.8947 14.8096 31.1951 17.6987C30.3575 18.2418 29.3542 18.9965 28.2037 19.8893C27.0532 20.7822 25.9118 21.8591 24.7705 22.9912C24.5422 23.2177 24.3124 23.4442 24.0826 23.6706C23.1637 24.5763 22.2447 25.482 21.4201 26.3877L19.883 27.9616C19.4135 28.477 18.9625 28.9465 18.5391 29.3699C15.5305 32.7713 12.8436 36.4442 10.5129 40.3415C9.10347 42.7006 7.87277 45.162 6.83112 47.705C6.91191 47.3607 7.0165 47.0224 7.1441 46.6925C7.23614 46.4256 7.01524 46.5452 6.22366 48.3309L5.65296 49.6747L5.41367 50.2454C5.37865 50.3234 5.34792 50.4033 5.32162 50.4847C5.15594 50.8345 4.40119 52.6569 3.62802 54.6635L2.58792 57.7378C2.33969 58.447 2.16797 59.1562 2.03908 59.6886C2.00069 59.8471 1.9661 59.99 1.93441 60.1125C1.7043 61.0329 1.65828 61.3367 1.75953 61.1342C2.45906 58.9251 2.67997 58.5201 2.59713 59.2473C2.55832 59.5879 2.44073 60.173 2.286 60.9429C2.11044 61.8164 1.88707 62.9278 1.67669 64.19L1.36375 66.0309C1.30376 66.4126 1.2567 66.804 1.20917 67.1994C1.17647 67.4713 1.14354 67.7452 1.10603 68.019C1.01398 68.691 0.931115 69.3813 0.848276 70.0716L0.682604 72.1334L0.53533 74.14L0.480106 76.0269C0.480106 76.4432 0.470079 76.8461 0.46049 77.2314C0.442518 77.9536 0.426089 78.6138 0.480106 79.184V82.4055C0.579872 78.0113 0.979675 73.629 1.67669 69.2893C1.50386 69.9559 1.68426 68.8195 1.86257 67.6964C1.88367 67.5634 1.90474 67.4307 1.9252 67.3011C2.02645 66.6844 2.11848 66.1414 2.1461 65.9941C2.17371 65.8468 2.06328 66.0677 1.87919 67.0158L1.879 67.0169C1.7502 67.7713 1.62141 68.5257 1.50181 69.28C1.45113 69.5997 1.38394 69.9656 1.31353 70.349C1.21769 70.871 1.11587 71.4254 1.04159 71.9401C0.99863 72.2378 0.951578 72.5354 0.904526 72.8331C0.810439 73.4282 0.716351 74.0234 0.654992 74.6186C0.714776 73.7883 0.84168 72.7662 0.983801 71.6215C1.03861 71.1801 1.09568 70.7204 1.15204 70.2465L1.62147 67.6325C1.6951 67.1815 1.77792 66.712 1.86076 66.2794L2.17371 64.9356L2.77202 62.3307L3.41631 59.9744C3.5872 59.2951 3.76801 58.6773 3.92652 58.1357C4.1095 57.5104 4.26276 56.9867 4.33674 56.5872C5.45803 53.422 6.85961 50.3632 8.52475 47.4473C10.4824 43.4891 12.7831 39.7101 15.4004 36.1535C17.7701 32.9094 20.3368 29.8139 23.0861 26.8847C27.7725 22.1693 29.7799 20.8454 31.3241 19.827C31.7422 19.5513 32.1264 19.2979 32.5206 19.0057L35.1898 17.0636C35.8077 16.6247 36.4655 16.2076 37.1176 15.794C37.5049 15.5484 37.8903 15.304 38.2641 15.057L42.7559 12.3694C45.0146 11.2256 47.3451 10.2295 49.7328 9.38716C49.8956 9.33489 50.0543 9.28381 50.2096 9.23387C51.7217 8.74734 52.9007 8.36801 54.2613 8.03412C55.7759 7.53294 56.8456 7.22289 57.6912 6.97778C58.2588 6.81325 58.7255 6.67798 59.158 6.5338C60.235 6.17483 61.1462 5.92632 62.9687 5.44769C68.206 4.426 67.6905 4.70211 67.3407 4.84938C67.3322 4.85296 67.3239 4.85647 67.3157 4.85989C66.987 4.99716 66.9811 4.99964 72.8634 4.37998C73.3435 4.35265 73.8402 4.31208 74.3443 4.2709C74.8422 4.23023 75.3473 4.18897 75.8509 4.15929C75.6216 4.1929 75.3926 4.22967 75.1642 4.26958Z" fill="white" fill-opacity="0.5"/>
</svg>
