<svg width="162" height="163" viewBox="0 0 162 163" fill="none" xmlns="http://www.w3.org/2000/svg">
<path d="M1.51479 81.7486C1.43507 87.1117 1.90242 92.469 2.90953 97.7373C3.63531 101.349 4.60431 104.907 5.80988 108.387C7.13612 112.198 8.74786 115.903 10.6314 119.471C12.5976 123.118 14.8233 126.618 17.2911 129.946C19.7089 133.146 22.3577 136.165 25.2162 138.979C27.8219 141.54 30.5993 143.919 33.5293 146.101C35.953 147.908 38.4754 149.58 41.0849 151.107C46.5557 154.311 52.388 156.854 58.4591 158.681C59.3828 158.958 59.5583 159.004 59.0688 158.866C58.5792 158.727 57.4062 158.423 55.7528 157.822C50.642 156.103 45.7257 153.853 41.0849 151.107C34.7184 147.402 28.8963 142.833 23.7845 137.529C27.3183 141.282 31.2065 144.685 35.3951 147.69C38.9133 150.199 42.6188 152.435 46.4791 154.377C59.9771 160.843 75.0099 163.421 89.891 161.82C104.772 160.22 118.913 154.504 130.727 145.316C135.582 141.539 139.992 137.222 143.871 132.449C147.704 127.72 151.005 122.584 153.717 117.134C145.782 133.372 132.634 146.481 116.373 154.368C100.108 162.212 81.6874 164.396 64.0381 160.575C64.9618 160.815 65.9316 160.963 66.8738 161.147C85.586 164.566 104.904 161.262 121.417 151.818C124.238 150.191 126.967 148.408 129.591 146.479C126.971 148.414 124.241 150.197 121.417 151.818C117.802 153.92 114.025 155.727 110.12 157.222C100.523 160.976 90.2735 162.778 79.9715 162.524C75.5735 162.452 71.1905 161.992 66.8738 161.147L64.7955 160.769L62.745 160.288C62.0615 160.122 61.378 159.984 60.6944 159.79L58.6716 159.208C57.8865 158.995 57.0367 158.774 56.1869 158.469H56.2885C61.1131 160.164 66.1044 161.34 71.1781 161.979C80.4102 163.206 89.785 162.828 98.8882 160.861C103.789 159.804 108.579 158.289 113.196 156.335C117.44 154.544 121.517 152.38 125.379 149.869C130.428 146.588 135.091 142.749 139.28 138.425C142.5 135.094 145.407 131.473 147.963 127.609C150.659 123.534 153.007 119.239 154.983 114.77C156.252 111.997 157.344 109.146 158.253 106.235C158.326 105.921 158.659 104.665 158.992 103.372C160.766 97.1698 161.738 90.7657 161.883 84.3164C161.929 82.4691 162.086 78.8668 161.938 75.6709C161.938 74.8673 161.873 74.0914 161.846 73.3709L161.67 71.4035C161.559 70.2489 161.476 69.4453 161.421 69.2513C161.109 68.4283 160.889 67.5733 160.765 66.702C160.682 66.2309 160.626 65.5751 160.396 64.5036C160.165 63.4322 159.915 61.9081 159.269 59.7744C159.112 59.2664 158.816 58.158 158.345 57.0034L157.052 53.4565C156.098 50.7938 154.972 48.1959 153.68 45.6792C153.089 44.5893 152.544 43.4255 151.759 42.1601L150.54 40.0818C150.097 39.3336 149.552 38.5577 148.997 37.6802C146.491 33.9167 143.713 30.3417 140.684 26.9841C139.447 25.6817 138.255 24.3794 136.777 23.04C136.057 22.3473 135.281 21.6268 134.385 20.9064C133.489 20.1859 132.538 19.3454 131.448 18.5325C128.884 16.5278 126.204 14.6772 123.421 12.9905C119.597 10.6906 115.708 8.88014 115.708 8.88014C110.546 6.42065 105.133 4.52838 99.5625 3.23653C94.6999 2.12418 89.7592 1.38614 84.7838 1.02895C78.0472 0.855438 71.3115 1.40982 64.6939 2.68234C57.8773 4.04604 51.2732 6.31366 45.0567 9.42514C40.4808 11.7368 36.1086 14.4312 31.9867 17.4796C28.1667 20.2801 24.6083 23.4211 21.3553 26.864C20.2561 28.0371 19.3509 29.127 18.5196 30.06L16.469 32.6001C15.8409 33.3113 14.9634 34.6783 13.9382 36.1377C13.4486 36.8859 13.0145 37.6895 12.4788 38.4561C11.943 39.2228 11.5551 39.9894 11.1302 40.6914L11.4351 39.934C10.8993 40.8577 9.7632 42.705 9.28288 43.6841C8.80258 44.6632 8.87645 44.3861 8.96881 44.1274C9.14432 43.6102 9.32907 43.1022 8.41463 44.7648C3.98915 52.9349 1.22653 61.9009 0.286331 71.1448C0.307724 71.551 0.307724 71.958 0.286331 72.3641C0.11084 73.7034 0.101608 75.0612 0 76.4005C0.0461884 77.2134 0.184723 76.9455 0.212433 77.4905C0.507996 77.4905 0.665039 83.1249 0.979095 81.7763C1.03452 81.5084 1.07141 79.4487 1.22844 77.0286C1.34853 75.8186 1.4409 74.5255 1.58868 73.334C1.73648 72.1424 1.93971 71.0248 2.07826 70.1657C2.21681 69.3067 2.07826 71.2372 2.07826 72.0131C2.21681 70.8954 2.31842 70.0457 2.42926 69.4268C2.5401 68.808 2.64168 68.42 2.6971 68.226C2.80794 67.8473 2.78947 68.226 2.6971 69.1497L3.08504 67.0807V68.1429C4.14165 62.3747 5.82982 56.7402 8.11905 51.3413C10.421 46.0373 13.2395 40.9727 16.5337 36.2208L17.6883 34.5582L19.1015 32.7109C20.0252 31.4085 21.1243 30.1708 21.9556 29.1547C22.362 28.6375 23.1102 27.8893 23.803 27.1689C24.4957 26.4484 25.1977 25.7279 25.5949 25.3769C26.1534 24.8145 26.6519 24.1954 27.082 23.5296C28.5969 22.1533 30.6105 20.4445 32.8457 18.7727C33.9449 17.849 35.1641 17.1286 36.3095 16.2973C37.4548 15.466 38.7018 14.7732 39.8287 14.0435C44.447 11.2725 48.3357 9.52675 48.0124 9.42514L50.0537 8.50146L51.7995 7.79947C52.8709 7.35611 53.7854 6.95892 54.7367 6.63564C55.6881 6.31235 56.6395 5.92442 57.7756 5.55495C58.9118 5.18549 60.2234 4.7883 61.8952 4.39111C66.8063 3.14708 71.8272 2.38603 76.8864 2.11887C88.6503 1.46396 100.413 3.42288 111.33 7.85489C112.392 8.24283 113.381 8.77856 114.387 9.19421C115.394 9.60988 116.346 10.1179 117.269 10.589C135.877 20.0586 150.016 36.4635 156.636 56.2645C163.14 75.7806 161.95 97.0429 153.311 115.712C148.58 125.935 141.723 135.031 133.199 142.394C124.674 149.758 114.678 155.219 103.876 158.413C93.4721 161.503 82.5487 162.446 71.7692 161.184C61.7288 159.996 52.009 156.895 43.1354 152.049C35.1983 147.692 28.0458 142.038 21.9741 135.322C19.3102 132.324 16.8654 129.138 14.6587 125.789C12.6816 122.754 10.9014 119.594 9.32906 116.331C6.81297 110.982 4.8925 105.372 3.60228 99.6031C2.75587 95.8325 2.19092 92.0041 1.912 88.1496C1.65338 86.0067 1.65334 83.8823 1.51479 81.7486Z" fill="white" fill-opacity="0.5"/>
</svg>
