<svg width="161" height="162" viewBox="0 0 161 162" fill="none" xmlns="http://www.w3.org/2000/svg">
<path fill-rule="evenodd" clip-rule="evenodd" d="M84.4058 0.165919C81.2671 -0.0549864 86.7897 -0.147025 91.5024 0.488078C92.0914 0.543304 93.0119 0.736605 94.0612 0.95751C94.3778 1.02416 94.7078 1.08831 95.0444 1.15372L95.0445 1.15374C95.8234 1.30512 96.6376 1.46336 97.4024 1.67545L100.274 2.43019C100.687 2.53064 101.086 2.68216 101.462 2.88122C98.6893 2.0793 95.8664 1.46429 93.0119 1.04035C91.7763 0.83441 90.5701 0.702189 89.3143 0.564522L88.8699 0.51569C88.0477 0.424932 87.207 0.368235 86.3387 0.309679C85.71 0.267279 85.0668 0.223904 84.4058 0.165919ZM155.445 58.5317C155.647 59.3233 155.767 59.8019 155.841 60.1333C155.516 58.8255 155.238 57.8233 155.03 57.073C154.796 56.2286 154.65 55.7033 154.626 55.4207C154.58 54.8868 154.847 55.2274 155.27 55.9913C155.829 56.9992 156.324 58.0414 156.752 59.1116C156.944 59.575 157.137 60.0299 157.316 60.4499L157.316 60.4501C157.591 61.0978 157.831 61.6626 157.976 62.0478L158.602 64.2845C159.692 69.5125 160.235 74.8399 160.222 80.1804C160.212 85.5828 159.675 90.9713 158.62 96.2697C159.191 93.7385 159.209 94.1159 159.062 95.3493L158.786 97.5675C158.748 97.796 158.707 98.0197 158.667 98.2324L158.667 98.2348L158.667 98.2357C158.573 98.7413 158.492 99.1844 158.492 99.482C157.308 104.194 155.77 108.809 153.889 113.289C151.889 118.069 149.361 122.61 146.351 126.828L144.685 129.295C144.412 129.705 144.148 130.063 143.9 130.4C143.73 130.631 143.568 130.851 143.415 131.071C143.037 131.615 142.697 132.102 142.283 132.673C141.941 133.143 141.562 133.614 141.125 134.156C141.032 134.272 140.936 134.391 140.838 134.514C140.78 134.584 140.724 134.653 140.668 134.721C140.309 135.16 139.969 135.576 139.595 135.95C139.304 136.241 139.026 136.527 138.752 136.81L138.747 136.814L138.747 136.815L138.746 136.815L138.746 136.815L138.74 136.821C138.61 136.955 138.481 137.088 138.352 137.22C137.622 137.976 136.916 138.645 136.254 139.272L136.253 139.272L136.088 139.429C135.83 139.674 135.583 139.914 135.345 140.146C134.931 140.551 134.541 140.931 134.155 141.27C133.548 141.804 133.051 142.301 132.627 142.77C130.39 144.65 128.048 146.401 125.613 148.017C126.601 147.3 126.384 147.443 125.5 148.024C125.304 148.152 125.077 148.301 124.822 148.468C121.117 150.975 117.203 153.158 113.123 154.994C111.135 155.951 109.156 156.779 107.453 157.359C106.161 157.799 105.045 158.234 104.179 158.571L104.179 158.571C103.903 158.678 103.653 158.775 103.431 158.859L101.01 159.614C100.246 159.854 99.2889 160.065 98.3593 160.249C98.082 160.304 97.808 160.361 97.5426 160.416L97.5409 160.416L97.5407 160.416L97.5397 160.416L97.5382 160.416C96.9156 160.545 96.3408 160.664 95.8833 160.728C94.5671 160.903 94.1897 160.912 96.4079 160.433L97.1811 160.176C93.5809 161.095 89.8944 161.634 86.1819 161.786C82.5093 162.026 78.6711 161.971 74.0045 161.786C72.6699 161.676 71.3352 161.538 70.0006 161.363C68.6659 161.188 67.3405 161.013 66.0243 160.737C66.1163 160.728 66.8343 160.82 67.6995 160.94L70.3227 161.17C71.731 161.28 71.9335 161.28 67.1288 160.571C66.3096 160.406 65.3247 160.213 64.2754 160.028C63.6619 159.921 63.0294 159.775 62.3928 159.629L62.3917 159.629L62.3905 159.629L62.3893 159.628L62.3879 159.628C61.9375 159.524 61.4849 159.42 61.0355 159.329C59.9895 159.116 58.9862 158.835 58.0914 158.584L57.9889 158.556C57.6848 158.471 57.3927 158.392 57.1171 158.319L57.1168 158.319C56.5582 158.169 56.0668 158.038 55.6786 157.902L53.6904 157.341C50.7174 156.291 48.3979 155.362 45.9403 154.285C43.0488 153.015 40.2527 151.539 37.5736 149.867C36.2321 149.058 36.5697 149.303 37.2728 149.811L37.4263 149.922C37.9227 150.281 38.5854 150.687 39.0042 150.943C39.261 151.1 39.4262 151.201 39.4052 151.201L41.5038 152.361L43.2711 153.282L44.7806 154.064L46.2441 154.782C46.6103 155.023 46.5099 155.024 46.038 154.845C46.1206 154.882 46.2092 154.923 46.2995 154.964L46.0496 154.855L45.9693 154.818L45.9254 154.801L45.8759 154.782C44.8573 154.377 43.8617 153.916 42.8937 153.401C40.6238 152.294 38.4339 151.03 36.3402 149.618C35.4566 149.02 35.5394 148.983 35.7327 149.02C35.7626 149.026 35.7959 149.033 35.8293 149.041C36.0116 149.083 36.1989 149.127 35.88 148.854C35.7535 148.715 35.5358 148.554 35.2119 148.315C35.0644 148.206 34.8948 148.081 34.7018 147.934C34.0851 147.464 33.2015 146.811 31.9405 145.891C31.8418 145.845 31.5706 145.661 31.3249 145.495C30.9288 145.228 30.5992 145.005 31.1673 145.476L28.6729 143.543L26.5375 141.703C25.838 141.095 25.2121 140.488 24.5954 139.862C24.3486 139.611 24.1004 139.368 23.8531 139.126L23.8527 139.126L23.8524 139.125L23.852 139.125L23.8517 139.125C23.4813 138.762 23.1129 138.401 22.7545 138.021C19.9607 135.108 17.3216 132.051 14.8479 128.862C13.9885 127.727 13.1897 126.547 12.4548 125.328C12.2448 124.971 12.0373 124.634 11.8274 124.293L11.8265 124.292L11.8261 124.291L11.8259 124.291L11.8257 124.29L11.8255 124.29C11.4562 123.69 11.0795 123.078 10.6691 122.327C12.0682 124.49 12.013 124.122 11.5344 123.248C11.1069 122.461 10.7259 121.649 10.393 120.818C9.65667 119.529 8.81907 117.891 8.02749 116.032L7.90078 115.734L7.76571 115.418C7.04319 113.726 6.26094 111.894 5.58834 109.975C4.09681 105.781 2.86719 101.499 1.90659 97.1533C2.35986 99.3718 2.30338 99.1198 2.13781 98.3814C1.95372 97.5603 1.63478 96.1377 1.7317 96.8404C1.84159 97.4882 1.9951 98.1323 2.14882 98.7774C2.23973 99.1589 2.33072 99.5407 2.41282 99.9238C3.07712 103.017 3.93168 106.067 4.97163 109.055C5.77385 111.301 6.64129 113.424 7.24205 114.895L7.24216 114.895C7.57189 115.702 7.82128 116.313 7.93544 116.639C6.49353 113.589 6.4455 113.684 6.4207 113.733C6.41938 113.735 6.41812 113.738 6.41673 113.74C6.3898 113.776 6.38038 113.759 6.12378 113.306L6.10378 113.27C5.87426 112.865 5.56842 112.084 5.02241 110.69L5.02238 110.69C4.91151 110.407 4.79074 110.099 4.65869 109.763C4.05362 108.146 4.09024 108.055 4.13249 107.951C4.16287 107.876 4.19616 107.793 3.99597 107.131C4.08245 107.154 3.84751 106.361 3.56713 105.414L3.56707 105.414L3.56703 105.414C3.39983 104.849 3.21649 104.231 3.07553 103.698C2.98763 103.434 2.89797 103.172 2.80845 102.91L2.80843 102.91L2.80841 102.91L2.8084 102.91L2.80835 102.91C2.60734 102.323 2.40701 101.737 2.22872 101.139L1.50159 98.5524C1.73643 99.8395 2.27483 101.904 2.62539 103.249C2.98932 104.644 3.15081 105.264 2.56009 103.431L2.54039 103.359C2.30331 102.493 1.9916 101.354 1.74089 100.163L1.68578 99.9016C1.44327 98.751 1.18481 97.5248 1.01376 96.4814C0.975476 96.2479 0.937192 96.0195 0.900149 95.7986L0.900036 95.7979C0.759006 94.9567 0.635992 94.223 0.599551 93.7201C0.553529 93.085 0.56275 92.8273 0.64559 93.1678C0.706406 93.224 1.0359 94.7971 1.31382 96.124L1.31384 96.1241L1.31387 96.1242C1.58274 97.4079 1.80334 98.4611 1.68566 97.6872C1.61181 97.2014 1.53094 96.7175 1.4501 96.2336C1.26898 95.1496 1.08797 94.0663 0.986147 92.9653C0.940029 92.4667 0.885785 91.9698 0.831615 91.4737L0.831599 91.4735C0.71279 90.3853 0.594334 89.3003 0.562726 88.2066L0.351043 87.3599C0.334775 87.1386 0.313905 86.9197 0.293719 86.7079L0.293716 86.7079C0.256798 86.3206 0.222168 85.9573 0.222168 85.6478V84.2488V82.3251C0.231372 81.3954 0.323431 81.1653 0.323431 81.4967C0.379928 81.7872 0.413422 82.5007 0.461926 83.5338C0.524051 84.857 0.6108 86.7048 0.802048 88.8602C0.795171 89.4379 0.834539 90.0104 0.874082 90.5855L0.874087 90.5856C0.887465 90.7802 0.900863 90.975 0.912497 91.1705C1.00391 92.2065 1.17316 93.2341 1.41875 94.2447C1.50578 94.5058 1.53566 94.4869 1.56694 94.4671C1.57536 94.4618 1.58388 94.4564 1.59364 94.4564L2.13669 97.3466C2.14082 97.3982 2.13848 97.4243 2.13618 97.4499C2.12825 97.5385 2.12093 97.6202 2.3852 98.7273C2.77179 100.375 2.84544 100.651 3.20441 101.838C2.86384 100.697 2.5601 99.3163 2.28397 97.9357C2.08596 96.9456 1.92107 95.9413 1.76556 94.9942L1.76554 94.9941L1.76553 94.994L1.76552 94.9939L1.7655 94.9938L1.76547 94.9936C1.70415 94.6201 1.64429 94.2555 1.58443 93.9042C1.28989 91.419 1.1334 89.6057 1.28988 89.9463C1.36838 90.4822 1.4393 91.1155 1.51528 91.7942C1.64421 92.9458 1.78776 94.2279 2.00782 95.3861C2.14111 96.1031 2.12752 95.9411 2.11373 95.7768C2.09991 95.612 2.08589 95.445 2.21953 96.1592C2.36525 97.3159 2.58308 98.3825 2.84624 99.671L2.84626 99.6711L2.85464 99.7121C3.18817 101.335 3.60911 102.939 4.11563 104.517C4.94403 106.864 5.39503 108.079 7.12545 112.515C7.37929 113.131 7.60294 113.701 7.8167 114.245L7.81695 114.245L7.81698 114.245C8.23871 115.319 8.622 116.294 9.12282 117.339C10.0344 119.388 11.0703 121.38 12.2247 123.303L12.5459 123.773C13.4719 125.127 14.298 126.335 15.1241 127.417L15.1977 127.515C15.6325 128.089 16.0604 128.654 16.5047 129.194L17.913 130.86C19.7815 133.078 21.7604 135.25 24.5217 138.058L26.0313 139.576C26.4356 139.794 25.8212 139.183 24.7469 138.114L24.7465 138.114C23.9132 137.285 22.8033 136.18 21.6776 134.974C19.5723 132.772 17.6657 130.388 15.9801 127.85C15.4462 127.16 14.7927 126.285 14.1392 125.365L12.1695 122.364L10.4943 119.529C10.162 118.93 9.89425 118.399 9.68783 117.991C9.60265 117.822 9.52791 117.674 9.46337 117.55C9.02156 116.51 8.57974 115.461 8.21156 114.393C9.68208 117.551 10.3953 118.63 11.2404 119.909L11.2406 119.909C11.6174 120.479 12.0204 121.089 12.5284 121.941C12.7426 122.291 12.9885 122.702 13.2481 123.136L13.2485 123.136L13.2489 123.137L13.2499 123.139C13.8154 124.084 14.4449 125.136 14.9492 125.899C15.6855 127.012 16.0169 127.592 15.1701 126.506C16.4035 128.31 18.7322 131.311 18.4653 130.749C19.4961 132.066 20.5363 133.317 21.6132 134.431C22.0079 134.839 22.3915 135.249 22.7703 135.653C23.425 136.352 24.0654 137.035 24.7242 137.671C26.6816 139.619 28.7401 141.462 30.8912 143.194C35.2001 146.72 39.9156 149.717 44.9371 152.122C47.7076 153.493 49.5669 154.359 50.745 154.883C51.3424 155.095 51.8995 155.406 52.3926 155.804C52.2001 155.804 50.9883 155.315 50.1391 154.973L50.1387 154.973C49.364 154.661 48.8912 154.47 49.7694 154.883C50.1537 155.024 50.5841 155.184 51.0487 155.356L51.049 155.356C53.1437 156.136 55.9339 157.173 58.3294 157.829C59.7837 158.27 61.0907 158.574 61.9283 158.749C62.7659 158.924 63.1617 158.979 62.8488 158.813L61.0079 158.353C61.0708 158.365 61.234 158.398 61.4304 158.438C61.9709 158.548 62.763 158.708 62.4098 158.609C64.3478 159.091 65.8432 159.467 63.9349 159.2C67.7671 159.856 67.6053 159.776 67.3632 159.656C67.1809 159.565 66.953 159.452 68.353 159.614C74.9237 160.559 81.5859 160.689 88.1884 160.001C94.683 159.262 101.068 157.763 107.214 155.537C108.309 155.169 107.987 155.408 106.956 155.785C106.696 155.88 106.398 155.995 106.07 156.12L106.064 156.122L106.062 156.123C105.089 156.495 103.862 156.965 102.639 157.322C101.795 157.569 100.994 157.821 100.339 158.027C99.7223 158.22 99.2341 158.374 98.9576 158.445L98.9089 158.46L98.8684 158.471C98.7028 158.519 98.7028 158.519 98.9576 158.519C99.6247 158.408 100.285 158.26 100.937 158.077L101.375 157.936L101.375 157.936C102.603 157.541 103.623 157.213 104.563 156.825C104.97 156.658 105.371 156.507 105.775 156.355L105.775 156.354L105.776 156.354L105.776 156.354L105.777 156.354L105.777 156.354L105.778 156.353L105.778 156.353L105.778 156.353L105.778 156.353L105.78 156.353C106.417 156.113 107.062 155.87 107.748 155.555C108.198 155.348 108.68 155.151 109.199 154.937C109.974 154.619 110.833 154.266 111.798 153.797C112.635 153.447 113.565 153.052 114.559 152.527C114.965 152.312 115.395 152.096 115.845 151.87C116.496 151.543 117.189 151.194 117.919 150.796C118.422 150.465 119.03 150.079 119.715 149.643C121.999 148.19 125.146 146.188 128.191 143.838C131.818 141.106 135.144 137.996 138.113 134.56C140.793 131.611 143.254 128.47 145.476 125.162C147.496 122.056 149.354 118.849 151.045 115.553C152.021 113.316 152.564 112.064 153.015 110.849C153.095 110.633 153.174 110.424 153.252 110.217C153.614 109.259 153.963 108.333 154.386 106.873C154.946 105.285 155.26 104.288 155.466 103.634L155.466 103.634C155.6 103.212 155.688 102.933 155.767 102.731C155.843 102.537 155.903 102.409 155.961 102.285C156.057 102.078 156.149 101.879 156.31 101.397L155.776 103.596C155.904 103.18 156.022 102.802 156.134 102.447L156.134 102.447C156.416 101.547 156.651 100.799 156.862 99.9607C157.288 98.4455 157.635 96.9094 157.902 95.3585L158.096 93.6925C158.1 93.6369 158.105 93.5813 158.11 93.5255L158.127 93.3328C158.167 92.8976 158.206 92.4592 158.206 92.0265C158.248 91.72 158.3 91.4023 158.354 91.0732L158.354 91.0729L158.354 91.0726L158.354 91.0722L158.354 91.072C158.454 90.4625 158.561 89.8142 158.62 89.1271C158.672 88.5304 158.727 87.9133 158.783 87.2823L158.784 87.2763L158.79 87.2099L158.79 87.2077L158.791 87.1883C158.832 86.7302 158.874 86.2649 158.915 85.7951C159.025 83.4848 159.09 81.0733 158.97 78.8826C158.821 76.6232 158.753 77.0975 158.696 77.4946V77.4947C158.665 77.7107 158.638 77.9037 158.602 77.6216C158.524 76.66 158.469 75.7112 158.418 74.8331C158.373 74.0555 158.332 73.3333 158.28 72.7065C158.185 71.9371 158.142 71.1622 158.151 70.387L158.243 71.1049C158.538 72.1634 157.608 65.6375 156.835 62.8762C156.585 61.6963 156.304 60.8461 156.094 60.2112L156.093 60.211L156.093 60.2108L156.092 60.2062C156.024 60.0012 155.964 59.8186 155.914 59.6547C155.8 59.2642 155.642 58.8876 155.445 58.5317ZM62.4098 158.609L62.2865 158.578L61.7816 158.452C61.6498 158.42 61.5174 158.386 61.3853 158.353C61.958 158.491 62.2716 158.57 62.4098 158.609ZM51.9021 157.197L51.5906 157.101C51.4262 157.101 51.5066 157.142 51.5926 157.186C51.6058 157.192 51.6191 157.199 51.6318 157.206C51.6473 157.214 51.6618 157.222 51.6735 157.23C51.7563 157.285 51.6735 157.285 50.9555 156.991C50.7973 156.926 50.5983 156.85 50.356 156.758L50.3559 156.758L50.3556 156.758C49.4989 156.432 48.1013 155.9 46.0496 154.91C48.0894 155.797 47.1209 155.342 46.2995 154.964L46.334 154.98C47.5464 155.51 48.7611 156.04 50.0075 156.484L51.9021 157.197ZM51.9021 157.197L54.131 157.883L52.014 157.239L51.9021 157.197ZM51.294 154.601L51.2958 154.602L51.2977 154.603L51.2978 154.603L51.2979 154.603C51.8482 154.835 52.403 155.069 52.9722 155.281C52.6609 155.169 52.3786 155.072 52.0979 154.975L52.0974 154.975C51.2864 154.694 50.4896 154.419 49.0503 153.825C49.3896 153.949 49.7382 154.049 50.0862 154.15L50.2444 154.196L50.3528 154.228L50.4293 154.25L50.5138 154.276C50.7704 154.381 51.027 154.489 51.2846 154.597L51.2853 154.598L51.286 154.598L51.2866 154.598L51.2885 154.599L51.2903 154.6L51.2922 154.601L51.294 154.601ZM53.3211 155.408C53.2003 155.363 53.0843 155.321 52.9722 155.281C53.0879 155.324 53.2042 155.367 53.3211 155.408ZM59.2718 158.993C59.0689 158.946 58.8657 158.899 58.661 158.858C59.707 159.172 60.6127 159.379 61.425 159.564L61.5604 159.595L63.9167 160.184C65.4446 160.423 65.0764 160.322 64.0271 160.101L60.1705 159.18C59.869 159.131 59.5707 159.062 59.2718 158.993ZM2.4354 95.0814L2.83677 97.3738L3.37983 99.7117L3.2878 99.0582C3.13922 98.2219 3.03175 97.8006 2.91844 97.3565C2.78863 96.8477 2.65115 96.3089 2.4354 95.0814ZM60.8974 160.194C63.2261 160.774 65.5824 161.188 67.9479 161.565C67.593 161.489 67.2381 161.387 66.8861 161.286C66.727 161.24 66.5684 161.194 66.4108 161.151C64.9749 160.875 64.1557 160.728 63.6495 160.654C63.419 160.588 63.1805 160.554 62.9407 160.553C62.9317 160.553 62.9234 160.554 62.9153 160.555L62.9002 160.557L62.8927 160.558C62.7697 160.574 62.6135 160.594 60.8974 160.194ZM75.1642 3.35161C75.8021 3.28723 76.4475 3.27497 77.0909 3.26273C77.4593 3.25573 77.8271 3.24874 78.1924 3.23198C78.6841 3.20943 79.1934 3.18024 79.6294 3.15525C80.0832 3.12925 80.4575 3.1078 80.65 3.10311C80.8032 3.09937 80.8623 3.08501 80.8046 3.0662H82.3991C82.7388 3.08335 83.0792 3.0555 83.4116 2.98336C84.1186 3.02755 84.8571 3.09532 85.6089 3.1643C86.2663 3.22463 86.9339 3.2859 87.5996 3.33313C88.5533 3.40081 89.5234 3.53843 90.4825 3.67447C90.9582 3.74194 91.4312 3.80902 91.898 3.867C93.0543 4.01059 94.1733 4.24102 95.2194 4.45645C95.4474 4.50341 95.672 4.54965 95.8927 4.59413C96.8966 4.7964 97.809 5.04745 98.6101 5.26788C98.7932 5.31828 98.9706 5.36708 99.1419 5.41333C103.652 6.38748 108.035 7.87925 112.203 9.85904C116.714 12.0012 121.066 14.4619 125.227 17.2225C129.325 20.1294 133.163 23.3879 136.696 26.9608C140.144 30.4161 143.26 34.1881 146.001 38.2269C146.821 39.1474 147.115 39.2302 146.848 38.4571C146.605 37.8262 146.322 37.2114 146.001 36.6162C145.532 35.8154 144.915 34.7937 144.133 33.5419C141.026 29.0101 137.427 24.8365 133.401 21.0976C128.612 16.6397 123.277 12.8077 117.523 9.69336C117.155 9.52368 116.788 9.34791 116.417 9.17086C115.582 8.7717 114.734 8.36604 113.841 8.00897C113.43 7.84431 113.013 7.67026 112.59 7.49311C111.687 7.11572 110.75 6.7243 109.755 6.37978L107.766 5.54218L105.741 4.80584C105.511 4.7237 105.28 4.6383 105.049 4.55263C104.606 4.3887 104.161 4.22377 103.707 4.07869L101.645 3.44358C97.3774 2.25357 93.0131 1.44048 88.6029 1.01364C87.8497 0.935043 87.1011 0.893727 86.3672 0.853217C86.0697 0.836798 85.7746 0.820511 85.4826 0.801928L84.0007 0.719092H82.5832H79.9692L77.7325 0.866366C77.1354 0.866366 76.7648 0.854304 76.4479 0.843988C75.9342 0.827269 75.5615 0.815136 74.5938 0.866366L71.8325 1.11487L68.4545 1.55669C67.6662 1.64427 66.8865 1.79563 66.1355 1.94141C65.7816 2.01013 65.434 2.0776 65.0949 2.13657L63.613 2.44031L62.3612 2.78086L58.6794 3.51723C58.4493 3.56325 58.236 3.6037 58.0199 3.64466C57.5012 3.74297 56.9669 3.84425 56.1482 4.03267C51.6709 5.46758 47.3054 7.23037 43.0872 9.30677C38.8794 11.3873 34.8947 13.8916 31.1951 16.7807C30.3575 17.3238 29.3542 18.0785 28.2037 18.9714C27.0532 19.8642 25.9118 20.9411 24.7705 22.0733C24.5422 22.2997 24.3124 22.5262 24.0826 22.7527C23.1637 23.6583 22.2447 24.564 21.4201 25.4697L19.883 27.0436C19.4135 27.5591 18.9625 28.0285 18.5391 28.4519C15.5305 31.8533 12.8436 35.5262 10.5129 39.4235C9.10347 41.7826 7.87277 44.244 6.83112 46.787C6.91191 46.4427 7.0165 46.1044 7.1441 45.7745C7.23614 45.5076 7.01524 45.6273 6.22366 47.4129L5.65296 48.7568L5.41367 49.3274C5.37865 49.4055 5.34792 49.4854 5.32162 49.5667C5.15594 49.9165 4.40119 51.739 3.62802 53.7455L2.58792 56.8198C2.33969 57.529 2.16797 58.2382 2.03908 58.7706C2.00069 58.9292 1.9661 59.072 1.93441 59.1945C1.7043 60.115 1.65828 60.4187 1.75953 60.2162C2.45906 58.0072 2.67997 57.6022 2.59713 58.3293C2.55832 58.67 2.44073 59.255 2.286 60.0249C2.11044 60.8984 1.88707 62.0098 1.67669 63.2721L1.36375 65.1129C1.30376 65.4946 1.2567 65.886 1.20917 66.2814C1.17647 66.5534 1.14354 66.8272 1.10603 67.1011C1.01398 67.773 0.931115 68.4633 0.848276 69.1537L0.682604 71.2154L0.53533 73.222L0.480106 75.1089C0.480106 75.5252 0.470079 75.9282 0.46049 76.3135C0.442518 77.0356 0.426089 77.6958 0.480106 78.266V81.4875C0.579872 77.0933 0.979675 72.711 1.67669 68.3713C1.50386 69.0379 1.68426 67.9016 1.86257 66.7784C1.88367 66.6454 1.90474 66.5127 1.9252 66.3831C2.02645 65.7664 2.11848 65.2234 2.1461 65.0761C2.17371 64.9289 2.06328 65.1498 1.87919 66.0978L1.879 66.0989C1.7502 66.8533 1.62141 67.6077 1.50181 68.3621C1.45113 68.6817 1.38394 69.0476 1.31353 69.4311C1.21769 69.953 1.11587 70.5075 1.04159 71.0222C0.99863 71.3198 0.951578 71.6174 0.904526 71.9151C0.810439 72.5103 0.716351 73.1055 0.654992 73.7006C0.714776 72.8703 0.84168 71.8482 0.983801 70.7035C1.03861 70.2621 1.09568 69.8025 1.15204 69.3286L1.62147 66.7145C1.6951 66.2635 1.77792 65.7941 1.86076 65.3615L2.17371 64.0176L2.77202 61.4128L3.41631 59.0565C3.5872 58.3772 3.76801 57.7593 3.92652 57.2177C4.1095 56.5925 4.26276 56.0688 4.33674 55.6693C5.45803 52.5041 6.85961 49.4453 8.52475 46.5293C10.4824 42.5711 12.7831 38.7921 15.4004 35.2355C17.7701 31.9914 20.3368 28.896 23.0861 25.9667C27.7725 21.2513 29.7799 19.9275 31.3241 18.909C31.7422 18.6333 32.1264 18.38 32.5206 18.0878L35.1898 16.1456C35.8077 15.7068 36.4655 15.2896 37.1176 14.876C37.5049 14.6304 37.8903 14.386 38.2641 14.1391L42.7559 11.4514C45.0146 10.3077 47.3451 9.31151 49.7328 8.46919C49.8956 8.41692 50.0543 8.36584 50.2096 8.3159C51.7217 7.82937 52.9007 7.45005 54.2613 7.11615C55.7759 6.61497 56.8456 6.30492 57.6912 6.05981C58.2588 5.89528 58.7255 5.76001 59.158 5.61583C60.235 5.25686 61.1462 5.00835 62.9687 4.52972C68.206 3.50803 67.6905 3.78414 67.3407 3.93141C67.3322 3.93499 67.3239 3.9385 67.3157 3.94192C66.987 4.07919 66.9811 4.08167 72.8634 3.46201C73.3435 3.43468 73.8402 3.39411 74.3443 3.35293C74.8422 3.31226 75.3473 3.271 75.8509 3.24132C75.6216 3.27493 75.3926 3.3117 75.1642 3.35161Z" fill="white" fill-opacity="0.5"/>
</svg>
