<svg width="259" height="29" viewBox="0 0 259 29" fill="none" xmlns="http://www.w3.org/2000/svg">
<path fill-rule="evenodd" clip-rule="evenodd" d="M24.8585 0.915249V1.49396C23.8231 1.43951 22.7906 1.64558 21.8554 2.09331C20.9203 2.54103 20.1123 3.21612 19.5055 4.05679C18.3274 5.83425 17.8727 9.63717 17.8727 14.8869C17.8727 20.1365 18.3274 23.9395 19.5055 25.7169C20.1076 26.5652 20.9136 27.2483 21.849 27.7034C22.7845 28.1585 23.8194 28.3709 24.8585 28.3211V28.8998C22.9447 28.9792 21.0511 28.4824 19.4228 27.4737C15.2065 24.6628 13.8631 18.9171 13.8631 14.9075C13.8631 10.8979 15.2065 5.1522 19.4228 2.34135C21.0536 1.33851 22.9454 0.842198 24.8585 0.915249ZM0.222168 0.915249C2.12844 0.845071 4.01277 1.34133 5.6372 2.34135C9.87415 5.1522 11.1969 10.8979 11.1969 14.9075C11.1969 18.9171 9.87415 24.6628 5.6372 27.4737C4.0168 28.4831 2.12955 28.9801 0.222168 28.8998V28.3211C1.26126 28.3709 2.29618 28.1585 3.23164 27.7034C4.1671 27.2483 4.97303 26.5652 5.5752 25.7169C6.73261 23.9601 7.20797 20.1572 7.20797 14.9075C7.20797 9.65784 6.73261 5.85492 5.5752 4.07746C4.97069 3.23298 4.16374 2.55387 3.22843 2.10247C2.29312 1.65106 1.2594 1.44182 0.222168 1.49396V0.915249ZM171.067 12.9653L173.279 4.49137L172.907 4.55338C172.473 5.97947 171.708 6.78553 171.336 6.78553C171.054 6.78553 170.855 6.56001 170.568 6.23489L170.568 6.2345C170.477 6.13071 170.376 6.01678 170.261 5.8968C169.938 5.49033 169.531 5.15943 169.067 4.92734C168.602 4.69525 168.093 4.56761 167.574 4.55338C165.239 4.55338 162.325 6.51684 160.258 10.2578C158.986 12.3348 158.274 14.706 158.191 17.1402C158.191 21.1498 160.423 23.8987 163.647 23.8987C166.251 23.8987 168.566 21.5632 170.385 16.9749L169.91 16.8302C168.174 21.3152 166.065 23.382 163.503 23.382C161.394 23.382 160.278 22.0592 160.278 19.517C160.39 15.6971 161.44 11.9633 163.337 8.64565C164.66 6.24816 166.024 5.04941 167.471 5.04941C169.538 5.04941 170.695 7.11621 170.695 11.2498C170.728 11.8212 170.728 12.3939 170.695 12.9653H171.067ZM39.0581 23.0088H41.5589V5.27565H39.0581V4.77962H46.4159C50.6942 4.77962 53.7531 8.52054 53.7531 14.0182C53.8279 15.5007 53.5906 16.9824 53.0566 18.3673C52.5225 19.7523 51.7036 21.0097 50.6529 22.0581C49.1509 23.207 47.2606 23.7259 45.3825 23.5049H39.0581V23.0088ZM43.8324 5.27565V23.0088H45.2999C47.3667 23.0088 48.8134 22.8022 49.7848 21.5001C50.9932 19.3148 51.5051 16.8125 51.2523 14.3283C51.2523 7.9005 50.3842 5.27565 46.2506 5.27565H43.8324ZM65.5947 17.326C65.5947 21.067 63.3005 23.8158 60.717 23.8158C58.1335 23.8158 55.8394 21.067 55.8394 17.326C55.8394 13.5851 58.0922 10.8363 60.717 10.8363C63.3419 10.8363 65.5947 13.5851 65.5947 17.326ZM58.0922 17.326C58.0922 21.4596 58.5882 23.3818 60.779 23.3818C62.9698 23.3818 63.4659 21.4183 63.4659 17.326C63.4659 13.2338 62.8665 11.2496 60.717 11.2496C58.5675 11.2496 58.0922 13.3164 58.0922 17.326ZM74.822 10.9851C74.6032 10.8894 74.3674 10.8388 74.1286 10.8363C72.7025 10.8363 71.6691 11.973 71.0697 14.1638L70.9664 11.1256H67.3081V11.539H69.1062V23.0924H67.3081V23.5058H72.9091V23.0924H71.0697V17.264C71.0697 13.5851 72.5578 11.2496 73.9839 11.2496C74.2869 11.2324 74.5877 11.311 74.8437 11.4742C75.0996 11.6374 75.2977 11.877 75.41 12.159C75.3088 12.0514 75.1873 11.9649 75.0525 11.9046C74.9177 11.8443 74.7722 11.8113 74.6246 11.8077C74.4834 11.81 74.3442 11.8413 74.2155 11.8996C74.0869 11.9579 73.9715 12.0419 73.8766 12.1465C73.7817 12.2511 73.7093 12.374 73.6637 12.5077C73.6182 12.6414 73.6005 12.783 73.6119 12.9237C73.6089 13.0674 73.6354 13.2102 73.6897 13.3433C73.744 13.4764 73.8249 13.597 73.9275 13.6976C74.0301 13.7983 74.1522 13.8769 74.2863 13.9286C74.4204 13.9804 74.5637 14.0041 74.7073 13.9985C74.872 13.9963 75.0346 13.9601 75.1847 13.8922C75.3349 13.8244 75.4694 13.7263 75.58 13.6041C75.6905 13.4819 75.7747 13.3382 75.8273 13.1821C75.8798 13.0259 75.8996 12.8606 75.8854 12.6964C75.8965 12.4578 75.8594 12.2195 75.7764 11.9956C75.6933 11.7717 75.566 11.5668 75.4021 11.3932C75.2381 11.2196 75.0408 11.0808 74.822 10.9851ZM82.1505 23.8158C79.6083 23.8158 77.2935 21.0669 77.2935 17.3467C77.2611 15.3862 78.0038 13.4922 79.3603 12.0763C79.7467 11.6676 80.2155 11.3456 80.7357 11.1318C81.256 10.918 81.8157 10.8173 82.3778 10.8362C82.7867 10.8389 83.191 10.9225 83.5675 11.0821C83.944 11.2417 84.2851 11.4742 84.5714 11.7662C84.8576 12.0582 85.0833 12.4039 85.2353 12.7835C85.3874 13.163 85.4628 13.5689 85.4574 13.9778C85.4574 14.9905 84.8787 15.6106 84.0933 15.6106C83.7644 15.6106 83.449 15.4799 83.2164 15.2473C82.9839 15.0148 82.8532 14.6994 82.8532 14.3705C82.8445 14.2071 82.8699 14.0437 82.9278 13.8907C82.9857 13.7376 83.0749 13.5984 83.1896 13.4817C83.3043 13.365 83.4421 13.2735 83.5941 13.2131C83.7462 13.1526 83.9091 13.1244 84.0726 13.1304C84.2559 13.137 84.4356 13.1828 84.5996 13.2648C84.7636 13.3469 84.9081 13.4631 85.0233 13.6058C84.9566 12.9572 84.6509 12.3566 84.1657 11.9211C83.6805 11.4855 83.0505 11.2462 82.3985 11.2496C79.815 11.2496 79.4636 13.4404 79.4636 17.8634C79.4636 21.5836 80.0217 23.3404 82.2332 23.3404C84.4446 23.3404 85.6847 21.687 85.8914 18.7934H86.3254C86.0568 21.997 84.4653 23.8158 82.1918 23.8158H82.1505ZM91.2048 17.2838C91.2048 13.7082 92.7549 11.4967 94.429 11.4967C95.5244 11.4967 96.0618 12.3441 96.0618 14.0596V23.1122H94.2223V23.5255H99.8027V23.1122H97.9839V14.969C97.9839 12.3028 96.5785 10.8354 94.9044 10.8354C93.2302 10.8354 91.7421 12.1375 91.1634 14.4729V4.77962H87.4019V5.21365H89.2413V23.0915H87.4019V23.5049H93.0029V23.0915H91.2048V17.2838ZM110.282 19.7232C109.807 22.348 108.216 23.8568 106.149 23.8568C103.338 23.8568 101.106 21.0666 101.106 17.2844C101.078 15.4318 101.767 13.6401 103.028 12.2827C103.387 11.8454 103.838 11.4927 104.349 11.2498C104.86 11.0068 105.418 10.8796 105.983 10.8773C108.298 10.8773 110.117 13.1714 110.303 17.0777H103.338V18.4418C103.338 21.852 104.227 23.4228 106.438 23.4228C108.05 23.4228 109.456 22.1207 109.89 19.8059L110.282 19.7232ZM108.216 16.5816V15.1762C108.216 12.4687 107.72 11.2493 105.942 11.2493C104.165 11.2493 103.4 12.9441 103.317 16.5816H108.216ZM117.186 23.3819C117.201 23.382 117.216 23.382 117.23 23.3819H117.186ZM117.25 23.3816C115.405 23.3571 113.729 21.6229 112.949 18.4422H112.66V23.5266H112.949L114.148 22.0798C114.514 22.5817 114.988 22.9947 115.535 23.2881C116.083 23.5816 116.689 23.7478 117.31 23.7746C117.791 23.7672 118.266 23.6621 118.706 23.4656C119.145 23.2692 119.54 22.9856 119.867 22.6319C120.194 22.2782 120.445 21.8619 120.606 21.4082C120.767 20.9544 120.834 20.4727 120.803 19.9923C120.803 17.8842 119.521 16.9335 117.103 15.714C115.367 14.908 114.189 14.3499 114.189 12.8412C114.194 12.6175 114.245 12.3972 114.338 12.194C114.431 11.9907 114.566 11.8088 114.732 11.6596C114.899 11.5104 115.095 11.397 115.307 11.3265C115.519 11.256 115.744 11.2299 115.967 11.2497C117.537 11.2497 119.129 12.8825 119.811 15.7347H120.1V11.1257L118.736 12.2831C118.403 11.8596 117.984 11.5116 117.507 11.2622C117.029 11.0128 116.504 10.8676 115.967 10.8364C115.55 10.8131 115.134 10.8769 114.744 11.0236C114.354 11.1704 113.999 11.3968 113.701 11.6886C113.404 11.9803 113.17 12.3309 113.016 12.718C112.861 13.1051 112.789 13.5201 112.804 13.9366C112.804 15.838 114.003 16.4788 115.925 17.4708L116.036 17.5279C118.222 18.6504 119.521 19.3177 119.521 20.9844C119.533 21.297 119.48 21.6087 119.368 21.9005C119.255 22.1923 119.085 22.4583 118.866 22.6824C118.648 22.9065 118.387 23.084 118.098 23.2042C117.829 23.3163 117.541 23.3764 117.25 23.3816ZM121.957 11.5386V11.1253H124.023V7.36367C124.462 7.28556 124.872 7.09361 125.213 6.80705C125.554 6.5205 125.814 6.14939 125.966 5.7309V11.1253H128.281V11.5386H125.904V21.7073C125.904 22.8027 126.069 23.2987 126.814 23.2987C127.558 23.2987 128.57 22.348 128.694 20.5912H129.108C128.963 22.658 128.033 23.8361 126.483 23.8361C124.933 23.8361 123.961 22.9267 123.961 21.1699V11.5386H121.957ZM135.68 23.8568C137.747 23.8568 139.338 22.348 139.814 19.7232L139.4 19.8059C138.966 22.1207 137.561 23.4228 135.949 23.4228C133.737 23.4228 132.848 21.852 132.848 18.4418V17.0777H139.814C139.628 13.1714 137.829 10.8773 135.494 10.8773C134.932 10.8812 134.377 11.0092 133.87 11.2522C133.362 11.4951 132.915 11.847 132.559 12.2827C131.298 13.6401 130.61 15.4318 130.637 17.2844C130.637 21.0666 132.869 23.8568 135.68 23.8568ZM137.747 15.1762V16.5816H132.848C132.931 12.9441 133.696 11.2493 135.473 11.2493C137.251 11.2493 137.747 12.4687 137.747 15.1762ZM148.347 10.8363C148.586 10.8388 148.822 10.8894 149.041 10.9851C149.26 11.0808 149.457 11.2196 149.621 11.3932C149.785 11.5668 149.912 11.7717 149.995 11.9956C150.078 12.2195 150.115 12.4578 150.104 12.6964C150.118 12.8606 150.099 13.0259 150.046 13.1821C149.993 13.3382 149.909 13.4819 149.799 13.6041C149.688 13.7263 149.554 13.8244 149.403 13.8922C149.253 13.9601 149.091 13.9963 148.926 13.9985C148.783 14.0043 148.641 13.9805 148.508 13.9286C148.375 13.8766 148.254 13.7976 148.153 13.6967C148.052 13.5957 147.973 13.4749 147.921 13.3418C147.869 13.2088 147.845 13.0664 147.851 12.9237C147.837 12.784 147.852 12.6429 147.895 12.5093C147.938 12.3756 148.008 12.2524 148.102 12.1475C148.195 12.0425 148.309 11.9581 148.437 11.8996C148.564 11.8411 148.703 11.8098 148.843 11.8077C148.991 11.8102 149.137 11.8426 149.272 11.903C149.407 11.9634 149.528 12.0505 149.629 12.159C149.523 11.8768 149.329 11.636 149.076 11.4723C148.823 11.3085 148.524 11.2305 148.223 11.2496C146.715 11.2496 145.288 13.5851 145.288 17.264V23.0924H147.128V23.5058H141.527V23.0924H143.346V11.539H141.527V11.1256H145.185V14.1638C145.784 11.973 146.818 10.8363 148.244 10.8363H148.347ZM181.915 15.1559C181.904 16.881 181.433 18.5719 180.551 20.0542C180.093 21.0616 179.386 21.9357 178.496 22.5939C177.607 23.2521 176.564 23.6726 175.467 23.8158C173.73 23.8158 172.16 21.9763 172.16 19.2895C172.24 17.2006 172.961 15.1871 174.226 13.5231C174.727 12.7556 175.397 12.1138 176.186 11.6478C176.974 11.1817 177.86 10.904 178.773 10.8363C180.592 10.8363 181.998 12.4897 181.998 15.1559H181.915ZM176.686 12.6757C175.713 14.2776 174.976 16.0107 174.495 17.8221C174.063 19.0341 173.798 20.2998 173.71 21.5837C173.683 21.8167 173.707 22.0528 173.779 22.2758C173.852 22.4989 173.972 22.7037 174.13 22.8763C174.289 23.0489 174.484 23.1852 174.7 23.276C174.916 23.3668 175.149 23.4099 175.384 23.4024C176.252 23.4024 176.975 22.8651 177.595 21.7283C179.17 19.1403 180.139 16.229 180.427 13.2131C180.474 12.9662 180.465 12.7118 180.399 12.4691C180.334 12.2265 180.214 12.002 180.048 11.8126C179.883 11.6233 179.677 11.4742 179.445 11.3767C179.213 11.2791 178.962 11.2357 178.711 11.2496C178.277 11.3028 177.863 11.4602 177.503 11.7086C177.143 11.9569 176.848 12.2888 176.645 12.6757H176.686ZM184.515 22.944C184.493 22.8643 184.487 22.7808 184.499 22.6988V22.6782C184.521 22.3019 184.605 21.9319 184.747 21.5828L190.369 4.77962H185.863L185.739 5.21365H186.793C187.682 5.21365 188.013 5.35833 188.013 5.83369C187.975 6.23182 187.877 6.62199 187.723 6.9911L184.168 17.5731C183.708 18.7098 183.416 19.9073 183.3 21.1281C183.3 22.7608 183.92 23.8149 185.057 23.8149C186.194 23.8149 187.496 22.0788 189.191 18.8132L188.819 18.6272C187.124 21.7688 186.008 23.3809 185.057 23.3809C184.974 23.376 184.894 23.354 184.82 23.3164C184.746 23.2787 184.681 23.2262 184.629 23.1621C184.576 23.098 184.538 23.0238 184.515 22.944ZM192.437 22.6988C192.437 23.1122 192.664 23.3809 192.974 23.3809C193.925 23.3809 195.041 21.7688 196.756 18.6272L197.128 18.8132C195.433 22.0788 194.111 23.8149 192.995 23.8149C191.878 23.8149 191.238 22.7608 191.238 21.1281C191.33 19.9098 191.602 18.7119 192.044 17.5731L195.599 6.9911C195.753 6.62199 195.85 6.23182 195.888 5.83369C195.888 5.35833 195.578 5.21365 194.689 5.21365H193.677L193.801 4.77962H198.286L192.664 21.5828C192.526 21.9323 192.45 22.3028 192.437 22.6782V22.6988ZM201.588 23.8155C203.758 23.8155 205.598 22.0793 207.396 18.5864L207.003 18.3798C205.288 21.666 203.572 23.3401 201.671 23.3401C200.431 23.3401 199.852 22.6167 199.852 21.1493C199.891 20.1208 200.107 19.1067 200.493 18.1524C205.04 17.4497 207.479 15.5896 207.479 13.3161C207.474 12.9777 207.4 12.6439 207.264 12.3344C207.127 12.025 206.929 11.7462 206.682 11.5148C206.435 11.2834 206.144 11.104 205.827 10.9874C205.509 10.8707 205.171 10.8192 204.833 10.8359C203.777 11.0707 202.784 11.5324 201.924 12.1891C201.064 12.8457 200.357 13.6817 199.852 14.6388C198.804 16.114 198.227 17.8723 198.199 19.6818C198.199 22.1827 199.418 23.8155 201.588 23.8155ZM204.916 11.2493C205.598 11.2493 206.073 11.766 206.073 12.696C205.942 14.0599 205.313 15.3276 204.306 16.2576C203.3 17.1876 201.987 17.7149 200.617 17.739C201.96 13.3161 203.386 11.2493 204.916 11.2493ZM217.482 18.587C215.725 22.0592 213.741 23.816 211.84 23.816C209.938 23.816 208.636 22.0799 208.636 19.393C208.652 17.8118 209.072 16.2609 209.856 14.8874C210.344 13.7873 211.106 12.8302 212.068 12.1068C213.03 11.3834 214.161 10.9177 215.353 10.7538C215.695 10.7242 216.038 10.7706 216.359 10.8899C216.68 11.0091 216.971 11.1981 217.21 11.4433C217.45 11.6884 217.631 11.9837 217.743 12.3076C217.854 12.6316 217.892 12.9762 217.854 13.3166C217.877 13.554 217.851 13.7936 217.778 14.0206C217.705 14.2477 217.587 14.4576 217.43 14.6374C217.273 14.8172 217.082 14.9633 216.867 15.0667C216.652 15.1701 216.418 15.2286 216.18 15.2388C216.039 15.2425 215.899 15.216 215.768 15.1611C215.638 15.1062 215.521 15.0242 215.426 14.9205C215.33 14.8168 215.257 14.6938 215.213 14.5598C215.168 14.4258 215.153 14.2838 215.167 14.1434C215.167 13.4613 215.539 13.0686 216.325 12.6966C216.401 12.6547 216.471 12.6185 216.536 12.5853L216.536 12.5851C216.821 12.4386 216.986 12.3538 216.986 12.1179C216.986 11.8285 216.407 11.2498 215.477 11.2498C214.981 11.2729 214.497 11.4168 214.069 11.6689C213.64 11.9209 213.279 12.2737 213.018 12.6966C211.87 14.6087 211.065 16.7073 210.641 18.897C210.416 19.6631 210.291 20.4551 210.269 21.2532C210.269 22.6586 210.848 23.32 211.922 23.32C213.576 23.32 215.395 21.6459 217.089 18.3596L217.482 18.587ZM226.847 11.1255H224.243L226.082 5.99984H224.222L222.486 11.1048H220.295L220.13 11.6629H222.321L220.254 17.5533C219.768 18.8142 219.455 20.1352 219.324 21.4802C219.324 22.865 220.109 23.795 221.039 23.795C222.259 23.795 223.457 22.1209 225.173 18.7934L224.842 18.6074C223.127 21.7489 222.011 23.361 221.06 23.361C220.75 23.361 220.522 23.0923 220.522 22.679C220.535 22.3036 220.612 21.9331 220.75 21.5836L224.077 11.6836H226.682L226.847 11.1255ZM230.281 10.8357C231.273 10.8357 231.956 11.7658 231.956 13.3985C231.804 15.0646 231.297 16.6787 230.467 18.1315C229.649 19.4579 229.055 20.9104 228.711 22.4305C228.711 23.0505 228.938 23.3812 229.393 23.3812C230.405 23.3812 231.79 21.6864 233.196 18.3175L233.588 18.4829C232.121 22.0585 230.612 23.8152 229.455 23.8152C228.297 23.8152 227.615 22.6578 227.615 21.0044C227.718 19.5462 228.157 18.1315 228.897 16.8708C229.832 15.3383 230.529 13.6728 230.963 11.9311C230.975 11.8338 230.966 11.7352 230.937 11.6416C230.909 11.548 230.86 11.4614 230.796 11.3875C230.732 11.3135 230.653 11.2538 230.564 11.2122C230.476 11.1706 230.379 11.1479 230.281 11.1457C229.269 11.1457 228.215 12.5718 226.706 15.2793L226.292 15.0727C227.884 12.1998 229.041 10.7324 230.219 10.7324L230.281 10.8357ZM231.976 8.16952C231.824 8.17929 231.671 8.1557 231.528 8.1004C231.385 8.04509 231.256 7.9594 231.15 7.84927C231.044 7.73913 230.963 7.6072 230.913 7.46264C230.863 7.31807 230.845 7.16433 230.86 7.01211C230.859 6.61281 231.01 6.22818 231.283 5.9364C231.556 5.64462 231.929 5.4676 232.328 5.44134C232.482 5.43505 232.636 5.46155 232.78 5.5191C232.923 5.57665 233.053 5.66393 233.16 5.77522C233.268 5.88651 233.35 6.01927 233.403 6.16477C233.455 6.31027 233.476 6.46522 233.464 6.61941C233.465 7.02001 233.31 7.40517 233.032 7.69415C232.755 7.98313 232.376 8.1535 231.976 8.16952ZM242.926 20.0542C243.799 18.5677 244.269 16.8794 244.29 15.1559H244.435C244.435 12.4897 243.03 10.8363 241.211 10.8363C240.297 10.904 239.412 11.1817 238.623 11.6478C237.834 12.1138 237.164 12.7556 236.664 13.5231C235.399 15.1871 234.677 17.2006 234.597 19.2895C234.597 21.9763 236.168 23.8158 237.904 23.8158C238.99 23.6627 240.02 23.2376 240.898 22.58C241.776 21.9224 242.474 21.0536 242.926 20.0542ZM236.933 17.8221C237.413 16.0107 238.151 14.2776 239.123 12.6757H239.165C239.369 12.2888 239.663 11.9569 240.023 11.7086C240.383 11.4602 240.798 11.3028 241.232 11.2496C241.476 11.2376 241.721 11.2802 241.947 11.3743C242.174 11.4683 242.376 11.6115 242.54 11.7935C242.704 11.9755 242.826 12.1917 242.896 12.4265C242.967 12.6613 242.984 12.9088 242.947 13.1511C242.659 16.167 241.691 19.0783 240.116 21.6663C239.495 22.8031 238.772 23.3404 237.904 23.3404C237.67 23.3479 237.436 23.3048 237.22 23.214C237.004 23.1232 236.81 22.9869 236.651 22.8143C236.492 22.6417 236.372 22.4369 236.299 22.2138C236.227 21.9908 236.203 21.7547 236.23 21.5217C236.297 20.2625 236.534 19.0182 236.933 17.8221ZM249.647 13.7093C249.842 13.198 249.967 12.6627 250.019 12.1178C250.019 11.5805 249.75 11.2291 249.378 11.2291C248.489 11.2291 247.311 13.0272 245.823 16.6028L245.41 16.4788C247.063 12.7379 248.2 10.8158 249.378 10.8158C250.556 10.8158 250.949 11.7665 250.949 13.2546C250.892 14.6115 250.677 15.9571 250.308 17.2642C252.168 13.0066 253.636 10.8571 255.041 10.8571C256.074 10.8571 256.922 11.8698 256.922 13.4819C256.834 14.7805 256.519 16.0536 255.992 17.2435C255.17 18.9198 254.579 20.6996 254.235 22.5345C254.235 23.0512 254.442 23.3199 254.834 23.3199C255.888 23.3199 256.715 21.7078 258.245 18.6076L258.596 18.7936C257.025 22.1212 256.054 23.816 254.814 23.816C253.574 23.816 252.933 22.8239 252.933 21.2945C252.975 20.2334 253.213 19.1892 253.636 18.2149L255.144 14.5153C255.48 13.8012 255.677 13.0296 255.723 12.2419C255.723 11.6011 255.496 11.3118 255.02 11.3118C253.408 11.3118 251.238 15.4454 248.386 23.5059H246.484L249.647 13.7093Z" fill="black"/>
</svg>
