<svg width="222" height="25" viewBox="0 0 222 25" fill="none" xmlns="http://www.w3.org/2000/svg">
<path fill-rule="evenodd" clip-rule="evenodd" d="M21.3853 0.50604V1.00207C20.4978 0.95541 19.6128 1.13204 18.8112 1.5158C18.0097 1.89957 17.3171 2.47821 16.797 3.19879C15.7872 4.72232 15.3975 7.98197 15.3975 12.4817C15.3975 16.9814 15.7872 20.2411 16.797 21.7646C17.3131 22.4917 18.0039 23.0773 18.8057 23.4673C19.6076 23.8574 20.4946 24.0395 21.3853 23.9968V24.4928C19.7449 24.5608 18.1218 24.135 16.7261 23.2704C13.1122 20.8611 11.9606 15.9362 11.9606 12.4994C11.9606 9.06262 13.1122 4.13771 16.7261 1.72841C18.124 0.868838 19.7455 0.443424 21.3853 0.50604ZM0.268433 0.50604C1.90238 0.445887 3.51752 0.871247 4.90989 1.72841C8.54156 4.13771 9.67535 9.06262 9.67535 12.4994C9.67535 15.9362 8.54156 20.8611 4.90989 23.2704C3.52097 24.1356 1.90333 24.5616 0.268433 24.4928V23.9968C1.15908 24.0395 2.04616 23.8574 2.84798 23.4673C3.64981 23.0773 4.3406 22.4917 4.85674 21.7646C5.84881 20.2588 6.25627 16.9991 6.25627 12.4994C6.25627 7.99969 5.84881 4.74004 4.85674 3.21651C4.33859 2.49267 3.64693 1.91058 2.84523 1.52366C2.04353 1.13674 1.15749 0.957389 0.268433 1.00207V0.50604ZM146.707 10.8346L148.603 3.57129L148.284 3.62443C147.912 4.8468 147.256 5.5377 146.937 5.5377C146.696 5.5377 146.525 5.3444 146.279 5.06573L146.279 5.0654C146.201 4.97643 146.115 4.87878 146.016 4.77594C145.74 4.42753 145.39 4.14391 144.992 3.94497C144.594 3.74604 144.158 3.63663 143.713 3.62443C141.711 3.62443 139.213 5.3074 137.442 8.51391C136.352 10.2942 135.741 12.3267 135.67 14.4132C135.67 17.85 137.583 20.2061 140.347 20.2061C142.579 20.2061 144.563 18.2043 146.122 14.2714L145.715 14.1474C144.227 17.9917 142.42 19.7632 140.223 19.7632C138.416 19.7632 137.459 18.6294 137.459 16.4504C137.555 13.1762 138.456 9.97582 140.081 7.1321C141.215 5.0771 142.384 4.0496 143.624 4.0496C145.396 4.0496 146.388 5.82115 146.388 9.36425C146.416 9.85398 146.416 10.3449 146.388 10.8346H146.707ZM33.5564 19.4434H35.7V4.24353H33.5564V3.81836H39.8631C43.5302 3.81836 46.1521 7.02486 46.1521 11.7372C46.2162 13.0079 46.0128 14.2779 45.5551 15.465C45.0973 16.6521 44.3954 17.7298 43.4948 18.6285C42.2073 19.6133 40.5871 20.058 38.9773 19.8686H33.5564V19.4434ZM37.6487 4.24353V19.4434H38.9064C40.678 19.4434 41.9181 19.2663 42.7507 18.1502C43.7864 16.2771 44.2253 14.1323 44.0085 12.0029C44.0085 6.4934 43.2645 4.24353 39.7214 4.24353H37.6487ZM56.302 14.5724C56.302 17.7789 54.3356 20.1351 52.1212 20.1351C49.9067 20.1351 47.9403 17.7789 47.9403 14.5724C47.9403 11.3659 49.8713 9.00977 52.1212 9.00977C54.371 9.00977 56.302 11.3659 56.302 14.5724ZM49.8713 14.5724C49.8713 18.1155 50.2965 19.7631 52.1743 19.7631C54.0521 19.7631 54.4773 18.0801 54.4773 14.5724C54.4773 11.0648 53.9636 9.36408 52.1212 9.36408C50.2788 9.36408 49.8713 11.1356 49.8713 14.5724ZM64.2112 9.13732C64.0236 9.05531 63.8215 9.01193 63.6168 9.00977C62.3944 9.00977 61.5086 9.98412 60.9949 11.862L60.9063 9.25778H57.7707V9.61209H59.3119V19.515H57.7707V19.8694H62.5716V19.515H60.9949V14.5193C60.9949 11.3659 62.2704 9.36408 63.4928 9.36408C63.7525 9.34935 64.0103 9.4167 64.2297 9.55659C64.4491 9.69648 64.6189 9.90182 64.7151 10.1436C64.6284 10.0513 64.5243 9.97719 64.4087 9.9255C64.2932 9.8738 64.1685 9.84555 64.042 9.84239C63.9209 9.84443 63.8016 9.87125 63.6913 9.9212C63.581 9.97115 63.4822 10.0432 63.4008 10.1328C63.3195 10.2225 63.2574 10.3278 63.2184 10.4424C63.1793 10.557 63.1642 10.6784 63.1739 10.799C63.1714 10.9222 63.1941 11.0446 63.2406 11.1587C63.2871 11.2727 63.3565 11.3761 63.4444 11.4624C63.5324 11.5486 63.637 11.616 63.752 11.6604C63.8669 11.7047 63.9897 11.7251 64.1128 11.7202C64.254 11.7183 64.3933 11.6873 64.5221 11.6292C64.6508 11.571 64.7661 11.4869 64.8608 11.3822C64.9556 11.2775 65.0278 11.1543 65.0728 11.0205C65.1178 10.8866 65.1348 10.7449 65.1226 10.6042C65.1321 10.3997 65.1003 10.1954 65.0292 10.0035C64.958 9.81155 64.8489 9.63594 64.7083 9.48712C64.5678 9.33831 64.3987 9.21934 64.2112 9.13732ZM70.4927 20.1351C68.3137 20.1351 66.3296 17.7789 66.3296 14.5901C66.3018 12.9097 66.9384 11.2862 68.1011 10.0727C68.4323 9.72232 68.8342 9.44637 69.2801 9.26312C69.726 9.07987 70.2058 8.9935 70.6876 9.00974C71.0381 9.01205 71.3846 9.08366 71.7073 9.22046C72.03 9.35726 72.3224 9.55653 72.5677 9.80682C72.8131 10.0571 73.0065 10.3534 73.1368 10.6788C73.2672 11.0041 73.3319 11.352 73.3272 11.7025C73.3272 12.5706 72.8312 13.102 72.158 13.102C71.8761 13.102 71.6057 12.99 71.4064 12.7907C71.207 12.5914 71.095 12.321 71.095 12.0391C71.0876 11.899 71.1093 11.759 71.159 11.6278C71.2086 11.4967 71.285 11.3773 71.3834 11.2773C71.4817 11.1773 71.5998 11.0989 71.7301 11.047C71.8604 10.9952 72.0001 10.971 72.1403 10.9762C72.2973 10.9818 72.4514 11.0211 72.5919 11.0914C72.7325 11.1617 72.8564 11.2613 72.9552 11.3836C72.898 10.8277 72.6359 10.3129 72.22 9.93961C71.8041 9.56629 71.2642 9.36112 70.7053 9.36405C68.4909 9.36405 68.1897 11.2419 68.1897 15.033C68.1897 18.2218 68.668 19.7276 70.5636 19.7276C72.4591 19.7276 73.5221 18.3104 73.6992 15.8302H74.0712C73.8409 18.5761 72.4768 20.1351 70.5281 20.1351H70.4927ZM78.2535 14.5362C78.2535 11.4714 79.5822 9.57589 81.0172 9.57589C81.9561 9.57589 82.4167 10.3022 82.4167 11.7726V19.532H80.84V19.8863H85.6232V19.532H84.0642V12.5521C84.0642 10.2668 82.8596 9.00899 81.4246 9.00899C79.9896 9.00899 78.7141 10.1251 78.2181 12.1269V3.81836H74.9939V4.19038H76.5706V19.5143H74.9939V19.8686H79.7948V19.5143H78.2535V14.5362ZM94.6058 16.6271C94.1983 18.877 92.8342 20.1702 91.0627 20.1702C88.6534 20.1702 86.7401 17.7786 86.7401 14.5367C86.7166 12.9488 87.3068 11.4131 88.3876 10.2496C88.6952 9.87473 89.0818 9.57242 89.5197 9.36419C89.9576 9.15595 90.4361 9.04693 90.9209 9.0449C92.9051 9.0449 94.464 11.0113 94.6235 14.3595H88.6534V15.5288C88.6534 18.4518 89.4151 19.7982 91.3107 19.7982C92.6925 19.7982 93.8971 18.6821 94.2692 16.698L94.6058 16.6271ZM92.8342 13.9344V12.7297C92.8342 10.409 92.409 9.36378 90.8855 9.36378C89.362 9.36378 88.7065 10.8164 88.6357 13.9344H92.8342ZM100.523 19.7632C100.536 19.7633 100.548 19.7633 100.561 19.7632H100.523ZM100.578 19.7629C98.9966 19.7419 97.5598 18.2555 96.8914 15.5292H96.6434V19.8872H96.8914L97.9189 18.6471C98.2326 19.0773 98.6391 19.4313 99.1084 19.6828C99.5776 19.9343 100.098 20.0768 100.629 20.0998C101.042 20.0934 101.449 20.0033 101.826 19.835C102.202 19.6666 102.541 19.4235 102.821 19.1203C103.101 18.8172 103.316 18.4603 103.454 18.0714C103.592 17.6825 103.65 17.2696 103.623 16.8578C103.623 15.0508 102.525 14.2359 100.452 13.1907C98.9642 12.4998 97.9544 12.0215 97.9544 10.7283C97.9585 10.5366 98.0019 10.3477 98.082 10.1735C98.1621 9.9993 98.2772 9.8434 98.42 9.7155C98.5629 9.58759 98.7305 9.4904 98.9125 9.42997C99.0945 9.36953 99.2869 9.34714 99.4779 9.36417C100.824 9.36417 102.188 10.7637 102.773 13.2084H103.021V9.25788L101.852 10.2499C101.566 9.88691 101.207 9.58862 100.798 9.37484C100.389 9.16105 99.9389 9.03665 99.4779 9.00986C99.1213 8.98992 98.7644 9.04459 98.43 9.17036C98.0957 9.29614 97.7913 9.49026 97.5362 9.74033C97.2811 9.9904 97.081 10.2909 96.9487 10.6227C96.8163 10.9545 96.7546 11.3102 96.7674 11.6672C96.7674 13.297 97.7949 13.8462 99.4425 14.6965L99.5378 14.7455C101.411 15.7076 102.525 16.2795 102.525 17.7082C102.535 17.9761 102.49 18.2432 102.393 18.4934C102.297 18.7435 102.15 18.9715 101.963 19.1636C101.776 19.3557 101.552 19.5078 101.305 19.6109C101.074 19.7069 100.827 19.7585 100.578 19.7629ZM104.612 9.61179V9.25748H106.384V6.03326C106.76 5.9663 107.111 5.80178 107.403 5.55616C107.696 5.31054 107.918 4.99245 108.049 4.63374V9.25748H110.033V9.61179H107.996V18.3278C107.996 19.2667 108.138 19.6919 108.775 19.6919C109.413 19.6919 110.281 18.877 110.387 17.3712H110.742C110.618 19.1427 109.821 20.1525 108.492 20.1525C107.163 20.1525 106.331 19.373 106.331 17.8672V9.61179H104.612ZM116.375 20.1702C118.147 20.1702 119.511 18.877 119.918 16.6271L119.564 16.698C119.192 18.6821 117.987 19.7982 116.605 19.7982C114.71 19.7982 113.948 18.4518 113.948 15.5288V14.3595H119.918C119.759 11.0113 118.218 9.0449 116.216 9.0449C115.734 9.04831 115.258 9.15804 114.823 9.36627C114.389 9.57449 114.005 9.87609 113.7 10.2496C112.619 11.4131 112.029 12.9488 112.053 14.5367C112.053 17.7786 113.966 20.1702 116.375 20.1702ZM118.147 12.7297V13.9344H113.948C114.019 10.8164 114.674 9.36378 116.198 9.36378C117.722 9.36378 118.147 10.409 118.147 12.7297ZM127.233 9.00977C127.438 9.01193 127.64 9.05531 127.827 9.13732C128.015 9.21934 128.184 9.33831 128.324 9.48712C128.465 9.63594 128.574 9.81155 128.645 10.0035C128.716 10.1954 128.748 10.3997 128.739 10.6042C128.751 10.7449 128.734 10.8866 128.689 11.0205C128.644 11.1543 128.572 11.2775 128.477 11.3822C128.382 11.4869 128.267 11.571 128.138 11.6292C128.009 11.6873 127.87 11.7183 127.729 11.7202C127.607 11.7252 127.485 11.7048 127.371 11.6603C127.256 11.6158 127.153 11.5481 127.066 11.4615C126.98 11.375 126.912 11.2714 126.868 11.1574C126.823 11.0434 126.803 10.9213 126.808 10.799C126.795 10.6793 126.808 10.5583 126.845 10.4438C126.882 10.3292 126.942 10.2236 127.022 10.1336C127.102 10.0437 127.2 9.97134 127.31 9.9212C127.419 9.87106 127.538 9.84422 127.658 9.84239C127.785 9.84456 127.91 9.87236 128.025 9.92412C128.141 9.97587 128.245 10.0505 128.331 10.1436C128.241 9.90163 128.074 9.69526 127.858 9.5549C127.641 9.41455 127.384 9.34765 127.127 9.36408C125.833 9.36408 124.611 11.3659 124.611 14.5193V19.515H126.188V19.8694H121.387V19.515H122.946V9.61209H121.387V9.25778H124.522V11.862C125.036 9.98412 125.922 9.00977 127.144 9.00977H127.233ZM156.005 12.7123C155.996 14.1909 155.592 15.6403 154.836 16.9109C154.443 17.7744 153.837 18.5236 153.075 19.0877C152.312 19.6519 151.418 20.0123 150.478 20.1351C148.99 20.1351 147.643 18.5584 147.643 16.2554C147.712 14.4649 148.33 12.7391 149.415 11.3128C149.844 10.6549 150.418 10.1048 151.094 9.70535C151.77 9.30589 152.529 9.06786 153.312 9.00977C154.871 9.00977 156.076 10.427 156.076 12.7123H156.005ZM151.523 10.5864C150.689 11.9595 150.057 13.445 149.645 14.9976C149.275 16.0365 149.048 17.1214 148.972 18.2218C148.949 18.4216 148.969 18.6239 149.032 18.8151C149.094 19.0063 149.197 19.1818 149.333 19.3298C149.469 19.4777 149.635 19.5946 149.821 19.6724C150.006 19.7502 150.206 19.7872 150.407 19.7808C151.151 19.7808 151.771 19.3202 152.303 18.3458C153.653 16.1275 154.482 13.6321 154.73 11.047C154.77 10.8355 154.762 10.6174 154.706 10.4094C154.65 10.2014 154.547 10.0089 154.405 9.84667C154.263 9.68441 154.087 9.55661 153.888 9.47298C153.689 9.38936 153.474 9.35211 153.259 9.36408C152.887 9.40962 152.532 9.54459 152.223 9.75747C151.915 9.97034 151.662 10.2548 151.488 10.5864H151.523ZM158.234 19.3879C158.215 19.3195 158.21 19.2479 158.22 19.1777V19.16C158.239 18.8375 158.311 18.5203 158.433 18.221L163.251 3.81836H159.389L159.283 4.19038H160.186C160.948 4.19038 161.232 4.31439 161.232 4.72185C161.199 5.0631 161.116 5.39753 160.984 5.71391L157.937 14.7842C157.542 15.7585 157.292 16.7849 157.193 17.8313C157.193 19.2308 157.724 20.1343 158.698 20.1343C159.673 20.1343 160.789 18.6462 162.241 15.8472L161.923 15.6877C160.47 18.3805 159.513 19.7623 158.698 19.7623C158.628 19.7581 158.558 19.7393 158.495 19.707C158.432 19.6747 158.376 19.6297 158.331 19.5748C158.286 19.5198 158.253 19.4562 158.234 19.3879ZM165.024 19.1777C165.024 19.532 165.218 19.7623 165.484 19.7623C166.299 19.7623 167.256 18.3805 168.726 15.6877L169.045 15.8472C167.592 18.6462 166.459 20.1343 165.502 20.1343C164.545 20.1343 163.996 19.2308 163.996 17.8313C164.075 16.7871 164.308 15.7604 164.687 14.7842L167.734 5.71391C167.866 5.39753 167.95 5.0631 167.982 4.72185C167.982 4.31439 167.716 4.19038 166.955 4.19038H166.087L166.193 3.81836H170.037L165.218 18.221C165.101 18.5207 165.035 18.8382 165.024 19.16V19.1777ZM172.868 20.1348C174.728 20.1348 176.305 18.6467 177.846 15.6528L177.509 15.4756C176.039 18.2924 174.569 19.7273 172.939 19.7273C171.876 19.7273 171.38 19.1073 171.38 17.8495C171.413 16.9679 171.599 16.0987 171.929 15.2807C175.826 14.6784 177.917 13.084 177.917 11.1353C177.912 10.8453 177.85 10.5592 177.732 10.2939C177.615 10.0287 177.446 9.78975 177.234 9.59139C177.022 9.39302 176.773 9.23927 176.501 9.1393C176.229 9.03932 175.939 8.99517 175.649 9.00947C174.744 9.21068 173.893 9.60645 173.156 10.1693C172.419 10.7322 171.813 11.4487 171.38 12.2691C170.481 13.5335 169.987 15.0407 169.963 16.5917C169.963 18.7353 171.008 20.1348 172.868 20.1348ZM175.72 9.36378C176.305 9.36378 176.712 9.80666 176.712 10.6039C176.599 11.7729 176.06 12.8595 175.198 13.6567C174.335 14.4538 173.21 14.9058 172.035 14.9264C173.187 11.1353 174.409 9.36378 175.72 9.36378ZM186.491 15.6532C184.985 18.6294 183.285 20.1353 181.655 20.1353C180.025 20.1353 178.909 18.6472 178.909 16.3442C178.923 14.9888 179.283 13.6594 179.954 12.4822C180.373 11.5392 181.026 10.7188 181.85 10.0988C182.675 9.47873 183.644 9.07955 184.667 8.93908C184.959 8.91368 185.254 8.95351 185.529 9.05571C185.804 9.1579 186.053 9.31992 186.258 9.53006C186.463 9.74021 186.619 9.99325 186.715 10.2709C186.81 10.5486 186.843 10.844 186.81 11.1358C186.83 11.3393 186.807 11.5446 186.745 11.7392C186.682 11.9339 186.581 12.1137 186.447 12.2679C186.312 12.422 186.148 12.5472 185.964 12.6358C185.78 12.7245 185.579 12.7746 185.375 12.7833C185.254 12.7865 185.134 12.7638 185.022 12.7168C184.911 12.6698 184.811 12.5994 184.728 12.5106C184.646 12.4217 184.584 12.3163 184.546 12.2014C184.508 12.0865 184.495 11.9648 184.507 11.8444C184.507 11.2598 184.826 10.9232 185.499 10.6043C185.564 10.5684 185.625 10.5374 185.68 10.509L185.681 10.5088C185.925 10.3832 186.066 10.3105 186.066 10.1083C186.066 9.86029 185.57 9.36425 184.773 9.36425C184.347 9.38406 183.933 9.50733 183.565 9.72342C183.198 9.9395 182.889 10.2419 182.665 10.6043C181.681 12.2433 180.991 14.0421 180.627 15.919C180.435 16.5756 180.328 17.2544 180.309 17.9385C180.309 19.1432 180.805 19.7101 181.726 19.7101C183.143 19.7101 184.702 18.2751 186.155 15.4584L186.491 15.6532ZM194.518 9.2577H192.286L193.863 4.86426H192.268L190.78 9.23998H188.902L188.761 9.7183H190.639L188.867 14.7672C188.45 15.848 188.182 16.9803 188.07 18.1332C188.07 19.3201 188.743 20.1173 189.54 20.1173C190.585 20.1173 191.613 18.6823 193.083 15.8301L192.8 15.6707C191.329 18.3635 190.373 19.7453 189.558 19.7453C189.292 19.7453 189.097 19.515 189.097 19.1606C189.108 18.8389 189.174 18.5214 189.292 18.2217L192.144 9.73601H194.376L194.518 9.2577ZM197.462 9.00928C198.312 9.00928 198.897 9.80648 198.897 11.206C198.767 12.634 198.332 14.0175 197.622 15.2628C196.92 16.3997 196.411 17.6448 196.116 18.9477C196.116 19.4791 196.311 19.7626 196.7 19.7626C197.568 19.7626 198.755 18.3099 199.96 15.4223L200.297 15.564C199.039 18.6288 197.746 20.1346 196.753 20.1346C195.761 20.1346 195.177 19.1425 195.177 17.7253C195.265 16.4754 195.641 15.2628 196.275 14.1822C197.077 12.8687 197.674 11.4411 198.047 9.9482C198.057 9.86483 198.049 9.78032 198.024 9.70008C198 9.61983 197.958 9.54564 197.903 9.48225C197.848 9.41886 197.781 9.36768 197.705 9.332C197.629 9.29631 197.546 9.2769 197.462 9.27501C196.594 9.27501 195.691 10.4974 194.397 12.8181L194.043 12.641C195.407 10.1785 196.399 8.9207 197.409 8.9207L197.462 9.00928ZM198.915 6.72399C198.784 6.73236 198.653 6.71214 198.53 6.66474C198.408 6.61733 198.298 6.54388 198.207 6.44948C198.116 6.35508 198.046 6.242 198.003 6.11809C197.96 5.99417 197.945 5.8624 197.958 5.73192C197.957 5.38967 198.087 5.05998 198.321 4.80988C198.554 4.55979 198.874 4.40806 199.216 4.38554C199.348 4.38015 199.48 4.40287 199.603 4.4522C199.727 4.50152 199.838 4.57634 199.93 4.67173C200.022 4.76712 200.093 4.88091 200.137 5.00563C200.182 5.13035 200.2 5.26316 200.19 5.39532C200.191 5.73869 200.058 6.06883 199.82 6.31653C199.582 6.56423 199.258 6.71025 198.915 6.72399ZM208.301 16.9109C209.048 15.6367 209.451 14.1896 209.47 12.7123H209.594C209.594 10.427 208.389 9.00977 206.83 9.00977C206.047 9.06786 205.288 9.30589 204.612 9.70535C203.936 10.1048 203.361 10.6549 202.933 11.3128C201.848 12.7391 201.23 14.4649 201.161 16.2554C201.161 18.5584 202.508 20.1351 203.996 20.1351C204.927 20.0039 205.81 19.6395 206.562 19.0758C207.315 18.5122 207.913 17.7675 208.301 16.9109ZM203.163 14.9976C203.575 13.445 204.207 11.9595 205.041 10.5864H205.076C205.251 10.2548 205.503 9.97034 205.812 9.75747C206.12 9.54459 206.476 9.40962 206.848 9.36408C207.058 9.35378 207.267 9.39027 207.461 9.4709C207.655 9.55153 207.829 9.67428 207.97 9.83027C208.11 9.98626 208.215 10.1716 208.275 10.3728C208.335 10.5741 208.35 10.7862 208.318 10.9939C208.071 13.579 207.241 16.0744 205.891 18.2927C205.36 19.267 204.74 19.7276 203.996 19.7276C203.795 19.734 203.595 19.6971 203.409 19.6193C203.224 19.5414 203.058 19.4246 202.921 19.2766C202.785 19.1287 202.683 18.9532 202.62 18.762C202.558 18.5708 202.538 18.3684 202.561 18.1687C202.619 17.0894 202.821 16.0229 203.163 14.9976ZM214.061 11.4724C214.228 11.0341 214.335 10.5752 214.38 10.1083C214.38 9.64766 214.149 9.3465 213.831 9.3465C213.069 9.3465 212.059 10.8877 210.783 13.9525L210.429 13.8462C211.846 10.6397 212.821 8.99219 213.831 8.99219C214.84 8.99219 215.177 9.8071 215.177 11.0826C215.128 12.2457 214.944 13.3991 214.628 14.5194C216.222 10.87 217.48 9.02762 218.685 9.02762C219.57 9.02762 220.297 9.89568 220.297 11.2775C220.221 12.3905 219.952 13.4818 219.499 14.5017C218.795 15.9385 218.288 17.4641 217.994 19.0369C217.994 19.4798 218.171 19.7101 218.507 19.7101C219.411 19.7101 220.12 18.3282 221.43 15.6709L221.732 15.8304C220.385 18.6826 219.553 20.1352 218.49 20.1352C217.427 20.1352 216.878 19.2849 216.878 17.9739C216.914 17.0644 217.118 16.1695 217.48 15.3343L218.773 12.1633C219.061 11.5512 219.229 10.8898 219.269 10.2146C219.269 9.66538 219.074 9.41736 218.667 9.41736C217.285 9.41736 215.425 12.9605 212.98 19.8695H211.35L214.061 11.4724Z" fill="black"/>
</svg>
