<svg width="259" height="29" viewBox="0 0 259 29" fill="none" xmlns="http://www.w3.org/2000/svg">
<path fill-rule="evenodd" clip-rule="evenodd" d="M24.6363 0.255093V0.833799C23.6009 0.779358 22.5684 0.985427 21.6333 1.43315C20.6981 1.88087 19.8901 2.55596 19.2833 3.39664C18.1052 5.17409 17.6505 8.97701 17.6505 14.2267C17.6505 19.4764 18.1052 23.2793 19.2833 25.0568C19.8855 25.905 20.6914 26.5882 21.6269 27.0433C22.5623 27.4984 23.5972 27.7108 24.6363 27.6609V28.2396C22.7225 28.319 20.829 27.8222 19.2006 26.8135C14.9843 24.0027 13.6409 18.257 13.6409 14.2474C13.6409 10.2378 14.9843 4.49204 19.2006 1.68119C20.8315 0.678358 22.7232 0.182042 24.6363 0.255093ZM0 0.255093C1.90628 0.184915 3.7906 0.681169 5.41503 1.68119C9.65198 4.49204 10.9747 10.2378 10.9747 14.2474C10.9747 18.257 9.65198 24.0027 5.41503 26.8135C3.79463 27.8229 1.90739 28.32 0 28.2396V27.6609C1.03909 27.7108 2.07402 27.4984 3.00948 27.0433C3.94494 26.5882 4.75086 25.905 5.35303 25.0568C6.51044 23.3 6.9858 19.4971 6.9858 14.2474C6.9858 8.99768 6.51044 5.19476 5.35303 3.41731C4.74852 2.57283 3.94157 1.89372 3.00626 1.44231C2.07095 0.990907 1.03724 0.781667 0 0.833799V0.255093ZM170.845 12.3051L173.056 3.83121L172.684 3.89322C172.25 5.31931 171.486 6.12537 171.114 6.12537C170.832 6.12537 170.633 5.89985 170.346 5.57474L170.346 5.57435C170.254 5.47055 170.154 5.35662 170.039 5.23664C169.716 4.83017 169.309 4.49927 168.844 4.26718C168.38 4.0351 167.871 3.90745 167.352 3.89322C165.017 3.89322 162.102 5.85668 160.036 9.5976C158.764 11.6747 158.051 14.0459 157.969 16.4801C157.969 20.4897 160.201 23.2385 163.425 23.2385C166.029 23.2385 168.344 20.903 170.163 16.3147L169.688 16.17C167.951 20.655 165.843 22.7218 163.28 22.7218C161.172 22.7218 160.056 21.3991 160.056 18.8569C160.168 15.0369 161.218 11.3032 163.115 7.98549C164.438 5.588 165.802 4.38925 167.249 4.38925C169.316 4.38925 170.473 6.45606 170.473 10.5897C170.505 11.161 170.505 11.7338 170.473 12.3051H170.845ZM38.8359 22.3487H41.3368V4.6155H38.8359V4.11946H46.1938C50.4721 4.11946 53.5309 7.86038 53.5309 13.3581C53.6057 14.8406 53.3684 16.3222 52.8344 17.7072C52.3004 19.0921 51.4815 20.3495 50.4307 21.398C48.9287 22.5468 47.0384 23.0658 45.1604 22.8447H38.8359V22.3487ZM43.6103 4.6155V22.3487H45.0777C47.1445 22.3487 48.5913 22.142 49.5627 20.8399C50.771 18.6546 51.283 16.1524 51.0301 13.6681C51.0301 7.24034 50.162 4.6155 46.0284 4.6155H43.6103ZM65.3725 16.6659C65.3725 20.4068 63.0784 23.1556 60.4949 23.1556C57.9113 23.1556 55.6172 20.4068 55.6172 16.6659C55.6172 12.925 57.87 10.1761 60.4949 10.1761C63.1197 10.1761 65.3725 12.925 65.3725 16.6659ZM57.87 16.6659C57.87 20.7995 58.366 22.7216 60.5569 22.7216C62.7477 22.7216 63.2437 20.7582 63.2437 16.6659C63.2437 12.5736 62.6443 10.5895 60.4949 10.5895C58.3454 10.5895 57.87 12.6563 57.87 16.6659ZM74.5998 10.3249C74.381 10.2292 74.1452 10.1786 73.9064 10.1761C72.4803 10.1761 71.4469 11.3129 70.8475 13.5037L70.7442 10.4655H67.0859V10.8788H68.8841V22.4323H67.0859V22.8456H72.687V22.4323H70.8475V16.6039C70.8475 12.925 72.3356 10.5895 73.7617 10.5895C74.0648 10.5723 74.3656 10.6509 74.6215 10.8141C74.8774 10.9773 75.0756 11.2168 75.1878 11.4989C75.0867 11.3912 74.9652 11.3048 74.8303 11.2445C74.6955 11.1841 74.5501 11.1512 74.4024 11.1475C74.2612 11.1499 74.122 11.1812 73.9934 11.2394C73.8647 11.2977 73.7494 11.3817 73.6545 11.4863C73.5596 11.5909 73.4871 11.7138 73.4416 11.8475C73.396 11.9812 73.3784 12.1228 73.3897 12.2636C73.3868 12.4073 73.4133 12.5501 73.4675 12.6832C73.5218 12.8162 73.6027 12.9368 73.7053 13.0375C73.8079 13.1381 73.93 13.2167 74.0641 13.2685C74.1982 13.3202 74.3415 13.344 74.4851 13.3383C74.6499 13.3361 74.8124 13.2999 74.9626 13.2321C75.1127 13.1642 75.2473 13.0661 75.3578 12.9439C75.4684 12.8218 75.5525 12.6781 75.6051 12.5219C75.6576 12.3657 75.6774 12.2004 75.6632 12.0362C75.6743 11.7977 75.6372 11.5593 75.5542 11.3354C75.4712 11.1115 75.3439 10.9066 75.1799 10.733C75.0159 10.5594 74.8186 10.4206 74.5998 10.3249ZM81.9283 23.1556C79.3862 23.1556 77.0713 20.4068 77.0713 16.6865C77.0389 14.726 77.7817 12.832 79.1381 11.4162C79.5245 11.0074 79.9933 10.6855 80.5136 10.4717C81.0338 10.2579 81.5935 10.1571 82.1557 10.1761C82.5646 10.1788 82.9689 10.2623 83.3453 10.4219C83.7218 10.5815 84.063 10.814 84.3492 11.106C84.6354 11.398 84.8611 11.7437 85.0131 12.1233C85.1652 12.5029 85.2407 12.9088 85.2352 13.3176C85.2352 14.3304 84.6565 14.9504 83.8711 14.9504C83.5422 14.9504 83.2268 14.8198 82.9942 14.5872C82.7617 14.3546 82.631 14.0392 82.631 13.7103C82.6223 13.5469 82.6477 13.3835 82.7056 13.2305C82.7636 13.0775 82.8527 12.9382 82.9674 12.8215C83.0822 12.7049 83.2199 12.6134 83.372 12.5529C83.524 12.4924 83.6869 12.4643 83.8505 12.4702C84.0337 12.4768 84.2134 12.5227 84.3774 12.6047C84.5415 12.6867 84.686 12.803 84.8012 12.9456C84.7345 12.297 84.4287 11.6965 83.9435 11.2609C83.4583 10.8254 82.8283 10.586 82.1763 10.5894C79.5928 10.5894 79.2415 12.7803 79.2415 17.2032C79.2415 20.9235 79.7995 22.6803 82.011 22.6803C84.2225 22.6803 85.4626 21.0268 85.6692 18.1333H86.1033C85.8346 21.3368 84.2431 23.1556 81.9697 23.1556H81.9283ZM90.9826 16.6236C90.9826 13.0481 92.5327 10.8366 94.2068 10.8366C95.3022 10.8366 95.8396 11.684 95.8396 13.3994V22.452H94.0001V22.8654H99.5805V22.452H97.7617V14.3088C97.7617 11.6426 96.3563 10.1752 94.6822 10.1752C93.0081 10.1752 91.52 11.4773 90.9413 13.8128V4.11946H87.1797V4.55349H89.0191V22.4314H87.1797V22.8447H92.7807V22.4314H90.9826V16.6236ZM110.06 19.063C109.585 21.6879 107.993 23.1966 105.927 23.1966C103.116 23.1966 100.884 20.4065 100.884 16.6242C100.856 14.7716 101.545 12.98 102.806 11.6225C103.165 11.1852 103.616 10.8325 104.126 10.5896C104.637 10.3467 105.196 10.2195 105.761 10.2171C108.076 10.2171 109.895 12.5113 110.081 16.4175H103.116V17.7816C103.116 21.1918 104.004 22.7626 106.216 22.7626C107.828 22.7626 109.233 21.4605 109.668 19.1457L110.06 19.063ZM107.993 15.9215V14.5161C107.993 11.8085 107.497 10.5891 105.72 10.5891C103.942 10.5891 103.178 12.2839 103.095 15.9215H107.993ZM116.964 22.7217C116.979 22.7219 116.993 22.7219 117.008 22.7217H116.964ZM117.027 22.7215C115.183 22.6969 113.507 20.9628 112.727 17.7821H112.438V22.8664H112.727L113.926 21.4196C114.291 21.9216 114.766 22.3346 115.313 22.628C115.861 22.9214 116.467 23.0877 117.088 23.1144C117.569 23.107 118.044 23.0019 118.484 22.8055C118.923 22.6091 119.318 22.3254 119.645 21.9718C119.971 21.6181 120.223 21.2017 120.384 20.748C120.545 20.2943 120.612 19.8126 120.581 19.3322C120.581 17.224 119.299 16.2733 116.881 15.0539C115.145 14.2478 113.967 13.6898 113.967 12.181C113.972 11.9574 114.022 11.7371 114.116 11.5338C114.209 11.3306 114.344 11.1487 114.51 10.9995C114.677 10.8502 114.872 10.7369 115.085 10.6663C115.297 10.5958 115.522 10.5697 115.744 10.5896C117.315 10.5896 118.907 12.2224 119.589 15.0745H119.878V10.4656L118.514 11.623C118.181 11.1994 117.762 10.8514 117.285 10.602C116.807 10.3526 116.282 10.2075 115.744 10.1762C115.328 10.153 114.912 10.2167 114.522 10.3635C114.132 10.5102 113.777 10.7367 113.479 11.0284C113.181 11.3202 112.948 11.6708 112.794 12.0579C112.639 12.4449 112.567 12.86 112.582 13.2764C112.582 15.1779 113.781 15.8186 115.703 16.8107L115.814 16.8678C118 17.9903 119.299 18.6575 119.299 20.3242C119.31 20.6369 119.258 20.9485 119.146 21.2403C119.033 21.5322 118.862 21.7982 118.644 22.0223C118.426 22.2463 118.164 22.4238 117.876 22.5441C117.606 22.6561 117.319 22.7163 117.027 22.7215ZM121.734 10.8785V10.4651H123.801V6.70352C124.24 6.6254 124.65 6.43345 124.991 6.1469C125.332 5.86034 125.592 5.48924 125.744 5.07074V10.4651H128.059V10.8785H125.682V21.0472C125.682 22.1426 125.847 22.6386 126.591 22.6386C127.335 22.6386 128.348 21.6879 128.472 19.9311H128.886C128.741 21.9979 127.811 23.176 126.261 23.176C124.711 23.176 123.739 22.2666 123.739 20.5098V10.8785H121.734ZM135.458 23.1966C137.525 23.1966 139.116 21.6879 139.591 19.063L139.178 19.1457C138.744 21.4605 137.339 22.7626 135.727 22.7626C133.515 22.7626 132.626 21.1918 132.626 17.7816V16.4175H139.591C139.405 12.5113 137.607 10.2171 135.272 10.2171C134.709 10.2211 134.155 10.3491 133.647 10.592C133.14 10.835 132.693 11.1868 132.337 11.6225C131.076 12.98 130.387 14.7716 130.415 16.6242C130.415 20.4065 132.647 23.1966 135.458 23.1966ZM137.525 14.5161V15.9215H132.626C132.709 12.2839 133.474 10.5891 135.251 10.5891C137.029 10.5891 137.525 11.8085 137.525 14.5161ZM148.125 10.1761C148.364 10.1786 148.6 10.2292 148.819 10.3249C149.037 10.4206 149.235 10.5594 149.399 10.733C149.563 10.9066 149.69 11.1115 149.773 11.3354C149.856 11.5593 149.893 11.7977 149.882 12.0362C149.896 12.2004 149.876 12.3657 149.824 12.5219C149.771 12.6781 149.687 12.8218 149.577 12.9439C149.466 13.0661 149.331 13.1642 149.181 13.2321C149.031 13.2999 148.869 13.3361 148.704 13.3383C148.561 13.3442 148.419 13.3203 148.286 13.2684C148.153 13.2164 148.032 13.1375 147.931 13.0365C147.83 12.9355 147.751 12.8147 147.699 12.6817C147.647 12.5486 147.623 12.4063 147.629 12.2636C147.615 12.1239 147.63 11.9827 147.673 11.8491C147.716 11.7155 147.786 11.5923 147.88 11.4873C147.973 11.3823 148.087 11.2979 148.215 11.2394C148.342 11.1809 148.481 11.1496 148.621 11.1475C148.769 11.15 148.915 11.1825 149.05 11.2428C149.185 11.3032 149.306 11.3903 149.407 11.4989C149.301 11.2166 149.107 10.9758 148.854 10.8121C148.601 10.6484 148.302 10.5703 148.001 10.5895C146.492 10.5895 145.066 12.925 145.066 16.6039V22.4323H146.906V22.8456H141.305V22.4323H143.123V10.8788H141.305V10.4655H144.963V13.5037C145.562 11.3129 146.596 10.1761 148.022 10.1761H148.125ZM181.693 14.4957C181.682 16.2208 181.211 17.9118 180.329 19.3941C179.871 20.4015 179.164 21.2756 178.274 21.9337C177.384 22.5919 176.342 23.0124 175.244 23.1556C173.508 23.1556 171.938 21.3162 171.938 18.6293C172.017 16.5405 172.739 14.527 174.004 12.863C174.504 12.0954 175.175 11.4536 175.963 10.9876C176.752 10.5216 177.638 10.2439 178.551 10.1761C180.37 10.1761 181.775 11.8296 181.775 14.4957H181.693ZM176.464 12.0156C175.491 13.6174 174.753 15.3505 174.273 17.1619C173.84 18.374 173.576 19.6396 173.488 20.9235C173.461 21.1565 173.484 21.3926 173.557 21.6157C173.63 21.8387 173.749 22.0435 173.908 22.2161C174.067 22.3887 174.261 22.525 174.478 22.6158C174.694 22.7066 174.927 22.7498 175.162 22.7423C176.03 22.7423 176.753 22.2049 177.373 21.0682C178.948 18.4802 179.916 15.5688 180.205 12.5529C180.252 12.3061 180.243 12.0517 180.177 11.809C180.112 11.5663 179.992 11.3418 179.826 11.1525C179.661 10.9632 179.454 10.8141 179.223 10.7165C178.991 10.619 178.74 10.5755 178.489 10.5895C178.055 10.6426 177.64 10.8001 177.281 11.0484C176.921 11.2968 176.626 11.6286 176.422 12.0156H176.464ZM184.293 22.2839C184.271 22.2041 184.265 22.1207 184.277 22.0387V22.018C184.299 21.6418 184.383 21.2717 184.525 20.9226L190.147 4.11946H185.641L185.517 4.55349H186.571C187.46 4.55349 187.79 4.69817 187.79 5.17354C187.753 5.57166 187.655 5.96183 187.501 6.33095L183.946 16.913C183.486 18.0496 183.194 19.2471 183.078 20.4679C183.078 22.1007 183.698 23.1547 184.835 23.1547C185.972 23.1547 187.274 21.4186 188.969 18.1531L188.596 17.9671C186.902 21.1086 185.786 22.7207 184.835 22.7207C184.752 22.7158 184.672 22.6938 184.598 22.6562C184.524 22.6185 184.459 22.566 184.406 22.5019C184.354 22.4379 184.315 22.3636 184.293 22.2839ZM192.214 22.0387C192.214 22.452 192.442 22.7207 192.752 22.7207C193.702 22.7207 194.819 21.1086 196.534 17.9671L196.906 18.1531C195.211 21.4186 193.888 23.1547 192.772 23.1547C191.656 23.1547 191.016 22.1007 191.016 20.4679C191.108 19.2497 191.379 18.0518 191.822 16.913L195.377 6.33095C195.531 5.96183 195.628 5.57166 195.666 5.17354C195.666 4.69817 195.356 4.55349 194.467 4.55349H193.454L193.578 4.11946H198.063L192.442 20.9226C192.304 21.2722 192.227 21.6426 192.214 22.018V22.0387ZM201.366 23.1553C203.536 23.1553 205.376 21.4192 207.174 17.9263L206.781 17.7196C205.066 21.0058 203.35 22.6799 201.449 22.6799C200.209 22.6799 199.63 21.9566 199.63 20.4891C199.668 19.4606 199.885 18.4466 200.271 17.4923C204.818 16.7895 207.257 14.9294 207.257 12.6559C207.251 12.3176 207.178 11.9838 207.041 11.6743C206.904 11.3648 206.707 11.0861 206.46 10.8547C206.213 10.6232 205.922 10.4439 205.604 10.3272C205.287 10.2106 204.949 10.1591 204.611 10.1758C203.555 10.4105 202.562 10.8722 201.702 11.5289C200.842 12.1856 200.135 13.0215 199.63 13.9787C198.582 15.4538 198.005 17.2122 197.977 19.0217C197.977 21.5225 199.196 23.1553 201.366 23.1553ZM204.694 10.5891C205.376 10.5891 205.851 11.1058 205.851 12.0359C205.719 13.3997 205.09 14.6675 204.084 15.5975C203.078 16.5275 201.765 17.0548 200.395 17.0789C201.738 12.6559 203.164 10.5891 204.694 10.5891ZM217.26 17.9268C215.503 21.3991 213.519 23.1559 211.618 23.1559C209.716 23.1559 208.414 21.4197 208.414 18.7329C208.43 17.1516 208.85 15.6007 209.633 14.2273C210.122 13.1271 210.884 12.17 211.846 11.4466C212.808 10.7232 213.939 10.2575 215.131 10.0936C215.472 10.064 215.816 10.1105 216.137 10.2297C216.458 10.3489 216.749 10.538 216.988 10.7831C217.227 11.0283 217.409 11.3235 217.521 11.6475C217.632 11.9714 217.67 12.316 217.632 12.6565C217.655 12.8939 217.629 13.1334 217.556 13.3605C217.483 13.5876 217.365 13.7974 217.208 13.9772C217.051 14.1571 216.86 14.3031 216.645 14.4065C216.43 14.5099 216.196 14.5685 215.958 14.5786C215.817 14.5823 215.676 14.5559 215.546 14.501C215.416 14.4461 215.299 14.3641 215.203 14.2604C215.107 14.1567 215.035 14.0337 214.99 13.8997C214.946 13.7656 214.93 13.6237 214.945 13.4832C214.945 12.8012 215.317 12.4085 216.103 12.0364C216.179 11.9946 216.249 11.9583 216.314 11.9252L216.314 11.925C216.599 11.7785 216.764 11.6937 216.764 11.4577C216.764 11.1684 216.185 10.5897 215.255 10.5897C214.759 10.6128 214.275 10.7566 213.846 11.0087C213.418 11.2608 213.057 11.6136 212.796 12.0364C211.647 13.9486 210.843 16.0471 210.419 18.2369C210.194 19.003 210.069 19.7949 210.047 20.593C210.047 21.9984 210.626 22.6598 211.7 22.6598C213.354 22.6598 215.173 20.9857 216.867 17.6995L217.26 17.9268ZM226.625 10.4654H224.021L225.86 5.33968H224L222.264 10.4447H220.073L219.908 11.0027H222.098L220.032 16.8931C219.545 18.154 219.233 19.475 219.102 20.8201C219.102 22.2048 219.887 23.1349 220.817 23.1349C222.036 23.1349 223.235 21.4608 224.951 18.1332L224.62 17.9472C222.904 21.0887 221.788 22.7008 220.838 22.7008C220.528 22.7008 220.3 22.4322 220.3 22.0188C220.313 21.6434 220.39 21.273 220.528 20.9234L223.855 11.0234H226.459L226.625 10.4654ZM230.059 10.1755C231.051 10.1755 231.733 11.1056 231.733 12.7384C231.582 14.4044 231.075 16.0185 230.245 17.4714C229.427 18.7977 228.833 20.2503 228.488 21.7703C228.488 22.3904 228.716 22.7211 229.171 22.7211C230.183 22.7211 231.568 21.0263 232.973 17.6574L233.366 17.8227C231.899 21.3983 230.39 23.1551 229.233 23.1551C228.075 23.1551 227.393 21.9977 227.393 20.3442C227.496 18.886 227.935 17.4714 228.674 16.2106C229.609 14.6782 230.306 13.0126 230.741 11.271C230.753 11.1737 230.744 11.0751 230.715 10.9815C230.686 10.8879 230.638 10.8013 230.574 10.7273C230.51 10.6534 230.431 10.5937 230.342 10.552C230.254 10.5104 230.157 10.4878 230.059 10.4856C229.047 10.4856 227.992 11.9117 226.484 14.6192L226.07 14.4125C227.662 11.5396 228.819 10.0722 229.997 10.0722L230.059 10.1755ZM231.754 7.50936C231.601 7.51913 231.448 7.49554 231.306 7.44024C231.163 7.38494 231.034 7.29924 230.928 7.18911C230.822 7.07898 230.741 6.94705 230.691 6.80248C230.641 6.65791 230.623 6.50418 230.638 6.35195C230.637 5.95266 230.788 5.56802 231.061 5.27624C231.333 4.98447 231.707 4.80745 232.105 4.78118C232.26 4.77489 232.414 4.80139 232.558 4.85894C232.701 4.91649 232.831 5.00378 232.938 5.11506C233.046 5.22635 233.128 5.35911 233.181 5.50461C233.233 5.65012 233.254 5.80506 233.242 5.95926C233.242 6.35985 233.088 6.74501 232.81 7.034C232.533 7.32298 232.154 7.49334 231.754 7.50936ZM242.704 19.3941C243.577 17.9075 244.047 16.2193 244.068 14.4957H244.213C244.213 11.8296 242.808 10.1761 240.989 10.1761C240.075 10.2439 239.19 10.5216 238.401 10.9876C237.612 11.4536 236.942 12.0954 236.442 12.863C235.177 14.527 234.455 16.5405 234.375 18.6293C234.375 21.3162 235.946 23.1556 237.682 23.1556C238.768 23.0026 239.798 22.5775 240.676 21.9198C241.554 21.2622 242.252 20.3934 242.704 19.3941ZM236.71 17.1619C237.191 15.3505 237.929 13.6174 238.901 12.0156H238.943C239.146 11.6286 239.441 11.2968 239.801 11.0484C240.161 10.8001 240.575 10.6426 241.009 10.5895C241.254 10.5775 241.499 10.62 241.725 10.7141C241.951 10.8082 242.154 10.9514 242.318 11.1334C242.482 11.3153 242.604 11.5316 242.674 11.7664C242.745 12.0011 242.762 12.2486 242.725 12.4909C242.437 15.5068 241.468 18.4182 239.893 21.0062C239.273 22.1429 238.55 22.6803 237.682 22.6803C237.447 22.6878 237.214 22.6446 236.998 22.5538C236.782 22.463 236.587 22.3267 236.428 22.1541C236.27 21.9815 236.15 21.7767 236.077 21.5537C236.005 21.3306 235.981 21.0945 236.008 20.8615C236.075 19.6024 236.312 18.3581 236.71 17.1619ZM249.424 13.0491C249.62 12.5378 249.745 12.0025 249.796 11.4577C249.796 10.9203 249.528 10.569 249.156 10.569C248.267 10.569 247.089 12.3671 245.601 15.9427L245.188 15.8186C246.841 12.0777 247.978 10.1556 249.156 10.1556C250.334 10.1556 250.727 11.1063 250.727 12.5944C250.67 13.9513 250.455 15.297 250.086 16.604C251.946 12.3464 253.413 10.1969 254.819 10.1969C255.852 10.1969 256.7 11.2097 256.7 12.8218C256.612 14.1203 256.297 15.3935 255.77 16.5834C254.948 18.2596 254.357 20.0395 254.013 21.8744C254.013 22.3911 254.219 22.6598 254.612 22.6598C255.666 22.6598 256.493 21.0477 258.022 17.9475L258.374 18.1335C256.803 21.461 255.832 23.1558 254.591 23.1558C253.351 23.1558 252.711 22.1637 252.711 20.6343C252.753 19.5732 252.991 18.5291 253.413 17.5548L254.922 13.8552C255.258 13.1411 255.454 12.3694 255.501 11.5817C255.501 10.941 255.274 10.6516 254.798 10.6516C253.186 10.6516 251.016 14.7852 248.164 22.8458H246.262L249.424 13.0491Z" fill="black"/>
</svg>
