<svg width="222" height="24" viewBox="0 0 222 24" fill="none" xmlns="http://www.w3.org/2000/svg">
<path fill-rule="evenodd" clip-rule="evenodd" d="M21.3853 0.00603962V0.502073C20.4978 0.45541 19.6128 0.63204 18.8112 1.0158C18.0097 1.39957 17.3171 1.97821 16.797 2.69879C15.7872 4.22232 15.3975 7.48197 15.3975 11.9817C15.3975 16.4814 15.7872 19.7411 16.797 21.2646C17.3131 21.9917 18.0039 22.5773 18.8057 22.9673C19.6076 23.3574 20.4946 23.5395 21.3853 23.4968V23.9928C19.7449 24.0608 18.1218 23.635 16.7261 22.7704C13.1122 20.3611 11.9606 15.4362 11.9606 11.9994C11.9606 8.56262 13.1122 3.63771 16.7261 1.22841C18.124 0.368838 19.7455 -0.056576 21.3853 0.00603962ZM0.268433 0.00603962C1.90238 -0.0541129 3.51752 0.371247 4.90989 1.22841C8.54156 3.63771 9.67535 8.56262 9.67535 11.9994C9.67535 15.4362 8.54156 20.3611 4.90989 22.7704C3.52097 23.6356 1.90333 24.0616 0.268433 23.9928V23.4968C1.15908 23.5395 2.04616 23.3574 2.84798 22.9673C3.64981 22.5773 4.3406 21.9917 4.85674 21.2646C5.84881 19.7588 6.25627 16.4991 6.25627 11.9994C6.25627 7.49969 5.84881 4.24004 4.85674 2.71651C4.33859 1.99267 3.64693 1.41058 2.84523 1.02366C2.04353 0.636737 1.15749 0.457389 0.268433 0.502073V0.00603962ZM146.707 10.3346L148.603 3.07129L148.284 3.12443C147.912 4.3468 147.256 5.0377 146.937 5.0377C146.696 5.0377 146.525 4.8444 146.279 4.56573L146.279 4.5654C146.201 4.47643 146.115 4.37878 146.016 4.27594C145.74 3.92753 145.39 3.64391 144.992 3.44497C144.594 3.24604 144.158 3.13663 143.713 3.12443C141.711 3.12443 139.213 4.8074 137.442 8.01391C136.352 9.79425 135.741 11.8267 135.67 13.9132C135.67 17.35 137.583 19.7061 140.347 19.7061C142.579 19.7061 144.563 17.7043 146.122 13.7714L145.715 13.6474C144.227 17.4917 142.42 19.2632 140.223 19.2632C138.416 19.2632 137.459 18.1294 137.459 15.9504C137.555 12.6762 138.456 9.47582 140.081 6.6321C141.215 4.5771 142.384 3.5496 143.624 3.5496C145.396 3.5496 146.388 5.32115 146.388 8.86425C146.416 9.35398 146.416 9.8449 146.388 10.3346H146.707ZM33.5564 18.9434H35.7V3.74353H33.5564V3.31836H39.8631C43.5302 3.31836 46.1521 6.52486 46.1521 11.2372C46.2162 12.5079 46.0128 13.7779 45.5551 14.965C45.0973 16.1521 44.3954 17.2298 43.4948 18.1285C42.2073 19.1133 40.5871 19.558 38.9773 19.3686H33.5564V18.9434ZM37.6487 3.74353V18.9434H38.9064C40.678 18.9434 41.9181 18.7663 42.7507 17.6502C43.7864 15.7771 44.2253 13.6323 44.0085 11.5029C44.0085 5.9934 43.2645 3.74353 39.7214 3.74353H37.6487ZM56.302 14.0724C56.302 17.2789 54.3356 19.6351 52.1212 19.6351C49.9067 19.6351 47.9403 17.2789 47.9403 14.0724C47.9403 10.8659 49.8713 8.50977 52.1212 8.50977C54.371 8.50977 56.302 10.8659 56.302 14.0724ZM49.8713 14.0724C49.8713 17.6155 50.2965 19.2631 52.1743 19.2631C54.0521 19.2631 54.4773 17.5801 54.4773 14.0724C54.4773 10.5648 53.9636 8.86408 52.1212 8.86408C50.2788 8.86408 49.8713 10.6356 49.8713 14.0724ZM64.2112 8.63732C64.0236 8.55531 63.8215 8.51193 63.6168 8.50977C62.3944 8.50977 61.5086 9.48412 60.9949 11.362L60.9063 8.75778H57.7707V9.11209H59.3119V19.015H57.7707V19.3694H62.5716V19.015H60.9949V14.0193C60.9949 10.8659 62.2704 8.86408 63.4928 8.86408C63.7525 8.84935 64.0103 8.9167 64.2297 9.05659C64.4491 9.19648 64.6189 9.40182 64.7151 9.64356C64.6284 9.55131 64.5243 9.47719 64.4087 9.4255C64.2932 9.3738 64.1685 9.34555 64.042 9.34239C63.9209 9.34443 63.8016 9.37125 63.6913 9.4212C63.581 9.47115 63.4822 9.54317 63.4008 9.63281C63.3195 9.72246 63.2574 9.82783 63.2184 9.94241C63.1793 10.057 63.1642 10.1784 63.1739 10.299C63.1714 10.4222 63.1941 10.5446 63.2406 10.6587C63.2871 10.7727 63.3565 10.8761 63.4444 10.9624C63.5324 11.0486 63.637 11.116 63.752 11.1604C63.8669 11.2047 63.9897 11.2251 64.1128 11.2202C64.254 11.2183 64.3933 11.1873 64.5221 11.1292C64.6508 11.071 64.7661 10.9869 64.8608 10.8822C64.9556 10.7775 65.0278 10.6543 65.0728 10.5205C65.1178 10.3866 65.1348 10.2449 65.1226 10.1042C65.1321 9.89969 65.1003 9.69539 65.0292 9.50347C64.958 9.31155 64.8489 9.13594 64.7083 8.98712C64.5678 8.83831 64.3987 8.71934 64.2112 8.63732ZM70.4927 19.6351C68.3137 19.6351 66.3296 17.2789 66.3296 14.0901C66.3018 12.4097 66.9384 10.7862 68.1011 9.57267C68.4323 9.22232 68.8342 8.94637 69.2801 8.76312C69.726 8.57987 70.2058 8.4935 70.6876 8.50974C71.0381 8.51205 71.3846 8.58366 71.7073 8.72046C72.03 8.85726 72.3224 9.05653 72.5677 9.30682C72.8131 9.5571 73.0065 9.85345 73.1368 10.1788C73.2672 10.5041 73.3319 10.852 73.3272 11.2025C73.3272 12.0706 72.8312 12.602 72.158 12.602C71.8761 12.602 71.6057 12.49 71.4064 12.2907C71.207 12.0914 71.095 11.821 71.095 11.5391C71.0876 11.399 71.1093 11.259 71.159 11.1278C71.2086 10.9967 71.285 10.8773 71.3834 10.7773C71.4817 10.6773 71.5998 10.5989 71.7301 10.547C71.8604 10.4952 72.0001 10.471 72.1403 10.4762C72.2973 10.4818 72.4514 10.5211 72.5919 10.5914C72.7325 10.6617 72.8564 10.7613 72.9552 10.8836C72.898 10.3277 72.6359 9.81293 72.22 9.43961C71.8041 9.06629 71.2642 8.86112 70.7053 8.86405C68.4909 8.86405 68.1897 10.7419 68.1897 14.533C68.1897 17.7218 68.668 19.2276 70.5636 19.2276C72.4591 19.2276 73.5221 17.8104 73.6992 15.3302H74.0712C73.8409 18.0761 72.4768 19.6351 70.5281 19.6351H70.4927ZM78.2535 14.0362C78.2535 10.9714 79.5822 9.07589 81.0172 9.07589C81.9561 9.07589 82.4167 9.80222 82.4167 11.2726V19.032H80.84V19.3863H85.6232V19.032H84.0642V12.0521C84.0642 9.76679 82.8596 8.50899 81.4246 8.50899C79.9896 8.50899 78.7141 9.62507 78.2181 11.6269V3.31836H74.9939V3.69038H76.5706V19.0143H74.9939V19.3686H79.7948V19.0143H78.2535V14.0362ZM94.6058 16.1271C94.1983 18.377 92.8342 19.6702 91.0627 19.6702C88.6534 19.6702 86.7401 17.2786 86.7401 14.0367C86.7166 12.4488 87.3068 10.9131 88.3876 9.74955C88.6952 9.37473 89.0818 9.07242 89.5197 8.86419C89.9576 8.65595 90.4361 8.54693 90.9209 8.5449C92.9051 8.5449 94.464 10.5113 94.6235 13.8595H88.6534V15.0288C88.6534 17.9518 89.4151 19.2982 91.3107 19.2982C92.6925 19.2982 93.8971 18.1821 94.2692 16.198L94.6058 16.1271ZM92.8342 13.4344V12.2297C92.8342 9.90899 92.409 8.86378 90.8855 8.86378C89.362 8.86378 88.7065 10.3164 88.6357 13.4344H92.8342ZM100.523 19.2632C100.536 19.2633 100.548 19.2633 100.561 19.2632H100.523ZM100.578 19.2629C98.9966 19.2419 97.5598 17.7555 96.8914 15.0292H96.6434V19.3872H96.8914L97.9189 18.1471C98.2326 18.5773 98.6391 18.9313 99.1084 19.1828C99.5776 19.4343 100.098 19.5768 100.629 19.5998C101.042 19.5934 101.449 19.5033 101.826 19.335C102.202 19.1666 102.541 18.9235 102.821 18.6203C103.101 18.3172 103.316 17.9603 103.454 17.5714C103.592 17.1825 103.65 16.7696 103.623 16.3578C103.623 14.5508 102.525 13.7359 100.452 12.6907C98.9642 11.9998 97.9544 11.5215 97.9544 10.2283C97.9585 10.0366 98.0019 9.84774 98.082 9.67352C98.1621 9.4993 98.2772 9.3434 98.42 9.2155C98.5629 9.08759 98.7305 8.9904 98.9125 8.92997C99.0945 8.86953 99.2869 8.84714 99.4779 8.86417C100.824 8.86417 102.188 10.2637 102.773 12.7084H103.021V8.75788L101.852 9.74995C101.566 9.38691 101.207 9.08862 100.798 8.87484C100.389 8.66105 99.9389 8.53665 99.4779 8.50986C99.1213 8.48992 98.7644 8.54459 98.43 8.67036C98.0957 8.79614 97.7913 8.99026 97.5362 9.24033C97.2811 9.4904 97.081 9.79092 96.9487 10.1227C96.8163 10.4545 96.7546 10.8102 96.7674 11.1672C96.7674 12.797 97.7949 13.3462 99.4425 14.1965L99.5378 14.2455C101.411 15.2076 102.525 15.7795 102.525 17.2082C102.535 17.4761 102.49 17.7432 102.393 17.9934C102.297 18.2435 102.15 18.4715 101.963 18.6636C101.776 18.8557 101.552 19.0078 101.305 19.1109C101.074 19.2069 100.827 19.2585 100.578 19.2629ZM104.612 9.11179V8.75748H106.384V5.53326C106.76 5.4663 107.111 5.30178 107.403 5.05616C107.696 4.81054 107.918 4.49245 108.049 4.13374V8.75748H110.033V9.11179H107.996V17.8278C107.996 18.7667 108.138 19.1919 108.775 19.1919C109.413 19.1919 110.281 18.377 110.387 16.8712H110.742C110.618 18.6427 109.821 19.6525 108.492 19.6525C107.163 19.6525 106.331 18.873 106.331 17.3672V9.11179H104.612ZM116.375 19.6702C118.147 19.6702 119.511 18.377 119.918 16.1271L119.564 16.198C119.192 18.1821 117.987 19.2982 116.605 19.2982C114.71 19.2982 113.948 17.9518 113.948 15.0288V13.8595H119.918C119.759 10.5113 118.218 8.5449 116.216 8.5449C115.734 8.54831 115.258 8.65804 114.823 8.86627C114.389 9.07449 114.005 9.37609 113.7 9.74955C112.619 10.9131 112.029 12.4488 112.053 14.0367C112.053 17.2786 113.966 19.6702 116.375 19.6702ZM118.147 12.2297V13.4344H113.948C114.019 10.3164 114.674 8.86378 116.198 8.86378C117.722 8.86378 118.147 9.90899 118.147 12.2297ZM127.233 8.50977C127.438 8.51193 127.64 8.55531 127.827 8.63732C128.015 8.71934 128.184 8.83831 128.324 8.98712C128.465 9.13594 128.574 9.31155 128.645 9.50347C128.716 9.69539 128.748 9.89969 128.739 10.1042C128.751 10.2449 128.734 10.3866 128.689 10.5205C128.644 10.6543 128.572 10.7775 128.477 10.8822C128.382 10.9869 128.267 11.071 128.138 11.1292C128.009 11.1873 127.87 11.2183 127.729 11.2202C127.607 11.2252 127.485 11.2048 127.371 11.1603C127.256 11.1158 127.153 11.0481 127.066 10.9615C126.98 10.875 126.912 10.7714 126.868 10.6574C126.823 10.5434 126.803 10.4213 126.808 10.299C126.795 10.1793 126.808 10.0583 126.845 9.94376C126.882 9.82922 126.942 9.72361 127.022 9.63365C127.102 9.54368 127.2 9.47134 127.31 9.4212C127.419 9.37106 127.538 9.34422 127.658 9.34239C127.785 9.34456 127.91 9.37236 128.025 9.42412C128.141 9.47587 128.245 9.55052 128.331 9.64356C128.241 9.40163 128.074 9.19526 127.858 9.0549C127.641 8.91455 127.384 8.84765 127.127 8.86408C125.833 8.86408 124.611 10.8659 124.611 14.0193V19.015H126.188V19.3694H121.387V19.015H122.946V9.11209H121.387V8.75778H124.522V11.362C125.036 9.48412 125.922 8.50977 127.144 8.50977H127.233ZM156.005 12.2123C155.996 13.6909 155.592 15.1403 154.836 16.4109C154.443 17.2744 153.837 18.0236 153.075 18.5877C152.312 19.1519 151.418 19.5123 150.478 19.6351C148.99 19.6351 147.643 18.0584 147.643 15.7554C147.712 13.9649 148.33 12.2391 149.415 10.8128C149.844 10.1549 150.418 9.6048 151.094 9.20535C151.77 8.80589 152.529 8.56786 153.312 8.50977C154.871 8.50977 156.076 9.92701 156.076 12.2123H156.005ZM151.523 10.0864C150.689 11.4595 150.057 12.945 149.645 14.4976C149.275 15.5365 149.048 16.6214 148.972 17.7218C148.949 17.9216 148.969 18.1239 149.032 18.3151C149.094 18.5063 149.197 18.6818 149.333 18.8298C149.469 18.9777 149.635 19.0946 149.821 19.1724C150.006 19.2502 150.206 19.2872 150.407 19.2808C151.151 19.2808 151.771 18.8202 152.303 17.8458C153.653 15.6275 154.482 13.1321 154.73 10.547C154.77 10.3355 154.762 10.1174 154.706 9.90938C154.65 9.70138 154.547 9.50893 154.405 9.34667C154.263 9.18441 154.087 9.05661 153.888 8.97298C153.689 8.88936 153.474 8.85211 153.259 8.86408C152.887 8.90962 152.532 9.04459 152.223 9.25747C151.915 9.47034 151.662 9.75478 151.488 10.0864H151.523ZM158.234 18.8879C158.215 18.8195 158.21 18.7479 158.22 18.6777V18.66C158.239 18.3375 158.311 18.0203 158.433 17.721L163.251 3.31836H159.389L159.283 3.69038H160.186C160.948 3.69038 161.232 3.81439 161.232 4.22185C161.199 4.5631 161.116 4.89753 160.984 5.21391L157.937 14.2842C157.542 15.2585 157.292 16.2849 157.193 17.3313C157.193 18.7308 157.724 19.6343 158.698 19.6343C159.673 19.6343 160.789 18.1462 162.241 15.3472L161.923 15.1877C160.47 17.8805 159.513 19.2623 158.698 19.2623C158.628 19.2581 158.558 19.2393 158.495 19.207C158.432 19.1747 158.376 19.1297 158.331 19.0748C158.286 19.0198 158.253 18.9562 158.234 18.8879ZM165.024 18.6777C165.024 19.032 165.218 19.2623 165.484 19.2623C166.299 19.2623 167.256 17.8805 168.726 15.1877L169.045 15.3472C167.592 18.1462 166.459 19.6343 165.502 19.6343C164.545 19.6343 163.996 18.7308 163.996 17.3313C164.075 16.2871 164.308 15.2604 164.687 14.2842L167.734 5.21391C167.866 4.89753 167.95 4.5631 167.982 4.22185C167.982 3.81439 167.716 3.69038 166.955 3.69038H166.087L166.193 3.31836H170.037L165.218 17.721C165.101 18.0207 165.035 18.3382 165.024 18.66V18.6777ZM172.868 19.6348C174.728 19.6348 176.305 18.1467 177.846 15.1528L177.509 14.9756C176.039 17.7924 174.569 19.2273 172.939 19.2273C171.876 19.2273 171.38 18.6073 171.38 17.3495C171.413 16.4679 171.599 15.5987 171.929 14.7807C175.826 14.1784 177.917 12.584 177.917 10.6353C177.912 10.3453 177.85 10.0592 177.732 9.79393C177.615 9.52868 177.446 9.28975 177.234 9.09139C177.022 8.89302 176.773 8.73927 176.501 8.6393C176.229 8.53932 175.939 8.49517 175.649 8.50947C174.744 8.71068 173.893 9.10645 173.156 9.66932C172.419 10.2322 171.813 10.9487 171.38 11.7691C170.481 13.0335 169.987 14.5407 169.963 16.0917C169.963 18.2353 171.008 19.6348 172.868 19.6348ZM175.72 8.86378C176.305 8.86378 176.712 9.30666 176.712 10.1039C176.599 11.2729 176.06 12.3595 175.198 13.1567C174.335 13.9538 173.21 14.4058 172.035 14.4264C173.187 10.6353 174.409 8.86378 175.72 8.86378ZM186.491 15.1532C184.985 18.1294 183.285 19.6353 181.655 19.6353C180.025 19.6353 178.909 18.1472 178.909 15.8442C178.923 14.4888 179.283 13.1594 179.954 11.9822C180.373 11.0392 181.026 10.2188 181.85 9.59878C182.675 8.97873 183.644 8.57955 184.667 8.43908C184.959 8.41368 185.254 8.45351 185.529 8.55571C185.804 8.6579 186.053 8.81992 186.258 9.03006C186.463 9.24021 186.619 9.49325 186.715 9.77092C186.81 10.0486 186.843 10.344 186.81 10.6358C186.83 10.8393 186.807 11.0446 186.745 11.2392C186.682 11.4339 186.581 11.6137 186.447 11.7679C186.312 11.922 186.148 12.0472 185.964 12.1358C185.78 12.2245 185.579 12.2746 185.375 12.2833C185.254 12.2865 185.134 12.2638 185.022 12.2168C184.911 12.1698 184.811 12.0994 184.728 12.0106C184.646 11.9217 184.584 11.8163 184.546 11.7014C184.508 11.5865 184.495 11.4648 184.507 11.3444C184.507 10.7598 184.826 10.4232 185.499 10.1043C185.564 10.0684 185.625 10.0374 185.68 10.009L185.681 10.0088C185.925 9.8832 186.066 9.81054 186.066 9.6083C186.066 9.36029 185.57 8.86425 184.773 8.86425C184.347 8.88406 183.933 9.00733 183.565 9.22342C183.198 9.4395 182.889 9.74186 182.665 10.1043C181.681 11.7433 180.991 13.5421 180.627 15.419C180.435 16.0756 180.328 16.7544 180.309 17.4385C180.309 18.6432 180.805 19.2101 181.726 19.2101C183.143 19.2101 184.702 17.7751 186.155 14.9584L186.491 15.1532ZM194.518 8.7577H192.286L193.863 4.36426H192.268L190.78 8.73998H188.902L188.761 9.2183H190.639L188.867 14.2672C188.45 15.348 188.182 16.4803 188.07 17.6332C188.07 18.8201 188.743 19.6173 189.54 19.6173C190.585 19.6173 191.613 18.1823 193.083 15.3301L192.8 15.1707C191.329 17.8635 190.373 19.2453 189.558 19.2453C189.292 19.2453 189.097 19.015 189.097 18.6606C189.108 18.3389 189.174 18.0214 189.292 17.7217L192.144 9.23601H194.376L194.518 8.7577ZM197.462 8.50928C198.312 8.50928 198.897 9.30648 198.897 10.706C198.767 12.134 198.332 13.5175 197.622 14.7628C196.92 15.8997 196.411 17.1448 196.116 18.4477C196.116 18.9791 196.311 19.2626 196.7 19.2626C197.568 19.2626 198.755 17.8099 199.96 14.9223L200.297 15.064C199.039 18.1288 197.746 19.6346 196.753 19.6346C195.761 19.6346 195.177 18.6425 195.177 17.2253C195.265 15.9754 195.641 14.7628 196.275 13.6822C197.077 12.3687 197.674 10.9411 198.047 9.4482C198.057 9.36483 198.049 9.28032 198.024 9.20008C198 9.11983 197.958 9.04564 197.903 8.98225C197.848 8.91886 197.781 8.86768 197.705 8.832C197.629 8.79631 197.546 8.7769 197.462 8.77501C196.594 8.77501 195.691 9.99738 194.397 12.3181L194.043 12.141C195.407 9.6785 196.399 8.4207 197.409 8.4207L197.462 8.50928ZM198.915 6.22399C198.784 6.23236 198.653 6.21214 198.53 6.16474C198.408 6.11733 198.298 6.04388 198.207 5.94948C198.116 5.85508 198.046 5.742 198.003 5.61809C197.96 5.49417 197.945 5.3624 197.958 5.23192C197.957 4.88967 198.087 4.55998 198.321 4.30988C198.554 4.05979 198.874 3.90806 199.216 3.88554C199.348 3.88015 199.48 3.90287 199.603 3.9522C199.727 4.00152 199.838 4.07634 199.93 4.17173C200.022 4.26712 200.093 4.38091 200.137 4.50563C200.182 4.63035 200.2 4.76316 200.19 4.89532C200.191 5.23869 200.058 5.56883 199.82 5.81653C199.582 6.06423 199.258 6.21025 198.915 6.22399ZM208.301 16.4109C209.048 15.1367 209.451 13.6896 209.47 12.2123H209.594C209.594 9.92701 208.389 8.50977 206.83 8.50977C206.047 8.56786 205.288 8.80589 204.612 9.20535C203.936 9.6048 203.361 10.1549 202.933 10.8128C201.848 12.2391 201.23 13.9649 201.161 15.7554C201.161 18.0584 202.508 19.6351 203.996 19.6351C204.927 19.5039 205.81 19.1395 206.562 18.5758C207.315 18.0122 207.913 17.2675 208.301 16.4109ZM203.163 14.4976C203.575 12.945 204.207 11.4595 205.041 10.0864H205.076C205.251 9.75478 205.503 9.47034 205.812 9.25747C206.12 9.04459 206.476 8.90962 206.848 8.86408C207.058 8.85378 207.267 8.89027 207.461 8.9709C207.655 9.05153 207.829 9.17428 207.97 9.33027C208.11 9.48626 208.215 9.67159 208.275 9.87284C208.335 10.0741 208.35 10.2862 208.318 10.4939C208.071 13.079 207.241 15.5744 205.891 17.7927C205.36 18.767 204.74 19.2276 203.996 19.2276C203.795 19.234 203.595 19.1971 203.409 19.1193C203.224 19.0414 203.058 18.9246 202.921 18.7766C202.785 18.6287 202.683 18.4532 202.62 18.262C202.558 18.0708 202.538 17.8684 202.561 17.6687C202.619 16.5894 202.821 15.5229 203.163 14.4976ZM214.061 10.9724C214.228 10.5341 214.335 10.0752 214.38 9.60826C214.38 9.14766 214.149 8.8465 213.831 8.8465C213.069 8.8465 212.059 10.3877 210.783 13.4525L210.429 13.3462C211.846 10.1397 212.821 8.49219 213.831 8.49219C214.84 8.49219 215.177 9.3071 215.177 10.5826C215.128 11.7457 214.944 12.8991 214.628 14.0194C216.222 10.37 217.48 8.52762 218.685 8.52762C219.57 8.52762 220.297 9.39568 220.297 10.7775C220.221 11.8905 219.952 12.9818 219.499 14.0017C218.795 15.4385 218.288 16.9641 217.994 18.5369C217.994 18.9798 218.171 19.2101 218.507 19.2101C219.411 19.2101 220.12 17.8282 221.43 15.1709L221.732 15.3304C220.385 18.1826 219.553 19.6352 218.49 19.6352C217.427 19.6352 216.878 18.7849 216.878 17.4739C216.914 16.5644 217.118 15.6695 217.48 14.8343L218.773 11.6633C219.061 11.0512 219.229 10.3898 219.269 9.71456C219.269 9.16538 219.074 8.91736 218.667 8.91736C217.285 8.91736 215.425 12.4605 212.98 19.3695H211.35L214.061 10.9724Z" fill="black"/>
</svg>
