<svg width="222" height="24" viewBox="0 0 222 24" fill="none" xmlns="http://www.w3.org/2000/svg">
<path fill-rule="evenodd" clip-rule="evenodd" d="M21.6075 0.00603962V0.502073C20.72 0.45541 19.835 0.63204 19.0334 1.0158C18.2318 1.39957 17.5393 1.97821 17.0191 2.69879C16.0094 4.22232 15.6196 7.48197 15.6196 11.9817C15.6196 16.4814 16.0094 19.7411 17.0191 21.2646C17.5353 21.9917 18.2261 22.5773 19.0279 22.9673C19.8297 23.3574 20.7168 23.5395 21.6075 23.4968V23.9928C19.9671 24.0608 18.344 23.635 16.9483 22.7704C13.3343 20.3611 12.1828 15.4362 12.1828 11.9994C12.1828 8.56262 13.3343 3.63771 16.9483 1.22841C18.3461 0.368838 19.9676 -0.056576 21.6075 0.00603962ZM0.490601 0.00603962C2.12455 -0.0541129 3.73969 0.371247 5.13206 1.22841C8.76373 3.63771 9.89752 8.56262 9.89752 11.9994C9.89752 15.4362 8.76373 20.3611 5.13206 22.7704C3.74314 23.6356 2.1255 24.0616 0.490601 23.9928V23.4968C1.38125 23.5395 2.26833 23.3574 3.07015 22.9673C3.87197 22.5773 4.56276 21.9917 5.07891 21.2646C6.07098 19.7588 6.47843 16.4992 6.47843 11.9994C6.47843 7.49969 6.07098 4.24004 5.07891 2.71651C4.56076 1.99267 3.86909 1.41058 3.0674 1.02366C2.2657 0.636737 1.37966 0.457389 0.490601 0.502073V0.00603962ZM146.929 10.3346L148.825 3.07129L148.506 3.12443C148.134 4.3468 147.478 5.0377 147.159 5.0377C146.918 5.0377 146.747 4.8444 146.502 4.56573L146.501 4.5654C146.423 4.47643 146.337 4.37878 146.238 4.27594C145.962 3.92753 145.612 3.64391 145.214 3.44497C144.816 3.24604 144.38 3.13663 143.935 3.12443C141.933 3.12443 139.435 4.8074 137.664 8.01391C136.574 9.79425 135.963 11.8267 135.892 13.9132C135.892 17.35 137.806 19.7061 140.569 19.7061C142.801 19.7061 144.786 17.7043 146.345 13.7714L145.937 13.6474C144.449 17.4917 142.642 19.2632 140.445 19.2632C138.638 19.2632 137.682 18.1294 137.682 15.9504C137.777 12.6762 138.678 9.47582 140.304 6.6321C141.437 4.5771 142.607 3.5496 143.847 3.5496C145.618 3.5496 146.61 5.32115 146.61 8.86425C146.638 9.35398 146.638 9.8449 146.61 10.3346H146.929ZM33.7785 18.9434H35.9221V3.74353H33.7785V3.31836H40.0853C43.7524 3.31836 46.3742 6.52486 46.3742 11.2372C46.4384 12.5079 46.235 13.7779 45.7772 14.965C45.3195 16.1521 44.6176 17.2298 43.7169 18.1285C42.4295 19.1133 40.8092 19.558 39.1995 19.3686H33.7785V18.9434ZM37.8708 3.74353V18.9434H39.1286C40.9002 18.9434 42.1403 18.7663 42.9729 17.6502C44.0086 15.7771 44.4474 13.6323 44.2307 11.5029C44.2307 5.9934 43.4866 3.74353 39.9435 3.74353H37.8708ZM56.5242 14.0724C56.5242 17.2789 54.5578 19.6351 52.3433 19.6351C50.1289 19.6351 48.1625 17.2789 48.1625 14.0724C48.1625 10.8659 50.0935 8.50977 52.3433 8.50977C54.5932 8.50977 56.5242 10.8659 56.5242 14.0724ZM50.0935 14.0724C50.0935 17.6155 50.5186 19.2631 52.3965 19.2631C54.2743 19.2631 54.6995 17.5801 54.6995 14.0724C54.6995 10.5648 54.1857 8.86408 52.3433 8.86408C50.5009 8.86408 50.0935 10.6356 50.0935 14.0724ZM64.4333 8.63732C64.2458 8.55531 64.0436 8.51193 63.8389 8.50977C62.6166 8.50977 61.7308 9.48412 61.2171 11.362L61.1285 8.75778H57.9928V9.11209H59.5341V19.015H57.9928V19.3694H62.7937V19.015H61.2171V14.0193C61.2171 10.8659 62.4926 8.86408 63.7149 8.86408C63.9747 8.84935 64.2325 8.9167 64.4519 9.05659C64.6713 9.19648 64.8411 9.40182 64.9373 9.64356C64.8506 9.55131 64.7464 9.4772 64.6309 9.4255C64.5153 9.3738 64.3907 9.34555 64.2641 9.3424C64.1431 9.34443 64.0237 9.37125 63.9135 9.4212C63.8032 9.47115 63.7044 9.54317 63.623 9.63281C63.5417 9.72246 63.4796 9.82783 63.4405 9.94241C63.4015 10.057 63.3864 10.1784 63.3961 10.299C63.3935 10.4222 63.4162 10.5446 63.4628 10.6587C63.5093 10.7727 63.5787 10.8761 63.6666 10.9624C63.7545 11.0486 63.8592 11.116 63.9741 11.1604C64.0891 11.2047 64.2119 11.2251 64.335 11.2202C64.4762 11.2183 64.6155 11.1873 64.7442 11.1292C64.8729 11.071 64.9883 10.9869 65.083 10.8822C65.1778 10.7775 65.2499 10.6543 65.295 10.5205C65.34 10.3866 65.3569 10.2449 65.3448 10.1042C65.3543 9.89969 65.3225 9.69539 65.2513 9.50347C65.1802 9.31155 65.0711 9.13594 64.9305 8.98712C64.79 8.83831 64.6209 8.71934 64.4333 8.63732ZM70.7149 19.6351C68.5359 19.6351 66.5517 17.2789 66.5517 14.0901C66.524 12.4097 67.1606 10.7862 68.3233 9.57267C68.6545 9.22232 69.0563 8.94637 69.5022 8.76312C69.9481 8.57987 70.4279 8.4935 70.9097 8.50974C71.2602 8.51205 71.6068 8.58366 71.9295 8.72046C72.2521 8.85726 72.5446 9.05653 72.7899 9.30682C73.0353 9.5571 73.2287 9.85345 73.359 10.1788C73.4893 10.5041 73.554 10.852 73.5494 11.2025C73.5494 12.0706 73.0533 12.602 72.3801 12.602C72.0982 12.602 71.8279 12.49 71.6285 12.2907C71.4292 12.0914 71.3172 11.821 71.3172 11.5391C71.3097 11.399 71.3315 11.259 71.3812 11.1278C71.4308 10.9967 71.5072 10.8773 71.6055 10.7773C71.7039 10.6773 71.822 10.5989 71.9523 10.547C72.0826 10.4952 72.2223 10.471 72.3624 10.4762C72.5195 10.4818 72.6735 10.5211 72.8141 10.5914C72.9547 10.6617 73.0786 10.7613 73.1773 10.8836C73.1201 10.3277 72.8581 9.81293 72.4422 9.43961C72.0263 9.06629 71.4863 8.86112 70.9275 8.86405C68.713 8.86405 68.4119 10.7419 68.4119 14.533C68.4119 17.7218 68.8902 19.2276 70.7857 19.2276C72.6813 19.2276 73.7442 17.8104 73.9214 15.3302H74.2934C74.0631 18.0761 72.699 19.6351 70.7503 19.6351H70.7149ZM78.4757 14.0362C78.4757 10.9714 79.8044 9.07589 81.2393 9.07589C82.1782 9.07589 82.6388 9.80222 82.6388 11.2726V19.032H81.0622V19.3863H85.8453V19.032H84.2864V12.0521C84.2864 9.76679 83.0817 8.50899 81.6468 8.50899C80.2118 8.50899 78.9363 9.62507 78.4403 11.6269V3.31836H75.216V3.69038H76.7927V19.0143H75.216V19.3686H80.0169V19.0143H78.4757V14.0362ZM94.8279 16.1271C94.4205 18.377 93.0564 19.6702 91.2848 19.6702C88.8755 19.6702 86.9623 17.2786 86.9623 14.0367C86.9388 12.4488 87.5289 10.9131 88.6098 9.74955C88.9174 9.37473 89.304 9.07242 89.7419 8.86418C90.1798 8.65595 90.6582 8.54693 91.1431 8.5449C93.1272 8.5449 94.6862 10.5113 94.8456 13.8595H88.8755V15.0288C88.8755 17.9518 89.6373 19.2982 91.5329 19.2982C92.9147 19.2982 94.1193 18.1821 94.4913 16.198L94.8279 16.1271ZM93.0564 13.4344V12.2297C93.0564 9.90899 92.6312 8.86378 91.1077 8.86378C89.5842 8.86378 88.9287 10.3164 88.8578 13.4344H93.0564ZM100.745 19.2632C100.758 19.2633 100.771 19.2633 100.783 19.2632H100.745ZM100.8 19.2629C99.2188 19.2419 97.782 17.7555 97.1136 15.0292H96.8656V19.3872H97.1136L98.1411 18.1471C98.4547 18.5773 98.8613 18.9313 99.3305 19.1828C99.7998 19.4343 100.32 19.5768 100.852 19.5998C101.264 19.5934 101.671 19.5033 102.048 19.335C102.425 19.1666 102.763 18.9235 103.043 18.6203C103.323 18.3172 103.539 17.9603 103.677 17.5714C103.814 17.1825 103.872 16.7696 103.845 16.3578C103.845 14.5508 102.747 13.7359 100.674 12.6907C99.1863 11.9998 98.1765 11.5215 98.1765 10.2283C98.1806 10.0366 98.2241 9.84774 98.3042 9.67352C98.3843 9.4993 98.4993 9.3434 98.6422 9.2155C98.7851 9.08759 98.9527 8.9904 99.1346 8.92997C99.3166 8.86953 99.5091 8.84714 99.7001 8.86417C101.046 8.86417 102.411 10.2637 102.995 12.7084H103.243V8.75788L102.074 9.74995C101.789 9.38691 101.429 9.08862 101.02 8.87484C100.611 8.66105 100.161 8.53665 99.7001 8.50986C99.3434 8.48992 98.9865 8.54459 98.6522 8.67036C98.3179 8.79614 98.0135 8.99026 97.7584 9.24033C97.5033 9.4904 97.3032 9.79092 97.1708 10.1227C97.0385 10.4545 96.9767 10.8102 96.9896 11.1672C96.9896 12.797 98.0171 13.3462 99.6646 14.1965L99.7599 14.2455C101.633 15.2076 102.747 15.7795 102.747 17.2082C102.757 17.4761 102.712 17.7432 102.615 17.9934C102.519 18.2436 102.373 18.4715 102.186 18.6636C101.998 18.8557 101.774 19.0078 101.527 19.1109C101.296 19.2069 101.049 19.2585 100.8 19.2629ZM104.834 9.11179V8.75748H106.606V5.53326C106.982 5.4663 107.333 5.30178 107.626 5.05616C107.918 4.81054 108.141 4.49245 108.271 4.13374V8.75748H110.255V9.11179H108.218V17.8278C108.218 18.7667 108.36 19.1919 108.997 19.1919C109.635 19.1919 110.503 18.377 110.61 16.8712H110.964C110.84 18.6427 110.043 19.6525 108.714 19.6525C107.385 19.6525 106.553 18.873 106.553 17.3672V9.11179H104.834ZM116.597 19.6702C118.369 19.6702 119.733 18.377 120.14 16.1271L119.786 16.198C119.414 18.1821 118.209 19.2982 116.828 19.2982C114.932 19.2982 114.17 17.9518 114.17 15.0288V13.8595H120.14C119.981 10.5113 118.44 8.5449 116.438 8.5449C115.956 8.54831 115.48 8.65804 115.046 8.86627C114.611 9.07449 114.227 9.37609 113.922 9.74955C112.841 10.9131 112.251 12.4488 112.275 14.0367C112.275 17.2786 114.188 19.6702 116.597 19.6702ZM118.369 12.2297V13.4344H114.17C114.241 10.3164 114.897 8.86378 116.42 8.86378C117.944 8.86378 118.369 9.90899 118.369 12.2297ZM127.455 8.50977C127.66 8.51193 127.862 8.55531 128.049 8.63732C128.237 8.71934 128.406 8.83831 128.547 8.98712C128.687 9.13594 128.796 9.31155 128.867 9.50347C128.939 9.69539 128.97 9.89969 128.961 10.1042C128.973 10.2449 128.956 10.3866 128.911 10.5205C128.866 10.6543 128.794 10.7775 128.699 10.8822C128.604 10.9869 128.489 11.071 128.36 11.1292C128.232 11.1873 128.092 11.2183 127.951 11.2202C127.829 11.2252 127.707 11.2048 127.593 11.1603C127.479 11.1158 127.375 11.0481 127.289 10.9615C127.202 10.875 127.134 10.7714 127.09 10.6574C127.045 10.5434 127.025 10.4213 127.03 10.299C127.018 10.1793 127.03 10.0583 127.067 9.94376C127.104 9.82922 127.165 9.72361 127.245 9.63365C127.325 9.54369 127.422 9.47134 127.532 9.4212C127.641 9.37106 127.76 9.34422 127.88 9.3424C128.007 9.34456 128.132 9.37236 128.248 9.42411C128.363 9.47587 128.467 9.55052 128.553 9.64356C128.463 9.40163 128.297 9.19526 128.08 9.0549C127.863 8.91455 127.607 8.84765 127.349 8.86408C126.055 8.86408 124.833 10.8659 124.833 14.0193V19.015H126.41V19.3694H121.609V19.015H123.168V9.11209H121.609V8.75778H124.745V11.362C125.258 9.48412 126.144 8.50977 127.366 8.50977H127.455ZM156.227 12.2123C156.218 13.6909 155.814 15.1403 155.058 16.4109C154.666 17.2744 154.059 18.0236 153.297 18.5877C152.534 19.1519 151.641 19.5123 150.7 19.6351C149.212 19.6351 147.866 18.0584 147.866 15.7554C147.934 13.9649 148.553 12.2391 149.637 10.8128C150.066 10.1549 150.64 9.6048 151.316 9.20535C151.992 8.80589 152.752 8.56786 153.535 8.50977C155.094 8.50977 156.298 9.92701 156.298 12.2123H156.227ZM151.745 10.0864C150.912 11.4595 150.279 12.945 149.867 14.4976C149.497 15.5365 149.27 16.6214 149.194 17.7218C149.171 17.9216 149.192 18.1239 149.254 18.3151C149.316 18.5063 149.419 18.6818 149.555 18.8298C149.691 18.9777 149.857 19.0946 150.043 19.1724C150.228 19.2502 150.428 19.2872 150.629 19.2808C151.373 19.2808 151.993 18.8202 152.525 17.8458C153.875 15.6275 154.705 13.1321 154.952 10.547C154.993 10.3355 154.984 10.1174 154.928 9.90938C154.872 9.70137 154.769 9.50893 154.627 9.34667C154.486 9.18441 154.309 9.05661 154.11 8.97298C153.912 8.88936 153.697 8.85211 153.481 8.86408C153.109 8.90962 152.754 9.04459 152.445 9.25747C152.137 9.47034 151.884 9.75478 151.71 10.0864H151.745ZM158.456 18.8879C158.437 18.8195 158.432 18.7479 158.442 18.6777V18.66C158.461 18.3375 158.533 18.0203 158.655 17.721L163.473 3.31836H159.611L159.505 3.69038H160.409C161.17 3.69038 161.454 3.81439 161.454 4.22185C161.421 4.5631 161.338 4.89753 161.206 5.21391L158.159 14.2842C157.764 15.2585 157.514 16.2849 157.415 17.3313C157.415 18.7308 157.946 19.6343 158.921 19.6343C159.895 19.6343 161.011 18.1462 162.464 15.3472L162.145 15.1877C160.692 17.8805 159.735 19.2623 158.921 19.2623C158.85 19.2581 158.78 19.2393 158.717 19.207C158.654 19.1747 158.598 19.1297 158.553 19.0748C158.508 19.0198 158.475 18.9562 158.456 18.8879ZM165.246 18.6777C165.246 19.032 165.441 19.2623 165.706 19.2623C166.521 19.2623 167.478 17.8805 168.948 15.1877L169.267 15.3472C167.815 18.1462 166.681 19.6343 165.724 19.6343C164.767 19.6343 164.218 18.7308 164.218 17.3313C164.297 16.2871 164.53 15.2603 164.909 14.2842L167.956 5.21391C168.088 4.89753 168.172 4.5631 168.204 4.22185C168.204 3.81439 167.939 3.69038 167.177 3.69038H166.309L166.415 3.31836H170.259L165.441 17.721C165.323 18.0207 165.257 18.3382 165.246 18.66V18.6777ZM173.09 19.6348C174.95 19.6348 176.527 18.1467 178.068 15.1528L177.732 14.9756C176.261 17.7924 174.791 19.2273 173.161 19.2273C172.098 19.2273 171.602 18.6073 171.602 17.3495C171.635 16.4679 171.821 15.5987 172.151 14.7807C176.049 14.1784 178.139 12.584 178.139 10.6353C178.135 10.3453 178.072 10.0592 177.955 9.79393C177.837 9.52868 177.668 9.28975 177.456 9.09139C177.245 8.89302 176.995 8.73927 176.723 8.6393C176.451 8.53932 176.161 8.49517 175.871 8.50947C174.966 8.71068 174.115 9.10645 173.378 9.66932C172.641 10.2322 172.035 10.9487 171.602 11.7691C170.703 13.0335 170.209 14.5407 170.185 16.0917C170.185 18.2353 171.23 19.6348 173.09 19.6348ZM175.942 8.86378C176.527 8.86378 176.934 9.30666 176.934 10.1039C176.821 11.2729 176.282 12.3595 175.42 13.1567C174.557 13.9538 173.432 14.4058 172.258 14.4264C173.409 10.6353 174.631 8.86378 175.942 8.86378ZM186.713 15.1532C185.208 18.1294 183.507 19.6353 181.877 19.6353C180.247 19.6353 179.131 18.1472 179.131 15.8442C179.145 14.4888 179.505 13.1594 180.176 11.9822C180.595 11.0392 181.248 10.2188 182.073 9.59878C182.897 8.97873 183.867 8.57955 184.889 8.43908C185.181 8.41368 185.476 8.45351 185.751 8.55571C186.026 8.6579 186.275 8.81992 186.481 9.03006C186.686 9.24021 186.841 9.49325 186.937 9.77092C187.032 10.0486 187.065 10.344 187.032 10.6358C187.052 10.8393 187.03 11.0446 186.967 11.2392C186.905 11.4339 186.803 11.6137 186.669 11.7679C186.535 11.922 186.37 12.0472 186.186 12.1358C186.002 12.2245 185.802 12.2746 185.597 12.2833C185.476 12.2865 185.356 12.2638 185.245 12.2168C185.133 12.1698 185.033 12.0994 184.951 12.0106C184.868 11.9217 184.806 11.8163 184.768 11.7014C184.73 11.5865 184.717 11.4648 184.729 11.3444C184.729 10.7598 185.048 10.4232 185.721 10.1043C185.787 10.0684 185.847 10.0374 185.902 10.009L185.903 10.0088C186.147 9.8832 186.288 9.81054 186.288 9.6083C186.288 9.36029 185.792 8.86425 184.995 8.86425C184.569 8.88406 184.155 9.00733 183.788 9.22341C183.42 9.4395 183.111 9.74186 182.887 10.1043C181.903 11.7433 181.213 13.5421 180.85 15.419C180.657 16.0756 180.55 16.7544 180.531 17.4385C180.531 18.6432 181.027 19.2101 181.948 19.2101C183.365 19.2101 184.924 17.7751 186.377 14.9584L186.713 15.1532ZM194.74 8.7577H192.508L194.085 4.36426H192.49L191.002 8.73998H189.125L188.983 9.2183H190.861L189.089 14.2672C188.672 15.348 188.404 16.4803 188.292 17.6332C188.292 18.8201 188.965 19.6173 189.762 19.6173C190.808 19.6173 191.835 18.1823 193.305 15.3301L193.022 15.1707C191.552 17.8635 190.595 19.2453 189.78 19.2453C189.514 19.2453 189.319 19.015 189.319 18.6606C189.331 18.3389 189.396 18.0214 189.514 17.7217L192.366 9.23601H194.599L194.74 8.7577ZM197.684 8.50928C198.535 8.50928 199.119 9.30648 199.119 10.706C198.99 12.134 198.555 13.5175 197.844 14.7628C197.142 15.8997 196.633 17.1448 196.338 18.4477C196.338 18.9791 196.533 19.2626 196.922 19.2626C197.791 19.2626 198.977 17.8099 200.182 14.9223L200.519 15.064C199.261 18.1288 197.968 19.6346 196.976 19.6346C195.984 19.6346 195.399 18.6425 195.399 17.2253C195.487 15.9754 195.863 14.7628 196.497 13.6822C197.299 12.3687 197.896 10.9411 198.269 9.4482C198.279 9.36483 198.271 9.28032 198.246 9.20008C198.222 9.11983 198.181 9.04564 198.126 8.98225C198.07 8.91886 198.003 8.86768 197.927 8.832C197.851 8.79631 197.768 8.7769 197.684 8.77501C196.816 8.77501 195.913 9.99738 194.619 12.3181L194.265 12.141C195.629 9.6785 196.621 8.42071 197.631 8.42071L197.684 8.50928ZM199.137 6.22399C199.006 6.23236 198.875 6.21214 198.753 6.16474C198.63 6.11733 198.52 6.04388 198.429 5.94948C198.338 5.85508 198.268 5.742 198.226 5.61809C198.183 5.49417 198.167 5.3624 198.18 5.23192C198.18 4.88967 198.309 4.55998 198.543 4.30988C198.776 4.05979 199.097 3.90806 199.438 3.88554C199.571 3.88015 199.703 3.90287 199.826 3.9522C199.949 4.00152 200.06 4.07634 200.152 4.17173C200.244 4.26712 200.315 4.38091 200.36 4.50563C200.405 4.63035 200.423 4.76316 200.412 4.89532C200.413 5.23869 200.28 5.56883 200.042 5.81653C199.804 6.06423 199.48 6.21025 199.137 6.22399ZM208.523 16.4109C209.271 15.1367 209.674 13.6896 209.692 12.2123H209.816C209.816 9.92701 208.611 8.50977 207.052 8.50977C206.269 8.56786 205.51 8.80589 204.834 9.20535C204.158 9.6048 203.584 10.1549 203.155 10.8128C202.07 12.2391 201.452 13.9649 201.383 15.7554C201.383 18.0584 202.73 19.6351 204.218 19.6351C205.149 19.5039 206.032 19.1395 206.784 18.5758C207.537 18.0122 208.135 17.2675 208.523 16.4109ZM203.385 14.4976C203.797 12.945 204.429 11.4595 205.263 10.0864H205.299C205.473 9.75478 205.726 9.47034 206.034 9.25747C206.343 9.04459 206.698 8.90962 207.07 8.86408C207.28 8.85378 207.489 8.89027 207.683 8.9709C207.877 9.05153 208.051 9.17428 208.192 9.33027C208.333 9.48626 208.437 9.67159 208.497 9.87284C208.557 10.0741 208.572 10.2862 208.541 10.4939C208.293 13.079 207.464 15.5744 206.113 17.7927C205.582 18.767 204.962 19.2276 204.218 19.2276C204.017 19.234 203.817 19.1971 203.632 19.1193C203.446 19.0414 203.28 18.9246 203.144 18.7766C203.007 18.6287 202.905 18.4532 202.842 18.262C202.78 18.0708 202.76 17.8684 202.783 17.6687C202.841 16.5894 203.043 15.5229 203.385 14.4976ZM214.283 10.9724C214.45 10.5341 214.557 10.0752 214.602 9.60827C214.602 9.14766 214.372 8.8465 214.053 8.8465C213.291 8.8465 212.281 10.3877 211.006 13.4525L210.651 13.3462C212.069 10.1397 213.043 8.49219 214.053 8.49219C215.062 8.49219 215.399 9.3071 215.399 10.5826C215.35 11.7457 215.166 12.8991 214.85 14.0194C216.444 10.37 217.702 8.52762 218.907 8.52762C219.793 8.52762 220.519 9.39568 220.519 10.7775C220.443 11.8905 220.174 12.9818 219.722 14.0017C219.017 15.4385 218.511 16.9641 218.216 18.5369C218.216 18.9798 218.393 19.2101 218.73 19.2101C219.633 19.2101 220.342 17.8282 221.653 15.1709L221.954 15.3304C220.607 18.1826 219.775 19.6352 218.712 19.6352C217.649 19.6352 217.1 18.7849 217.1 17.4739C217.136 16.5644 217.34 15.6695 217.702 14.8343L218.995 11.6633C219.283 11.0512 219.452 10.3898 219.491 9.71456C219.491 9.16538 219.296 8.91736 218.889 8.91736C217.507 8.91736 215.647 12.4605 213.202 19.3695H211.573L214.283 10.9724Z" fill="black"/>
</svg>
