<svg width="56" height="57" viewBox="0 0 56 57" fill="none" xmlns="http://www.w3.org/2000/svg">
<path fill-rule="evenodd" clip-rule="evenodd" d="M27.1509 51.5947C27.1681 51.6291 27.3056 51.6635 27.3056 51.6635L27.2712 51.6463H28.6979C28.7494 51.6463 28.8525 51.5775 28.8525 51.5775L29.1448 51.2853C29.1791 51.251 29.2823 51.2853 29.2823 51.2853L29.5745 51.5775C29.6088 51.6119 29.7292 51.6463 29.7292 51.6463H31.2589C31.3105 51.6463 31.4136 51.5775 31.4136 51.5775L32.0324 50.7697C32.0668 50.7353 32.0668 50.615 32.0668 50.615L31.448 48.9477C33.5859 48.5334 34.1898 47.2242 34.446 46.6688C34.4555 46.6481 34.4646 46.6285 34.4732 46.6101C34.6966 46.0944 35.1263 45.4585 35.642 45.0116C36.1576 44.5647 36.7764 44.2037 37.6874 43.774C38.5984 43.3443 39.0797 42.6911 39.2859 41.6942C39.2953 41.6449 39.3047 41.5943 39.3144 41.5425C39.5004 40.5467 39.775 39.076 41.2454 36.658C42.6893 34.2516 44.3394 33.4609 44.5628 33.3922C44.8034 33.3062 45.1816 33.1171 45.3707 32.8937L45.3823 32.881C45.5647 32.6822 45.6847 32.5515 45.9035 31.8108C46.1098 31.0545 45.9894 30.3154 45.8347 30.0404C45.7144 29.7998 45.5941 29.731 45.405 29.7654C45.216 29.7998 45.0269 29.7998 44.8722 29.6795C44.7347 29.5419 44.7003 29.3872 44.7347 28.9575C44.7443 28.8371 44.758 28.7194 44.7712 28.6059C44.8051 28.3144 44.8357 28.0506 44.7862 27.8403C44.6487 27.3762 44.3393 27.1012 44.3393 27.1012C44.305 27.0668 44.305 26.9981 44.305 26.9465C44.305 26.9465 45.8519 24.4885 45.7488 20.5008C45.6113 15.9803 42.5174 12.6629 38.839 12.6629C35.7623 12.6629 35.0576 15.0521 35.0232 15.5849L35.7107 16.2381C35.7451 16.2725 35.7967 16.2725 35.8139 16.2209C35.8139 16.2209 36.0717 13.8145 38.9078 13.952C41.9158 14.1067 43.669 16.3584 44.3393 19.0054C44.5284 19.7101 44.6144 20.8274 44.6316 21.3602C44.6831 23.251 44.2018 24.9011 43.7378 25.8121C43.394 26.4996 43.0502 26.5512 42.8611 26.5683C42.6893 26.5855 42.6033 26.6371 42.5174 26.8434C41.933 28.2184 40.9188 28.4591 40.3001 28.4247C39.4406 28.3903 38.9422 27.6168 38.9422 26.8777C38.9422 26.2418 39.3547 25.537 39.9735 25.4855C40.6438 25.4339 41.0048 25.898 41.0048 26.3449C41.0048 26.7918 40.7126 27.0496 40.3688 27.0496C40.3688 27.0496 40.7298 27.4278 41.1939 27.2731C41.8298 27.0668 41.9158 26.2074 41.9158 25.9324C41.9502 25.5886 42.1564 25.4683 42.483 25.4683C42.8096 25.4339 43.0158 25.2448 43.0846 25.1073C43.4284 24.437 43.8237 23.3885 43.8237 22.2369C43.7721 16.41 39.0969 15.3787 39.0969 15.3787C39.0453 15.3615 39.0453 15.3958 39.0797 15.4302C39.0797 15.4302 39.6469 15.774 39.8016 16.3756C40.2141 17.9913 38.9594 18.7992 38.0999 18.9023C37.5499 18.971 36.6561 18.7648 36.0029 17.9741C35.0576 16.8225 34.1466 15.9974 34.1466 15.9974C34.1122 15.9631 34.0778 15.8943 34.0778 15.8427C34.0778 15.8427 33.9919 14.4677 35.1263 13.1098C36.0889 11.9753 37.5155 11.8206 37.5155 11.8206C37.5671 11.8035 37.6015 11.7003 37.6015 11.7003V11.0472C37.6015 10.9956 37.4983 10.944 37.4983 10.944H36.5358C36.5358 10.944 36.3811 9.80959 35.4013 8.88142C34.3185 7.69541 32.5653 7.93605 31.9121 8.64078C31.2589 9.36269 30.9667 10.7206 31.9637 11.6316C32.7028 12.3191 33.6309 11.9753 34.0435 11.4941C34.4388 11.03 34.5076 10.2049 33.9403 9.79241C33.4934 9.44864 33.1325 9.62052 32.9606 9.74084C32.6512 9.9471 32.634 10.4799 32.8918 10.6862C33.1668 10.9097 33.4934 10.7034 33.545 10.4284C33.545 10.4284 33.7341 10.6175 33.6481 10.9268C33.5278 11.3737 32.8231 11.5113 32.3934 11.1503C31.7746 10.6346 31.8949 9.0533 33.2528 8.82985C33.2528 8.82985 35.1263 8.64078 35.1263 10.6518C35.1263 12.0785 33.906 12.8176 32.9262 12.852C31.9121 12.8863 30.3651 11.9925 30.4511 9.99867C30.5886 7.24851 32.9606 7.30008 32.9606 7.30008C33.0122 7.28289 33.0981 7.19695 33.0981 7.19695L33.2356 6.93912C33.27 6.88756 33.2184 6.80161 33.2184 6.80161L28.1306 4.99683H27.9587L22.8538 6.8188C22.8194 6.85318 22.8194 6.95631 22.8194 6.95631L22.9569 7.21414C22.9741 7.2657 23.0428 7.31727 23.0944 7.31727C23.0944 7.31727 25.4664 7.2657 25.6039 10.0159C25.6899 12.0097 24.1429 12.9035 23.1288 12.8691C22.1319 12.8348 20.9115 12.0957 20.9115 10.669C20.9115 8.65797 22.785 8.84704 22.785 8.84704C24.1429 9.08768 24.2632 10.6518 23.6444 11.1675C23.2147 11.5284 22.51 11.3909 22.3897 10.944C22.3037 10.6346 22.4928 10.4456 22.4928 10.4456C22.5444 10.7034 22.871 10.9268 23.146 10.7034C23.4038 10.4971 23.3866 9.96429 23.0772 9.75803C22.9053 9.63771 22.5444 9.46583 22.0975 9.80959C21.5475 10.2221 21.599 11.0472 21.9944 11.5113C22.4069 11.9753 23.3351 12.3191 24.0742 11.6488C25.0711 10.7378 24.7789 9.37988 24.1257 8.65797C23.4726 7.95324 21.7365 7.7126 20.6365 8.89861C19.6567 9.82678 19.502 10.9612 19.502 10.9612H18.5395C18.4879 10.9612 18.4363 11.0644 18.4363 11.0644V11.7175C18.4363 11.7691 18.4879 11.8378 18.5395 11.8378C18.5395 11.8378 19.9489 11.9925 20.9115 13.127C22.0631 14.4677 21.9772 15.8599 21.9772 15.8599C21.9772 15.9115 21.9428 15.9803 21.9084 16.0146C21.9084 16.0146 20.9974 16.8397 20.0521 17.9913C19.3989 18.782 18.5223 18.9882 17.9551 18.9195C17.0956 18.8163 15.8409 18.0085 16.2534 16.3928C16.4081 15.7912 16.9753 15.4474 16.9753 15.4474C17.0269 15.3958 17.0097 15.3958 16.9581 15.3958C16.9581 15.3958 12.2829 16.41 12.2313 22.254C12.2141 23.4057 12.6266 24.437 12.9704 25.1245C13.0392 25.2792 13.2454 25.4683 13.572 25.4855C13.9158 25.5027 14.1392 25.6058 14.1392 25.9496C14.1564 26.2246 14.2252 27.084 14.8611 27.2903C15.3252 27.445 15.6862 27.0668 15.6862 27.0668C15.3424 27.0668 15.0502 26.809 15.0502 26.3621C15.0502 25.9152 15.394 25.4511 16.0815 25.5027C16.7175 25.5542 17.1128 26.259 17.1128 26.8949C17.1128 27.634 16.6144 28.4075 15.7549 28.4419C15.119 28.4763 14.1048 28.2356 13.5204 26.8605C13.4345 26.6543 13.3486 26.6027 13.1767 26.5855C12.9876 26.5683 12.6438 26.5168 12.3001 25.8292C11.836 24.9183 11.3375 23.2682 11.4063 21.3774C11.4234 20.8446 11.5266 19.7101 11.6985 19.0226C12.3688 16.3756 14.122 14.1239 17.13 13.9692C19.9661 13.8317 20.2239 16.2381 20.2239 16.2381C20.2411 16.2896 20.3271 16.2553 20.3271 16.2553L21.0146 15.6021C20.9974 15.0693 20.2755 12.6801 17.1988 12.6801C13.5204 12.6801 10.4093 15.9974 10.289 20.518C10.1859 24.5057 11.7328 26.9637 11.7328 26.9637C11.7328 27.0152 11.7328 27.084 11.6985 27.1184C11.6985 27.1184 11.3891 27.3934 11.2516 27.8575C11.1916 28.0493 11.2237 28.2996 11.2602 28.5851C11.276 28.709 11.2927 28.8395 11.3031 28.9747C11.3375 29.4216 11.3203 29.5591 11.1828 29.6966C11.0281 29.817 10.839 29.817 10.65 29.7826C10.4609 29.7482 10.3406 29.817 10.2031 30.0576C10.0656 30.3326 9.92805 31.0717 10.1515 31.828C10.3593 32.5314 10.4779 32.6698 10.6456 32.8655C10.6582 32.8802 10.6711 32.8952 10.6843 32.9109C10.8562 33.1343 11.2516 33.3406 11.475 33.4093C11.6985 33.4953 13.3486 34.286 14.7924 36.6752C16.2628 39.0932 16.5374 40.5639 16.7234 41.5597C16.7331 41.6115 16.7425 41.662 16.7519 41.7114C16.9409 42.7083 17.4222 43.3787 18.3504 43.7912C19.2786 44.2209 19.8802 44.599 20.3958 45.0287C20.8943 45.4585 21.324 46.1116 21.5646 46.6273C21.5733 46.6457 21.5823 46.6653 21.5918 46.686C21.848 47.2414 22.4519 48.5506 24.5898 48.9649L23.9538 50.6322C23.9366 50.6838 23.9882 50.7869 23.9882 50.7869L24.607 51.5947C24.6414 51.6291 24.7617 51.6635 24.7617 51.6635H26.2743C26.3258 51.6635 26.429 51.5947 26.429 51.5947L26.7212 51.3025C26.7727 51.2682 26.8587 51.3025 26.8587 51.3025L27.1509 51.5947ZM17.2503 16.8053C17.2503 16.2553 17.6972 15.8256 18.2301 15.8256C18.7629 15.8256 19.2098 16.2553 19.2098 16.8053C19.2098 17.3553 18.7629 17.785 18.2301 17.785C17.6972 17.785 17.2503 17.3553 17.2503 16.8053ZM17.4394 28.5106C17.4394 36.2283 22.1147 42.4677 27.8728 42.4677V42.4849C33.6309 42.4849 38.3062 36.2283 38.3062 28.5278C38.3062 20.8274 33.6309 14.588 27.8728 14.588C22.1147 14.588 17.4394 20.793 17.4394 28.5106ZM26.6868 9.51739C26.6868 10.9268 27.2884 12.0613 28.0103 12.0613C28.7322 12.0613 29.3338 10.9268 29.3338 9.51739C29.3338 8.10794 28.7322 6.9735 28.0103 6.9735C27.2884 6.9735 26.6868 8.10794 26.6868 9.51739ZM27.8728 15.9974C33.0981 15.9974 37.1889 21.6009 37.1889 28.5278C37.1889 35.4548 33.0809 41.0754 27.8728 41.0754C22.6647 41.0754 18.5738 35.4548 18.5738 28.5278C18.5738 21.6009 22.6475 15.9974 27.8728 15.9974ZM27.3572 27.9434V17.596V17.5788L25.8618 17.1491V25.8636H19.4676L20.1724 27.9434H27.3572ZM29.8495 25.8464V17.1663L28.3541 17.596V27.9262H35.5904L36.2264 25.8464H29.8495ZM25.8789 30.5904V39.8378V39.855L27.3743 39.4081V28.4591L25.8789 29.6451H19.7942L19.5364 30.5904H25.8789ZM28.3713 28.4591V39.3909L29.8667 39.8378V30.5904H36.2092L35.9514 29.6451H29.8667L28.3713 28.4591ZM24.1293 44.4879C24.1333 44.4965 24.1379 44.5049 24.1429 44.5131L24.1601 44.4959C24.1601 44.4959 24.1485 44.4934 24.1293 44.4879ZM24.5898 43.8599C24.242 43.8765 24.0219 44.26 24.1293 44.4879C24.0467 44.4639 23.8238 44.3818 23.782 44.1865C23.696 43.7052 23.9538 43.2927 24.5211 43.2583C25.4492 43.2068 25.8961 44.0318 25.7586 44.8397C25.6039 45.6647 24.8304 46.0257 24.1429 45.9913C23.2835 45.9569 22.0287 45.3553 22.0631 42.2098C22.0631 42.038 21.9428 41.9176 21.7709 41.9176H21.1693C20.9974 41.9176 20.9115 41.8317 20.9115 41.6598V40.9551C20.9115 40.7832 20.8083 40.6801 20.6365 40.6801H19.6567C19.4848 40.6801 19.3989 40.5769 19.3989 40.4051V39.6488C19.3989 39.4769 19.313 39.3909 19.1411 39.3909H18.6942C18.4363 39.3909 18.3676 39.2362 18.3332 39.03C18.2301 38.4112 17.9035 37.208 16.7862 35.7298C16.4425 35.2657 16.1847 35.0079 15.5831 34.4063L15.5831 34.4063C14.9815 33.7875 14.2595 32.739 14.483 30.8311C14.483 30.8311 13.211 30.1264 13.4517 29.456C13.5376 29.181 13.7783 29.1294 13.9673 29.2497C14.1736 29.3872 14.1908 29.5248 14.1908 29.5248C14.3283 29.181 14.2595 28.6481 13.8814 28.4419C13.4689 28.2184 12.9704 28.2872 12.6954 28.5966C12.4719 28.8372 12.4376 29.2497 12.5579 29.7826C12.6438 30.1435 12.6954 30.4357 12.5063 30.6764C12.3172 30.917 11.8188 31.1061 11.5266 31.003C11.2859 30.917 11.1656 30.9514 11.1312 31.1061C11.0969 31.278 11.3719 32.0686 11.6125 32.2405C11.8016 32.3952 11.9391 32.378 12.025 32.2405C12.1282 32.0858 12.3344 32.0686 12.5235 32.103C12.6954 32.1374 12.8501 32.103 12.9188 31.914C12.9305 31.8818 12.9422 31.8437 12.9547 31.8029C13.0159 31.6034 13.0973 31.3383 13.297 31.3811C13.3309 31.3886 13.3607 31.3945 13.3876 31.3999C13.4835 31.4188 13.543 31.4306 13.6236 31.4842C13.7095 31.553 13.7095 31.7077 13.6236 31.8968C13.6136 31.9246 13.6014 31.9568 13.5877 31.9928C13.483 32.2682 13.2937 32.7663 13.4001 33.2375L13.4004 33.2389C13.5206 33.7539 13.6251 34.2017 15.3252 36.0564C16.6831 37.5518 17.4738 38.6346 17.8863 41.5395C17.8863 41.7114 17.9894 41.9004 18.2129 41.9004H19.0207C19.2098 41.9004 19.313 41.9864 19.2958 42.1583V42.7599C19.2958 42.9489 19.3989 43.0521 19.6395 43.0521H20.6193C20.8771 43.0521 20.8943 43.224 20.8943 43.3615C21.049 44.2553 21.7021 46.7648 24.057 46.8851C25.7586 46.971 26.3946 45.6991 26.3946 44.7365C26.3946 43.6709 25.8102 42.5708 24.4695 42.5708C23.4554 42.5708 23.0944 43.3787 23.0944 44.0146C23.0944 44.8397 23.6101 45.2694 24.3148 45.2694C24.8133 45.2694 25.1398 44.8912 25.157 44.6678C25.2258 44.2209 24.9336 43.8256 24.5898 43.8599ZM18.8145 40.766C18.8661 40.7144 18.9004 40.6113 18.9004 40.6113V40.0441C18.9004 39.9925 18.7973 39.9753 18.7973 39.9753L18.4192 40.3019C18.3676 40.3535 18.3504 40.4394 18.3504 40.4394V41.0582C18.3504 41.0926 18.4535 41.0926 18.4535 41.0926L18.8145 40.766ZM20.3099 42.0551C20.3614 42.0208 20.3958 41.9864 20.3958 41.9004V41.3504C20.3958 41.2988 20.3099 41.2817 20.3099 41.2817L19.9145 41.6082C19.863 41.6598 19.8458 41.7458 19.8458 41.7458V42.3473C19.8458 42.3817 19.9489 42.3817 19.9489 42.3817L20.3099 42.0551ZM26.9274 46.2319C26.9274 47.2976 27.3915 48.1399 27.9416 48.1399C28.5088 48.1399 28.9557 47.2632 28.9557 46.2319C28.9557 45.2006 28.4916 44.3412 27.9416 44.3412C27.3915 44.3412 26.9274 45.1663 26.9274 46.2319ZM28.3197 50.6666C28.5432 50.6666 28.6463 50.5119 28.5603 50.3056H28.5775L28.1306 49.2743C28.0447 49.0852 27.89 49.068 27.8041 49.2743L27.3228 50.3056C27.2196 50.5119 27.3228 50.6666 27.5462 50.6666H28.3197ZM26.2227 50.7009C26.429 50.7009 26.5493 50.5462 26.4634 50.34L25.8961 48.9305C25.8102 48.7243 25.6727 48.7243 25.5867 48.9305L24.9851 50.34C24.8992 50.5462 25.0195 50.7009 25.2258 50.7009H26.2227ZM16.7519 20.1055C16.7691 19.9336 16.7347 19.7789 16.6316 19.7273V19.7101C16.5284 19.6586 16.3737 19.7101 16.2362 19.7961C15.8409 20.0711 15.4112 19.8992 15.1018 19.6758C14.7924 19.4351 14.7752 18.9882 14.9815 18.6445C15.1877 18.3007 15.6346 18.1976 15.8924 18.4382C16.0471 18.5757 16.0815 18.8507 15.9784 19.0398C15.8409 19.2804 16.1847 19.3836 16.3565 19.2632C16.5284 19.1601 16.8034 19.1086 16.9409 19.1945C17.0956 19.2804 17.1816 19.5383 17.1816 19.7445C17.1644 19.9508 17.4222 20.1914 17.5597 19.9508C17.68 19.7617 17.9207 19.6586 18.1269 19.7273C18.4707 19.8305 18.591 20.2602 18.402 20.6211C18.2129 20.9821 17.766 21.1712 17.4222 21.0337C17.0785 20.879 16.7175 20.5868 16.7519 20.1055ZM13.6751 24.6604C13.6579 24.7807 13.7267 24.9011 13.8986 24.8323H13.933C13.967 24.7983 14.1021 24.7095 14.2506 24.6119C14.4023 24.5122 14.5681 24.4033 14.6549 24.3338C14.7871 24.2377 14.7596 24.15 14.7312 24.0589C14.7189 24.0197 14.7064 23.9799 14.7064 23.9385C14.6893 23.801 14.7408 23.7494 14.8268 23.7322C14.9127 23.7151 14.9471 23.7151 15.0502 23.8182C15.0588 23.8268 15.0674 23.8355 15.076 23.8442C15.1705 23.9401 15.2651 24.0359 15.3596 23.9729C15.4273 23.9221 15.4117 23.8045 15.3783 23.5545L15.3768 23.5432C15.3402 23.2989 15.4597 22.9506 15.5875 22.5782C15.6395 22.4265 15.693 22.2708 15.7378 22.1165C15.5143 23.0103 15.8924 23.7666 16.1675 24.0245C16.4425 24.2823 16.9066 24.2651 17.216 24.076C17.5941 23.8182 17.6285 23.3885 17.4738 23.165C17.3363 22.9588 16.9925 22.8556 16.8034 23.0275C16.6144 23.1822 16.494 23.1307 16.4425 23.0619C16.3565 22.9588 16.3737 22.6838 16.3909 22.4431C16.4124 22.2388 16.4878 21.92 16.5454 21.6763C16.5798 21.5306 16.6079 21.4117 16.6144 21.3602C16.6659 21.0165 16.3222 20.7586 16.1331 20.6899C15.9612 20.5524 15.5659 20.3805 15.308 20.6039C15.2049 20.7071 14.7408 21.1368 14.483 21.3431C14.2939 21.4806 14.0533 21.6009 13.933 21.6009C13.847 21.5837 13.7439 21.5149 13.7955 21.2743C13.8642 21.0337 13.6064 20.7586 13.3486 20.7586C13.0735 20.7415 12.7126 20.9821 12.6954 21.429C12.6782 21.79 12.9017 22.2025 13.2626 22.3228C13.6236 22.4259 14.4486 22.3572 15.1018 21.7212C15.0187 21.8161 14.9366 21.9155 14.8554 22.0139C14.5836 22.343 14.3219 22.6599 14.0705 22.7525L14.0705 22.7525C13.8298 22.8556 13.7095 22.9072 13.7095 22.9931C13.6929 23.1096 13.8372 23.1455 13.9712 23.1789C13.9757 23.18 13.9801 23.1811 13.9845 23.1822C14.122 23.2166 14.1564 23.251 14.1736 23.3369C14.1908 23.4229 14.1736 23.4744 14.0533 23.5432C14.0171 23.5639 13.9762 23.5737 13.9357 23.5833C13.8419 23.6058 13.7507 23.6276 13.7267 23.7838C13.6923 24.0073 13.6751 24.5573 13.6751 24.6604ZM37.8077 17.8022C37.2749 17.8022 36.828 17.3725 36.828 16.8225C36.828 16.2725 37.2577 15.8427 37.8077 15.8427C38.3578 15.8427 38.7875 16.2725 38.7875 16.8225C38.7875 17.3725 38.3406 17.8022 37.8077 17.8022ZM31.5855 43.2755C32.1355 43.3099 32.3934 43.7396 32.3074 44.2037L32.2902 44.2209C32.2387 44.4615 31.9121 44.5303 31.9121 44.5303C32.0496 44.2896 31.809 43.8943 31.4652 43.8771C31.1386 43.8427 30.8464 44.2381 30.898 44.685C30.9324 44.9084 31.2417 45.2866 31.7402 45.2866C32.4449 45.2694 32.9606 44.8397 32.9606 44.0318C32.9606 43.3958 32.5996 42.588 31.5855 42.588C30.2448 42.588 29.6604 43.7052 29.6604 44.7537C29.6604 45.7163 30.2792 46.9882 31.998 46.9023C34.3529 46.782 35.0232 44.2725 35.1607 43.3787C35.1619 43.3689 35.1631 43.359 35.1642 43.349C35.1792 43.2177 35.1961 43.0693 35.4357 43.0693H36.4327C36.6733 43.0693 36.7764 42.9489 36.7764 42.7771V42.1755C36.7764 41.9864 36.8796 41.9176 37.0514 41.9176H37.8593C38.0827 41.9176 38.1859 41.7286 38.1859 41.5567C38.5812 38.6518 39.3719 37.569 40.747 36.0736C42.4471 34.2189 42.5516 33.7711 42.6717 33.256L42.6721 33.2547C42.7924 32.7218 42.5346 32.1374 42.4314 31.914C42.3455 31.7249 42.3455 31.5702 42.4486 31.5014C42.5517 31.4499 42.6205 31.4327 42.7752 31.3983C42.9815 31.3541 43.0741 31.6383 43.1396 31.8394C43.1505 31.8729 43.1607 31.9041 43.1705 31.9311C43.2565 32.1202 43.394 32.1546 43.5831 32.1202C43.7721 32.0686 43.9784 32.0858 44.0815 32.2577C44.1675 32.378 44.2878 32.3952 44.4769 32.2577C44.7175 32.0686 44.9925 31.2952 44.9581 31.1233C44.9238 30.9686 44.8206 30.9342 44.58 31.0202C44.2706 31.1233 43.7721 30.9342 43.6002 30.6936C43.4112 30.4529 43.4627 30.1607 43.5487 29.7998C43.669 29.2669 43.6346 28.8544 43.4112 28.6138C43.1362 28.3044 42.6377 28.2528 42.2252 28.4591C41.847 28.6481 41.7783 29.1982 41.9158 29.5419C41.9158 29.5419 41.933 29.3872 42.1392 29.2669C42.3283 29.1466 42.5689 29.1982 42.6549 29.4732C42.8955 30.1607 41.6408 30.8483 41.6408 30.8483C41.8642 32.7562 41.1595 33.8047 40.5407 34.4235C39.9391 35.0251 39.6813 35.2829 39.3375 35.747C38.2203 37.2252 37.8937 38.4456 37.7905 39.0472C37.7562 39.2534 37.6874 39.4081 37.4296 39.4081H36.9827C36.8108 39.4081 36.7077 39.4941 36.7077 39.6659V40.4222C36.7077 40.5941 36.6217 40.6973 36.4498 40.6973H35.4701C35.2982 40.6973 35.1951 40.8004 35.1951 40.9723V41.677C35.1951 41.8489 35.1091 41.9348 34.9373 41.9348H34.3357C34.1638 41.9348 34.0435 42.0723 34.0435 42.227C34.0778 45.3553 32.8231 45.9741 31.9637 46.0085C31.2761 46.0429 30.5026 45.6819 30.3479 44.8569C30.1932 44.0662 30.6573 43.224 31.5855 43.2755ZM37.2749 40.8004C37.2233 40.7488 37.1889 40.6457 37.1889 40.6457H37.2061V40.0785C37.2061 40.0269 37.3093 40.0097 37.3093 40.0097L37.6874 40.3363C37.7218 40.3879 37.7562 40.4738 37.7562 40.4738V41.0926C37.7562 41.127 37.6358 41.127 37.6358 41.127L37.2749 40.8004ZM30.9152 50.7353H29.901C29.6776 50.7353 29.5745 50.5806 29.6604 50.3744H29.6776L30.2448 48.9649C30.3308 48.7586 30.4683 48.7586 30.5542 48.9649L31.1558 50.3744C31.2417 50.5806 31.1214 50.7353 30.9152 50.7353ZM40.9876 19.7101C40.6954 19.9336 40.2657 20.1055 39.8532 19.8305L39.8016 19.8477C39.6641 19.7617 39.5094 19.7101 39.4235 19.7617C39.3203 19.8133 39.3031 19.968 39.3031 20.1399C39.3375 20.6211 38.9937 20.9133 38.6328 21.068C38.289 21.2055 37.8421 21.0165 37.653 20.6555C37.464 20.2946 37.5843 19.8648 37.9281 19.7617C38.1343 19.693 38.375 19.7961 38.4953 19.9852C38.6328 20.2258 38.8734 19.9852 38.8734 19.7789C38.8562 19.5726 38.9766 19.3148 39.1141 19.2289C39.2688 19.1429 39.5438 19.1773 39.7157 19.2976C39.8875 19.4179 40.2313 19.3148 40.0938 19.0742C39.9907 18.8851 40.025 18.6101 40.1797 18.4726C40.4376 18.2319 40.8673 18.3351 41.0907 18.6788C41.3142 19.0226 41.297 19.4867 40.9876 19.7101ZM41.8446 24.6931C41.9658 24.7714 42.0693 24.8382 42.1048 24.8667H42.1736C42.3455 24.9354 42.3971 24.8151 42.3971 24.6948C42.3898 24.6515 42.3826 24.5294 42.3741 24.3858C42.3624 24.1873 42.3482 23.9478 42.3283 23.8182C42.3029 23.6406 42.2026 23.6221 42.1034 23.6039C42.0683 23.5975 42.0332 23.5911 42.0017 23.5776C41.8642 23.526 41.847 23.4572 41.8642 23.3713C41.8986 23.2853 41.9158 23.251 42.0533 23.2166C42.1908 23.1822 42.3283 23.1478 42.3283 23.0275C42.3283 22.9244 42.208 22.8728 41.9673 22.7869C41.6983 22.6877 41.4175 22.3436 41.1251 21.9851C41.0626 21.9085 40.9996 21.8312 40.936 21.7556C41.5892 22.3915 42.4142 22.4775 42.7752 22.3572C43.1533 22.2197 43.3596 21.8243 43.3424 21.4634C43.3252 21.0165 42.9643 20.793 42.6893 20.793C42.4314 20.8102 42.1908 21.068 42.2424 21.3087C42.2939 21.5493 42.1908 21.6353 42.0877 21.6353C41.9673 21.6524 41.7267 21.5149 41.5376 21.3774C41.3704 21.2436 41.1164 21.0086 40.9304 20.8365C40.8296 20.7433 40.7488 20.6685 40.7126 20.6383C40.4376 20.4149 40.0422 20.6039 39.8875 20.7243C39.6813 20.8102 39.3547 21.0508 39.4063 21.3946C39.4127 21.4461 39.4408 21.5649 39.4752 21.7107C39.5328 21.9543 39.6082 22.2731 39.6297 22.4775C39.6641 22.7181 39.6641 22.9931 39.5953 23.0963C39.5266 23.165 39.4235 23.2338 39.2344 23.0619C39.0453 22.89 38.7015 22.9931 38.564 23.1994C38.4093 23.44 38.4437 23.8698 38.8219 24.1104C39.1141 24.2995 39.5781 24.3167 39.8703 24.0588C40.1454 23.801 40.5235 23.0447 40.3001 22.1509C40.3448 22.3052 40.3983 22.4609 40.4503 22.6126C40.5781 22.9849 40.6977 23.3333 40.661 23.5776C40.6266 23.8182 40.6095 23.9557 40.6782 24.0073C40.7727 24.0703 40.8673 23.9744 40.9618 23.8786C40.9704 23.8699 40.979 23.8612 40.9876 23.8526C41.0907 23.7666 41.1251 23.7666 41.211 23.7666C41.297 23.7838 41.3314 23.8354 41.3314 23.9729C41.3268 24.0097 41.3148 24.0453 41.303 24.0803C41.2707 24.176 41.2399 24.2675 41.3657 24.3682C41.4664 24.4488 41.6733 24.5824 41.8446 24.6931ZM35.6767 41.3504V41.9004C35.6767 41.9863 35.7454 42.0551 35.7454 42.0551L36.1064 42.3817C36.1752 42.4504 36.2095 42.3473 36.2095 42.3473V41.7457C36.2095 41.6941 36.1408 41.6082 36.1408 41.6082L35.7626 41.2816C35.7111 41.2644 35.6767 41.3504 35.6767 41.3504Z" fill="white"/>
</svg>
