<svg width="57" height="57" viewBox="0 0 57 57" fill="none" xmlns="http://www.w3.org/2000/svg">
<path fill-rule="evenodd" clip-rule="evenodd" d="M35.2131 12.3723C35.3377 12.3753 35.4535 12.3782 35.5206 12.4228L35.5366 12.4392C35.5913 12.7545 35.4216 12.8096 35.2247 12.8735L35.1748 12.8899C35.1484 12.8988 35.1212 12.9084 35.0949 12.9192C35.0374 12.9424 34.9815 12.9711 34.9315 13.0117L33.3612 15.2692L32.9926 15.1565C31.4454 14.6829 29.8866 14.2058 28.1593 14.2058C28.1229 14.089 28.1157 13.9634 28.1245 13.8334C28.1361 13.6651 28.1748 13.4891 28.2136 13.3144C28.3202 12.8317 28.4248 12.3583 27.9464 12.0791C27.6437 12.2305 27.5466 12.4318 27.545 12.6586C27.5442 12.7315 27.5538 12.807 27.5694 12.8843C27.5953 13.0131 27.6385 13.1471 27.682 13.2822C27.7687 13.5508 27.8573 13.8248 27.8154 14.075L27.281 14.1521C25.6783 14.3815 24.094 14.6082 22.6953 15.2855C22.2832 14.9672 22.0308 14.5339 21.7812 14.1056C21.4665 13.5652 21.1565 13.0328 20.5359 12.7499C20.5315 12.7151 20.5135 12.67 20.4944 12.6225C20.4412 12.4909 20.3809 12.3409 20.585 12.3409C20.702 12.413 20.7963 12.4344 20.8762 12.4232C21.0128 12.4038 21.1074 12.2892 21.2053 12.1708C21.361 11.9823 21.5248 11.7842 21.8774 11.9483C21.9198 11.9008 21.9413 11.8531 21.9609 11.8105C22.002 11.7213 22.0328 11.6538 22.2209 11.6538C22.2776 11.632 22.3191 11.6312 22.3511 11.6442C22.4086 11.6672 22.4354 11.7342 22.4633 11.8047C22.4713 11.8251 22.4797 11.8457 22.4889 11.8656L22.4961 11.8802C22.5016 11.8924 22.5084 11.9042 22.5152 11.9156C22.2536 12.259 22.2045 12.6844 22.4825 12.9462C22.6953 13.2243 23.1043 13.208 23.3168 13.0608C23.5229 12.9865 23.6543 12.825 23.715 12.6388C23.7417 12.5574 23.7549 12.4711 23.7545 12.3854C23.7541 12.279 23.7333 12.1736 23.693 12.0791L23.6491 12.04C23.6295 12.0236 23.6095 12.008 23.5896 11.993C23.5376 11.9547 23.4841 11.9202 23.4326 11.8868C23.3372 11.8251 23.2481 11.7674 23.1862 11.6961C23.1107 11.6092 23.076 11.5022 23.1207 11.3431C23.306 11.1502 23.5253 11.1963 23.7265 11.2384C23.9682 11.2893 24.1838 11.3347 24.2821 10.9505C24.5972 11.1358 24.7917 11.0166 25.0022 10.8872C25.1631 10.7883 25.3336 10.6839 25.5745 10.705C25.7218 10.8993 25.6196 11.1677 25.5182 11.4337C25.372 11.8173 25.2274 12.1959 25.8361 12.3409C26.3269 12.4553 26.785 12.2429 26.916 11.752C26.9264 11.6216 26.8948 11.5172 26.8417 11.4263C26.7838 11.3269 26.6995 11.244 26.6157 11.1613C26.4112 10.9597 26.2091 10.76 26.3924 10.3288C26.6832 10.1873 26.9172 10.2687 27.1349 10.3442C27.3697 10.4259 27.5854 10.5008 27.8318 10.2797C27.9152 10.2953 28.0003 10.2911 28.0822 10.2869C28.2575 10.2781 28.4185 10.2701 28.5191 10.4596C28.5698 10.4329 28.6241 10.4077 28.6816 10.3851C28.734 10.3648 28.7883 10.3466 28.8446 10.3314C29.0663 10.2719 29.3147 10.2597 29.5495 10.3452C29.6382 10.474 29.6489 10.6058 29.615 10.7382C29.5679 10.9215 29.4357 11.106 29.3067 11.2855C28.9968 11.7177 28.708 12.1202 29.6805 12.4064C29.7328 12.3938 29.7871 12.3828 29.8418 12.3719C30.0491 12.3301 30.2632 12.2868 30.4098 12.1546C30.4789 12.0923 30.5328 12.0102 30.5639 11.8992C30.5803 11.8539 30.5883 11.8105 30.5895 11.7692C30.5903 11.7285 30.5851 11.6893 30.5747 11.6516C30.544 11.5396 30.4705 11.4395 30.3998 11.3435C30.2999 11.2079 30.2057 11.0799 30.2452 10.9363C30.2624 10.8738 30.3051 10.8083 30.3838 10.7378C30.4281 10.7266 30.4733 10.7206 30.5176 10.7194C30.6115 10.717 30.7029 10.7362 30.782 10.7731C30.8854 10.8213 30.9673 10.8995 31.0056 10.9996C31.3395 10.7795 31.568 10.9573 31.788 11.1284C31.8723 11.1939 31.9554 11.2584 32.042 11.2993C32.09 11.3217 32.1391 11.3371 32.1902 11.3417C32.2329 11.3455 32.2773 11.3417 32.3236 11.3283C32.3871 11.3097 32.4542 11.273 32.5269 11.2123C32.5716 11.2123 32.6335 11.2276 32.6902 11.2562C32.7493 11.2857 32.8028 11.3297 32.8264 11.3858C32.8468 11.4339 32.8448 11.491 32.8048 11.5557C32.7817 11.7502 32.6435 11.8411 32.5001 11.9357C32.3416 12.04 32.1762 12.149 32.1507 12.4064C32.1015 12.7499 32.4614 13.1425 32.8048 13.208C33.0353 13.2357 33.2242 13.1854 33.3804 13.0836C33.4474 13.0398 33.5086 12.9865 33.5641 12.9258C33.6088 12.8771 33.6499 12.8236 33.6883 12.7662C33.7981 12.5538 33.6915 12.3577 33.5944 12.1796C33.5653 12.1262 33.5373 12.0745 33.5161 12.0244C33.4898 11.9623 33.4742 11.9028 33.481 11.8459C33.491 11.7594 33.5521 11.6789 33.7046 11.6049C33.761 11.6344 33.8125 11.6701 33.8616 11.7085C33.9075 11.7446 33.9511 11.783 33.9938 11.8209C34.1839 11.9887 34.3628 12.1468 34.6863 12.0464C34.6895 12.132 34.7123 12.1947 34.7486 12.2409C34.7794 12.2798 34.8197 12.307 34.8664 12.3257C34.9659 12.3661 35.0933 12.3693 35.2131 12.3723ZM22.5644 15.8417V15.6945C25.7378 14.1403 30.3511 14.1076 33.2957 15.8744C30.6618 15.0074 27.5374 14.353 24.6092 15.2855L22.5644 15.8417ZM31.3164 18.2138C28.7807 18.6389 25.8197 18.6717 23.5297 17.8048C23.3823 17.6738 23.3823 17.3959 23.5133 17.3304C26.1632 16.4142 29.8111 16.3489 32.3959 17.4284C32.5113 17.8669 32.1303 17.9718 31.7525 18.0758C31.5943 18.1191 31.4366 18.1625 31.3164 18.23V18.2138ZM33.0337 16.2506C30.024 14.8438 25.9016 14.9257 22.8423 16.2015C22.7792 16.3675 22.8455 16.5446 22.9182 16.7387C22.9965 16.947 23.0815 17.1746 23.0224 17.4284C22.82 18.0632 23.4422 18.2407 23.9782 18.3939L24.1107 18.4322C24.1766 18.4516 24.2401 18.4712 24.2985 18.4918C26.8665 19.228 30.4493 19.2444 32.8048 17.9192C32.7605 17.6267 32.8364 17.325 32.9123 17.0238L32.9135 17.019C32.9774 16.7656 33.0413 16.513 33.0337 16.267V16.2506ZM41.1235 21.1974C40.6323 21.0825 40.1031 20.9591 39.9697 21.4198C41.0005 21.4526 41.9822 21.7635 42.8816 22.0742L43.0126 21.927C43.0781 21.8615 42.9962 21.6488 42.9962 21.6488L41.6056 21.289C41.5225 21.2816 41.4318 21.2654 41.3372 21.2455L41.2545 21.2275L41.1235 21.1974ZM33.4263 23.6445L33.4918 23.5793H33.4754C33.6999 23.3013 33.7078 22.9187 33.6224 22.5728C33.5772 22.3893 33.5058 22.216 33.4263 22.0742C33.1483 21.7307 32.6575 21.4198 32.1015 21.5017C31.4306 21.6652 30.8255 22.0906 30.4984 22.7286C30.4257 22.9748 30.2935 23.2282 30.1582 23.4876C29.8351 24.1066 29.4944 24.759 29.9093 25.4278C30.5252 25.1991 30.6222 24.6027 30.7209 23.9972C30.7848 23.6056 30.8491 23.2104 31.0544 22.9085C31.3815 22.4832 31.9214 22.1888 32.5433 22.3032C33.1156 22.4832 33.3448 23.1703 33.4263 23.6445ZM32.2158 34.2123C32.5596 34.3431 33.1156 34.2451 33.3121 33.9014V33.885C30.3838 32.6909 30.1873 29.1085 30.1546 26.2293L29.6805 26.5892C29.4349 29.4192 29.6805 32.7236 32.2158 34.2123ZM28.224 30.0252C28.212 30.0418 28.0255 30.2984 27.9464 30.1716C27.799 29.8281 27.8481 29.3537 27.9791 29.0102C28.2871 29.1089 28.2611 29.4397 28.2363 29.7507V29.7549C28.2288 29.8493 28.2212 29.9418 28.224 30.0252ZM25.8852 26.2621C25.9998 29.2229 25.6396 32.6092 22.7932 33.9342C23.0716 34.2613 23.546 34.1796 23.8895 34.0977C26.4575 32.5765 26.5558 29.5502 26.4575 26.6547C26.422 26.6227 26.386 26.5832 26.3481 26.5414C26.2311 26.4119 26.0957 26.2621 25.8852 26.2621ZM24.2797 22.3408C24.3612 22.3581 24.4394 22.3747 24.5109 22.3851C25.2058 22.6852 25.3293 23.3452 25.4503 23.9902C25.5597 24.5751 25.6667 25.1476 26.1959 25.4278C26.6081 24.8325 26.2834 24.1651 25.9671 23.5154C25.8313 23.2366 25.6971 22.961 25.6232 22.6958C25.247 21.9434 24.4782 21.4853 23.6602 21.5181C23.0552 21.6161 22.5807 22.1069 22.4661 22.6631C22.4825 23.072 22.5644 23.5465 22.8423 23.612C22.7604 23.1212 23.0061 22.7122 23.3495 22.4177C23.6083 22.1976 23.9698 22.2747 24.2797 22.3408ZM13.2073 21.6816C13.1825 21.7307 13.1881 21.7914 13.2045 21.8479C13.2316 21.9422 13.2892 22.0251 13.2892 22.0251V22.0414C14.1886 21.796 15.203 21.5508 16.2334 21.4526V21.3709L16.1519 21.1744C15.3831 21.0402 14.6506 21.2611 13.9346 21.4769C13.7944 21.5191 13.655 21.5612 13.5156 21.6005C13.4126 21.6295 13.3099 21.6568 13.2073 21.6816ZM16.0537 18.2627C16.201 18.3444 16.5445 18.4099 16.61 18.2627V18.2463C16.5637 18.1722 16.4594 18.1453 16.3392 18.1359C16.2945 18.1323 16.2474 18.1313 16.2002 18.1311L16.118 18.1315L16.0537 18.1317V18.2627ZM40.1826 18.1153C40.0352 17.9845 39.7081 18.1317 39.6426 18.2791V18.3444L39.6969 18.3404C39.887 18.3264 40.1231 18.309 40.1826 18.1153ZM52.0917 26.5237C51.8461 27.0145 51.519 27.9143 51.8952 28.5849L52.0098 28.5685C52.0761 28.6536 52.1452 28.74 52.2151 28.8281L52.2798 28.9092C53.2519 30.1255 54.4345 31.606 53.6129 33.2634C53.2203 33.9014 52.6149 34.4086 51.8624 34.5722C51.1755 34.6702 50.5377 34.3431 49.9814 34.016C49.8743 34.1678 49.9522 34.3341 50.0345 34.5097C50.0804 34.6073 50.1271 34.7078 50.1447 34.8102L50.1479 34.8324C50.1539 34.8761 50.1535 34.9202 50.1451 34.9648C48.0675 34.7685 45.9408 34.6377 43.7978 34.5722C43.9288 34.1468 44.2559 33.9997 44.6648 33.9178L48.2473 34.2776C47.9405 33.3159 47.1042 33.0434 46.2392 32.7614C45.3973 32.4868 44.5278 32.2035 44.0921 31.2677C43.7978 30.7279 43.634 30.0408 43.9615 29.4847C44.0166 29.3603 44.1185 29.2476 44.2275 29.127L44.2886 29.0593C43.8177 28.7848 43.2267 28.7171 42.6308 28.6488L42.34 28.6146C41.9878 28.5709 41.6403 28.515 41.322 28.4042C41.1443 28.3423 40.9758 28.2632 40.8204 28.1595C39.9513 30.0398 38.8994 31.6759 37.7675 33.4361L37.6469 33.6234C37.5595 33.7658 37.5359 33.9595 37.5123 34.1554C37.4648 34.5448 37.4169 34.943 36.8617 34.9648C36.7248 35.0726 36.5774 35.0894 36.4292 35.0754C36.3869 35.0714 36.3441 35.0648 36.3018 35.0572L36.1964 35.0367C35.9316 34.9827 35.6816 34.932 35.5039 35.2429H35.0298C34.918 34.654 35.3545 34.544 35.8154 34.428C36.0969 34.3571 36.3873 34.284 36.5674 34.0977C37.4672 32.3474 38.3666 30.3843 39.1194 28.5032L39.2992 27.5215C38.9281 27.336 38.7688 26.9752 38.6094 26.6133C38.4313 26.2096 38.2524 25.8044 37.7779 25.6404C37.3035 25.014 36.932 24.3682 36.5618 23.7242C36.2551 23.1907 35.9488 22.6585 35.5857 22.1397C35.4783 22.057 35.3665 21.9879 35.2518 21.932C35.0921 21.8541 34.9268 21.8022 34.7598 21.7757C34.5725 21.7457 34.3828 21.7475 34.1955 21.7798L34.2131 21.9132C34.3117 22.6503 34.4383 23.596 33.868 24.1354C33.4754 24.6915 32.723 24.9369 32.036 24.8878C30.629 26.1147 30.7109 28.2414 31.1035 29.9428C31.173 30.1209 31.2353 30.3102 31.2988 30.5029L31.3 30.5071L31.3024 30.5149L31.3036 30.5193C31.5987 31.4183 31.9154 32.3842 33.0009 32.6254C33.6228 32.8219 34.3097 32.3802 34.5553 31.8238C34.6232 31.5806 34.622 31.2855 34.5342 31.0173C34.4743 30.8344 34.374 30.6642 34.2278 30.5317L33.9499 30.4007C33.9219 30.4496 33.8983 30.5053 33.8768 30.5652C33.8532 30.6315 33.8317 30.7032 33.8101 30.7765C33.7134 31.1016 33.6084 31.4558 33.2302 31.5131C32.7393 31.6603 32.314 31.4149 32.1015 31.0714C32.0524 30.9181 32.0376 30.7623 32.0524 30.6129C32.0624 30.5135 32.0852 30.4168 32.1195 30.3256C32.171 30.1884 32.2485 30.0634 32.3468 29.9591C32.6455 29.7325 33.0545 29.6097 33.4554 29.5987C33.6911 29.5923 33.9239 29.6247 34.13 29.6973C34.7514 29.8773 35.2586 30.6297 35.4224 31.1697C35.8801 32.6745 35.1768 34.1305 34.0972 34.932C33.2302 35.5209 31.9869 35.1447 31.2017 34.5558C29.4185 32.7728 29.1242 30.2371 28.9604 27.6198C28.3198 27.8916 28.5027 28.3247 28.7064 28.8061C28.8458 29.1362 28.9948 29.4889 28.8953 29.8281C28.8462 30.3843 28.7316 31.0714 28.1916 31.3005C27.6636 31.2539 27.4895 30.7649 27.3473 30.3657L27.3246 30.3026C27.2151 29.6989 27.3481 29.2205 27.4823 28.7386C27.5482 28.5024 27.6141 28.2654 27.652 28.0124L27.6321 27.9764C27.5586 27.8436 27.4927 27.7234 27.3573 27.6034C27.313 27.717 27.2778 27.8356 27.2495 27.9577C27.2015 28.1663 27.1744 28.3852 27.1556 28.6078C27.1416 28.7738 27.1325 28.9417 27.1237 29.1091C27.1001 29.55 27.0769 29.9863 26.9647 30.3681C26.5394 32.102 25.9179 34.1141 24.233 34.932C23.5624 35.2919 22.6626 35.1938 22.0244 34.8667C20.9776 33.9505 20.3067 32.5929 20.732 31.1369C20.9121 30.4334 21.5176 29.8609 22.1226 29.6318C22.8096 29.4847 23.4969 29.5991 23.9222 30.0572C23.9985 30.1468 24.0552 30.2477 24.0916 30.3541C24.1363 30.4839 24.1511 30.6221 24.1355 30.7589C24.1171 30.9193 24.0572 31.0778 23.955 31.2186C23.8348 31.4388 23.5556 31.5305 23.278 31.5235C23.1019 31.5189 22.9266 31.4748 22.7932 31.3985C22.3842 31.2022 22.3515 30.7932 22.3515 30.4498C22.1989 30.3665 22.0667 30.3951 21.9605 30.4769C21.8986 30.5245 21.8455 30.59 21.8019 30.6618C21.7436 30.7579 21.7025 30.8653 21.6809 30.957C21.4193 31.7258 21.9265 32.3147 22.5644 32.5765C23.1694 32.6909 23.8567 32.3966 24.1838 31.9057C25.2797 30.0736 25.8688 27.2927 24.6419 25.3459C24.4175 24.8169 23.9338 24.775 23.453 24.7331C23.1702 24.7083 22.8878 24.6837 22.6598 24.5601C22.4841 24.4651 22.3407 24.3113 22.2536 24.0535C21.8119 23.3666 21.9265 22.4832 22.1063 21.7798C21.5499 21.5997 21.0104 21.8124 20.6014 22.1069C20.3075 22.5586 20.0487 23.0085 19.7955 23.4495L19.7883 23.4614C19.2559 24.389 18.7471 25.2752 17.9839 26.0494L17.9184 25.9839C17.8652 26.0838 17.8125 26.1926 17.7586 26.3042C17.5473 26.7407 17.3149 27.2214 16.9371 27.3907C16.9974 28.9078 17.6931 30.1966 18.3801 31.4692L18.3812 31.4722C18.8126 32.2708 19.2407 33.0631 19.5051 33.9014C19.6677 34.2263 20.0251 34.3104 20.3662 34.3905C20.6773 34.4633 20.974 34.5332 21.0958 34.7803C21.1497 34.8893 21.1693 35.0329 21.141 35.2266C20.8522 35.3046 20.6637 35.2036 20.4872 35.1089C20.2939 35.0053 20.1146 34.9091 19.8326 35.063C18.8929 35.2264 18.7567 34.5802 18.6157 33.9124C18.531 33.5102 18.4447 33.1005 18.1804 32.8544C17.1659 31.4313 16.1355 29.8118 15.4646 28.1923C15.0065 28.396 14.4673 28.4509 13.921 28.5066C13.238 28.5761 12.5435 28.6468 11.9804 29.0102C12.4221 29.5502 12.504 30.2207 12.3239 30.8587C11.8821 31.8402 10.9987 32.3474 10.0502 32.7236C9.85649 32.8131 9.66918 32.8856 9.48427 32.9457C9.26341 33.0174 9.04575 33.0717 8.82329 33.1162L7.95624 34.0324L8.16871 34.1632C8.5601 34.191 8.97985 34.1289 9.40519 34.051L9.68196 33.9989L9.68555 33.9983C10.68 33.8084 11.6745 33.6183 12.373 34.3595V34.425L6.12389 34.7848C6.1183 34.6397 6.15464 34.5191 6.20696 34.4096C6.22972 34.3617 6.25568 34.3158 6.28284 34.271L6.32398 34.2039C6.40225 34.0763 6.47894 33.9521 6.5001 33.8034C5.97692 34.1632 5.09349 34.6049 4.25918 34.3595C3.57185 34.1141 2.91767 33.378 2.68882 32.7073C2.2551 31.4147 2.9608 30.5323 3.63935 29.6838C4.39457 28.7394 5.11585 27.8372 4.19369 26.4584C4.67773 26.3849 4.91177 26.7589 5.10866 27.073L5.17496 27.1781C5.58792 28.3335 4.96808 29.2067 4.38299 30.0312C3.69246 31.0047 3.04986 31.9105 4.21006 33.1326C4.7009 33.5252 5.4697 33.3617 5.92779 32.9363C6.35832 32.4762 6.47294 31.9223 6.58996 31.3554C6.66824 30.975 6.74812 30.5886 6.92544 30.2207C7.75975 28.5358 8.95389 27.1289 10.3445 25.7712C10.5794 25.5516 10.8426 25.3691 11.1169 25.2021C11.3054 25.0873 11.4991 24.9797 11.6928 24.8722C12.4125 24.4729 13.127 24.0763 13.5508 23.3175C13.5999 22.7613 13.4525 22.2214 13.0927 21.9598C13.129 21.5322 13.0699 21.0783 13.01 20.619C12.907 19.8301 12.8023 19.0251 13.1745 18.3116L13.6326 17.5428C13.5855 17.4384 13.51 17.3338 13.4309 17.2239C13.262 16.9899 13.0755 16.7317 13.109 16.3978C13.3371 16.502 13.5707 16.5941 13.8084 16.6788C13.9665 16.7351 14.1263 16.7882 14.2872 16.8393C14.5101 16.9102 14.7349 16.9775 14.9602 17.0448C15.9714 17.3471 16.9866 17.6507 17.8529 18.2955L19.6525 18.8516C19.6908 18.9822 19.6533 19.0984 19.581 19.1935C19.4991 19.3007 19.3725 19.3808 19.2599 19.4241C19.1608 19.4011 19.051 19.4033 18.9404 19.4053C18.8138 19.4075 18.6864 19.4099 18.573 19.375L18.9328 19.6368C18.5566 19.7512 18.164 19.8003 17.7714 19.8494L17.7678 19.85C17.3764 19.899 16.985 19.9479 16.61 20.0621L15.9227 20.013C15.7246 20.4421 15.943 20.6965 16.1679 20.9585C16.3891 21.2161 16.6168 21.4811 16.4626 21.927C16.6543 22.2054 16.8652 22.4536 17.0729 22.6986C17.4151 23.1014 17.7502 23.496 17.9839 24.0046C18.6616 23.7552 19.0019 23.1721 19.335 22.6012C19.7008 21.9735 20.0582 21.3607 20.8466 21.2235C20.9317 21.2097 21.0199 21.192 21.1102 21.1722C21.1933 21.1538 21.2783 21.1338 21.3642 21.1137L21.3702 21.1125C21.8499 20.9997 22.3571 20.8802 22.7604 21.0108V21.2235C23.5784 21.06 24.5437 21.0272 25.247 21.5508C26.374 22.5353 26.6907 23.9505 27.0094 25.3743C27.043 25.525 27.0769 25.6758 27.1117 25.8262C27.1341 25.9244 27.1572 26.0225 27.1808 26.1201C27.2111 26.2443 27.2423 26.3681 27.2754 26.4909C27.3022 26.5163 27.3278 26.543 27.3525 26.5708C27.3853 26.6073 27.4164 26.6457 27.4468 26.685C27.4851 26.7353 27.5219 26.7875 27.559 26.8396L27.5638 26.846C27.7024 27.0413 27.8426 27.2388 28.061 27.358C28.9944 26.8965 29.1046 25.9717 29.214 25.052C29.252 24.7325 29.2899 24.4134 29.3626 24.1146C29.3838 24.0268 29.4081 23.9405 29.4361 23.8564C29.476 23.7372 29.5239 23.6226 29.5823 23.5138C30.0403 22.5487 30.4166 21.7635 31.3651 21.2563C31.6682 21.1446 32.0177 21.0951 32.3611 21.0965C32.4921 21.0971 32.6219 21.1051 32.7481 21.1197C32.9698 21.1454 33.1795 21.1922 33.3612 21.2563L33.4918 20.9781C33.6423 20.9927 33.8021 21.0027 33.9678 21.0128C34.9188 21.0715 36.0494 21.1412 36.551 22.1724C36.9109 22.9085 37.3526 23.5138 38.1214 23.9718C38.1781 23.8165 38.2552 23.6743 38.3454 23.5405C38.5068 23.3005 38.7105 23.0874 38.9142 22.8743C39.3511 22.4171 39.7872 21.9604 39.8064 21.2399C40.1778 21.0608 40.2481 20.6909 40.3164 20.3349L40.3467 20.1815C40.3563 20.1354 40.3667 20.0899 40.3787 20.0457C40.0057 20.0991 39.6522 20.0897 39.3071 20.028C39.0168 19.976 38.7328 19.8872 38.4485 19.7676C38.3151 19.7516 38.1749 19.7634 38.0343 19.7754C37.9648 19.7812 37.8953 19.7871 37.8262 19.7897C37.7464 19.7927 37.6673 19.7911 37.5902 19.7802C37.4536 19.7608 37.3234 19.7115 37.2052 19.604C37.4884 19.3916 37.857 19.358 38.2184 19.3251L38.2232 19.3245C38.361 19.3119 38.498 19.2995 38.6286 19.2769C38.5687 19.245 38.4932 19.23 38.4065 19.2264C38.2376 19.2196 38.0267 19.2558 37.8083 19.2933C37.218 19.3944 36.5718 19.505 36.551 18.8025C36.682 18.7653 36.8146 18.729 36.9472 18.6926L36.9951 18.6795C37.9548 18.4173 38.9337 18.1497 39.7409 17.5265C39.9262 17.5093 40.1063 17.4783 40.2832 17.4368C40.4238 17.4038 40.5628 17.3643 40.7002 17.32C41.0636 17.2026 41.4171 17.051 41.7745 16.8978L41.7781 16.8966C42.239 16.6991 42.7059 16.4992 43.2091 16.3651C43.2378 16.5144 43.2059 16.6458 43.1408 16.7716C43.0773 16.8952 42.9822 17.0136 42.8812 17.1389C42.7925 17.2491 42.6995 17.3647 42.62 17.4937C43.4871 18.5571 43.4052 20.2912 43.0453 21.5344C43.1428 21.8549 42.991 22.1696 42.8405 22.482C42.7234 22.724 42.6072 22.9648 42.608 23.206C42.6084 23.3846 42.6731 23.5633 42.8488 23.7428C43.0837 23.9045 43.3225 24.0665 43.5633 24.2296C45.2703 25.3858 47.0759 26.6089 48.1654 28.3722C49.0959 29.6233 49.5544 31.1417 50.0189 32.6809L50.0469 32.7728C50.4722 33.247 51.0445 33.7051 51.7155 33.4761C52.2714 33.3289 52.5989 32.8381 52.7131 32.3474C52.8238 31.5207 52.3361 30.7277 51.8604 29.9539C51.1404 28.7832 50.4474 27.6563 51.8952 26.5237H52.0917ZM43.2091 37.8111C43.269 37.6833 43.2842 37.542 43.2686 37.4074C43.2506 37.2486 43.1903 37.0995 43.1108 36.9932C41.7202 36.4207 40.199 36.2733 38.5467 36.3225C38.3442 36.5154 38.1414 36.7107 37.9381 36.9068C35.7235 39.0398 33.4043 41.274 30.1382 41.5735C25.4926 42.277 20.9449 40.4449 18.4911 36.7478C17.9839 36.1367 17.1919 36.1839 16.4079 36.2306C16.2402 36.2406 16.0724 36.2506 15.9083 36.2542C15.7513 36.2576 15.5972 36.255 15.4482 36.2408C15.1686 36.3806 14.7972 36.4335 14.4238 36.4866C13.6174 36.6016 12.8019 36.7178 12.8802 37.7129L12.6885 37.7646L12.4752 37.8207L12.4608 37.8243C11.702 38.0212 10.9292 38.2219 10.3773 38.7599C10.2463 39.1035 10.3282 39.5125 10.5406 39.7905C10.8354 40.1341 11.4568 40.5104 11.9313 39.954C12.0004 39.8765 12.0691 39.7268 12.0782 39.583C12.0866 39.4536 12.0467 39.329 11.9149 39.2671C11.7304 39.1968 11.607 39.2633 11.4796 39.3324C11.3693 39.3919 11.2559 39.4534 11.097 39.4306C10.9696 39.4306 10.8833 39.3893 10.8334 39.3178C10.8214 39.3006 10.8114 39.2817 10.8034 39.2613C10.7958 39.2413 10.7902 39.2198 10.7866 39.1968C10.7799 39.1557 10.7795 39.1101 10.7846 39.0612C10.7882 39.0279 10.7942 38.9927 10.8026 38.9562C10.8997 38.7497 11.1141 38.7237 11.3318 38.6972C11.4073 38.688 11.4836 38.6786 11.5551 38.6618C12.2108 38.6409 12.2176 39.0576 12.224 39.4855C12.228 39.73 12.2316 39.978 12.3566 40.1503L15.2849 39.2835L15.3504 39.1525L14.058 37.6803C13.9917 37.649 13.9142 37.642 13.8335 37.6438C13.786 37.645 13.7373 37.6492 13.6893 37.6532C13.5508 37.6652 13.4162 37.6768 13.3255 37.6129C13.2772 37.5787 13.2412 37.5232 13.2237 37.4349C13.3359 37.14 13.6051 37.1344 13.8962 37.1284L13.9577 37.127L14.0416 37.124C15.0277 37.7011 15.6643 38.5542 16.3133 39.424C16.6759 39.9105 17.0425 40.4021 17.4767 40.8538C20.4213 44.2563 24.6747 46.0396 29.3366 45.7286C34.9643 45.3361 38.6122 41.6226 41.9822 37.3858L42.5381 37.2386C42.8161 37.2876 43.0126 37.4349 43.029 37.6965C42.9559 37.7566 42.8684 37.7876 42.773 37.803C42.6671 37.8199 42.5517 37.8181 42.4359 37.8163C42.2582 37.8135 42.0792 37.8107 41.9331 37.8766C41.82 38.0887 41.6575 38.304 41.4993 38.5129L41.4922 38.523C41.3648 38.6912 41.2409 38.8553 41.1475 39.0103C41.0904 39.1049 41.0448 39.1964 41.0169 39.2835L43.8796 40.2813C44.0266 40.2012 44.0813 40.0994 44.0913 39.9864C44.1005 39.8791 44.0697 39.7619 44.0386 39.6435C44.009 39.5311 43.9795 39.4177 43.9835 39.3108C43.9871 39.2124 44.0198 39.1193 44.1085 39.038C44.5175 38.809 45.0574 38.7271 45.4828 39.0544C45.6641 39.6838 45.3558 39.6127 44.9895 39.5283C44.7275 39.4678 44.436 39.4005 44.2722 39.5778C44.2067 39.7905 44.2886 40.1831 44.5666 40.3141C45.1229 40.6411 45.6629 40.0686 45.9245 39.7252C46.0762 38.6379 45.1421 38.3944 44.2387 38.159L44.2303 38.1566C44.0334 38.1053 43.8381 38.0546 43.6564 37.9953L43.5534 37.9603L43.4547 37.9236C43.38 37.894 43.3085 37.8623 43.2414 37.8275L43.2091 37.8111ZM33.876 37.524C33.9954 37.6692 34.1264 37.8054 34.277 37.9256L34.3197 37.9356C34.4195 37.9593 34.5561 37.9917 34.6775 37.9983C34.8329 38.0068 34.9643 37.9737 34.9643 37.8275C34.7554 37.656 34.5865 37.3493 34.4163 37.0397C34.0669 36.4043 33.7106 35.7567 32.9846 36.2408C33.0968 36.3832 33.1998 36.5359 33.3013 36.6919C33.3947 36.8351 33.4866 36.9808 33.5828 37.1242C33.6747 37.2614 33.7709 37.3962 33.876 37.524ZM28.8095 36.7035C29.0994 37.1068 29.3858 37.5052 29.9257 37.664V37.6803L29.9736 37.6778L30.0455 37.6772C30.0983 37.677 30.1518 37.6768 30.2005 37.6702C30.3123 37.6552 30.4002 37.6075 30.4002 37.4513C30.3023 37.3966 30.2105 37.3151 30.1218 37.2177C29.9904 37.0733 29.867 36.8936 29.7432 36.7133C29.3506 36.1419 28.9532 35.5634 28.2899 36.077C28.428 36.2034 28.5463 36.3468 28.6577 36.4952C28.7092 36.5639 28.7595 36.6338 28.8095 36.7035ZM24.102 36.0117L25.4599 37.6149H25.4762C25.6887 37.7456 26.1632 37.7948 26.2287 37.5166C25.9894 37.3427 25.7937 37.0459 25.5992 36.7512C25.4287 36.4926 25.259 36.2356 25.0617 36.0645C24.8077 35.8436 24.5081 35.7657 24.102 36.0117ZM22.1063 37.7948C21.8123 37.6422 21.5711 37.3471 21.3375 37.0613C20.8949 36.5196 20.4792 36.0111 19.7835 36.5679C19.9931 36.7043 20.194 36.9263 20.3997 37.1538C20.8838 37.6895 21.3942 38.2543 22.1063 37.7948ZM28.5774 35.6439C29.9964 35.5918 31.4398 35.5389 32.6902 35.8482C34.4898 35.6517 36.2235 36.0607 37.8758 36.3552C37.5651 36.7262 37.1952 37.1018 36.807 37.4579C36.4596 37.777 36.0973 38.0803 35.7495 38.3509C35.5055 38.0879 35.2502 38.1594 34.9843 38.2339C34.787 38.289 34.5841 38.3459 34.3752 38.2692C33.8277 38.1342 33.2593 38.0989 32.6974 38.064C32.0336 38.0228 31.3787 37.9821 30.7764 37.7784C29.887 37.8485 28.9001 37.8513 27.9236 37.8539C27.3014 37.8557 26.6836 37.8575 26.0977 37.8766C25.6891 37.8912 25.2745 37.9246 24.8596 37.9635L24.3388 38.014L24.2142 38.0264C23.8543 38.062 23.4961 38.0965 23.1427 38.1211C22.7457 38.1488 22.3551 38.1642 21.9753 38.1546L20.6014 38.3345C20.1821 37.9815 19.7779 37.4643 19.3833 36.9595L19.3797 36.9553L19.3725 36.9457C19.1856 36.7069 19.0011 36.4712 18.8182 36.2572C18.9536 36.3009 19.079 36.3089 19.2004 36.2947C19.3821 36.2735 19.5546 36.203 19.7367 36.1286C19.9344 36.0477 20.1437 35.9622 20.3885 35.9299C20.5599 35.9129 20.7328 35.8945 20.9065 35.8762L20.9101 35.8756C21.9134 35.7695 22.9517 35.6599 23.9546 35.7991C25.1815 35.5537 26.6376 35.5045 27.8809 35.6681C28.1073 35.6613 28.3354 35.6529 28.5642 35.6445L28.5774 35.6439ZM14.6794 42.1137C14.3523 42.408 13.796 42.5552 13.387 42.2936C12.9617 42.0318 12.5363 41.6392 12.7328 41.0667C13.0719 40.9009 13.2824 41.1132 13.4956 41.3283C13.7456 41.5803 13.9993 41.8361 14.4669 41.492C14.6391 41.4509 14.7373 41.3441 14.8008 41.2208C14.8639 41.0984 14.8923 40.9601 14.925 40.854C15.1375 41.263 15.0229 41.8027 14.6958 42.0973L14.6794 42.1137ZM15.4973 39.3817L12.5855 40.5104L12.3075 40.723C12.1274 41.492 12.4221 42.1626 12.9293 42.5552C14.022 43.2529 15.0488 42.7359 16.0385 42.2373C16.4415 42.0344 16.8384 41.8345 17.2314 41.7209L17.2969 41.5084C16.9579 41.2244 16.6911 40.8378 16.4267 40.4548C16.1427 40.0435 15.862 39.6363 15.4973 39.3653V39.3817ZM41.8672 42.539C42.2761 42.5879 42.8325 42.637 43.0941 42.2936V42.31C43.3724 42.0809 43.6995 41.6556 43.4703 41.263C43.1244 41.0297 42.9607 41.2272 42.7746 41.4517C42.5821 41.6837 42.3656 41.9445 41.8999 41.7864C41.491 41.6556 41.1311 41.1811 41.3276 40.7721C41.1802 41.0297 41.199 41.2875 41.2174 41.5451C41.2234 41.631 41.2294 41.7169 41.2294 41.8027C41.3767 42.1462 41.5892 42.408 41.8672 42.539ZM42.6595 40.2551C43.1847 40.357 43.8062 40.4772 43.9447 41.1156C44.0266 41.6719 43.8465 42.2772 43.503 42.5716C42.3316 43.6115 41.0988 42.9306 39.9517 42.2974C39.5292 42.0639 39.1182 41.8369 38.7264 41.7047L40.6403 39.578L40.6894 39.587C41.3136 39.6986 41.9762 39.817 42.3908 40.1996C42.475 40.2194 42.5657 40.237 42.6595 40.2551Z" fill="white"/>
</svg>
