<svg width="57" height="57" viewBox="0 0 57 57" fill="none" xmlns="http://www.w3.org/2000/svg">
<path fill-rule="evenodd" clip-rule="evenodd" d="M27.3731 51.5147C27.3902 51.549 27.5278 51.5834 27.5278 51.5834L27.4934 51.5662H28.92C28.9716 51.5662 29.0747 51.4975 29.0747 51.4975L29.3669 51.2053C29.4013 51.1709 29.5044 51.2053 29.5044 51.2053L29.7966 51.4975C29.831 51.5318 29.9513 51.5662 29.9513 51.5662H31.4811C31.5327 51.5662 31.6358 51.4975 31.6358 51.4975L32.2546 50.6896C32.289 50.6552 32.289 50.5349 32.289 50.5349L31.6702 48.8676C33.8081 48.4533 34.412 47.1441 34.6682 46.5887C34.6777 46.5681 34.6867 46.5485 34.6953 46.53C34.9188 46.0144 35.3485 45.3784 35.8642 44.9315C36.3798 44.4846 36.9986 44.1236 37.9096 43.6939C38.8206 43.2642 39.3018 42.611 39.5081 41.6141C39.5175 41.5648 39.5269 41.5142 39.5366 41.4624C39.7225 40.4666 39.9972 38.9959 41.4676 36.5779C42.9114 34.1715 44.5615 33.3808 44.785 33.3121C45.0256 33.2261 45.4038 33.0371 45.5928 32.8136L45.6044 32.801C45.7869 32.6021 45.9068 32.4714 46.1257 31.7307C46.3319 30.9745 46.2116 30.2353 46.0569 29.9603C45.9366 29.7197 45.8163 29.6509 45.6272 29.6853C45.4381 29.7197 45.2491 29.7197 45.0944 29.5994C44.9569 29.4619 44.9225 29.3072 44.9568 28.8775C44.9665 28.757 44.9802 28.6393 44.9934 28.5258C45.0272 28.2343 45.0579 27.9705 45.0084 27.7602C44.8709 27.2961 44.5615 27.0211 44.5615 27.0211C44.5271 26.9867 44.5271 26.918 44.5271 26.8664C44.5271 26.8664 46.0741 24.4085 45.971 20.4207C45.8335 15.9002 42.7395 12.5828 39.0612 12.5828C35.9845 12.5828 35.2798 14.972 35.2454 15.5048L35.9329 16.158C35.9673 16.1924 36.0189 16.1924 36.036 16.1408C36.036 16.1408 36.2939 13.7344 39.13 13.8719C42.1379 14.0266 43.8912 16.2783 44.5615 18.9253C44.7506 19.6301 44.8365 20.7473 44.8537 21.2802C44.9053 23.1709 44.424 24.821 43.9599 25.732C43.6161 26.4195 43.2724 26.4711 43.0833 26.4883C42.9114 26.5055 42.8255 26.557 42.7395 26.7633C42.1551 28.1384 41.141 28.379 40.5222 28.3446C39.6628 28.3102 39.1643 27.5368 39.1643 26.7977C39.1643 26.1617 39.5769 25.457 40.1956 25.4054C40.866 25.3538 41.227 25.8179 41.227 26.2648C41.227 26.7117 40.9348 26.9695 40.591 26.9695C40.591 26.9695 40.9519 27.3477 41.416 27.193C42.052 26.9867 42.1379 26.1273 42.1379 25.8523C42.1723 25.5085 42.3786 25.3882 42.7052 25.3882C43.0317 25.3538 43.238 25.1648 43.3068 25.0272C43.6505 24.3569 44.0459 23.3084 44.0459 22.1568C43.9943 16.3299 39.319 15.2986 39.319 15.2986C39.2675 15.2814 39.2675 15.3158 39.3018 15.3501C39.3018 15.3501 39.8691 15.6939 40.0238 16.2955C40.4363 17.9112 39.1815 18.7191 38.3221 18.8222C37.7721 18.891 36.8783 18.6847 36.2251 17.894C35.2797 16.7424 34.3688 15.9174 34.3688 15.9174C34.3344 15.883 34.3 15.8142 34.3 15.7627C34.3 15.7627 34.2141 14.3876 35.3485 13.0297C36.3111 11.8953 37.7377 11.7406 37.7377 11.7406C37.7893 11.7234 37.8236 11.6202 37.8236 11.6202V10.9671C37.8236 10.9155 37.7205 10.864 37.7205 10.864H36.758C36.758 10.864 36.6033 9.72952 35.6235 8.80134C34.5406 7.61534 32.7874 7.85597 32.1343 8.5607C31.4811 9.28262 31.1889 10.6405 32.1858 11.5515C32.9249 12.239 33.8531 11.8953 34.2656 11.414C34.661 10.9499 34.7297 10.1249 34.1625 9.71233C33.7156 9.36856 33.3546 9.54044 33.1828 9.66076C32.8734 9.86702 32.8562 10.3999 33.114 10.6061C33.389 10.8296 33.7156 10.6233 33.7672 10.3483C33.7672 10.3483 33.9562 10.5374 33.8703 10.8468C33.75 11.2937 33.0452 11.4312 32.6155 11.0702C31.9968 10.5546 32.1171 8.97322 33.475 8.74977C33.475 8.74977 35.3485 8.5607 35.3485 10.5718C35.3485 11.9984 34.1281 12.7375 33.1484 12.7719C32.1343 12.8063 30.5873 11.9125 30.6732 9.91859C30.8107 7.16844 33.1828 7.22 33.1828 7.22C33.2343 7.20281 33.3203 7.11687 33.3203 7.11687L33.4578 6.85904C33.4922 6.80748 33.4406 6.72154 33.4406 6.72154L28.3528 4.91675H28.1809L23.0759 6.73872C23.0416 6.7731 23.0416 6.87623 23.0416 6.87623L23.1791 7.13406C23.1963 7.18562 23.265 7.23719 23.3166 7.23719C23.3166 7.23719 25.6886 7.18562 25.8261 9.93578C25.912 11.9296 24.3651 12.8234 23.351 12.7891C22.354 12.7547 21.1336 12.0156 21.1336 10.5889C21.1336 8.57789 23.0072 8.76696 23.0072 8.76696C24.3651 9.0076 24.4854 10.5718 23.8666 11.0874C23.4369 11.4484 22.7322 11.3109 22.6119 10.864C22.5259 10.5546 22.715 10.3655 22.715 10.3655C22.7666 10.6233 23.0931 10.8468 23.3681 10.6233C23.626 10.4171 23.6088 9.88421 23.2994 9.67795C23.1275 9.55763 22.7666 9.38575 22.3197 9.72952C21.7696 10.142 21.8212 10.9671 22.2165 11.4312C22.629 11.8953 23.5572 12.239 24.2963 11.5687C25.2933 10.6577 25.0011 9.2998 24.3479 8.57789C23.6947 7.87316 21.9587 7.63252 20.8586 8.81853C19.8789 9.7467 19.7242 10.8811 19.7242 10.8811H18.7616C18.7101 10.8811 18.6585 10.9843 18.6585 10.9843V11.6374C18.6585 11.689 18.7101 11.7578 18.7616 11.7578C18.7616 11.7578 20.1711 11.9125 21.1336 13.0469C22.2853 14.3876 22.1993 15.7799 22.1993 15.7799C22.1993 15.8314 22.165 15.9002 22.1306 15.9345C22.1306 15.9345 21.2196 16.7596 20.2742 17.9112C19.6211 18.7019 18.7445 18.9082 18.1772 18.8394C17.3178 18.7363 16.0631 17.9284 16.4756 16.3127C16.6303 15.7111 17.1975 15.3673 17.1975 15.3673C17.2491 15.3158 17.2319 15.3158 17.1803 15.3158C17.1803 15.3158 12.505 16.3299 12.4535 22.174C12.4363 23.3256 12.8488 24.3569 13.1926 25.0444C13.2613 25.1991 13.4676 25.3882 13.7942 25.4054C14.1379 25.4226 14.3614 25.5257 14.3614 25.8695C14.3786 26.1445 14.4473 27.0039 15.0833 27.2102C15.5474 27.3649 15.9084 26.9867 15.9084 26.9867C15.5646 26.9867 15.2724 26.7289 15.2724 26.282C15.2724 25.8351 15.6162 25.371 16.3037 25.4226C16.9397 25.4741 17.335 26.1789 17.335 26.8148C17.335 27.5539 16.8365 28.3274 15.9771 28.3618C15.3411 28.3962 14.327 28.1555 13.7426 26.7805C13.6567 26.5742 13.5707 26.5226 13.3988 26.5055C13.2098 26.4883 12.866 26.4367 12.5222 25.7492C12.0581 24.8382 11.5597 23.1881 11.6284 21.2974C11.6456 20.7645 11.7487 19.6301 11.9206 18.9425C12.591 16.2955 14.3442 14.0438 17.3522 13.8891C20.1883 13.7516 20.4461 16.158 20.4461 16.158C20.4633 16.2096 20.5492 16.1752 20.5492 16.1752L21.2368 15.522C21.2196 14.9892 20.4977 12.6 17.4209 12.6C13.7426 12.6 10.6315 15.9174 10.5112 20.4379C10.408 24.4256 11.955 26.8836 11.955 26.8836C11.955 26.9352 11.955 27.0039 11.9206 27.0383C11.9206 27.0383 11.6112 27.3133 11.4737 27.7774C11.4138 27.9692 11.4458 28.2195 11.4824 28.505C11.4982 28.6289 11.5149 28.7594 11.5253 28.8946C11.5597 29.3415 11.5425 29.4791 11.405 29.6166C11.2503 29.7369 11.0612 29.7369 10.8721 29.7025C10.6831 29.6681 10.5627 29.7369 10.4252 29.9775C10.2877 30.2525 10.1502 30.9916 10.3737 31.7479C10.5815 32.4513 10.7001 32.5897 10.8678 32.7854C10.8804 32.8001 10.8933 32.8152 10.9065 32.8308C11.0784 33.0543 11.4737 33.2605 11.6972 33.3293C11.9206 33.4152 13.5707 34.2059 15.0146 36.5951C16.485 39.0131 16.7596 40.4838 16.9456 41.4796C16.9552 41.5314 16.9647 41.582 16.974 41.6313C17.1631 42.6282 17.6444 43.2986 18.5726 43.7111C19.5007 44.1408 20.1023 44.519 20.618 44.9487C21.1165 45.3784 21.5462 46.0315 21.7868 46.5472C21.7954 46.5657 21.8045 46.5852 21.814 46.6059C22.0702 47.1613 22.6741 48.4705 24.812 48.8848L24.176 50.5521C24.1588 50.6037 24.2104 50.7068 24.2104 50.7068L24.8292 51.5147C24.8635 51.549 24.9839 51.5834 24.9839 51.5834H26.4964C26.548 51.5834 26.6511 51.5147 26.6511 51.5147L26.9433 51.2225C26.9949 51.1881 27.0809 51.2225 27.0809 51.2225L27.3731 51.5147ZM17.4725 16.7252C17.4725 16.1752 17.9194 15.7455 18.4522 15.7455C18.9851 15.7455 19.432 16.1752 19.432 16.7252C19.432 17.2752 18.9851 17.705 18.4522 17.705C17.9194 17.705 17.4725 17.2752 17.4725 16.7252ZM17.6616 28.4306C17.6616 36.1482 22.3368 42.3876 28.095 42.3876V42.4048C33.8531 42.4048 38.5284 36.1482 38.5284 28.4477C38.5284 20.7473 33.8531 14.5079 28.095 14.5079C22.3368 14.5079 17.6616 20.7129 17.6616 28.4306ZM26.909 9.43731C26.909 10.8468 27.5106 11.9812 28.2325 11.9812C28.9544 11.9812 29.556 10.8468 29.556 9.43731C29.556 8.02786 28.9544 6.89342 28.2325 6.89342C27.5106 6.89342 26.909 8.02786 26.909 9.43731ZM28.095 15.9174C33.3203 15.9174 37.4111 21.5208 37.4111 28.4477C37.4111 35.3747 33.3031 40.9953 28.095 40.9953C22.8869 40.9953 18.796 35.3747 18.796 28.4477C18.796 21.5208 22.8697 15.9174 28.095 15.9174ZM27.5793 27.8633V17.5159V17.4987L26.0839 17.069V25.7835H19.6898L20.3945 27.8633H27.5793ZM30.0716 25.7663V17.0862L28.5763 17.5159V27.8462H35.8126L36.4486 25.7663H30.0716ZM26.1011 30.5104V39.7578V39.7749L27.5965 39.328V28.379L26.1011 29.565H20.0164L19.7586 30.5104H26.1011ZM28.5934 28.379V39.3109L30.0888 39.7578V30.5104H36.4314L36.1735 29.565H30.0888L28.5934 28.379ZM24.3514 44.4078C24.3555 44.4164 24.3601 44.4248 24.3651 44.433L24.3823 44.4158C24.3823 44.4158 24.3706 44.4134 24.3514 44.4078ZM24.812 43.7799C24.4642 43.7964 24.2441 44.1799 24.3514 44.4078C24.2689 44.3838 24.046 44.3017 24.0041 44.1064C23.9182 43.6252 24.176 43.2126 24.7432 43.1783C25.6714 43.1267 26.1183 43.9517 25.9808 44.7596C25.8261 45.5846 25.0526 45.9456 24.3651 45.9112C23.5057 45.8768 22.2509 45.2752 22.2853 42.1298C22.2853 41.9579 22.165 41.8376 21.9931 41.8376H21.3915C21.2196 41.8376 21.1336 41.7516 21.1336 41.5797V40.875C21.1336 40.7031 21.0305 40.6 20.8586 40.6H19.8789C19.707 40.6 19.6211 40.4969 19.6211 40.325V39.5687C19.6211 39.3968 19.5351 39.3109 19.3632 39.3109H18.9163C18.6585 39.3109 18.5898 39.1562 18.5554 38.9499C18.4522 38.3311 18.1257 37.1279 17.0084 35.6497C16.6647 35.1856 16.4068 34.9278 15.8052 34.3262L15.8052 34.3262C15.2036 33.7074 14.4817 32.6589 14.7052 30.751C14.7052 30.751 13.4332 30.0463 13.6739 29.3759C13.7598 29.1009 14.0004 29.0493 14.1895 29.1697C14.3958 29.3072 14.413 29.4447 14.413 29.4447C14.5505 29.1009 14.4817 28.5681 14.1036 28.3618C13.691 28.1384 13.1926 28.2071 12.9176 28.5165C12.6941 28.7571 12.6597 29.1697 12.7801 29.7025C12.866 30.0635 12.9176 30.3557 12.7285 30.5963C12.5394 30.8369 12.041 31.026 11.7487 30.9229C11.5081 30.8369 11.3878 30.8713 11.3534 31.026C11.319 31.1979 11.5941 31.9886 11.8347 32.1605C12.0238 32.3152 12.1613 32.298 12.2472 32.1605C12.3503 32.0058 12.5566 31.9886 12.7457 32.0229C12.9176 32.0573 13.0723 32.0229 13.141 31.8339C13.1527 31.8017 13.1644 31.7636 13.1769 31.7228C13.2381 31.5233 13.3194 31.2582 13.5192 31.301C13.5531 31.3086 13.5829 31.3145 13.6098 31.3198C13.7057 31.3387 13.7652 31.3505 13.8457 31.4042C13.9317 31.4729 13.9317 31.6276 13.8457 31.8167C13.8358 31.8445 13.8236 31.8767 13.8099 31.9127C13.7052 32.1881 13.5159 32.6862 13.6223 33.1574L13.6226 33.1588C13.7428 33.6738 13.8473 34.1216 15.5474 35.9763C16.9053 37.4717 17.696 38.5546 18.1085 41.4594C18.1085 41.6313 18.2116 41.8204 18.4351 41.8204H19.2429C19.432 41.8204 19.5351 41.9063 19.5179 42.0782V42.6798C19.5179 42.8689 19.6211 42.972 19.8617 42.972H20.8414C21.0993 42.972 21.1165 43.1439 21.1165 43.2814C21.2712 44.1752 21.9243 46.6847 24.2791 46.805C25.9808 46.891 26.6168 45.619 26.6168 44.6565C26.6168 43.5908 26.0324 42.4907 24.6917 42.4907C23.6775 42.4907 23.3166 43.2986 23.3166 43.9346C23.3166 44.7596 23.8322 45.1893 24.537 45.1893C25.0354 45.1893 25.362 44.8112 25.3792 44.5877C25.4479 44.1408 25.1557 43.7455 24.812 43.7799ZM19.0367 40.6859C19.0882 40.6344 19.1226 40.5312 19.1226 40.5312V39.964C19.1226 39.9125 19.0195 39.8953 19.0195 39.8953L18.6413 40.2218C18.5898 40.2734 18.5726 40.3594 18.5726 40.3594V40.9781C18.5726 41.0125 18.6757 41.0125 18.6757 41.0125L19.0367 40.6859ZM20.5321 41.9751C20.5836 41.9407 20.618 41.9063 20.618 41.8204V41.2703C20.618 41.2188 20.5321 41.2016 20.5321 41.2016L20.1367 41.5282C20.0852 41.5797 20.068 41.6657 20.068 41.6657V42.2673C20.068 42.3016 20.1711 42.3016 20.1711 42.3016L20.5321 41.9751ZM27.1496 46.1519C27.1496 47.2175 27.6137 48.0598 28.1637 48.0598C28.7309 48.0598 29.1778 47.1832 29.1778 46.1519C29.1778 45.1206 28.7138 44.2611 28.1637 44.2611C27.6137 44.2611 27.1496 45.0862 27.1496 46.1519ZM28.5419 50.5865C28.7653 50.5865 28.8685 50.4318 28.7825 50.2255H28.7997L28.3528 49.1942C28.2669 49.0051 28.1122 48.988 28.0262 49.1942L27.5449 50.2255C27.4418 50.4318 27.5449 50.5865 27.7684 50.5865H28.5419ZM26.4449 50.6209C26.6511 50.6209 26.7715 50.4662 26.6855 50.2599L26.1183 48.8505C26.0324 48.6442 25.8948 48.6442 25.8089 48.8505L25.2073 50.2599C25.1214 50.4662 25.2417 50.6209 25.4479 50.6209H26.4449ZM16.974 20.0254C16.9912 19.8535 16.9569 19.6988 16.8537 19.6473V19.6301C16.7506 19.5785 16.5959 19.6301 16.4584 19.716C16.0631 19.991 15.6333 19.8191 15.3239 19.5957C15.0146 19.3551 14.9974 18.9082 15.2036 18.5644C15.4099 18.2206 15.8568 18.1175 16.1146 18.3581C16.2693 18.4956 16.3037 18.7706 16.2006 18.9597C16.0631 19.2004 16.4068 19.3035 16.5787 19.1832C16.7506 19.08 17.0256 19.0285 17.1631 19.1144C17.3178 19.2004 17.4038 19.4582 17.4038 19.6644C17.3866 19.8707 17.6444 20.1113 17.7819 19.8707C17.9022 19.6816 18.1429 19.5785 18.3491 19.6473C18.6929 19.7504 18.8132 20.1801 18.6241 20.5411C18.4351 20.902 17.9882 21.0911 17.6444 20.9536C17.3006 20.7989 16.9397 20.5067 16.974 20.0254ZM13.8973 24.5803C13.8801 24.7007 13.9489 24.821 14.1208 24.7522H14.1551C14.1892 24.7182 14.3242 24.6295 14.4728 24.5318C14.6245 24.4321 14.7902 24.3232 14.877 24.2538C15.0092 24.1576 14.9818 24.0699 14.9533 23.9788C14.9411 23.9396 14.9286 23.8998 14.9286 23.8584C14.9114 23.7209 14.963 23.6694 15.0489 23.6522C15.1349 23.635 15.1693 23.635 15.2724 23.7381C15.281 23.7467 15.2896 23.7554 15.2982 23.7641C15.3927 23.86 15.4872 23.9558 15.5818 23.8928C15.6495 23.842 15.6338 23.7245 15.6005 23.4745L15.599 23.4631C15.5623 23.2189 15.6819 22.8705 15.8096 22.4982C15.8617 22.3464 15.9151 22.1907 15.9599 22.0365C15.7365 22.9303 16.1146 23.6865 16.3896 23.9444C16.6646 24.2022 17.1287 24.185 17.4381 23.9959C17.8163 23.7381 17.8507 23.3084 17.696 23.0849C17.5584 22.8787 17.2147 22.7756 17.0256 22.9474C16.8365 23.1021 16.7162 23.0506 16.6646 22.9818C16.5787 22.8787 16.5959 22.6037 16.6131 22.363C16.6346 22.1587 16.7099 21.8399 16.7676 21.5962C16.802 21.4505 16.8301 21.3316 16.8365 21.2802C16.8881 20.9364 16.5443 20.6786 16.3553 20.6098C16.1834 20.4723 15.788 20.3004 15.5302 20.5239C15.4271 20.627 14.963 21.0567 14.7052 21.263C14.5161 21.4005 14.2755 21.5208 14.1551 21.5208C14.0692 21.5036 13.9661 21.4349 14.0176 21.1942C14.0864 20.9536 13.8286 20.6786 13.5707 20.6786C13.2957 20.6614 12.9348 20.902 12.9176 21.3489C12.9004 21.7099 13.1238 22.1224 13.4848 22.2427C13.8457 22.3458 14.6708 22.2771 15.3239 21.6411C15.2409 21.736 15.1588 21.8355 15.0776 21.9338C14.8057 22.263 14.5441 22.5798 14.2926 22.6724L14.2926 22.6724C14.052 22.7756 13.9317 22.8271 13.9317 22.9131C13.915 23.0295 14.0594 23.0655 14.1934 23.0988C14.1978 23.0999 14.2023 23.101 14.2067 23.1021C14.3442 23.1365 14.3786 23.1709 14.3958 23.2568C14.413 23.3428 14.3958 23.3943 14.2755 23.4631C14.2392 23.4838 14.1983 23.4936 14.1579 23.5033C14.0641 23.5257 13.9729 23.5476 13.9489 23.7037C13.9145 23.9272 13.8973 24.4772 13.8973 24.5803ZM38.0299 17.7221C37.4971 17.7221 37.0502 17.2924 37.0502 16.7424C37.0502 16.1924 37.4799 15.7627 38.0299 15.7627C38.5799 15.7627 39.0096 16.1924 39.0096 16.7424C39.0096 17.2924 38.5627 17.7221 38.0299 17.7221ZM31.8077 43.1954C32.3577 43.2298 32.6155 43.6595 32.5296 44.1236L32.5124 44.1408C32.4608 44.3814 32.1343 44.4502 32.1343 44.4502C32.2718 44.2096 32.0311 43.8142 31.6874 43.797C31.3608 43.7627 31.0686 44.158 31.1201 44.6049C31.1545 44.8283 31.4639 45.2065 31.9624 45.2065C32.6671 45.1893 33.1828 44.7596 33.1828 43.9517C33.1828 43.3158 32.8218 42.5079 31.8077 42.5079C30.467 42.5079 29.8826 43.6252 29.8826 44.6737C29.8826 45.6362 30.5014 46.9082 32.2202 46.8222C34.575 46.7019 35.2454 44.1924 35.3829 43.2986C35.3841 43.2889 35.3852 43.279 35.3864 43.269C35.4014 43.1376 35.4183 42.9892 35.6579 42.9892H36.6548C36.8955 42.9892 36.9986 42.8689 36.9986 42.697V42.0954C36.9986 41.9063 37.1017 41.8376 37.2736 41.8376H38.0815C38.3049 41.8376 38.408 41.6485 38.408 41.4766C38.8034 38.5717 39.5941 37.4889 40.9691 35.9935C42.6693 34.1388 42.7737 33.691 42.8939 33.176L42.8942 33.1746C43.0146 32.6417 42.7567 32.0573 42.6536 31.8339C42.5677 31.6448 42.5677 31.4901 42.6708 31.4214C42.7739 31.3698 42.8427 31.3526 42.9974 31.3182C43.2036 31.274 43.2962 31.5582 43.3618 31.7594C43.3727 31.7929 43.3829 31.8241 43.3927 31.8511C43.4786 32.0401 43.6162 32.0745 43.8052 32.0401C43.9943 31.9886 44.2006 32.0058 44.3037 32.1776C44.3896 32.298 44.5099 32.3152 44.699 32.1776C44.9397 31.9886 45.2147 31.2151 45.1803 31.0432C45.1459 30.8885 45.0428 30.8541 44.8022 30.9401C44.4928 31.0432 43.9943 30.8541 43.8224 30.6135C43.6333 30.3729 43.6849 30.0807 43.7708 29.7197C43.8912 29.1869 43.8568 28.7743 43.6333 28.5337C43.3583 28.2243 42.8599 28.1727 42.4473 28.379C42.0692 28.5681 42.0004 29.1181 42.1379 29.4619C42.1379 29.4619 42.1551 29.3072 42.3614 29.1869C42.5505 29.0665 42.7911 29.1181 42.877 29.3931C43.1177 30.0807 41.8629 30.7682 41.8629 30.7682C42.0864 32.6761 41.3817 33.7246 40.7629 34.3434C40.1613 34.945 39.9034 35.2028 39.5597 35.6669C38.4424 37.1451 38.1158 38.3655 38.0127 38.9671C37.9783 39.1733 37.9096 39.328 37.6518 39.328H37.2049C37.033 39.328 36.9298 39.414 36.9298 39.5859V40.3422C36.9298 40.514 36.8439 40.6172 36.672 40.6172H35.6923C35.5204 40.6172 35.4173 40.7203 35.4173 40.8922V41.5969C35.4173 41.7688 35.3313 41.8547 35.1594 41.8547H34.5578C34.3859 41.8547 34.2656 41.9923 34.2656 42.1469C34.3 45.2752 33.0452 45.894 32.1858 45.9284C31.4983 45.9628 30.7248 45.6018 30.5701 44.7768C30.4154 43.9861 30.8795 43.1439 31.8077 43.1954ZM37.4971 40.7203C37.4455 40.6687 37.4111 40.5656 37.4111 40.5656H37.4283V39.9984C37.4283 39.9468 37.5314 39.9296 37.5314 39.9296L37.9096 40.2562C37.944 40.3078 37.9783 40.3937 37.9783 40.3937V41.0125C37.9783 41.0469 37.858 41.0469 37.858 41.0469L37.4971 40.7203ZM31.1373 50.6552H30.1232C29.8998 50.6552 29.7966 50.5005 29.8826 50.2943H29.8998L30.467 48.8848C30.5529 48.6786 30.6904 48.6786 30.7764 48.8848L31.378 50.2943C31.4639 50.5005 31.3436 50.6552 31.1373 50.6552ZM41.2098 19.6301C40.9176 19.8535 40.4879 20.0254 40.0753 19.7504L40.0238 19.7676C39.8863 19.6816 39.7316 19.6301 39.6456 19.6816C39.5425 19.7332 39.5253 19.8879 39.5253 20.0598C39.5597 20.5411 39.2159 20.8333 38.8549 20.988C38.5112 21.1255 38.0643 20.9364 37.8752 20.5754C37.6861 20.2145 37.8065 19.7848 38.1502 19.6816C38.3565 19.6129 38.5971 19.716 38.7174 19.9051C38.8549 20.1457 39.0956 19.9051 39.0956 19.6988C39.0784 19.4926 39.1987 19.2347 39.3362 19.1488C39.4909 19.0629 39.7659 19.0972 39.9378 19.2175C40.1097 19.3379 40.4535 19.2347 40.316 18.9941C40.2128 18.805 40.2472 18.53 40.4019 18.3925C40.6597 18.1519 41.0894 18.255 41.3129 18.5988C41.5363 18.9425 41.5192 19.4066 41.2098 19.6301ZM42.0668 24.613C42.188 24.6913 42.2914 24.7581 42.327 24.7866H42.3958C42.5677 24.8554 42.6192 24.735 42.6192 24.6147C42.612 24.5714 42.6048 24.4493 42.5963 24.3057C42.5846 24.1072 42.5704 23.8677 42.5505 23.7381C42.5251 23.5605 42.4248 23.5421 42.3256 23.5239C42.2904 23.5174 42.2554 23.511 42.2239 23.4975C42.0864 23.4459 42.0692 23.3772 42.0864 23.2912C42.1208 23.2053 42.1379 23.1709 42.2755 23.1365C42.413 23.1021 42.5505 23.0678 42.5505 22.9474C42.5505 22.8443 42.4301 22.7927 42.1895 22.7068C41.9204 22.6077 41.6397 22.2635 41.3473 21.905C41.2848 21.8284 41.2218 21.7512 41.1582 21.6755C41.8114 22.3115 42.6364 22.3974 42.9974 22.2771C43.3755 22.1396 43.5818 21.7443 43.5646 21.3833C43.5474 20.9364 43.1864 20.7129 42.9114 20.7129C42.6536 20.7301 42.413 20.988 42.4645 21.2286C42.5161 21.4692 42.413 21.5552 42.3098 21.5552C42.1895 21.5724 41.9489 21.4349 41.7598 21.2974C41.5926 21.1636 41.3386 20.9286 41.1526 20.7565C41.0518 20.6632 40.971 20.5884 40.9348 20.5582C40.6597 20.3348 40.2644 20.5239 40.1097 20.6442C39.9034 20.7301 39.5769 20.9708 39.6284 21.3145C39.6349 21.366 39.663 21.4849 39.6974 21.6306C39.755 21.8743 39.8304 22.1931 39.8519 22.3974C39.8863 22.638 39.8863 22.9131 39.8175 23.0162C39.7487 23.0849 39.6456 23.1537 39.4565 22.9818C39.2675 22.8099 38.9237 22.9131 38.7862 23.1193C38.6315 23.36 38.6659 23.7897 39.044 24.0303C39.3362 24.2194 39.8003 24.2366 40.0925 23.9787C40.3675 23.7209 40.7457 22.9646 40.5222 22.0708C40.567 22.2251 40.6204 22.3808 40.6725 22.5325C40.8003 22.9049 40.9198 23.2532 40.8832 23.4975C40.8488 23.7381 40.8316 23.8756 40.9004 23.9272C40.9949 23.9902 41.0895 23.8944 41.184 23.7985C41.1926 23.7898 41.2012 23.7811 41.2098 23.7725C41.3129 23.6865 41.3473 23.6865 41.4332 23.6865C41.5192 23.7037 41.5535 23.7553 41.5535 23.8928C41.5489 23.9296 41.5369 23.9652 41.5251 24.0002C41.4929 24.096 41.462 24.1874 41.5879 24.2881C41.6886 24.3687 41.8955 24.5023 42.0668 24.613ZM35.8989 41.2703V41.8203C35.8989 41.9063 35.9676 41.975 35.9676 41.975L36.3286 42.3016C36.3973 42.3703 36.4317 42.2672 36.4317 42.2672V41.6656C36.4317 41.614 36.363 41.5281 36.363 41.5281L35.9848 41.2015C35.9332 41.1843 35.8989 41.2703 35.8989 41.2703Z" fill="white"/>
</svg>
