<svg width="57" height="56" viewBox="0 0 57 56" fill="none" xmlns="http://www.w3.org/2000/svg">
<path fill-rule="evenodd" clip-rule="evenodd" d="M35.2131 11.4544C35.3377 11.4574 35.4535 11.4604 35.5206 11.5049L35.5366 11.5213C35.5913 11.8366 35.4216 11.8917 35.2247 11.9556L35.1748 11.972C35.1484 11.981 35.1212 11.9906 35.0949 12.0014C35.0374 12.0245 34.9815 12.0533 34.9315 12.0938L33.3612 14.3513L32.9926 14.2387C31.4454 13.765 29.8866 13.288 28.1593 13.288C28.1229 13.1711 28.1157 13.0455 28.1245 12.9155C28.1361 12.7472 28.1748 12.5713 28.2136 12.3965C28.3202 11.9139 28.4248 11.4404 27.9464 11.1613C27.6437 11.3126 27.5466 11.5139 27.545 11.7408C27.5442 11.8137 27.5538 11.8891 27.5694 11.9664C27.5953 12.0952 27.6385 12.2292 27.682 12.3644C27.7687 12.633 27.8573 12.907 27.8154 13.1572L27.281 13.2342C25.6783 13.4637 24.094 13.6903 22.6953 14.3677C22.2832 14.0494 22.0308 13.6161 21.7812 13.1877C21.4665 12.6474 21.1565 12.115 20.5359 11.832C20.5315 11.7973 20.5135 11.7521 20.4944 11.7046C20.4412 11.573 20.3809 11.4231 20.585 11.4231C20.702 11.4951 20.7963 11.5165 20.8762 11.5053C21.0128 11.486 21.1074 11.3713 21.2053 11.2529C21.361 11.0644 21.5248 10.8663 21.8774 11.0305C21.9198 10.9829 21.9413 10.9352 21.9609 10.8927C22.002 10.8034 22.0328 10.7359 22.2209 10.7359C22.2776 10.7142 22.3191 10.7134 22.3511 10.7263C22.4086 10.7493 22.4354 10.8164 22.4633 10.8869C22.4713 10.9073 22.4797 10.9278 22.4889 10.9478L22.4961 10.9624C22.5016 10.9746 22.5084 10.9863 22.5152 10.9977C22.2536 11.3412 22.2045 11.7665 22.4825 12.0283C22.6953 12.3065 23.1043 12.2901 23.3168 12.1429C23.5229 12.0687 23.6543 11.9071 23.715 11.721C23.7417 11.6395 23.7549 11.5533 23.7545 11.4676C23.7541 11.3612 23.7333 11.2557 23.693 11.1613L23.6491 11.1221C23.6295 11.1058 23.6095 11.0902 23.5896 11.0752C23.5376 11.0369 23.4841 11.0023 23.4326 10.969C23.3372 10.9073 23.2481 10.8496 23.1862 10.7783C23.1107 10.6914 23.076 10.5844 23.1207 10.4252C23.306 10.2323 23.5253 10.2784 23.7265 10.3206C23.9682 10.3715 24.1838 10.4168 24.2821 10.0326C24.5972 10.2179 24.7917 10.0987 25.0022 9.96932C25.1631 9.87047 25.3336 9.76603 25.5745 9.7872C25.7218 9.9815 25.6196 10.2499 25.5182 10.5159C25.372 10.8995 25.2274 11.2781 25.8361 11.4231C26.3269 11.5375 26.785 11.325 26.916 10.8342C26.9264 10.7038 26.8948 10.5993 26.8417 10.5085C26.7838 10.409 26.6995 10.3262 26.6157 10.2435C26.4112 10.0418 26.2091 9.84212 26.3924 9.41099C26.6832 9.26941 26.9172 9.35088 27.1349 9.42636C27.3697 9.50803 27.5854 9.58292 27.8318 9.36186C27.9152 9.37744 28.0003 9.37324 28.0822 9.36905C28.2575 9.36026 28.4185 9.35228 28.5191 9.54178C28.5698 9.51502 28.6241 9.48986 28.6816 9.4673C28.734 9.44693 28.7883 9.42876 28.8446 9.41358C29.0663 9.35407 29.3147 9.34189 29.5495 9.42736C29.6382 9.55616 29.6489 9.68796 29.615 9.82035C29.5679 10.0037 29.4357 10.1882 29.3067 10.3677C28.9968 10.7998 28.708 11.2024 29.6805 11.4886C29.7328 11.476 29.7871 11.465 29.8418 11.454C30.0491 11.4123 30.2632 11.3689 30.4098 11.2367C30.4789 11.1744 30.5328 11.0924 30.5639 10.9813C30.5803 10.936 30.5883 10.8927 30.5895 10.8513C30.5903 10.8106 30.5851 10.7715 30.5747 10.7337C30.544 10.6217 30.4705 10.5217 30.3998 10.4256C30.2999 10.29 30.2057 10.162 30.2452 10.0184C30.2624 9.95594 30.3051 9.89044 30.3838 9.81995C30.4281 9.80877 30.4733 9.80278 30.5176 9.80158C30.6115 9.79918 30.7029 9.81835 30.782 9.8553C30.8854 9.90342 30.9673 9.9817 31.0056 10.0817C31.3395 9.86169 31.568 10.0394 31.788 10.2105C31.8723 10.276 31.9554 10.3405 32.042 10.3815C32.09 10.4038 32.1391 10.4192 32.1902 10.4238C32.2329 10.4276 32.2773 10.4238 32.3236 10.4104C32.3871 10.3919 32.4542 10.3551 32.5269 10.2944C32.5716 10.2944 32.6335 10.3098 32.6902 10.3383C32.7493 10.3679 32.8028 10.4118 32.8264 10.4679C32.8468 10.5161 32.8448 10.5732 32.8048 10.6379C32.7817 10.8324 32.6435 10.9232 32.5001 11.0179C32.3416 11.1221 32.1762 11.2312 32.1507 11.4886C32.1015 11.832 32.4614 12.2246 32.8048 12.2901C33.0353 12.3179 33.2242 12.2675 33.3804 12.1657C33.4474 12.122 33.5086 12.0687 33.5641 12.008C33.6088 11.9592 33.6499 11.9057 33.6883 11.8484C33.7981 11.6359 33.6915 11.4398 33.5944 11.2617C33.5653 11.2084 33.5373 11.1567 33.5161 11.1066C33.4898 11.0444 33.4742 10.9849 33.481 10.928C33.491 10.8416 33.5521 10.7611 33.7046 10.687C33.761 10.7166 33.8125 10.7523 33.8616 10.7906C33.9075 10.8268 33.9511 10.8651 33.9938 10.9031C34.1839 11.0708 34.3628 11.229 34.6863 11.1285C34.6895 11.2142 34.7123 11.2769 34.7486 11.323C34.7794 11.362 34.8197 11.3891 34.8664 11.4079C34.9659 11.4482 35.0933 11.4514 35.2131 11.4544ZM22.5644 14.9238V14.7767C25.7378 13.2225 30.3511 13.1897 33.2957 14.9566C30.6618 14.0895 27.5374 13.4351 24.6092 14.3677L22.5644 14.9238ZM31.3164 17.2959C28.7807 17.7211 25.8197 17.7538 23.5297 16.887C23.3823 16.756 23.3823 16.478 23.5133 16.4125C26.1632 15.4963 29.8111 15.431 32.3959 16.5106C32.5113 16.9491 32.1303 17.0539 31.7525 17.158C31.5943 17.2013 31.4366 17.2446 31.3164 17.3121V17.2959ZM33.0337 15.3328C30.024 13.926 25.9016 14.0078 22.8423 15.2837C22.7792 15.4496 22.8455 15.6267 22.9182 15.8208C22.9965 16.0291 23.0815 16.2568 23.0224 16.5106C22.82 17.1454 23.4422 17.3229 23.9782 17.4761L24.1107 17.5144C24.1766 17.5338 24.2401 17.5533 24.2985 17.5739C26.8665 18.3102 30.4493 18.3265 32.8048 17.0014C32.7605 16.7089 32.8364 16.4071 32.9123 16.106L32.9135 16.1012C32.9774 15.8478 33.0413 15.5952 33.0337 15.3492V15.3328ZM41.1235 20.2795C40.6323 20.1647 40.1031 20.0413 39.9697 20.502C41.0005 20.5347 41.9822 20.8456 42.8816 21.1563L43.0126 21.0092C43.0781 20.9437 42.9962 20.731 42.9962 20.731L41.6056 20.3712C41.5225 20.3638 41.4318 20.3476 41.3372 20.3276L41.2545 20.3097L41.1235 20.2795ZM33.4263 22.7267L33.4918 22.6614H33.4754C33.6999 22.3834 33.7078 22.0008 33.6224 21.655C33.5772 21.4715 33.5058 21.2981 33.4263 21.1563C33.1483 20.8129 32.6575 20.502 32.1015 20.5838C31.4306 20.7474 30.8255 21.1727 30.4984 21.8107C30.4257 22.0569 30.2935 22.3103 30.1582 22.5697C29.8351 23.1888 29.4944 23.8412 29.9093 24.5099C30.5252 24.2813 30.6222 23.6848 30.7209 23.0794C30.7848 22.6878 30.8491 22.2926 31.0544 21.9906C31.3815 21.5653 31.9214 21.271 32.5433 21.3854C33.1156 21.5653 33.3448 22.2524 33.4263 22.7267ZM32.2158 33.2945C32.5596 33.4253 33.1156 33.3272 33.3121 32.9836V32.9672C30.3838 31.7731 30.1873 28.1906 30.1546 25.3115L29.6805 25.6713C29.4349 28.5013 29.6805 31.8058 32.2158 33.2945ZM28.224 29.1074C28.212 29.124 28.0255 29.3806 27.9464 29.2538C27.799 28.9103 27.8481 28.4358 27.9791 28.0924C28.2871 28.191 28.2611 28.5219 28.2363 28.8328V28.837C28.2288 28.9315 28.2212 29.0239 28.224 29.1074ZM25.8852 25.3442C25.9998 28.305 25.6396 31.6914 22.7932 33.0163C23.0716 33.3434 23.546 33.2617 23.8895 33.1799C26.4575 31.6586 26.5558 28.6323 26.4575 25.7368C26.422 25.7049 26.386 25.6653 26.3481 25.6236C26.2311 25.494 26.0957 25.3442 25.8852 25.3442ZM24.2797 21.4229C24.3612 21.4403 24.4394 21.4569 24.5109 21.4673C25.2058 21.7674 25.3293 22.4274 25.4503 23.0724C25.5597 23.6573 25.6667 24.2298 26.1959 24.5099C26.6081 23.9147 26.2834 23.2473 25.9671 22.5975C25.8313 22.3187 25.6971 22.0432 25.6232 21.778C25.247 21.0255 24.4782 20.5675 23.6602 20.6002C23.0552 20.6983 22.5807 21.1891 22.4661 21.7452C22.4825 22.1542 22.5644 22.6287 22.8423 22.6942C22.7604 22.2033 23.0061 21.7944 23.3495 21.4998C23.6083 21.2798 23.9698 21.3568 24.2797 21.4229ZM13.2073 20.7638C13.1825 20.8129 13.1881 20.8736 13.2045 20.9301C13.2316 21.0243 13.2892 21.1072 13.2892 21.1072V21.1236C14.1886 20.8782 15.203 20.633 16.2334 20.5347V20.453L16.1519 20.2565C15.3831 20.1223 14.6506 20.3432 13.9346 20.5591C13.7944 20.6012 13.655 20.6433 13.5156 20.6827C13.4126 20.7116 13.3099 20.739 13.2073 20.7638ZM16.0537 17.3449C16.201 17.4265 16.5445 17.492 16.61 17.3449V17.3285C16.5637 17.2544 16.4594 17.2274 16.3392 17.2181C16.2945 17.2145 16.2474 17.2135 16.2002 17.2133L16.118 17.2137L16.0537 17.2139V17.3449ZM40.1826 17.1975C40.0352 17.0667 39.7081 17.2139 39.6426 17.3612V17.4265L39.6969 17.4225C39.887 17.4086 40.1231 17.3912 40.1826 17.1975ZM52.0917 25.6058C51.8461 26.0967 51.519 26.9965 51.8952 27.667L52.0098 27.6507C52.0761 27.7357 52.1452 27.8222 52.2151 27.9103L52.2798 27.9913C53.2519 29.2076 54.4345 30.6881 53.6129 32.3456C53.2203 32.9836 52.6149 33.4908 51.8624 33.6543C51.1755 33.7524 50.5377 33.4253 49.9814 33.0982C49.8743 33.25 49.9522 33.4163 50.0345 33.5918C50.0804 33.6895 50.1271 33.7899 50.1447 33.8924L50.1479 33.9145C50.1539 33.9583 50.1535 34.0024 50.1451 34.0469C48.0675 33.8506 45.9408 33.7198 43.7978 33.6543C43.9288 33.229 44.2559 33.0818 44.6648 32.9999L48.2473 33.3598C47.9405 32.3981 47.1042 32.1255 46.2392 31.8435C45.3973 31.569 44.5278 31.2856 44.0921 30.3499C43.7978 29.8101 43.634 29.123 43.9615 28.5668C44.0166 28.4424 44.1185 28.3298 44.2275 28.2092L44.2886 28.1415C43.8177 27.8669 43.2267 27.7992 42.6308 27.7309L42.34 27.6968C41.9878 27.6531 41.6403 27.5971 41.322 27.4863C41.1443 27.4244 40.9758 27.3453 40.8204 27.2417C39.9513 29.122 38.8994 30.758 37.7675 32.5183L37.6469 32.7056C37.5595 32.848 37.5359 33.0417 37.5123 33.2376C37.4648 33.627 37.4169 34.0252 36.8617 34.0469C36.7248 34.1548 36.5774 34.1715 36.4292 34.1575C36.3869 34.1536 36.3441 34.147 36.3018 34.1394L36.1964 34.1188C35.9316 34.0649 35.6816 34.0142 35.5039 34.3251H35.0298C34.918 33.7362 35.3545 33.6262 35.8154 33.5102C36.0969 33.4393 36.3873 33.3662 36.5674 33.1799C37.4672 31.4296 38.3666 29.4664 39.1194 27.5854L39.2992 26.6037C38.9281 26.4182 38.7688 26.0573 38.6094 25.6955C38.4313 25.2917 38.2524 24.8865 37.7779 24.7226C37.3035 24.0962 36.932 23.4504 36.5618 22.8064C36.2551 22.2728 35.9488 21.7406 35.5857 21.2218C35.4783 21.1392 35.3665 21.0701 35.2518 21.0142C35.0921 20.9363 34.9268 20.8844 34.7598 20.8578C34.5725 20.8279 34.3828 20.8297 34.1955 20.862L34.2131 20.9954C34.3117 21.7324 34.4383 22.6782 33.868 23.2175C33.4754 23.7737 32.723 24.0191 32.036 23.97C30.629 25.1969 30.7109 27.3236 31.1035 29.0249C31.173 29.203 31.2353 29.3923 31.2988 29.5851L31.3 29.5892L31.3024 29.597L31.3036 29.6014C31.5987 30.5004 31.9154 31.4663 33.0009 31.7076C33.6228 31.904 34.3097 31.4623 34.5553 30.906C34.6232 30.6628 34.622 30.3676 34.5342 30.0995C34.4743 29.9165 34.374 29.7464 34.2278 29.6138L33.9499 29.4828C33.9219 29.5317 33.8983 29.5874 33.8768 29.6474C33.8532 29.7137 33.8317 29.7853 33.8101 29.8586C33.7134 30.1837 33.6084 30.538 33.2302 30.5953C32.7393 30.7425 32.314 30.497 32.1015 30.1536C32.0524 30.0002 32.0376 29.8444 32.0524 29.6951C32.0624 29.5956 32.0852 29.499 32.1195 29.4077C32.171 29.2705 32.2485 29.1455 32.3468 29.0413C32.6455 28.8146 33.0545 28.6918 33.4554 28.6809C33.6911 28.6745 33.9239 28.7068 34.13 28.7795C34.7514 28.9594 35.2586 29.7119 35.4224 30.2518C35.8801 31.7567 35.1768 33.2126 34.0972 34.0142C33.2302 34.6031 31.9869 34.2268 31.2017 33.638C29.4185 31.8549 29.1242 29.3193 28.9604 26.7019C28.3198 26.9737 28.5027 27.4068 28.7064 27.8883C28.8458 28.2184 28.9948 28.571 28.8953 28.9103C28.8462 29.4664 28.7316 30.1536 28.1916 30.3826C27.6636 30.3361 27.4895 29.847 27.3473 29.4479L27.3246 29.3848C27.2151 28.7811 27.3481 28.3026 27.4823 27.8208C27.5482 27.5846 27.6141 27.3475 27.652 27.0945L27.6321 27.0586C27.5586 26.9258 27.4927 26.8056 27.3573 26.6856C27.313 26.7992 27.2778 26.9178 27.2495 27.0398C27.2015 27.2485 27.1744 27.4673 27.1556 27.69C27.1416 27.8559 27.1325 28.0239 27.1237 28.1912C27.1001 28.6321 27.0769 29.0685 26.9647 29.4503C26.5394 31.1842 25.9179 33.1962 24.233 34.0142C23.5624 34.374 22.6626 34.276 22.0244 33.9489C20.9776 33.0327 20.3067 31.675 20.732 30.2191C20.9121 29.5156 21.5176 28.943 22.1226 28.714C22.8096 28.5668 23.4969 28.6813 23.9222 29.1393C23.9985 29.229 24.0552 29.3298 24.0916 29.4363C24.1363 29.5661 24.1511 29.7043 24.1355 29.8411C24.1171 30.0014 24.0572 30.16 23.955 30.3007C23.8348 30.521 23.5556 30.6127 23.278 30.6057C23.1019 30.6011 22.9266 30.5569 22.7932 30.4807C22.3842 30.2844 22.3515 29.8754 22.3515 29.5319C22.1989 29.4487 22.0667 29.4772 21.9605 29.5591C21.8986 29.6066 21.8455 29.6721 21.8019 29.744C21.7436 29.8401 21.7025 29.9475 21.6809 30.0391C21.4193 30.808 21.9265 31.3968 22.5644 31.6586C23.1694 31.7731 23.8567 31.4787 24.1838 30.9879C25.2797 29.1557 25.8688 26.3748 24.6419 24.4281C24.4175 23.8991 23.9338 23.8571 23.453 23.8152C23.1702 23.7905 22.8878 23.7659 22.6598 23.6423C22.4841 23.5472 22.3407 23.3935 22.2536 23.1357C21.8119 22.4487 21.9265 21.5653 22.1063 20.862C21.5499 20.6819 21.0104 20.8945 20.6014 21.1891C20.3075 21.6408 20.0487 22.0907 19.7955 22.5316L19.7883 22.5436C19.2559 23.4711 18.7471 24.3574 17.9839 25.1316L17.9184 25.0661C17.8652 25.1659 17.8125 25.2747 17.7586 25.3864C17.5473 25.8229 17.3149 26.3035 16.9371 26.4729C16.9974 27.9899 17.6931 29.2787 18.3801 30.5513L18.3812 30.5543C18.8126 31.3529 19.2407 32.1453 19.5051 32.9836C19.6677 33.3085 20.0251 33.3925 20.3662 33.4726C20.6773 33.5455 20.974 33.6154 21.0958 33.8624C21.1497 33.9714 21.1693 34.115 21.141 34.3087C20.8522 34.3868 20.6637 34.2857 20.4872 34.1911C20.2939 34.0875 20.1146 33.9912 19.8326 34.1452C18.8929 34.3085 18.7567 33.6623 18.6157 32.9946C18.531 32.5924 18.4447 32.1826 18.1804 31.9366C17.1659 30.5134 16.1355 28.8939 15.4646 27.2744C15.0065 27.4781 14.4673 27.533 13.921 27.5888C13.238 27.6582 12.5435 27.7289 11.9804 28.0924C12.4221 28.6323 12.504 29.3029 12.3239 29.9409C11.8821 30.9224 10.9987 31.4296 10.0502 31.8058C9.85649 31.8953 9.66918 31.9677 9.48427 32.0279C9.26341 32.0995 9.04575 32.1539 8.82329 32.1984L7.95624 33.1146L8.16871 33.2454C8.5601 33.2731 8.97985 33.211 9.40519 33.1331L9.68196 33.081L9.68555 33.0804C10.68 32.8905 11.6745 32.7004 12.373 33.4417V33.5072L6.12389 33.867C6.1183 33.7218 6.15464 33.6012 6.20696 33.4918C6.22972 33.4439 6.25568 33.3979 6.28284 33.3532L6.32398 33.2861C6.40225 33.1585 6.47894 33.0343 6.5001 32.8855C5.97692 33.2454 5.09349 33.6871 4.25918 33.4417C3.57185 33.1962 2.91767 32.4602 2.68882 31.7894C2.2551 30.4968 2.9608 29.6144 3.63935 28.7659C4.39457 27.8216 5.11585 26.9194 4.19369 25.5405C4.67773 25.467 4.91177 25.8411 5.10866 26.1552L5.17496 26.2602C5.58792 27.4156 4.96808 28.2889 4.38299 29.1134C3.69246 30.0869 3.04986 30.9927 4.21006 32.2148C4.7009 32.6074 5.4697 32.4438 5.92779 32.0185C6.35832 31.5584 6.47294 31.0044 6.58996 30.4375C6.66824 30.0571 6.74812 29.6707 6.92544 29.3029C7.75975 27.6179 8.95389 26.2111 10.3445 24.8534C10.5794 24.6337 10.8426 24.4512 11.1169 24.2843C11.3054 24.1695 11.4991 24.0618 11.6928 23.9544C12.4125 23.555 13.127 23.1584 13.5508 22.3996C13.5999 21.8435 13.4525 21.3035 13.0927 21.0419C13.129 20.6144 13.0699 20.1605 13.01 19.7012C12.907 18.9122 12.8023 18.1073 13.1745 17.3938L13.6326 16.625C13.5855 16.5205 13.51 16.4159 13.4309 16.3061C13.262 16.072 13.0755 15.8138 13.109 15.48C13.3371 15.5842 13.5707 15.6763 13.8084 15.7609C13.9665 15.8172 14.1263 15.8704 14.2872 15.9215C14.5101 15.9924 14.7349 16.0597 14.9602 16.127C15.9714 16.4293 16.9866 16.7328 17.8529 17.3776L19.6525 17.9337C19.6908 18.0643 19.6533 18.1806 19.581 18.2756C19.4991 18.3829 19.3725 18.4629 19.2599 18.5063C19.1608 18.4833 19.051 18.4855 18.9404 18.4875C18.8138 18.4897 18.6864 18.4921 18.573 18.4571L18.9328 18.7189C18.5566 18.8334 18.164 18.8825 17.7714 18.9316L17.7678 18.9322C17.3764 18.9811 16.985 19.03 16.61 19.1443L15.9227 19.0951C15.7246 19.5243 15.943 19.7787 16.1679 20.0407C16.3891 20.2983 16.6168 20.5633 16.4626 21.0092C16.6543 21.2875 16.8652 21.5358 17.0729 21.7808C17.4151 22.1835 17.7502 22.5781 17.9839 23.0867C18.6616 22.8373 19.0019 22.2542 19.335 21.6833C19.7008 21.0557 20.0582 20.4429 20.8466 20.3057C20.9317 20.2919 21.0199 20.2741 21.1102 20.2543C21.1933 20.236 21.2783 20.216 21.3642 20.1958L21.3702 20.1946C21.8499 20.0818 22.3571 19.9624 22.7604 20.093V20.3057C23.5784 20.1421 24.5437 20.1094 25.247 20.633C26.374 21.6174 26.6907 23.0326 27.0094 24.4564C27.043 24.6072 27.0769 24.7579 27.1117 24.9083C27.1341 25.0066 27.1572 25.1046 27.1808 25.2023C27.2111 25.3265 27.2423 25.4503 27.2754 25.5731C27.3022 25.5984 27.3278 25.6252 27.3525 25.653C27.3853 25.6895 27.4164 25.7278 27.4468 25.7672C27.4851 25.8175 27.5219 25.8696 27.559 25.9217L27.5638 25.9281C27.7024 26.1234 27.8426 26.3209 28.061 26.4401C28.9944 25.9787 29.1046 25.0539 29.214 24.1341C29.252 23.8146 29.2899 23.4955 29.3626 23.1968C29.3838 23.1089 29.4081 23.0226 29.4361 22.9386C29.476 22.8194 29.5239 22.7047 29.5823 22.5959C30.0403 21.6308 30.4166 20.8456 31.3651 20.3384C31.6682 20.2268 32.0177 20.1773 32.3611 20.1787C32.4921 20.1793 32.6219 20.1872 32.7481 20.2018C32.9698 20.2276 33.1795 20.2743 33.3612 20.3384L33.4918 20.0602C33.6423 20.0748 33.8021 20.0848 33.9678 20.095C34.9188 20.1537 36.0494 20.2234 36.551 21.2546C36.9109 21.9906 37.3526 22.5959 38.1214 23.054C38.1781 22.8986 38.2552 22.7565 38.3454 22.6227C38.5068 22.3826 38.7105 22.1696 38.9142 21.9565C39.3511 21.4992 39.7872 21.0425 39.8064 20.322C40.1778 20.1429 40.2481 19.7731 40.3164 19.417L40.3467 19.2637C40.3563 19.2176 40.3667 19.172 40.3787 19.1279C40.0057 19.1812 39.6522 19.1718 39.3071 19.1101C39.0168 19.0582 38.7328 18.9693 38.4485 18.8497C38.3151 18.8338 38.1749 18.8455 38.0343 18.8575C37.9648 18.8633 37.8953 18.8693 37.8262 18.8719C37.7464 18.8749 37.6673 18.8733 37.5902 18.8623C37.4536 18.8429 37.3234 18.7936 37.2052 18.6862C37.4884 18.4737 37.857 18.4402 38.2184 18.4072L38.2232 18.4066C38.361 18.394 38.498 18.3817 38.6286 18.3591C38.5687 18.3271 38.4932 18.3122 38.4065 18.3086C38.2376 18.3018 38.0267 18.3379 37.8083 18.3755C37.218 18.4765 36.5718 18.5871 36.551 17.8846C36.682 17.8475 36.8146 17.8111 36.9472 17.7748L36.9951 17.7616C37.9548 17.4994 38.9337 17.2318 39.7409 16.6086C39.9262 16.5914 40.1063 16.5605 40.2832 16.5189C40.4238 16.486 40.5628 16.4465 40.7002 16.4021C41.0636 16.2847 41.4171 16.1331 41.7745 15.98L41.7781 15.9788C42.239 15.7813 42.7059 15.5814 43.2091 15.4472C43.2378 15.5966 43.2059 15.728 43.1408 15.8538C43.0773 15.9774 42.9822 16.0958 42.8812 16.221C42.7925 16.3312 42.6995 16.4469 42.62 16.5759C43.4871 17.6392 43.4052 19.3733 43.0453 20.6166C43.1428 20.9371 42.991 21.2518 42.8405 21.5641C42.7234 21.8061 42.6072 22.047 42.608 22.2882C42.6084 22.4667 42.6731 22.6454 42.8488 22.825C43.0837 22.9867 43.3225 23.1486 43.5633 23.3118C45.2703 24.468 47.0759 25.6911 48.1654 27.4544C49.0959 28.7054 49.5544 30.2239 50.0189 31.7631L50.0469 31.8549C50.4722 32.3292 51.0445 32.7873 51.7155 32.5582C52.2714 32.4111 52.5989 31.9202 52.7131 31.4296C52.8238 30.6029 52.3361 29.8099 51.8604 29.0361C51.1404 27.8653 50.4474 26.7385 51.8952 25.6058H52.0917ZM43.2091 36.8933C43.269 36.7655 43.2842 36.6241 43.2686 36.4895C43.2506 36.3308 43.1903 36.1816 43.1108 36.0754C41.7202 35.5029 40.199 35.3555 38.5467 35.4046C38.3442 35.5975 38.1414 35.7928 37.9381 35.9889C35.7235 38.122 33.4043 40.3561 30.1382 40.6557C25.4926 41.3592 20.9449 39.527 18.4911 35.83C17.9839 35.2189 17.1919 35.266 16.4079 35.3128C16.2402 35.3227 16.0724 35.3327 15.9083 35.3363C15.7513 35.3397 15.5972 35.3371 15.4482 35.3229C15.1686 35.4627 14.7972 35.5156 14.4238 35.5688C13.6174 35.6838 12.8019 35.8 12.8802 36.7951L12.6885 36.8468L12.4752 36.9029L12.4608 36.9065C11.702 37.1034 10.9292 37.3041 10.3773 37.842C10.2463 38.1857 10.3282 38.5947 10.5406 38.8726C10.8354 39.2163 11.4568 39.5925 11.9313 39.0362C12.0004 38.9587 12.0691 38.8089 12.0782 38.6651C12.0866 38.5357 12.0467 38.4111 11.9149 38.3492C11.7304 38.2789 11.607 38.3454 11.4796 38.4145C11.3693 38.474 11.2559 38.5355 11.097 38.5128C10.9696 38.5128 10.8833 38.4714 10.8334 38.4C10.8214 38.3828 10.8114 38.3638 10.8034 38.3434C10.7958 38.3235 10.7902 38.3019 10.7866 38.2789C10.7799 38.2378 10.7795 38.1923 10.7846 38.1434C10.7882 38.11 10.7942 38.0749 10.8026 38.0383C10.8997 37.8318 11.1141 37.8059 11.3318 37.7793C11.4073 37.7701 11.4836 37.7608 11.5551 37.744C12.2108 37.723 12.2176 38.1398 12.224 38.5677C12.228 38.8121 12.2316 39.0601 12.3566 39.2325L15.2849 38.3656L15.3504 38.2346L14.058 36.7625C13.9917 36.7312 13.9142 36.7242 13.8335 36.726C13.786 36.7272 13.7373 36.7314 13.6893 36.7353C13.5508 36.7473 13.4162 36.7589 13.3255 36.695C13.2772 36.6609 13.2412 36.6053 13.2237 36.5171C13.3359 36.2221 13.6051 36.2165 13.8962 36.2106L13.9577 36.2092L14.0416 36.2062C15.0277 36.7833 15.6643 37.6363 16.3133 38.5062C16.6759 38.9926 17.0425 39.4843 17.4767 39.936C20.4213 43.3385 24.6747 45.1217 29.3366 44.8108C34.9643 44.4182 38.6122 40.7048 41.9822 36.468L42.5381 36.3208C42.8161 36.3697 43.0126 36.5171 43.029 36.7787C42.9559 36.8388 42.8684 36.8697 42.773 36.8851C42.6671 36.9021 42.5517 36.9003 42.4359 36.8985C42.2582 36.8957 42.0792 36.8929 41.9331 36.9588C41.82 37.1709 41.6575 37.3861 41.4993 37.595L41.4922 37.6052C41.3648 37.7733 41.2409 37.9375 41.1475 38.0924C41.0904 38.1871 41.0448 38.2785 41.0169 38.3656L43.8796 39.3635C44.0266 39.2834 44.0813 39.1815 44.0913 39.0685C44.1005 38.9613 44.0697 38.8441 44.0386 38.7257C44.009 38.6132 43.9795 38.4998 43.9835 38.393C43.9871 38.2945 44.0198 38.2015 44.1085 38.1202C44.5175 37.8911 45.0574 37.8093 45.4828 38.1366C45.6641 38.766 45.3558 38.6949 44.9895 38.6104C44.7275 38.5499 44.436 38.4826 44.2722 38.66C44.2067 38.8726 44.2886 39.2652 44.5666 39.3962C45.1229 39.7233 45.6629 39.1508 45.9245 38.8073C46.0762 37.72 45.1421 37.4766 44.2387 37.2412L44.2303 37.2388C44.0334 37.1874 43.8381 37.1367 43.6564 37.0774L43.5534 37.0425L43.4547 37.0057C43.38 36.9762 43.3085 36.9444 43.2414 36.9097L43.2091 36.8933ZM33.876 36.6061C33.9954 36.7513 34.1264 36.8875 34.277 37.0077L34.3197 37.0177C34.4195 37.0415 34.5561 37.0738 34.6775 37.0804C34.8329 37.089 34.9643 37.0558 34.9643 36.9097C34.7554 36.7381 34.5865 36.4314 34.4163 36.1219C34.0669 35.4865 33.7106 34.8389 32.9846 35.3229C33.0968 35.4653 33.1998 35.6181 33.3013 35.774C33.3947 35.9172 33.4866 36.063 33.5828 36.2064C33.6747 36.3436 33.7709 36.4783 33.876 36.6061ZM28.8095 35.7856C29.0994 36.189 29.3858 36.5874 29.9257 36.7461V36.7625L29.9736 36.7599L30.0455 36.7593C30.0983 36.7591 30.1518 36.7589 30.2005 36.7523C30.3123 36.7373 30.4002 36.6896 30.4002 36.5335C30.3023 36.4787 30.2105 36.3973 30.1218 36.2998C29.9904 36.1554 29.867 35.9757 29.7432 35.7954C29.3506 35.2241 28.9532 34.6456 28.2899 35.1592C28.428 35.2856 28.5463 35.429 28.6577 35.5773C28.7092 35.646 28.7595 35.7159 28.8095 35.7856ZM24.102 35.0939L25.4599 36.697H25.4762C25.6887 36.8278 26.1632 36.8769 26.2287 36.5988C25.9894 36.4248 25.7937 36.1281 25.5992 35.8333C25.4287 35.5747 25.259 35.3177 25.0617 35.1466C24.8077 34.9258 24.5081 34.8479 24.102 35.0939ZM22.1063 36.8769C21.8123 36.7244 21.5711 36.4292 21.3375 36.1435C20.8949 35.6017 20.4792 35.0933 19.7835 35.65C19.9931 35.7864 20.194 36.0085 20.3997 36.2359C20.8838 36.7717 21.3942 37.3364 22.1063 36.8769ZM28.5774 34.7261C29.9964 34.6739 31.4398 34.621 32.6902 34.9303C34.4898 34.7339 36.2235 35.1428 37.8758 35.4374C37.5651 35.8084 37.1952 36.184 36.807 36.54C36.4596 36.8592 36.0973 37.1625 35.7495 37.4331C35.5055 37.1701 35.2502 37.2416 34.9843 37.316C34.787 37.3712 34.5841 37.4281 34.3752 37.3514C33.8277 37.2164 33.2593 37.1811 32.6974 37.1461C32.0336 37.105 31.3787 37.0642 30.7764 36.8605C29.887 36.9306 28.9001 36.9334 27.9236 36.936C27.3014 36.9378 26.6836 36.9396 26.0977 36.9588C25.6891 36.9734 25.2745 37.0067 24.8596 37.0457L24.3388 37.0962L24.2142 37.1086C23.8543 37.1441 23.4961 37.1787 23.1427 37.2032C22.7457 37.231 22.3551 37.2464 21.9753 37.2368L20.6014 37.4167C20.1821 37.0636 19.7779 36.5464 19.3833 36.0416L19.3797 36.0374L19.3725 36.0278C19.1856 35.789 19.0011 35.5534 18.8182 35.3393C18.9536 35.383 19.079 35.391 19.2004 35.3769C19.3821 35.3557 19.5546 35.2852 19.7367 35.2107C19.9344 35.1298 20.1437 35.0444 20.3885 35.012C20.5599 34.995 20.7328 34.9767 20.9065 34.9583L20.9101 34.9577C21.9134 34.8517 22.9517 34.742 23.9546 34.8812C25.1815 34.6358 26.6376 34.5867 27.8809 34.7502C28.1073 34.7434 28.3354 34.7351 28.5642 34.7267L28.5774 34.7261ZM14.6794 41.1958C14.3523 41.4902 13.796 41.6373 13.387 41.3757C12.9617 41.1139 12.5363 40.7214 12.7328 40.1488C13.0719 39.9831 13.2824 40.1954 13.4956 40.4104C13.7456 40.6624 13.9993 40.9182 14.4669 40.5742C14.6391 40.533 14.7373 40.4262 14.8008 40.303C14.8639 40.1806 14.8923 40.0422 14.925 39.9362C15.1375 40.3451 15.0229 40.8849 14.6958 41.1794L14.6794 41.1958ZM15.4973 38.4639L12.5855 39.5925L12.3075 39.8052C12.1274 40.5742 12.4221 41.2447 12.9293 41.6373C14.022 42.335 15.0488 41.818 16.0385 41.3194C16.4415 41.1165 16.8384 40.9166 17.2314 40.803L17.2969 40.5906C16.9579 40.3066 16.6911 39.92 16.4267 39.537C16.1427 39.1256 15.862 38.7185 15.4973 38.4475V38.4639ZM41.8672 41.6212C42.2761 41.6701 42.8325 41.7192 43.0941 41.3757V41.3921C43.3724 41.1631 43.6995 40.7377 43.4703 40.3451C43.1244 40.1119 42.9607 40.3094 42.7746 40.5338C42.5821 40.7659 42.3656 41.0267 41.8999 40.8685C41.491 40.7377 41.1311 40.2633 41.3276 39.8543C41.1802 40.1119 41.199 40.3697 41.2174 40.6273C41.2234 40.7132 41.2294 40.799 41.2294 40.8849C41.3767 41.2284 41.5892 41.4902 41.8672 41.6212ZM42.6595 39.3373C43.1847 39.4391 43.8062 39.5594 43.9447 40.1978C44.0266 40.7541 43.8465 41.3594 43.503 41.6537C42.3316 42.6937 41.0988 42.0127 39.9517 41.3795C39.5292 41.1461 39.1182 40.919 38.7264 40.7869L40.6403 38.6602L40.6894 38.6691C41.3136 38.7808 41.9762 38.8992 42.3908 39.2818C42.475 39.3016 42.5657 39.3191 42.6595 39.3373Z" fill="white"/>
</svg>
