<svg width="56" height="57" viewBox="0 0 56 57" fill="none" xmlns="http://www.w3.org/2000/svg">
<path fill-rule="evenodd" clip-rule="evenodd" d="M34.9909 11.7845C35.1155 11.7875 35.2314 11.7905 35.2985 11.835L35.3144 11.8514C35.3692 12.1667 35.1994 12.2218 35.0025 12.2857L34.9526 12.3021C34.9262 12.3111 34.8991 12.3207 34.8727 12.3314C34.8152 12.3546 34.7593 12.3834 34.7094 12.4239L33.139 14.6814L32.7704 14.5688C31.2232 14.0951 29.6644 13.618 27.9371 13.618C27.9007 13.5012 27.8936 13.3756 27.9023 13.2456C27.9139 13.0773 27.9527 12.9014 27.9914 12.7266C28.098 12.244 28.2027 11.7705 27.7242 11.4913C27.4215 11.6427 27.3244 11.844 27.3228 12.0708C27.322 12.1437 27.3316 12.2192 27.3472 12.2965C27.3732 12.4253 27.4163 12.5593 27.4598 12.6945C27.5465 12.9631 27.6352 13.237 27.5932 13.4872L27.0589 13.5643C25.4561 13.7938 23.8718 14.0204 22.4732 14.6978C22.061 14.3795 21.8086 13.9461 21.559 13.5178C21.2443 12.9774 20.9344 12.4451 20.3137 12.1621C20.3093 12.1274 20.2914 12.0822 20.2722 12.0347C20.2191 11.9031 20.1588 11.7531 20.3629 11.7531C20.4799 11.8252 20.5741 11.8466 20.654 11.8354C20.7906 11.816 20.8852 11.7014 20.9831 11.583C21.1389 11.3945 21.3026 11.1964 21.6552 11.3605C21.6976 11.313 21.7192 11.2653 21.7387 11.2228C21.7799 11.1335 21.8106 11.066 21.9987 11.066C22.0554 11.0442 22.097 11.0434 22.1289 11.0564C22.1864 11.0794 22.2132 11.1465 22.2411 11.217C22.2491 11.2373 22.2575 11.2579 22.2667 11.2779L22.2739 11.2925C22.2795 11.3046 22.2863 11.3164 22.2931 11.3278C22.0315 11.6713 21.9823 12.0966 22.2603 12.3584C22.4732 12.6366 22.8821 12.6202 23.0946 12.473C23.3007 12.3987 23.4321 12.2372 23.4928 12.0511C23.5196 11.9696 23.5327 11.8833 23.5323 11.7977C23.5319 11.6912 23.5112 11.5858 23.4708 11.4913L23.4269 11.4522C23.4073 11.4358 23.3874 11.4203 23.3674 11.4053C23.3155 11.3669 23.262 11.3324 23.2104 11.299C23.115 11.2373 23.0259 11.1796 22.964 11.1083C22.8885 11.0215 22.8538 10.9144 22.8985 10.7553C23.0838 10.5624 23.3031 10.6085 23.5044 10.6507C23.746 10.7016 23.9617 10.7469 24.0599 10.3627C24.375 10.548 24.5695 10.4288 24.78 10.2994C24.9409 10.2006 25.1115 10.0961 25.3523 10.1173C25.4997 10.3116 25.3974 10.58 25.296 10.8459C25.1498 11.2296 25.0052 11.6082 25.6139 11.7531C26.1047 11.8676 26.5628 11.6551 26.6938 11.1643C26.7042 11.0339 26.6727 10.9294 26.6195 10.8386C26.5616 10.7391 26.4774 10.6562 26.3935 10.5736C26.189 10.3719 25.9869 10.1722 26.1702 9.74106C26.461 9.59948 26.695 9.68096 26.9127 9.75644C27.1475 9.83811 27.3632 9.913 27.6096 9.69194C27.6931 9.70752 27.7781 9.70332 27.86 9.69913C28.0353 9.69034 28.1963 9.68235 28.2969 9.87186C28.3477 9.8451 28.402 9.81994 28.4595 9.79738C28.5118 9.77701 28.5661 9.75884 28.6224 9.74366C28.8441 9.68415 29.0925 9.67197 29.3273 9.75744C29.416 9.88624 29.4268 10.018 29.3928 10.1504C29.3457 10.3337 29.2135 10.5183 29.0845 10.6978C28.7746 11.1299 28.4858 11.5325 29.4583 11.8186C29.5107 11.8061 29.565 11.7951 29.6197 11.7841C29.827 11.7424 30.041 11.699 30.1876 11.5668C30.2567 11.5045 30.3106 11.4225 30.3418 11.3114C30.3581 11.2661 30.3661 11.2228 30.3673 11.1814C30.3681 11.1407 30.3629 11.1016 30.3525 11.0638C30.3218 10.9518 30.2483 10.8517 30.1776 10.7557C30.0778 10.6201 29.9835 10.4921 30.0231 10.3485C30.0402 10.286 30.083 10.2205 30.1616 10.15C30.206 10.1388 30.2511 10.1329 30.2954 10.1317C30.3893 10.1293 30.4807 10.1484 30.5598 10.1854C30.6633 10.2335 30.7451 10.3118 30.7835 10.4118C31.1174 10.1918 31.3458 10.3695 31.5659 10.5406C31.6501 10.6061 31.7332 10.6706 31.8199 10.7116C31.8678 10.7339 31.9169 10.7493 31.968 10.7539C32.0108 10.7577 32.0551 10.7539 32.1014 10.7405C32.1649 10.7219 32.232 10.6852 32.3047 10.6245C32.3494 10.6245 32.4113 10.6399 32.4681 10.6684C32.5272 10.698 32.5807 10.7419 32.6042 10.798C32.6246 10.8461 32.6226 10.9033 32.5827 10.968C32.5595 11.1625 32.4213 11.2533 32.278 11.348C32.1194 11.4522 31.9541 11.5612 31.9285 11.8186C31.8794 12.1621 32.2392 12.5547 32.5827 12.6202C32.8131 12.6479 33.002 12.5976 33.1582 12.4958C33.2253 12.4521 33.2864 12.3987 33.3419 12.338C33.3866 12.2893 33.4278 12.2358 33.4661 12.1785C33.5759 11.966 33.4693 11.7699 33.3723 11.5918C33.3431 11.5385 33.3151 11.4868 33.294 11.4366C33.2676 11.3745 33.252 11.315 33.2588 11.2581C33.2688 11.1716 33.3299 11.0912 33.4825 11.0171C33.5388 11.0466 33.5903 11.0824 33.6394 11.1207C33.6854 11.1569 33.7289 11.1952 33.7716 11.2331C33.9617 11.4009 34.1407 11.559 34.4642 11.4586C34.4674 11.5443 34.4901 11.607 34.5265 11.6531C34.5572 11.692 34.5975 11.7192 34.6443 11.738C34.7437 11.7783 34.8711 11.7815 34.9909 11.7845ZM22.3422 15.2539V15.1067C25.5157 13.5525 30.1289 13.5198 33.0735 15.2867C30.4396 14.4196 27.3153 13.7652 24.387 14.6978L22.3422 15.2539ZM31.0942 17.626C28.5585 18.0512 25.5975 18.0839 23.3075 17.2171C23.1601 17.0861 23.1601 16.8081 23.2911 16.7426C25.941 15.8264 29.5889 15.7611 32.1737 16.8406C32.2891 17.2792 31.9081 17.384 31.5303 17.488C31.3722 17.5314 31.2144 17.5747 31.0942 17.6422V17.626ZM32.8115 15.6629C29.8018 14.2561 25.6794 14.3379 22.6202 15.6137C22.557 15.7797 22.6233 15.9568 22.696 16.1509C22.7743 16.3592 22.8594 16.5868 22.8003 16.8406C22.5978 17.4755 23.22 17.653 23.756 17.8061L23.8886 17.8445C23.9545 17.8638 24.018 17.8834 24.0763 17.904C26.6443 18.6402 30.2271 18.6566 32.5827 17.3315C32.5383 17.0389 32.6142 16.7372 32.6901 16.4361L32.6913 16.4313C32.7552 16.1779 32.8191 15.9253 32.8115 15.6792V15.6629ZM40.9014 20.6096C40.4101 20.4948 39.8809 20.3714 39.7476 20.832C40.7783 20.8648 41.76 21.1757 42.6594 21.4864L42.7904 21.3392C42.8559 21.2738 42.774 21.0611 42.774 21.0611L41.3834 20.7012C41.3003 20.6939 41.2097 20.6777 41.115 20.6577L41.0324 20.6397L40.9014 20.6096ZM33.2041 23.0568L33.2696 22.9915H33.2532C33.4777 22.7135 33.4857 22.3309 33.4002 21.985C33.3551 21.8015 33.2836 21.6282 33.2041 21.4864C32.9261 21.143 32.4353 20.832 31.8794 20.9139C31.2084 21.0775 30.6034 21.5028 30.2763 22.1408C30.2036 22.387 30.0714 22.6404 29.936 22.8998C29.6129 23.5189 29.2722 24.1712 29.6872 24.84C30.303 24.6114 30.4001 24.0149 30.4987 23.4094C30.5626 23.0178 30.6269 22.6227 30.8322 22.3207C31.1593 21.8954 31.6993 21.601 32.3211 21.7155C32.8934 21.8954 33.1226 22.5825 33.2041 23.0568ZM31.9936 33.6246C32.3375 33.7554 32.8934 33.6573 33.0899 33.3136V33.2973C30.1616 32.1031 29.9651 28.5207 29.9324 25.6416L29.4583 26.0014C29.2127 28.8314 29.4583 32.1359 31.9936 33.6246ZM28.0018 29.4375C27.9898 29.454 27.8033 29.7106 27.7242 29.5838C27.5769 29.2404 27.626 28.7659 27.757 28.4224C28.0649 28.5211 28.0389 28.852 28.0142 29.1629V29.1671C28.0066 29.2615 27.999 29.354 28.0018 29.4375ZM25.663 25.6743C25.7776 28.6351 25.4174 32.0215 22.571 33.3464C22.8494 33.6735 23.3239 33.5918 23.6673 33.5099C26.2353 31.9887 26.3336 28.9624 26.2353 26.0669C26.1998 26.035 26.1638 25.9954 26.1259 25.9537C26.0089 25.8241 25.8735 25.6743 25.663 25.6743ZM24.0575 21.753C24.139 21.7704 24.2173 21.787 24.2888 21.7973C24.9837 22.0975 25.1071 22.7574 25.2281 23.4024C25.3375 23.9873 25.4446 24.5598 25.9737 24.84C26.3859 24.2447 26.0612 23.5774 25.7449 22.9276C25.6091 22.6488 25.4749 22.3732 25.401 22.1081C25.0248 21.3556 24.256 20.8975 23.4381 20.9303C22.833 21.0283 22.3586 21.5192 22.2439 22.0753C22.2603 22.4843 22.3422 22.9587 22.6202 23.0242C22.5383 22.5334 22.7839 22.1244 23.1274 21.8299C23.3862 21.6098 23.7476 21.6869 24.0575 21.753ZM12.9851 21.0938C12.9604 21.143 12.9659 21.2037 12.9823 21.2602C13.0095 21.3544 13.067 21.4373 13.067 21.4373V21.4537C13.9664 21.2083 14.9808 20.963 16.0112 20.8648V20.7831L15.9297 20.5866C15.1609 20.4524 14.4285 20.6733 13.7124 20.8891C13.5722 20.9313 13.4328 20.9734 13.2934 21.0128C13.1904 21.0417 13.0878 21.0691 12.9851 21.0938ZM15.8315 17.6749C15.9789 17.7566 16.3223 17.8221 16.3878 17.6749V17.6586C16.3415 17.5845 16.2373 17.5575 16.1171 17.5481C16.0723 17.5445 16.0252 17.5435 15.9781 17.5433L15.8958 17.5437L15.8315 17.5439V17.6749ZM39.9604 17.5276C39.813 17.3968 39.486 17.5439 39.4205 17.6913V17.7566L39.4748 17.7526C39.6649 17.7386 39.9009 17.7213 39.9604 17.5276ZM51.8695 25.9359C51.6239 26.4267 51.2968 27.3265 51.673 27.9971L51.7876 27.9807C51.8539 28.0658 51.923 28.1523 51.9929 28.2403L52.0576 28.3214C53.0297 29.5377 54.2123 31.0182 53.3908 32.6756C52.9982 33.3136 52.3927 33.8209 51.6403 33.9844C50.9533 34.0825 50.3155 33.7554 49.7592 33.4283C49.6522 33.58 49.73 33.7464 49.8123 33.9219C49.8582 34.0196 49.905 34.12 49.9225 34.2224L49.9257 34.2446C49.9317 34.2883 49.9313 34.3325 49.9229 34.377C47.8454 34.1807 45.7187 34.0499 43.5756 33.9844C43.7066 33.5591 44.0337 33.4119 44.4427 33.33L48.0251 33.6899C47.7184 32.7282 46.8821 32.4556 46.017 32.1736C45.1751 31.899 44.3057 31.6157 43.8699 30.6799C43.5756 30.1402 43.4119 29.453 43.7393 28.8969C43.7945 28.7725 43.8963 28.6599 44.0053 28.5393L44.0664 28.4716C43.5956 28.197 43.0045 28.1293 42.4086 28.061L42.1179 28.0269C41.7656 27.9831 41.4182 27.9272 41.0998 27.8164C40.9221 27.7545 40.7536 27.6754 40.5982 27.5718C39.7292 29.452 38.6772 31.0881 37.5454 32.8484L37.4248 33.0357C37.3373 33.1781 37.3137 33.3718 37.2902 33.5677C37.2426 33.9571 37.1947 34.3552 36.6396 34.377C36.5026 34.4848 36.3552 34.5016 36.207 34.4876C36.1647 34.4836 36.122 34.477 36.0796 34.4695L35.9742 34.4489C35.7094 34.395 35.4594 34.3442 35.2817 34.6552H34.8076C34.6958 34.0663 35.1323 33.9563 35.5932 33.8402C35.8748 33.7693 36.1651 33.6963 36.3452 33.5099C37.245 31.7597 38.1444 29.7965 38.8973 27.9154L39.077 26.9338C38.706 26.7482 38.5466 26.3874 38.3873 26.0256C38.2091 25.6218 38.0302 25.2166 37.5558 25.0527C37.0813 24.4263 36.7099 23.7805 36.3396 23.1365C36.0329 22.6029 35.7266 22.0707 35.3636 21.5519C35.2561 21.4692 35.1443 21.4002 35.0297 21.3442C34.8699 21.2664 34.7046 21.2144 34.5376 21.1879C34.3503 21.1579 34.1606 21.1597 33.9733 21.1921L33.9909 21.3255C34.0895 22.0625 34.2161 23.0083 33.6458 23.5476C33.2532 24.1038 32.5008 24.3492 31.8139 24.3C30.4069 25.5269 30.4887 27.6536 30.8813 29.355C30.9508 29.5331 31.0131 29.7224 31.0766 29.9151L31.0778 29.9193L31.0802 29.9271L31.0814 29.9315C31.3766 30.8305 31.6933 31.7964 32.7788 32.0376C33.4006 32.2341 34.0875 31.7924 34.3332 31.2361C34.4011 30.9929 34.3999 30.6977 34.312 30.4295C34.2521 30.2466 34.1518 30.0765 34.0057 29.9439L33.7277 29.8129C33.6997 29.8618 33.6762 29.9175 33.6546 29.9774C33.6311 30.0437 33.6095 30.1154 33.5879 30.1887C33.4913 30.5138 33.3862 30.868 33.008 30.9254C32.5172 31.0725 32.0918 30.8271 31.8794 30.4836C31.8302 30.3303 31.8155 30.1745 31.8302 30.0252C31.8402 29.9257 31.863 29.8291 31.8973 29.7378C31.9489 29.6006 32.0263 29.4756 32.1246 29.3714C32.4233 29.1447 32.8323 29.0219 33.2333 29.0109C33.4689 29.0045 33.7017 29.0369 33.9078 29.1096C34.5293 29.2895 35.0365 30.0419 35.2002 30.5819C35.6579 32.0868 34.9546 33.5427 33.8751 34.3442C33.008 34.9331 31.7647 34.5569 30.9796 33.968C29.1963 32.185 28.902 29.6493 28.7383 27.032C28.0976 27.3038 28.2806 27.7369 28.4842 28.2184C28.6236 28.5485 28.7726 28.9011 28.6732 29.2404C28.624 29.7965 28.5094 30.4836 27.9694 30.7127C27.4415 30.6662 27.2673 30.1771 27.1252 29.7779L27.1024 29.7148C26.993 29.1112 27.126 28.6327 27.2601 28.1509C27.326 27.9146 27.3919 27.6776 27.4299 27.4246L27.4099 27.3887C27.3364 27.2559 27.2705 27.1356 27.1351 27.0156C27.0908 27.1293 27.0557 27.2479 27.0273 27.3699C26.9794 27.5786 26.9522 27.7974 26.9335 28.0201C26.9195 28.186 26.9103 28.354 26.9015 28.5213C26.8779 28.9622 26.8548 29.3985 26.7425 29.7803C26.3172 31.5142 25.6958 33.5263 24.0108 34.3442C23.3402 34.7041 22.4404 34.606 21.8022 34.279C20.7554 33.3628 20.0845 32.0051 20.5098 30.5491C20.6899 29.8456 21.2954 29.2731 21.9005 29.0441C22.5874 28.8969 23.2747 29.0113 23.7001 29.4694C23.7764 29.5591 23.8331 29.6599 23.8694 29.7664C23.9141 29.8962 23.9289 30.0343 23.9133 30.1711C23.895 30.3315 23.8351 30.49 23.7328 30.6308C23.6126 30.8511 23.3334 30.9427 23.0559 30.9357C22.8797 30.9312 22.7044 30.887 22.571 30.8107C22.1621 30.6144 22.1293 30.2055 22.1293 29.862C21.9768 29.7787 21.8446 29.8073 21.7383 29.8892C21.6764 29.9367 21.6233 30.0022 21.5798 30.0741C21.5215 30.1701 21.4803 30.2776 21.4588 30.3692C21.1972 31.138 21.7044 31.7269 22.3422 31.9887C22.9472 32.1031 23.6346 31.8088 23.9617 31.3179C25.0576 29.4858 25.6467 26.7049 24.4198 24.7581C24.1953 24.2292 23.7117 24.1872 23.2308 24.1453C22.948 24.1205 22.6657 24.096 22.4376 23.9724C22.2619 23.8773 22.1185 23.7235 22.0315 23.4657C21.5898 22.7788 21.7044 21.8954 21.8841 21.1921C21.3278 21.012 20.7882 21.2246 20.3792 21.5192C20.0853 21.9709 19.8265 22.4208 19.5733 22.8617L19.5661 22.8737C19.0337 23.8012 18.5249 24.6874 17.7617 25.4616L17.6962 25.3961C17.6431 25.496 17.5904 25.6048 17.5364 25.7164C17.3252 26.153 17.0927 26.6336 16.7149 26.803C16.7752 28.32 17.4709 29.6088 18.1579 30.8814L18.1591 30.8844C18.5904 31.683 19.0185 32.4754 19.2829 33.3136C19.4455 33.6385 19.8029 33.7226 20.144 33.8027C20.4551 33.8756 20.7519 33.9455 20.8737 34.1925C20.9276 34.3015 20.9471 34.4451 20.9188 34.6388C20.63 34.7169 20.4415 34.6158 20.265 34.5212C20.0717 34.4175 19.8924 34.3213 19.6104 34.4752C18.6707 34.6386 18.5345 33.9924 18.3935 33.3246C18.3088 32.9225 18.2226 32.5127 17.9582 32.2667C16.9438 30.8435 15.9134 29.224 15.2424 27.6045C14.7843 27.8082 14.2452 27.8631 13.6988 27.9188C13.0159 27.9883 12.3213 28.059 11.7582 28.4224C12.1999 28.9624 12.2818 29.633 12.1017 30.271C11.66 31.2525 10.7765 31.7597 9.82802 32.1359C9.63432 32.2253 9.44701 32.2978 9.2621 32.3579C9.04124 32.4296 8.82358 32.4839 8.60113 32.5285L7.73407 33.4446L7.94654 33.5754C8.33793 33.6032 8.75768 33.5411 9.18302 33.4632L9.45979 33.4111L9.46339 33.4105C10.4578 33.2206 11.4523 33.0305 12.1508 33.7717V33.8372L5.90172 34.1971C5.89613 34.0519 5.93247 33.9313 5.98479 33.8219C6.00755 33.7739 6.03351 33.728 6.06067 33.6833L6.10181 33.6162C6.18009 33.4886 6.25677 33.3644 6.27793 33.2156C5.75475 33.5754 4.87132 34.0172 4.03702 33.7717C3.34968 33.5263 2.6955 32.7903 2.46665 32.1195C2.03293 30.8269 2.73863 29.9445 3.41718 29.096C4.1724 28.1517 4.89368 27.2495 3.97152 25.8706C4.45557 25.7971 4.6896 26.1711 4.8865 26.4853L4.95279 26.5903C5.36575 27.7457 4.74591 28.6189 4.16082 29.4435C3.4703 30.4169 2.82769 31.3227 3.98789 32.5448C4.47873 32.9374 5.24753 32.7739 5.70562 32.3485C6.13615 31.8885 6.25078 31.3345 6.36779 30.7676C6.44607 30.3872 6.52595 30.0008 6.70327 29.633C7.53758 27.948 8.73172 26.5412 10.1224 25.1835C10.3572 24.9638 10.6204 24.7813 10.8948 24.6144C11.0833 24.4995 11.277 24.3919 11.4707 24.2845C12.1904 23.8851 12.9048 23.4885 13.3286 22.7297C13.3777 22.1736 13.2303 21.6336 12.8705 21.372C12.9068 20.9445 12.8477 20.4906 12.7878 20.0313C12.6848 19.2423 12.5801 18.4374 12.9524 17.7239L13.4105 16.9551C13.3633 16.8506 13.2878 16.746 13.2088 16.6362C13.0398 16.4021 12.8533 16.1439 12.8869 15.81C13.1149 15.9143 13.3486 16.0063 13.5862 16.091C13.7443 16.1473 13.9041 16.2004 14.065 16.2516C14.2879 16.3224 14.5127 16.3897 14.738 16.457C15.7492 16.7594 16.7644 17.0629 17.6307 17.7077L19.4303 18.2638C19.4686 18.3944 19.4311 18.5106 19.3588 18.6057C19.2769 18.7129 19.1503 18.793 19.0377 18.8363C18.9387 18.8134 18.8288 18.8156 18.7182 18.8176C18.5916 18.8198 18.4642 18.8222 18.3508 18.7872L18.7106 19.049C18.3344 19.1634 17.9418 19.2126 17.5492 19.2617L17.5456 19.2623C17.1542 19.3112 16.7628 19.3601 16.3878 19.4743L15.7005 19.4252C15.5024 19.8544 15.7209 20.1088 15.9457 20.3708C16.167 20.6284 16.3946 20.8933 16.2405 21.3392C16.4322 21.6176 16.643 21.8658 16.8507 22.1109C17.193 22.5136 17.5281 22.9082 17.7617 23.4168C18.4394 23.1674 18.7797 22.5843 19.1128 22.0134C19.4786 21.3858 19.8361 20.7729 20.6245 20.6357C20.7095 20.622 20.7978 20.6042 20.888 20.5844C20.9711 20.5661 21.0562 20.5461 21.142 20.5259L21.148 20.5247C21.6277 20.4119 22.1349 20.2925 22.5383 20.4231V20.6357C23.3562 20.4722 24.3215 20.4394 25.0248 20.963C26.1519 21.9475 26.4686 23.3627 26.7873 24.7865C26.8208 24.9373 26.8548 25.088 26.8895 25.2384C26.9119 25.3366 26.935 25.4347 26.9586 25.5323C26.989 25.6565 27.0201 25.7804 27.0533 25.9032C27.08 25.9285 27.1056 25.9553 27.1303 25.983C27.1631 26.0196 27.1942 26.0579 27.2246 26.0973C27.2629 26.1476 27.2997 26.1997 27.3368 26.2518L27.3416 26.2582C27.4802 26.4535 27.6204 26.651 27.8388 26.7702C28.7722 26.3087 28.8824 25.384 28.9919 24.4642C29.0298 24.1447 29.0677 23.8256 29.1404 23.5269C29.1616 23.439 29.186 23.3527 29.2139 23.2687C29.2538 23.1494 29.3018 23.0348 29.3601 22.926C29.8182 21.9609 30.1944 21.1757 31.1429 20.6685C31.446 20.5569 31.7955 20.5073 32.139 20.5087C32.27 20.5093 32.3998 20.5173 32.526 20.5319C32.7476 20.5577 32.9573 20.6044 33.139 20.6685L33.2696 20.3903C33.4202 20.4049 33.5799 20.4149 33.7457 20.4251C34.6966 20.4838 35.8272 20.5535 36.3289 21.5847C36.6887 22.3207 37.1304 22.926 37.8992 23.3841C37.9559 23.2287 38.033 23.0865 38.1233 22.9527C38.2846 22.7127 38.4883 22.4996 38.692 22.2866C39.1289 21.8293 39.565 21.3726 39.5842 20.6521C39.9556 20.473 40.0259 20.1032 40.0942 19.7471L40.1246 19.5938C40.1341 19.5476 40.1445 19.5021 40.1565 19.458C39.7835 19.5113 39.43 19.5019 39.085 19.4402C38.7946 19.3883 38.5107 19.2994 38.2263 19.1798C38.0929 19.1638 37.9527 19.1756 37.8122 19.1876C37.7427 19.1934 37.6732 19.1994 37.6041 19.202C37.5242 19.205 37.4451 19.2034 37.368 19.1924C37.2315 19.173 37.1013 19.1237 36.983 19.0163C37.2662 18.8038 37.6348 18.7702 37.9963 18.7373L38.0011 18.7367C38.1388 18.7241 38.2758 18.7117 38.4064 18.6892C38.3465 18.6572 38.271 18.6422 38.1844 18.6386C38.0154 18.6319 37.8046 18.668 37.5861 18.7055C36.9958 18.8066 36.3496 18.9172 36.3289 18.2147C36.4599 18.1776 36.5925 18.1412 36.725 18.1049L36.773 18.0917C37.7327 17.8295 38.7116 17.5619 39.5187 16.9387C39.704 16.9215 39.8841 16.8906 40.0611 16.849C40.2016 16.8161 40.3406 16.7765 40.478 16.7322C40.8415 16.6148 41.1949 16.4632 41.5523 16.3101L41.5559 16.3089C42.0168 16.1114 42.4837 15.9115 42.9869 15.7773C43.0157 15.9267 42.9837 16.0581 42.9186 16.1839C42.8551 16.3075 42.7601 16.4259 42.659 16.5511C42.5704 16.6613 42.4773 16.7769 42.3978 16.9059C43.2649 17.9693 43.183 19.7034 42.8232 20.9467C42.9206 21.2672 42.7689 21.5819 42.6183 21.8942C42.5013 22.1362 42.3851 22.377 42.3859 22.6183C42.3863 22.7968 42.451 22.9755 42.6267 23.155C42.8615 23.3168 43.1003 23.4787 43.3412 23.6419C45.0481 24.7981 46.8537 26.0212 47.9432 27.7844C48.8738 29.0355 49.3323 30.5539 49.7967 32.0931L49.8247 32.185C50.25 32.6593 50.8223 33.1174 51.4933 32.8883C52.0492 32.7411 52.3767 32.2503 52.491 31.7597C52.6016 30.9329 52.1139 30.14 51.6383 29.3662C50.9182 28.1954 50.2253 27.0685 51.673 25.9359H51.8695ZM42.9869 37.2234C43.0468 37.0956 43.062 36.9542 43.0464 36.8196C43.0285 36.6609 42.9681 36.5117 42.8887 36.4054C41.498 35.8329 39.9768 35.6856 38.3246 35.7347C38.1221 35.9276 37.9192 36.1229 37.7159 36.319C35.5013 38.4521 33.1821 40.6862 29.916 40.9857C25.2704 41.6892 20.7227 39.8571 18.2689 36.16C17.7617 35.549 16.9697 35.5961 16.1857 35.6428C16.018 35.6528 15.8503 35.6628 15.6861 35.6664C15.5292 35.6698 15.375 35.6672 15.226 35.653C14.9465 35.7928 14.575 35.8457 14.2016 35.8988C13.3953 36.0139 12.5797 36.1301 12.658 37.1251L12.4663 37.1768L12.2531 37.233L12.2387 37.2366C11.4799 37.4335 10.7071 37.6341 10.1551 38.1721C10.0241 38.5158 10.106 38.9247 10.3185 39.2027C10.6132 39.5464 11.2346 39.9226 11.7091 39.3662C11.7782 39.2888 11.8469 39.139 11.8561 38.9952C11.8645 38.8658 11.8245 38.7412 11.6927 38.6793C11.5082 38.609 11.3848 38.6755 11.2574 38.7446C11.1472 38.8041 11.0337 38.8656 10.8748 38.8429C10.7474 38.8429 10.6611 38.8015 10.6112 38.73C10.5992 38.7129 10.5892 38.6939 10.5813 38.6735C10.5737 38.6536 10.5681 38.632 10.5645 38.609C10.5577 38.5679 10.5573 38.5224 10.5625 38.4734C10.5661 38.4401 10.5721 38.4049 10.5805 38.3684C10.6775 38.1619 10.892 38.136 11.1096 38.1094C11.1851 38.1002 11.2614 38.0908 11.3329 38.0741C11.9887 38.0531 11.9955 38.4698 12.0018 38.8978C12.0058 39.1422 12.0094 39.3902 12.1344 39.5625L15.0627 38.6957L15.1282 38.5647L13.8358 37.0926C13.7695 37.0612 13.692 37.0542 13.6113 37.056C13.5638 37.0572 13.5151 37.0614 13.4672 37.0654C13.3286 37.0774 13.194 37.089 13.1033 37.0251C13.055 36.9909 13.0191 36.9354 13.0015 36.8472C13.1137 36.5522 13.3829 36.5466 13.674 36.5406L13.7356 36.5392L13.8194 36.5362C14.8055 37.1133 15.4421 37.9664 16.0911 38.8363C16.4537 39.3227 16.8204 39.8144 17.2545 40.2661C20.1991 43.6686 24.4525 45.4518 29.1145 45.1409C34.7421 44.7483 38.3901 41.0349 41.76 36.798L42.316 36.6509C42.5939 36.6998 42.7904 36.8472 42.8068 37.1088C42.7337 37.1689 42.6462 37.1998 42.5508 37.2152C42.445 37.2322 42.3295 37.2304 42.2137 37.2286C42.036 37.2258 41.8571 37.223 41.7109 37.2889C41.5979 37.5009 41.4353 37.7162 41.2772 37.9251L41.27 37.9353C41.1426 38.1034 41.0188 38.2676 40.9253 38.4225C40.8682 38.5172 40.8227 38.6086 40.7947 38.6957L43.6575 39.6935C43.8044 39.6135 43.8592 39.5116 43.8691 39.3986C43.8783 39.2914 43.8476 39.1741 43.8164 39.0557C43.7869 38.9433 43.7573 38.8299 43.7613 38.723C43.7649 38.6246 43.7977 38.5315 43.8863 38.4503C44.2953 38.2212 44.8352 38.1394 45.2606 38.4666C45.4419 39.0961 45.1336 39.025 44.7674 38.9405C44.5054 38.88 44.2138 38.8127 44.0501 38.99C43.9846 39.2027 44.0664 39.5953 44.3444 39.7263C44.9007 40.0534 45.4407 39.4809 45.7023 39.1374C45.8541 38.0501 44.9199 37.8067 44.0165 37.5712L44.0081 37.5688C43.8112 37.5175 43.6159 37.4668 43.4342 37.4075L43.3312 37.3725L43.2325 37.3358C43.1579 37.3062 43.0864 37.2745 43.0193 37.2398L42.9869 37.2234ZM33.6538 36.9362C33.7732 37.0814 33.9042 37.2176 34.0548 37.3378L34.0975 37.3478C34.1974 37.3715 34.334 37.4039 34.4554 37.4105C34.6107 37.4191 34.7421 37.3859 34.7421 37.2398C34.5332 37.0682 34.3643 36.7615 34.1942 36.452C33.8447 35.8166 33.4885 35.169 32.7624 35.653C32.8746 35.7954 32.9777 35.9482 33.0791 36.1041C33.1726 36.2473 33.2644 36.3931 33.3607 36.5364C33.4525 36.6736 33.5488 36.8084 33.6538 36.9362ZM28.5873 36.1157C28.8772 36.5191 29.1636 36.9175 29.7036 37.0762V37.0926L29.7515 37.09L29.8234 37.0894C29.8761 37.0892 29.9296 37.089 29.9783 37.0824C30.0902 37.0674 30.178 37.0197 30.178 36.8635C30.0802 36.8088 29.9883 36.7273 29.8996 36.6299C29.7683 36.4855 29.6448 36.3058 29.521 36.1255C29.1284 35.5542 28.7311 34.9757 28.0677 35.4893C28.2059 35.6157 28.3241 35.7591 28.4355 35.9074C28.487 35.9761 28.5374 36.046 28.5873 36.1157ZM23.8798 35.424L25.2377 37.0271H25.2541C25.4665 37.1579 25.941 37.207 26.0065 36.9288C25.7673 36.7549 25.5716 36.4582 25.3771 36.1634C25.2065 35.9048 25.0368 35.6478 24.8395 35.4767C24.5855 35.2558 24.286 35.178 23.8798 35.424ZM21.8841 37.207C21.5902 37.0544 21.3489 36.7593 21.1153 36.4735C20.6728 35.9318 20.257 35.4234 19.5613 35.9801C19.771 36.1165 19.9719 36.3386 20.1775 36.566C20.6616 37.1018 21.172 37.6665 21.8841 37.207ZM28.3552 35.0561C29.7742 35.004 31.2176 34.9511 32.4681 35.2604C34.2677 35.0639 36.0014 35.4729 37.6536 35.7674C37.3429 36.1385 36.9731 36.5141 36.5849 36.8701C36.2374 37.1892 35.8752 37.4926 35.5273 37.7631C35.2833 37.5001 35.0281 37.5716 34.7621 37.6461C34.5648 37.7012 34.3619 37.7581 34.153 37.6815C33.6055 37.5465 33.0372 37.5111 32.4752 37.4762C31.8115 37.435 31.1565 37.3943 30.5542 37.1906C29.6648 37.2607 28.6779 37.2635 27.7015 37.2661C27.0792 37.2679 26.4614 37.2697 25.8755 37.2889C25.4669 37.3035 25.0524 37.3368 24.6374 37.3757L24.1166 37.4263L23.992 37.4386C23.6322 37.4742 23.2739 37.5087 22.9205 37.5333C22.5235 37.5611 22.1329 37.5764 21.7531 37.5668L20.3792 37.7468C19.9599 37.3937 19.5557 36.8765 19.1611 36.3717L19.1575 36.3675L19.1503 36.3579C18.9634 36.1191 18.7789 35.8835 18.596 35.6694C18.7314 35.7131 18.8568 35.7211 18.9782 35.7069C19.1599 35.6858 19.3325 35.6153 19.5146 35.5408C19.7123 35.4599 19.9215 35.3744 20.1664 35.3421C20.3377 35.3251 20.5106 35.3068 20.6844 35.2884L20.688 35.2878C21.6912 35.1817 22.7296 35.0721 23.7324 35.2113C24.9593 34.9659 26.4155 34.9168 27.6587 35.0803C27.8852 35.0735 28.1132 35.0651 28.3421 35.0567L28.3552 35.0561ZM14.4572 41.5259C14.1301 41.8202 13.5738 41.9674 13.1648 41.7058C12.7395 41.444 12.3142 41.0514 12.5107 40.4789C12.8497 40.3132 13.0602 40.5254 13.2735 40.7405C13.5235 40.9925 13.7771 41.2483 14.2448 40.9043C14.4169 40.8631 14.5151 40.7563 14.5786 40.6331C14.6417 40.5107 14.6701 40.3723 14.7028 40.2663C14.9153 40.6752 14.8007 41.215 14.4736 41.5095L14.4572 41.5259ZM15.2752 38.7939L12.3633 39.9226L12.0853 40.1353C11.9052 40.9043 12.1999 41.5748 12.7071 41.9674C13.7999 42.6651 14.8267 42.1481 15.8163 41.6495C16.2193 41.4466 16.6163 41.2467 17.0093 41.1331L17.0748 40.9206C16.7357 40.6367 16.4689 40.2501 16.2045 39.8671C15.9206 39.4557 15.6398 39.0485 15.2752 38.7776V38.7939ZM41.645 41.9512C42.054 42.0002 42.6103 42.0493 42.8719 41.7058V41.7222C43.1503 41.4931 43.4774 41.0678 43.2481 40.6752C42.9023 40.442 42.7385 40.6395 42.5524 40.8639C42.3599 41.096 42.1434 41.3568 41.6778 41.1986C41.2688 41.0678 40.9089 40.5933 41.1054 40.1844C40.9581 40.442 40.9768 40.6998 40.9952 40.9574C41.0012 41.0432 41.0072 41.1291 41.0072 41.215C41.1546 41.5584 41.367 41.8202 41.645 41.9512ZM42.4374 39.6674C42.9626 39.7692 43.584 39.8894 43.7226 40.5278C43.8044 41.0842 43.6243 41.6894 43.2809 41.9838C42.1095 43.0238 40.8766 42.3428 39.7296 41.7096C39.307 41.4762 38.8961 41.2491 38.5043 41.1169L40.4181 38.9902L40.4672 38.9992C41.0915 39.1108 41.754 39.2293 42.1686 39.6119C42.2529 39.6316 42.3435 39.6492 42.4374 39.6674Z" fill="white"/>
</svg>
