<svg width="17" height="17" viewBox="0 0 17 17" fill="none" xmlns="http://www.w3.org/2000/svg">
<path fill-rule="evenodd" clip-rule="evenodd" d="M7.82632 4.11798H8.64509C9.00648 6.26503 10.9275 8.04558 13.0221 8.50259V9.31098C10.9481 9.74072 8.99089 11.5991 8.64596 13.718H7.82412C7.45207 11.5849 5.523 9.75277 3.42212 9.31049V8.50562C5.54556 7.99824 7.41425 6.30191 7.82632 4.11798ZM8.13451 4.49333C7.66593 6.55273 5.79367 8.2632 3.79747 8.7997V9.00878C5.78455 9.50304 7.69578 11.3399 8.13611 13.3426H8.3307C8.76301 11.3066 10.6723 9.50642 12.6468 9.00881V8.80234C10.6632 8.30128 8.76381 6.50489 8.33132 4.49333H8.13451Z" fill="#A18D61"/>
</svg>
