<svg width="73" height="73" viewBox="0 0 73 73" fill="none" xmlns="http://www.w3.org/2000/svg">
<path fill-rule="evenodd" clip-rule="evenodd" d="M58.2924 29.858C58.5612 31.4466 58.7566 33.072 58.83 34.7584V34.7829C58.8429 35.0612 58.8617 35.347 58.8807 35.6361C58.9162 36.1721 58.9523 36.7194 58.9523 37.2512C58.9768 38.1922 58.9279 39.0965 58.8667 40.0131C58.708 42.5305 58.2924 45.0235 57.5958 47.2965C57.3711 48.0207 57.1575 48.7336 56.9284 49.4428C56.8212 49.7747 56.7106 50.1059 56.5939 50.437C56.1905 51.5736 55.6651 52.6733 55.1028 53.7487C54.1376 55.6062 53.0254 57.3783 51.6935 59.0524C50.0804 61.0566 47.9907 62.8162 45.9011 64.1117C43.469 65.627 40.3286 66.8001 37.2123 66.8978C35.9903 66.9345 34.7683 66.8733 33.6074 66.7267C32.7643 66.6168 31.9331 66.3846 31.1388 66.1524C28.267 65.3092 25.4684 63.6473 23.2568 61.5087C22.829 61.0931 22.3525 60.6655 21.9369 60.2255C21.4846 59.7122 21.0448 59.1868 20.5925 58.6735C18.894 56.6694 17.6598 54.2253 16.5356 51.9279C15.6799 50.1927 15.1056 48.2373 14.6047 46.331C12.283 37.4713 13.4438 27.0351 17.5252 19.6418C19.2607 16.5011 21.436 13.6539 24.3443 11.2587C25.0409 10.6965 25.7495 10.1466 26.5195 9.70671C26.6672 9.62198 26.8137 9.5368 26.9599 9.45192C27.8057 8.96054 28.6369 8.47766 29.5746 8.1547C29.7124 8.10652 29.85 8.05759 29.9875 8.00866C30.6176 7.78445 31.2486 7.5598 31.9208 7.40928C32.2019 7.33589 32.4829 7.23818 32.8006 7.23818C32.923 7.16478 33.1062 7.15255 33.2652 7.15255C33.3508 7.12823 33.4361 7.116 33.5218 7.10377L33.8517 7.06707L34.145 7.03038C34.2688 6.98279 34.4228 6.98712 34.5713 6.99129C34.6131 6.99249 34.6546 6.99368 34.6949 6.99368C34.8118 6.98145 34.9318 6.96608 35.0517 6.95072C35.1701 6.9355 35.2886 6.92029 35.4037 6.9082C35.7459 6.99368 36.2224 6.9449 36.6135 6.9449C37.1756 6.9449 37.6766 6.9816 38.2022 7.04261C40.0598 7.25041 41.8316 7.73925 43.4326 8.43575C48.7482 10.7576 52.9033 15.3036 55.4083 20.4483C56.5572 22.8069 57.2536 25.3364 57.9257 27.9394C58.0481 28.5871 58.1701 29.2226 58.2924 29.858ZM50.6252 15.3353C50.3555 15.001 50.0822 14.6627 49.7626 14.3626L49.7382 14.2893C48.7605 13.3728 47.6363 12.5173 46.4754 11.9552C44.7889 11.1364 42.9803 10.7699 40.8662 10.7699C40.7382 10.7821 40.6132 10.7973 40.4882 10.8125C40.3626 10.8278 40.237 10.8431 40.1084 10.8553C39.6075 10.9165 39.131 11.0387 38.6542 11.1609C37.0533 11.5763 34.8416 12.7129 34.0105 14.2893C33.3753 15.4991 33.1796 17.0022 33.9618 18.212C34.0227 18.322 34.1817 18.603 34.3282 18.603V18.5665C34.8783 18.1265 35.3793 17.7721 36.0881 17.6255C37.1022 17.4299 37.9943 18.2732 37.4444 19.2262C37.0533 19.9229 36.0025 20.094 35.2203 19.9229C35.0615 19.8862 34.5973 19.7273 34.4505 19.8007C34.2551 19.8984 34.0961 20.2284 33.9863 20.3995C33.3019 21.4749 32.923 22.7212 32.6052 23.9677C32.5811 24.0702 32.5539 24.1755 32.5268 24.281C32.499 24.3895 32.4713 24.4979 32.4465 24.6032C33.5951 25.4098 34.5973 25.7398 36.1735 25.7398C36.5401 23.3812 37.9821 20.5217 40.1451 19.2752L40.2197 19.2285C40.4542 19.0804 40.834 18.8406 41.0861 18.9941C41.3794 19.153 41.294 19.5685 41.0861 19.7518C40.9065 19.909 40.7111 20.0483 40.5144 20.1884C40.2835 20.3531 40.0508 20.5191 39.8396 20.7172C38.7766 21.6825 38.1044 23.0024 37.7744 24.3466C37.6766 24.7132 37.4811 25.1288 37.4811 25.5198C37.9212 25.4708 38.3243 25.2632 38.6909 25.0798L38.7482 25.0503C39.0848 24.8765 39.429 24.6987 39.7298 24.4444C40.2307 24.0167 40.5607 23.4911 40.8907 22.9657C41.5139 21.9758 42.0638 20.9494 42.2836 19.764C42.4182 19.0064 42.3203 18.1143 42.1127 17.4299C41.905 16.7822 41.4038 16.1834 40.854 15.719C40.072 15.047 39.0821 14.6314 37.9457 14.8759L37.579 15.0225C37.5536 15.0395 37.5181 15.0725 37.4793 15.1084C37.406 15.1763 37.3215 15.2546 37.2735 15.2546V15.3403C37.7622 15.438 37.9212 16.0857 37.6524 16.4889C37.3469 16.9411 36.6502 16.8433 36.3447 16.4524C35.5502 15.4502 37.2857 14.3381 38.1533 14.3381L38.4466 14.3016C38.5707 14.2394 38.8001 14.2826 38.9565 14.312L39.0331 14.3259C39.3321 14.3685 39.6218 14.4357 39.8948 14.5346C40.1687 14.6339 40.4258 14.7655 40.6585 14.9369C40.8173 15.047 41.7949 15.9268 41.8806 15.9268C41.4038 14.717 40.683 11.7352 42.846 11.7352C43.2736 11.7352 43.6769 11.8697 43.909 12.2118C44.4222 12.9572 43.8357 14.1305 42.858 13.9227C42.4549 13.8372 42.1127 13.495 42.1127 13.0673L42.1395 12.8759L42.1861 12.5295C42.1249 12.5295 42.1005 12.4928 42.1005 12.5662C41.4005 13.029 42.0366 14.7816 42.2643 15.409L42.2836 15.4624C42.3344 15.6335 42.3851 15.8079 42.4358 15.9822L42.5769 16.4644C42.8093 17.32 42.9803 18.212 42.9803 19.1775C42.9803 19.9839 42.846 20.6316 42.6381 21.316C42.6258 21.3648 42.5525 21.5359 42.6014 21.5726L42.6688 21.5543C42.6903 21.5481 42.7115 21.542 42.7359 21.5359C43.2369 21.1816 43.6892 20.6683 44.1779 20.3016C45.2412 19.5074 46.4265 18.8108 47.6852 18.3954C47.9006 18.3234 48.1366 18.2339 48.3804 18.1614C48.634 18.086 48.8959 18.0287 49.1516 18.0287C49.5428 17.8576 50.5201 18.0409 50.3003 18.603C50.1281 19.0378 49.5263 19.5128 49.0373 19.8989C48.8667 20.0336 48.7098 20.1575 48.5895 20.2651C48.3425 20.4829 48.1128 20.7095 47.8875 20.9395C47.7339 21.0964 47.5823 21.2552 47.4287 21.4137C47.2085 21.6215 46.9886 21.8414 46.7687 22.0492C45.0455 23.87 43.5546 25.7886 42.3081 27.8539C42.0253 28.3139 41.7932 28.8059 41.5616 29.2976C41.4733 29.4851 41.385 29.6725 41.294 29.858C40.8892 30.677 40.5881 31.5437 40.2752 32.407C40.2006 32.6128 40.1251 32.8184 40.0475 33.0231C40.0034 33.1745 39.9559 33.3292 39.9085 33.4837C39.864 33.6286 39.8199 33.7733 39.7787 33.9151C39.7623 33.9536 39.7235 34.0586 39.6937 34.1626C39.657 34.2901 39.6337 34.4162 39.6809 34.4162V34.3795C39.7301 34.3242 39.779 34.2658 39.8282 34.2075C39.8769 34.1498 39.9255 34.092 39.9741 34.0373C40.2552 33.7562 40.5851 33.5486 40.9396 33.402C42.0026 32.9741 43.1026 33.6952 43.0292 34.8439C42.9314 36.457 40.4628 36.2859 40.6341 35.015C40.6463 34.9538 40.6218 34.9295 40.6952 34.9295C40.7439 34.9783 40.7806 35.015 40.8662 35.015C41.0649 34.9698 41.1302 34.7441 41.0518 34.5752C41.024 34.5158 40.9787 34.4635 40.9151 34.4284C40.5851 34.2451 40.3286 34.4894 40.1451 34.7217C39.5096 35.5038 39.3264 36.6892 39.2286 37.7401C39.131 38.7788 39.1799 39.9153 39.2897 40.9296C39.2945 40.981 39.2984 41.0339 39.3023 41.0873C39.3184 41.3133 39.3354 41.5507 39.4243 41.7484C39.461 41.8461 39.5585 41.895 39.6686 41.895C39.8029 41.8096 39.9986 41.8096 40.1695 41.8096C40.2021 41.8055 40.2346 41.8 40.2671 41.7946C40.3324 41.7838 40.3978 41.7729 40.4628 41.7729H40.8417C41.4772 41.7851 42.0515 41.895 42.6014 42.0661C45.0332 42.836 46.6219 45.5611 46.8176 48.0664C46.8469 48.3747 46.8409 48.6832 46.8156 48.9836C46.7988 49.1832 46.7735 49.3792 46.7442 49.5694C46.6953 49.7528 46.6586 49.936 46.6219 50.1193H46.6586V50.1682H47.2452C47.3308 50.1438 47.4164 50.1315 47.5018 50.1193C47.5695 50.1036 47.6396 50.0859 47.7109 50.0677C47.8067 50.0432 47.9048 50.0182 48.003 49.9971C48.1775 49.9534 48.3517 49.9003 48.5227 49.8393C48.6874 49.7807 48.8491 49.7146 49.0048 49.6427C50.6669 48.8363 52.0599 47.4309 52.952 45.8177C53.3798 45.0478 54.0397 43.7281 53.7709 42.7504C53.722 42.5793 53.6242 42.4206 53.441 42.3961C53.1471 42.3529 53.0979 42.6331 53.068 42.8013C53.0558 42.8711 53.0468 42.9215 53.0254 42.9215V42.9704C52.341 42.8848 52.0232 42.0784 52.4266 41.5284C52.781 41.0152 53.5508 41.0885 53.9052 41.5284C53.9153 41.5409 53.9279 41.5549 53.9416 41.5703C53.9947 41.6297 54.0642 41.7074 54.0642 41.7851H54.1498C54.4431 39.4754 53.4532 37.0924 51.6935 35.7726C51.6067 35.7095 51.5235 35.646 51.4414 35.5833C51.1419 35.3548 50.8603 35.1397 50.4957 35.015C49.7259 34.7339 48.6993 34.7584 47.8684 34.9295C47.6539 34.9674 47.446 35.0378 47.2446 35.1222C47.0557 35.2014 46.8725 35.293 46.6953 35.3816C46.3752 35.5384 46.0724 35.8002 45.8131 36.0977C45.5878 36.3564 45.3954 36.642 45.2534 36.9092C44.3246 38.6322 44.4711 40.673 45.9497 42.0172C46.3164 42.3472 46.6953 42.616 47.1595 42.7749C47.6118 42.946 48.1128 42.946 48.6626 42.946C48.7978 42.8696 48.9469 42.8242 49.0967 42.7787C49.2587 42.7297 49.421 42.6804 49.5672 42.5915C50.5324 42.0172 51.1189 40.6363 50.4837 39.6221C50.2146 39.1822 49.5061 38.6199 48.9804 39.0355C48.895 39.0965 48.7972 39.1944 48.7972 39.3043C49.9458 39.451 49.677 42.0906 47.7828 41.0762C46.6953 40.4774 47.8929 38.3389 48.9317 38.3389C49.2128 38.2045 49.6892 38.3756 49.9336 38.4733C50.447 38.6566 50.777 39.06 51.0336 39.5364C51.2412 39.9276 51.3024 40.4407 51.2412 40.9296C51.0091 42.4816 49.6648 43.4958 48.0883 43.5203C47.8195 43.5325 47.5507 43.5325 47.3063 43.4593C47.1231 43.4009 46.9567 43.3141 46.7881 43.226C46.7093 43.1849 46.6303 43.1436 46.5485 43.1048C44.1901 41.895 43.5179 38.9011 44.7644 36.5792C44.8814 36.3567 45.0234 36.1493 45.1842 35.9536C45.3763 35.7195 45.5947 35.5023 45.8277 35.296C46.4143 34.7584 47.4528 34.3063 48.3085 34.3063C48.4183 34.2818 48.5284 34.2696 48.6385 34.2573C48.7656 34.1938 48.9601 34.2044 49.1367 34.2141C49.1979 34.2173 49.2569 34.2206 49.3103 34.2206V34.1718C49.3593 34.1718 49.3593 34.1352 49.3593 34.1352H49.3103C49.2322 34.0612 49.1471 33.9996 49.0588 33.9444C48.8849 33.8356 48.6987 33.7518 48.5284 33.6463C48.2718 33.4752 47.844 33.1697 47.5507 33.1085C47.3553 33.072 47.1109 33.1208 46.9274 33.1452C46.7991 33.1513 46.6738 33.1604 46.5485 33.1697C46.4232 33.1789 46.2982 33.188 46.1699 33.1942C44.9234 33.2309 43.7503 32.6564 42.9681 31.7643C42.6014 31.3489 42.3081 30.8113 42.2228 30.2612C42.0638 29.3325 42.6258 28.3672 43.457 28.0982C44.2268 27.8539 44.9601 28.697 44.4711 29.3692C44.2757 29.638 43.8357 29.7114 43.5546 29.5403C43.469 29.4791 43.3592 29.3447 43.2491 29.3447C42.4549 30.5057 44.0922 31.85 45.0088 32.2287C45.2224 32.3222 45.4542 32.3792 45.7003 32.4116C45.905 32.4386 46.1192 32.4487 46.3409 32.4487C46.3776 32.4365 46.4632 32.412 46.4632 32.412V32.3631C45.6198 31.7399 44.7522 29.8336 46.0843 29.2226C46.3531 29.1004 46.6586 29.027 46.9641 29.1248C47.4773 29.2958 47.7706 29.8825 47.4528 30.3957C47.2329 30.7623 46.2919 30.8723 46.2919 30.3224C46.269 30.3224 46.2594 30.3251 46.2558 30.3229C46.2517 30.3203 46.2553 30.3115 46.2553 30.2857C45.4977 30.6889 46.9519 32.3021 47.4651 32.2532C48.003 32.2042 48.5773 31.911 49.0293 31.6422C51.0458 30.4324 52.3046 28.4037 52.9642 26.2652C53.1396 25.7162 53.2366 25.1561 53.341 24.5528L53.3553 24.4688C53.3917 24.2152 53.4281 23.9495 53.4645 23.6839L53.4654 23.6745H53.3798C53.1477 24.2 52.6223 24.6889 52.0721 24.8233C51.0091 25.0798 50.288 24.1633 50.5079 23.1856C50.6547 22.5258 51.6324 22.0737 52.0599 22.7824C52.2977 23.1713 52.0686 23.4243 51.8878 23.624C51.7616 23.7634 51.6589 23.8768 51.7544 23.9922C51.8033 24.0778 51.9012 24.0778 51.9991 24.0778C52.4021 24.0411 52.6709 23.6257 52.8177 23.3079C54.0153 20.705 52.4021 17.4788 50.8379 15.5968C50.7666 15.5105 50.6959 15.4231 50.6252 15.3353ZM41.3916 54.9707L42.2714 54.6775H42.2959C43.2369 54.2865 44.0069 53.6143 44.7277 52.8444C45.1555 52.38 45.4733 51.7812 45.6932 51.2192C45.7176 51.1702 45.7054 51.097 45.7788 51.097V50.9748C44.9724 50.9503 44.2635 50.7303 43.5913 50.486C42.7849 50.1927 41.9904 49.8505 41.3063 49.3249C40.1573 48.4574 39.2408 47.1619 38.7032 45.9033C38.5444 45.5244 38.3854 45.1457 38.2389 44.7668C38.1166 44.4003 38.0677 43.838 37.8111 43.557C37.5545 43.9602 37.249 44.2657 37.0655 44.6935C36.2713 46.4654 37.2246 48.2373 38.312 49.5205L39.0454 50.2537C39.1104 50.3079 39.2318 50.3941 39.3727 50.494C39.7086 50.7321 40.1546 51.0484 40.2062 51.1947V51.2314C40.1976 51.2484 40.1833 51.2714 40.171 51.292L40.1573 51.3169C39.9479 51.4367 39.7429 51.5609 39.5397 51.6843C39.4111 51.7623 39.2835 51.8399 39.1555 51.9157C38.7766 52.1479 36.4668 53.8221 36.4668 54.2008C36.649 54.292 36.82 54.4055 36.9987 54.5071C37.0837 54.5556 37.1706 54.6014 37.2613 54.6409C38.1288 55.0197 39.1188 55.203 40.1818 55.203L40.5607 55.1663C40.6585 55.1418 40.7561 55.1296 40.854 55.1174C41.0371 55.0686 41.2206 55.0197 41.3916 54.9707ZM37.6431 29.5128C37.525 29.6737 37.397 29.8476 37.3588 30.0291L37.371 30.0414C37.3436 30.1574 37.3361 30.2859 37.3382 30.4156C37.3409 30.5727 37.3579 30.7317 37.371 30.8723C37.3955 31.1655 37.4077 31.4588 37.42 31.7521C37.5423 33.3286 37.7744 34.8194 38.0188 36.3225L38.1288 36.8236L38.2389 37.3246C38.2876 37.4713 38.3365 37.6301 38.3854 37.789H38.4221C38.4221 37.4959 38.4869 37.2222 38.5501 36.9538C38.574 36.8528 38.5976 36.7527 38.6175 36.6525C38.6856 36.3493 38.7506 36.0462 38.8156 35.7431C38.8792 35.4474 38.9424 35.1518 39.0087 34.8561C39.1036 34.4772 39.2238 34.1238 39.3464 33.7695C39.4135 33.5753 39.4816 33.3809 39.5463 33.1819C40.3408 30.8233 41.3427 28.6115 42.687 26.5341C43.0593 25.961 43.46 25.4137 43.8741 24.8726C44.3166 24.2946 44.7746 23.7238 45.2289 23.1368C45.9375 22.2081 46.8054 21.3526 47.6485 20.5339C47.7491 20.4366 47.8583 20.3377 47.9699 20.2368C48.2927 19.9447 48.634 19.6356 48.8339 19.2996C48.8473 19.2728 48.8497 19.257 48.8592 19.2482C48.867 19.241 48.8795 19.2385 48.9073 19.2385V19.153C48.8577 19.1333 48.8082 19.1215 48.7656 19.1112L48.736 19.1041C48.6313 19.1287 48.5266 19.1503 48.4216 19.172C48.3186 19.1931 48.2157 19.2143 48.1128 19.2385C47.6118 19.3729 47.1109 19.5562 46.6586 19.7885C43.457 21.377 40.9518 24.7011 38.9964 27.5851C38.5808 28.1839 38.1288 28.7582 37.7377 29.3814C37.7085 29.4241 37.6763 29.4679 37.6431 29.5128ZM37.3281 26.6966C37.275 27.0758 37.221 27.465 37.2735 27.8416H37.2979C37.2979 27.8906 37.2979 27.9271 37.3588 27.9271C37.579 27.414 38.1655 26.7907 38.52 26.3263C38.5931 26.2286 38.8622 25.9231 38.8622 25.8253C38.8377 25.813 38.801 25.8008 38.7766 25.7886C38.5274 25.9362 38.2434 26.0004 37.9612 26.0702C37.8699 26.0929 37.7786 26.1162 37.6888 26.143C37.5826 26.1785 37.4877 26.214 37.3931 26.2494L37.3833 26.2529C37.3696 26.3984 37.349 26.5467 37.3281 26.6966ZM43.5791 49.2762C44.2757 49.6427 44.9357 49.9237 45.7543 50.0583L45.7421 50.0338C45.7636 50.0446 45.8229 50.0625 45.8826 50.0717C45.9587 50.0836 46.0354 50.0817 46.0354 50.0338C46.3286 49.4473 46.3042 48.1396 46.1822 47.4797C45.7176 44.9868 44.2879 42.9827 41.7216 42.4449C41.3671 42.3839 40.9885 42.3839 40.6341 42.3839C40.402 42.4694 39.7542 42.4206 39.6197 42.6405C39.5096 42.7993 39.7176 43.4593 39.7542 43.6426C40.2062 45.7445 41.5751 48.1885 43.5791 49.2762ZM35.9658 29.7602C36.0148 29.5525 35.9903 29.308 35.9658 29.1004L35.9414 29.0881V28.086C35.9596 27.7988 35.981 27.5117 36.0025 27.2245C36.024 26.9374 36.0455 26.6502 36.0637 26.363C35.1594 26.3263 34.3282 26.2652 33.5585 25.9719C33.1184 25.8008 32.7398 25.5075 32.2997 25.3487C32.1165 25.8008 32.0309 26.3386 31.9575 26.8517C31.7254 28.4037 31.6275 30.0414 31.6275 31.7521C31.6275 32.093 31.6368 32.4305 31.646 32.7635C31.6553 33.0872 31.6642 33.4064 31.6642 33.7196C31.6642 33.7312 31.6633 33.7446 31.6625 33.7586C31.6583 33.8185 31.6538 33.8907 31.7132 33.8907V33.9396C31.982 33.9396 33.0453 34.1474 33.1673 34.0862C33.3994 33.9763 33.7172 33.3041 33.8517 33.072L34.9881 31.2755C35.1269 31.0745 35.2656 30.8696 35.4043 30.6652C35.5099 30.5092 35.6159 30.3536 35.7215 30.2002C35.7477 30.1555 35.7773 30.1118 35.8068 30.0682C35.8736 29.9692 35.9405 29.8706 35.9658 29.7602ZM31.8477 36.347H31.9331C32.0187 36.1271 32.6909 35.235 32.5685 35.0639C32.4716 34.9183 32.1819 34.8652 31.9629 34.8251C31.9059 34.8146 31.8537 34.8051 31.811 34.7949C31.7239 35.1033 31.7648 35.4577 31.8045 35.8017C31.8262 35.9895 31.8477 36.1744 31.8477 36.347ZM35.9763 18.5365C35.6254 18.6582 35.276 18.7793 35.0371 19.1285H35.0126C35.0096 19.1344 35.004 19.1415 34.998 19.149C34.9792 19.1733 34.9565 19.2019 35.0126 19.2019C35.3426 19.434 35.7826 19.4585 36.2346 19.4585C36.479 19.3119 36.7845 19.2874 36.9557 19.0186C37.2123 18.5787 36.6747 18.432 36.3203 18.4076C36.2081 18.4561 36.092 18.4963 35.9763 18.5365ZM18.7711 47.0952C18.6783 47.0824 18.5841 47.0642 18.4784 47.0642L18.4907 47.0275C18.4907 46.9665 18.4662 46.942 18.5396 46.942C18.5763 46.7832 18.6252 46.6243 18.5763 46.4532C18.4784 46.1722 18.0754 46.1477 17.8919 46.3433C17.7821 46.4532 17.7209 46.6365 17.6842 46.7832C17.4766 47.5041 17.6598 48.4084 17.7943 49.0806C17.8182 49.1765 17.8451 49.2723 17.8719 49.3682C17.9 49.4679 17.928 49.5675 17.9531 49.6672C18.0142 49.6672 18.002 49.7161 18.002 49.7161H18.0876V49.6672C18.735 49.2884 19.7005 48.7262 20.5194 48.6774H20.5317C20.6904 48.6162 21.4968 48.5795 21.6803 48.5795C22.5112 48.5795 23.2079 48.7139 23.9409 48.885C24.0322 48.9093 24.1232 48.9366 24.2145 48.9639C24.3067 48.9917 24.3989 49.0194 24.4911 49.0439V49.0072C24.7745 48.6446 25.0051 48.2399 25.2322 47.842L25.2853 47.7486C25.4034 47.5408 25.523 47.333 25.6424 47.1252C25.8814 46.7098 26.1203 46.2943 26.3486 45.8789C26.5118 45.6071 26.675 45.339 26.8382 45.0705C26.9682 44.8561 27.0983 44.6416 27.2284 44.4246C27.4668 43.9908 27.7049 43.554 27.9432 43.1171C28.1816 42.6801 28.4197 42.2434 28.6581 41.8096C28.9039 41.3875 29.1614 40.9678 29.4192 40.5472C29.7509 40.0059 30.0839 39.4635 30.3933 38.9132C30.5768 38.5956 30.7599 38.2656 30.9312 37.9357C30.9703 37.7781 30.9488 37.5952 30.9285 37.4229C30.9175 37.3278 30.9067 37.236 30.9067 37.1535C30.8578 36.3347 30.8089 35.5038 30.7722 34.685C29.8067 34.685 28.7559 35.015 28.1816 35.7359C28.0838 35.8581 27.9614 35.9804 27.9614 36.1515H28.0471C28.1366 36.1217 28.2309 36.1236 28.3183 36.1409C28.3741 36.152 28.4272 36.1691 28.4749 36.1881C28.9514 36.3837 29.1223 36.9335 28.9391 37.4468C28.7315 38.0089 28.0104 38.18 27.485 37.8867C27.155 37.6912 26.9474 37.2757 26.9229 36.9092C26.825 35.4794 28.2547 34.5873 29.3792 34.2206L29.4606 34.1944C29.7393 34.1043 30.0215 34.013 30.3443 34.013C30.4058 34.0007 30.4703 33.9854 30.5347 33.97C30.5985 33.9548 30.6624 33.9396 30.7233 33.9274C30.7722 33.7075 30.7233 33.4507 30.7233 33.2186V31.7155C30.7233 30.8673 30.7928 30.0091 30.8602 29.1769L30.8823 28.9048C30.9312 28.3793 30.9431 27.8783 31.041 27.365C31.0899 27.084 31.1266 26.8029 31.1633 26.5219C31.1776 26.433 31.2167 26.2673 31.263 26.0717C31.3751 25.5957 31.5294 24.9424 31.4688 24.7866C31.4274 24.6626 31.1123 24.3766 30.856 24.1441C30.7331 24.0326 30.6239 23.9334 30.5645 23.87C30.3264 23.6248 30.0985 23.3599 29.8694 23.0934C29.3106 22.4436 28.7434 21.7844 27.9981 21.377C27.5584 21.1449 26.9229 21.1937 26.7394 21.707C26.6782 21.8659 26.7639 22.037 26.6541 22.1836C26.4094 22.5381 25.8473 22.318 25.6275 22.0737C24.7966 21.1449 26.0672 19.9596 27.0327 19.9596C27.3627 19.825 28.0226 20.0328 28.2914 20.1672C28.4137 20.2284 28.9514 20.6194 29.0492 20.5827C29.1345 20.5339 29.0492 20.1185 29.0492 20.0328C28.9758 19.0796 29.1835 18.1876 29.9657 17.7109C30.1716 17.5874 30.3995 17.5084 30.6421 17.496C30.7596 17.49 30.8808 17.4997 31.0043 17.5276C31.1872 17.5643 31.3701 17.649 31.5189 17.7742C31.6189 17.858 31.7033 17.9599 31.7621 18.0776C31.8719 18.322 31.811 18.8108 31.4933 18.8475C31.4163 18.8553 31.3444 18.8242 31.2743 18.7941C31.2328 18.7762 31.192 18.7587 31.1511 18.7496C30.8578 18.6642 30.589 18.8475 30.4789 19.1041C30.2835 19.5318 30.259 20.2162 30.3321 20.7416C30.4911 21.7437 30.9312 22.6725 31.4688 23.4791C31.4852 23.5008 31.5034 23.5292 31.5231 23.5602C31.5923 23.6685 31.6818 23.8089 31.7866 23.8089V23.7601C31.9575 23.2957 32.1288 22.8191 32.2997 22.3425C32.593 21.4627 32.9719 20.5584 33.4728 19.7885C33.4842 19.7716 33.5006 19.7425 33.5203 19.7078C33.5859 19.591 33.6882 19.4096 33.7539 19.4096V19.3241C32.6052 18.4686 32.2386 16.6967 32.422 15.2181C32.4829 14.9491 32.5441 14.6926 32.6052 14.4237L32.6604 14.2526C32.6786 14.1946 32.6968 14.1366 32.7153 14.0815C32.3731 14.1549 32.0554 14.4482 31.7499 14.6071C30.6621 15.1692 29.1957 15.4624 28.0838 14.717C27.9531 14.6278 27.8164 14.5271 27.6911 14.4121C27.5587 14.2905 27.4384 14.153 27.3504 13.9961C26.8128 13.0551 26.9351 11.5031 27.9859 10.9775C28.1694 10.8798 28.3403 10.8064 28.5725 10.8064C28.6402 10.7688 28.7404 10.773 28.8329 10.7845C28.8908 10.7917 28.9457 10.8018 28.9881 10.8064C29.8801 10.9165 30.3443 11.9919 29.7823 12.7251C29.3792 13.2384 28.218 13.0551 28.3893 12.2607C28.3964 12.2431 28.4015 12.2184 28.4069 12.1919C28.4197 12.1271 28.4349 12.0529 28.4871 12.0529V11.9674C27.8394 12.0285 27.6682 12.884 27.9247 13.4216C28.0838 13.7393 28.3403 13.9838 28.6336 14.167C29.0859 14.4482 29.5991 14.4848 30.2101 14.4848C30.3518 14.4309 30.4896 14.3806 30.6281 14.3301C30.7403 14.2889 30.8527 14.2476 30.9676 14.2037C31.5055 13.9594 31.9942 13.6661 32.4951 13.3361C32.9886 13.0146 33.4272 12.6156 33.8777 12.2339C34.1638 11.9915 34.455 11.7561 34.7683 11.552C35.5992 11.0142 36.4181 10.5621 37.3224 10.1711C37.8967 9.92659 38.5689 9.63331 39.253 9.63331C39.3509 9.60885 39.4487 9.59662 39.5463 9.58439C39.6686 9.5723 39.7787 9.56007 39.8885 9.54784C39.9908 9.50681 40.1358 9.50875 40.2668 9.51054L40.3408 9.51114C40.5273 9.43133 40.8167 9.44819 41.0783 9.46326C41.1768 9.46892 41.2713 9.47444 41.3549 9.47444C41.5628 9.38897 41.905 9.44998 42.1494 9.47444C43.3225 9.58439 44.3613 9.76772 45.4121 10.1222C45.6687 10.2443 45.9375 10.3665 46.2066 10.4888C46.0721 10.3422 45.913 10.2688 45.7543 10.1711C45.604 10.0829 45.4557 9.997 45.308 9.91137C45.1072 9.79517 44.9073 9.67971 44.7032 9.56007C42.6503 8.53345 40.5485 7.73925 38.1166 7.47029C37.4811 7.40928 36.809 7.37258 36.149 7.34812H35.3181C35.0371 7.44583 34.6582 7.42151 34.3527 7.44583C33.7783 7.50699 33.2162 7.59261 32.6786 7.70255C30.5156 8.16693 28.5235 8.99783 26.7027 10.1466C20.2139 14.2404 16.4133 21.3283 14.8001 28.4771C14.3114 30.5912 13.9937 32.7542 13.9203 35.1005C13.8836 36.2615 13.8347 37.5812 13.9325 38.7422C14.1646 41.7362 14.5313 44.5957 15.3622 47.2842C15.6922 48.3596 16.0466 49.3861 16.4377 50.437C16.4661 50.5077 16.5129 50.6052 16.5651 50.7138C16.6928 50.9802 16.8533 51.3143 16.8533 51.488H16.9387C16.9631 51.2681 17.0243 51.0481 17.1099 50.8647C17.1341 50.8125 17.1675 50.7603 17.2012 50.7072C17.2704 50.5987 17.342 50.4867 17.342 50.3638C17.3337 50.2283 17.249 50.0813 17.1693 49.9427C17.1338 49.8811 17.0995 49.8212 17.0732 49.7649C16.8656 49.3006 16.6454 48.8363 16.4867 48.3474C15.8145 46.2211 15.8267 43.3249 16.7066 41.3207C16.8656 40.954 17.061 40.5996 17.2931 40.282C17.3534 40.2137 17.4151 40.1454 17.4769 40.0771C17.6028 39.9376 17.7284 39.7981 17.843 39.6588C17.9032 39.5864 17.9635 39.5171 18.0238 39.4478C18.0858 39.3765 18.1479 39.3052 18.2096 39.2309C18.4907 38.9744 18.8329 38.7788 19.1384 38.5711C19.3013 38.4634 19.4782 38.3627 19.6581 38.2604C20.1928 37.9564 20.7522 37.6381 21.0448 37.0801C21.2036 36.7626 21.4237 36.0049 20.8736 35.907C20.3604 35.8216 20.4338 36.628 20.8736 36.628V36.6647H20.8372C20.1528 37.1413 19.1996 36.6769 19.2852 35.7971C19.3705 34.8683 20.3482 34.3306 21.2892 34.5139C22.0956 34.6605 22.6335 35.5161 22.4134 36.3225C22.3814 36.4509 22.3349 36.5661 22.2776 36.6742C22.1607 36.8955 21.9993 37.0867 21.8268 37.3002C21.8149 37.3146 21.7991 37.3357 21.7806 37.3603C21.7057 37.4604 21.5875 37.6179 21.5091 37.6179V37.7034C22.5479 37.7034 23.4277 37.8623 24.21 38.3511C26.3972 39.7075 27.3627 43.2759 25.3464 45.2312C23.6843 46.8321 20.8736 46.3066 20.3237 43.9847C20.1528 43.2637 20.336 42.4938 20.7271 41.944C21.2525 41.2106 22.4501 40.8319 23.0244 41.6995C23.1467 41.895 23.2446 42.1271 23.2446 42.3839C23.2201 43.5814 21.6192 43.8625 21.3381 42.6405C21.3014 42.5183 21.277 42.4083 21.2525 42.2983H21.2036V42.3472H21.1669C20.4094 43.5325 20.9347 45.0113 22.169 45.5367C22.4775 45.6703 22.8296 45.6656 23.1882 45.6606C23.2556 45.6597 23.3233 45.6588 23.391 45.6588C23.599 45.5856 23.7944 45.5 24.0021 45.4267C24.4421 45.2189 24.8819 44.889 25.1874 44.4857C25.5908 43.9724 25.8107 43.3126 25.8107 42.6038C25.8473 40.3063 24.0021 38.3511 21.6681 38.461C19.273 38.5834 17.7209 40.2941 17.1589 42.4449C16.9264 43.3126 16.8167 44.4246 16.9509 45.4145C16.9631 45.4877 16.9387 45.7078 17.0121 45.7078V45.7567H17.0488C17.2931 44.9868 18.0509 44.3636 18.943 44.6568C19.1873 44.7301 19.3827 44.8279 19.554 45.0234C20.0794 45.6223 19.9207 46.7587 19.1506 47.0642C19.0119 47.1197 18.8929 47.1121 18.7711 47.0952ZM20.7516 52.8322C20.8736 52.8689 20.9837 52.8933 21.106 52.8322L21.1182 52.8199C21.3137 52.7345 21.5091 52.5634 21.6681 52.4167C22.328 51.8179 22.9146 51.1702 23.4522 50.4737C23.4743 50.4421 23.5143 50.3926 23.5617 50.3341C23.6975 50.1664 23.8923 49.9257 23.8923 49.826C23.9409 49.826 23.9409 49.7893 23.9409 49.7893H23.8923C23.2568 49.3249 21.9247 49.2762 21.0448 49.2762C20.7393 49.3005 20.4583 49.3739 20.165 49.435C19.6152 49.5572 18.6742 49.9604 18.3931 50.486C18.2463 50.767 19.395 51.9157 19.6638 52.1235C19.8383 52.2593 20.0269 52.4088 20.2217 52.5413C20.3947 52.659 20.5732 52.7631 20.7516 52.8322ZM24.6742 53.6388C24.7843 53.6265 24.9064 53.6021 25.0164 53.6021L25.0042 53.5898C25.0621 53.5734 25.1197 53.5569 25.1776 53.5479C25.2053 53.5436 25.233 53.5411 25.2608 53.5411C25.3745 53.5064 25.4902 53.4697 25.6072 53.4328C25.7793 53.3783 25.9539 53.3231 26.1284 53.2721C26.5685 53.1255 26.996 52.9056 27.3871 52.6855C27.5948 52.5267 27.8272 52.3678 28.0471 52.2212C28.1449 52.1479 28.6459 51.6591 28.6459 51.6591V51.5736C28.5942 51.5524 28.5435 51.5305 28.4934 51.5081C28.3412 51.4404 28.1942 51.3691 28.0471 51.3046C27.7293 51.1702 27.4238 51.0481 27.1061 50.9259C26.4094 50.6081 25.6519 50.2292 24.8697 50.1071C24.2831 51.1335 23.3421 52.1846 22.4011 52.9545C22.3158 53.0277 22.1323 53.26 22.0225 53.26C22.0225 53.3088 22.0225 53.3088 22.0715 53.3088C22.6034 53.6398 23.8326 53.6392 24.5982 53.6388H24.6742ZM27.8457 50.2995L28.6581 50.6326L28.6703 50.6448C28.7181 50.6653 28.767 50.6906 28.8168 50.7164C28.9448 50.7828 29.0794 50.8525 29.2202 50.8525C29.3303 50.6204 29.4523 50.4003 29.5746 50.1682C29.77 49.7649 29.9535 49.3372 30.1122 48.9095C30.8578 46.9298 31.1388 44.7912 31.1388 42.4206C31.1388 42.1852 31.1305 41.9416 31.1209 41.7041C31.1144 41.5346 31.1072 41.3685 31.1022 41.2106C31.0899 40.9663 31.1144 40.7219 31.0165 40.5386C29.5746 42.8483 28.1449 45.1702 26.7027 47.4919C26.5562 47.718 26.4065 47.9472 26.2567 48.1763C26.1069 48.4054 25.9571 48.6346 25.8107 48.8606C25.7862 48.8989 25.7519 48.9411 25.7152 48.9863C25.6236 49.0994 25.5174 49.2305 25.5174 49.3616H25.5541C25.8963 49.606 26.385 49.6916 26.7639 49.8505C27.1252 50.0034 27.4865 50.1523 27.8457 50.2995ZM17.7809 51.2606C17.4903 52.3583 17.9915 53.2724 19.1262 53.4554C19.346 53.4677 19.5662 53.4799 19.7861 53.4799C19.835 53.4677 19.884 53.4523 19.9329 53.4371C19.9818 53.4219 20.0305 53.4066 20.0794 53.3944V53.3455H20.0305C19.8843 53.2293 19.7351 53.1207 19.5859 53.0122C19.3114 52.8125 19.0373 52.6133 18.784 52.3678C18.6023 52.1934 18.3904 51.8807 18.1819 51.6276C18.0435 51.4601 17.9068 51.3185 17.7809 51.2606ZM18.1118 53.981C18.6252 55.0686 19.3338 56.1318 20.0549 57.1338V57.146C21.1549 58.6735 22.3889 60.0789 23.7577 61.3132C23.6721 61.2153 23.5868 61.1176 23.5256 61.0077C23.4277 60.8121 23.3177 60.5555 23.3544 60.2988C23.44 59.7 24.0143 59.1257 24.6742 59.4434C24.9675 59.5901 25.0654 59.9933 24.9186 60.2867C24.8697 60.3722 24.662 60.5188 24.6865 60.6288C24.6987 60.7266 24.7599 60.8243 24.833 60.8977C25.7617 61.7286 26.7272 60.8243 27.1672 60.0177L27.4605 59.2479C27.485 59.1624 27.4972 59.0769 27.5094 58.9913C27.5217 58.8813 27.5309 58.7683 27.5402 58.6552C27.5494 58.5421 27.5584 58.429 27.5706 58.3191C27.5948 57.3783 27.2284 56.4617 26.7272 55.7529C26.4706 55.3986 26.055 55.0441 25.6886 54.8486C25.3831 54.6897 25.1265 54.5553 24.9064 54.4576C24.4054 54.5186 23.8923 54.5308 23.3788 54.4576C22.9024 54.3964 22.4378 54.3109 21.9981 54.1765C21.8877 54.1443 21.7806 54.1034 21.6732 54.0623C21.4953 53.9942 21.3163 53.9258 21.1182 53.8953C20.9914 53.8754 20.8646 53.9173 20.7417 53.9674C20.6397 54.0092 20.5403 54.0566 20.4461 54.0787C20.1038 54.1521 19.7494 54.2008 19.395 54.2131C19.1384 54.2253 18.8451 54.1886 18.613 54.1154L18.0631 53.932V53.981H18.1118ZM23.9654 61.4965C26.7027 63.9039 29.929 65.627 33.6441 66.238L33.6318 66.2502C34.5728 66.409 35.5992 66.4334 36.6013 66.4334C36.3814 66.238 36.027 66.1646 35.7826 65.9935C35.086 65.5291 34.5606 64.8936 34.1572 64.1972C33.9863 63.8916 33.8395 63.5372 33.7294 63.1707C33.6805 63.0584 33.6315 62.9518 33.5802 62.8512C33.5036 62.7 33.4215 62.5621 33.3263 62.4373C32.9719 61.9852 32.0187 61.6431 31.5542 62.523C31.5601 62.5288 31.5688 62.5789 31.5774 62.6299C31.587 62.6859 31.5968 62.7429 31.6031 62.7429C31.5959 62.7864 31.7048 62.7699 31.8071 62.754C31.8776 62.7433 31.945 62.733 31.9697 62.7429C32.6664 62.9873 32.4951 63.9039 31.7988 63.9528C31.6153 63.9649 31.4321 63.8672 31.2976 63.7572C30.6135 63.2072 31.0043 61.8508 31.7499 61.5942C32.5074 61.3376 33.0698 61.4843 33.4973 61.8263C33.3386 60.2622 33.5585 58.5147 33.9374 57.2316C34.0057 56.9749 34.0922 56.7122 34.1838 56.4604C34.2232 56.3525 34.2635 56.2466 34.3037 56.144C34.4138 55.8873 34.6215 55.6185 34.6215 55.3374C34.316 55.264 33.5952 54.8975 33.3994 54.6409C33.3508 54.5675 32.9107 53.0767 32.9107 53.0767C32.9597 52.991 33.1184 52.9788 33.204 52.9788C33.2682 52.9697 33.3323 52.9538 33.3962 52.9463C33.4176 52.9438 33.4391 52.9423 33.4606 52.9423C33.534 52.9178 33.6196 52.9056 33.7049 52.8933C34.0227 52.7956 34.3527 52.6978 34.6704 52.6001V52.5634C34.7542 52.6312 34.8822 52.7797 35.0281 52.949C35.3291 53.2985 35.7069 53.7365 35.9291 53.7365C36.0159 53.6432 36.1063 53.5499 36.1964 53.4565C36.2713 53.3788 36.3459 53.301 36.4181 53.2233C37.0778 52.5634 37.8233 51.9768 38.5931 51.5002C38.7276 51.427 38.9353 51.2314 39.1065 51.2314V51.1458C38.736 50.9721 38.3983 50.6338 38.0933 50.3283L38.0432 50.2782C36.6992 48.995 35.5992 46.9053 36.2346 44.8767C36.2871 44.6891 36.3534 44.5062 36.4336 44.3306C36.4841 44.2202 36.5398 44.1128 36.6013 44.0091L36.8457 43.6914L37.09 43.3736C37.2735 43.1903 37.4934 43.0194 37.6157 42.8116C37.6402 42.7382 37.6279 42.6405 37.6157 42.5672C37.5614 42.3318 37.5038 42.0964 37.4465 41.861C37.3878 41.6198 37.329 41.3786 37.2735 41.1374C37.0533 40.2576 36.919 39.1944 35.9536 38.8644C35.7582 38.791 35.4894 38.7788 35.3181 38.8766C35.0248 39.0478 34.8539 39.3166 34.9147 39.671C34.9204 39.7168 34.9425 39.7547 34.964 39.792C34.9884 39.834 35.0126 39.8757 35.0126 39.9276H35.0982V39.8786C35.9536 39.3533 36.4423 40.5753 35.6725 40.9418C34.7927 41.3695 34.1205 40.2209 34.1572 39.4632C34.2184 38.2289 35.4404 37.6301 36.5401 38.0578C36.6258 38.0823 37.0414 38.2534 37.0414 38.3266H37.0778V38.2901C37.1103 38.0616 37.0506 37.833 36.9927 37.6119C36.9638 37.5019 36.9355 37.3936 36.919 37.2879C36.7723 36.4326 36.638 35.5893 36.4912 34.7339C36.4304 34.1596 36.357 33.5851 36.2836 33.0108C36.2591 32.7053 36.2591 32.3753 36.1126 32.131C35.9047 32.5342 34.5973 34.4894 34.6582 34.7584C34.6796 34.8588 34.8315 34.9757 34.9831 35.0752C35.0899 35.1454 35.1964 35.2067 35.2569 35.2471L35.3229 35.2945C35.6364 35.519 36.1242 35.8687 36.2836 36.1759C36.3841 36.3766 36.4333 36.6384 36.4784 36.8777L36.4912 36.9457C36.5401 37.1413 36.5891 37.3369 36.6258 37.5324H36.5891C36.5831 37.5324 36.5739 37.5263 36.5646 37.5202C36.5554 37.5141 36.5461 37.508 36.5401 37.508C36.3814 37.459 36.2346 37.3979 36.0759 37.3491L35.7621 37.295L35.4404 37.239C35.3855 37.178 35.3274 37.12 35.2692 37.0619C35.2113 37.0039 35.1534 36.9459 35.0982 36.8847C34.8906 36.6647 34.1817 35.8703 33.9007 35.8703C33.6942 36.1984 33.4877 36.5294 33.2813 36.8604C33.0721 37.1955 32.8633 37.5305 32.6542 37.8623C32.4465 38.1922 32.1532 38.5344 32.0431 38.9011C31.9575 39.1822 32.0554 39.5854 32.0798 39.8909L32.1532 41.6872C32.2263 43.7526 31.9575 45.7322 31.4444 47.5164C31.1144 48.6529 30.6866 49.7649 30.0755 50.767C30.0687 50.7845 30.0478 50.8198 30.023 50.8614C29.9613 50.9656 29.8765 51.1092 29.929 51.1092C30.308 51.3536 31.4811 51.439 32.0187 51.439L32.9352 51.4025C33.0331 51.378 33.1062 51.3658 33.1918 51.3536C33.3508 51.3046 33.4973 51.2681 33.6563 51.2192C33.9496 51.1214 34.6582 50.8159 34.5239 50.3638C34.4994 50.2782 34.4383 50.217 34.3649 50.1805C33.9863 49.9482 33.8884 50.4493 33.7049 50.6326V50.5837C33.1184 49.9237 33.4973 48.995 34.4138 48.995C34.5728 48.9095 34.8539 48.9829 35.0004 49.0439C35.7092 49.3249 36.2469 49.9727 36.027 50.828C35.7459 51.8791 34.3037 52.4412 33.3263 52.5511C33.042 52.5754 32.7684 52.5675 32.4916 52.5595C32.3516 52.5553 32.2111 52.5511 32.0676 52.5511V52.5878C33.0698 53.8588 33.1429 56.474 31.1755 56.8405C30.1612 57.0238 29.2569 56.2295 29.2569 55.2275C29.2569 54.873 29.3547 54.6042 29.6358 54.3964C29.7414 54.3099 29.8852 54.2611 30.0427 54.2443C30.0854 54.2398 30.1292 54.2375 30.1734 54.2375C30.2462 54.2425 30.3229 54.255 30.3966 54.2777C30.5084 54.312 30.6132 54.3693 30.6866 54.4576C30.7423 54.5292 30.8444 54.7611 30.9291 54.9145C30.9748 54.9967 31.0153 55.0564 31.041 55.0564V55.0197C31.2367 54.9097 31.322 54.7386 31.371 54.5186C31.5542 53.5898 30.5034 52.6855 29.8312 52.2579C29.796 52.2352 29.7593 52.2094 29.7214 52.1828C29.5746 52.0802 29.4096 51.9646 29.2446 51.9646C28.4382 53.0277 27.2284 53.871 25.8596 54.262C26.7027 54.7264 27.3382 55.4107 27.8639 56.4983L27.9003 56.535C28.1327 57.3538 28.2058 58.3925 28.1327 58.979C27.9125 60.4333 26.8006 62.2419 25.0164 61.9364C24.662 61.8753 24.2831 61.7286 23.9654 61.4965ZM36.6135 66.4212V66.4579H36.6502C36.6502 66.4457 36.6135 66.4212 36.6135 66.4212ZM39.583 66.0424V66.0791C40.0732 66.0141 40.5553 65.89 41.0243 65.746C41.3576 65.6435 41.6843 65.5303 42.0026 65.4192L42.4794 65.2358C42.406 65.2603 42.3203 65.2848 42.2469 65.3092L43.9213 64.5759C43.799 64.6493 43.6647 64.7105 43.5424 64.7837C43.6716 64.7219 43.8007 64.6602 43.9299 64.5972C44.0818 64.5232 44.2336 64.4476 44.3855 64.3683L43.9335 64.5638C45.5222 63.6228 46.903 62.0341 46.2797 60.3477L46.1332 60.0911C46.0539 60.0327 45.9847 59.9643 45.9151 59.8957C45.7809 59.7634 45.6457 59.63 45.4366 59.5656C44.8867 59.4067 44.5201 59.9567 44.6057 60.4333C44.62 60.526 44.6633 60.5897 44.7065 60.6532C44.7376 60.6986 44.7686 60.7439 44.7889 60.7999C44.2757 60.8977 43.7867 60.7632 43.5913 60.2133C43.469 60.0667 43.4812 59.7734 43.4934 59.6145C43.5913 58.478 44.6668 57.8792 45.7421 58.2336C46.6831 58.5514 47.1473 59.6512 47.1231 60.6043C47.1109 60.757 47.1017 60.9098 47.0927 61.0626C47.0835 61.2153 47.0742 61.3681 47.062 61.5208L47.0933 61.5157C47.1309 61.5107 47.1425 61.509 47.1231 61.4598C47.4651 61.1054 47.7097 60.6777 47.9418 60.2378C48.1372 59.8711 48.3693 59.4679 48.4917 59.0647C48.736 58.2336 48.614 57.2439 48.284 56.3516L48.1915 56.1443C48.1319 56.0121 48.071 55.8764 48.0152 55.7406C47.9782 55.6853 47.9481 55.6298 47.92 55.5744L47.8929 55.5207C47.7509 55.3379 47.5999 55.155 47.4549 54.9791L47.3675 54.873C46.6953 54.2375 45.4855 53.6999 44.8745 54.7753C44.8133 54.873 44.7889 54.983 44.8133 55.0808C44.8256 55.1908 45.0699 55.264 45.1433 55.3374C45.3754 55.5695 45.4121 55.9974 45.18 56.2172C44.6546 56.7305 43.9213 56.3761 43.6525 55.8262C43.5424 55.6062 43.5546 55.3252 43.5913 55.1051C43.628 54.9097 43.7136 54.7142 43.8234 54.5431C43.6035 54.7264 43.3837 54.8975 43.1635 55.0564C43.0119 55.1617 42.8547 55.2525 42.6939 55.3347C42.3884 55.4912 42.0706 55.6168 41.7583 55.7529C40.5362 56.2784 38.4711 56.425 37.0533 56.144C36.7442 56.086 36.4557 55.9908 36.1678 55.8958C35.9091 55.8104 35.6511 55.7253 35.3793 55.6674C35.3181 55.6551 35.2569 55.6796 35.2083 55.7284C34.8082 56.1394 34.5499 57.0149 34.3682 57.6298L34.316 57.8059C33.9982 58.8569 33.8884 60.1766 34.0349 61.3621L34.0722 61.6709C34.1286 62.1466 34.1832 62.6058 34.3037 63.0484L34.3046 63.051C34.3533 63.1969 34.4019 63.3425 34.4383 63.4762C35.0004 64.9303 36.357 66.018 38.031 66.018C38.1533 65.9935 38.2634 65.9813 38.3732 65.969C38.5286 65.9213 38.6721 65.8734 38.8156 65.8255L38.8255 65.8224C39.1919 65.6635 39.5341 65.4559 39.8273 65.1992C40.854 64.3071 40.7928 62.3519 39.5341 61.7286C39.2653 61.5942 38.85 61.4843 38.5689 61.6554C38.2753 61.8265 38.3487 62.3029 38.6787 62.3886C38.7276 62.4008 38.9231 62.4496 38.9231 62.3641H39.0454C38.9353 63.5127 37.6402 63.9039 36.9068 62.9873C36.1979 62.1075 37.0169 60.7266 38.0799 60.7266C38.4466 60.5677 39.1677 60.7754 39.4732 60.922C39.8518 61.0931 40.2307 61.2887 40.524 61.6309C41.4772 62.743 41.2084 64.5271 40.2429 65.5291C40.1084 65.6513 39.742 66.0424 39.583 66.0424ZM46.5485 62.9384L46.1088 63.3783C48.2596 61.9731 50.2024 60.1644 51.8033 58.0747C52.2189 57.5249 52.6465 56.9749 53.0009 56.3883C52.9397 56.4128 52.8789 56.4373 52.8055 56.4373C52.1088 56.474 51.84 55.5695 52.5122 55.264C52.528 55.2521 52.5543 55.2427 52.5817 55.233C52.6384 55.213 52.6996 55.1914 52.6832 55.1418C52.6906 55.1345 52.6981 55.1315 52.7055 55.1304L52.7199 55.1296C52.1945 54.1888 51.1189 54.7876 50.6058 55.3986C50.3247 55.7284 50.1293 56.1073 49.9458 56.5227L49.1027 58.9058C48.5161 60.4089 47.6608 61.8753 46.5485 62.9384ZM56.386 49.4838C56.4104 49.4228 56.386 49.3616 56.4594 49.3616V49.3372C56.1416 49.4473 55.885 49.6427 55.5428 49.7283C54.6997 49.9604 53.6486 49.4106 53.6486 48.5063C53.6486 48.2862 53.722 48.0786 53.8443 47.9318C53.893 47.8708 54.1985 47.663 54.1985 47.663H54.3208C54.3697 48.0784 54.7973 48.213 55.0174 47.8219C55.2496 47.3697 54.7486 47.2231 54.4795 47.1131C54.3754 47.1315 54.2713 47.153 54.1668 47.1759C54.0633 47.1988 53.9598 47.2231 53.8563 47.2475C53.5508 47.333 53.2575 47.5041 52.9887 47.6752C52.5226 47.9727 52.0689 48.3546 51.6115 48.7394C50.9414 49.3032 50.2642 49.873 49.5305 50.1927C49.0538 50.4126 48.5895 50.6326 48.0761 50.767C47.6975 50.8647 47.3063 50.9137 46.903 50.9503C46.7442 50.9626 46.4999 50.9381 46.3776 51.0236C46.3227 51.0616 46.2809 51.1186 46.2469 51.184C46.1822 51.3076 46.1446 51.4616 46.0965 51.5736C45.9497 51.8913 45.8155 52.1968 45.632 52.4901C45.3387 52.9545 44.9846 53.3944 44.5935 53.8099C44.6424 53.7854 44.6791 53.7609 44.7277 53.7365C46.3164 52.8689 47.8195 54.2987 48.4794 55.6185C48.7482 56.1562 48.8706 56.7428 49.066 57.2804C49.1039 57.2728 49.1277 57.2746 49.1346 57.2625C49.1388 57.2552 49.1364 57.2427 49.1272 57.2194C49.3593 56.7916 49.4816 56.2906 49.7015 55.8507C50.2024 54.8486 51.4367 53.6999 52.6709 54.1765C53.1477 54.3597 53.5388 54.9097 53.563 55.4473C54.382 54.0787 55.1762 52.6855 55.7382 51.2069C55.8498 50.9156 55.9584 50.6243 56.067 50.3329C56.1723 50.0499 56.2777 49.7669 56.386 49.4838ZM57.7303 44.6568C58.0848 43.1903 58.2802 41.5773 58.378 40.0131L58.3536 40.0253C58.7566 33.5851 57.7059 26.9741 55.4205 21.7315C54.9685 20.6928 54.4917 19.6541 53.893 18.7009C53.8336 18.6046 53.7808 18.5066 53.728 18.4082C53.6397 18.2442 53.5508 18.0791 53.4287 17.9187C53.5144 18.1753 53.6119 18.4198 53.6975 18.6764C53.9419 19.3241 54.1618 19.9961 54.2596 20.7172C54.8462 24.7499 53.8076 29.3325 50.618 31.6422C50.2677 31.8895 49.9175 32.1252 49.552 32.3319C49.2671 32.493 48.9732 32.6365 48.6626 32.7542C48.6027 32.7783 48.5394 32.8023 48.4762 32.8263C48.4111 32.8511 48.3461 32.876 48.284 32.9009C48.6149 33.1655 49.0451 33.3606 49.4404 33.5398L49.5672 33.5974C49.6961 33.6739 49.8253 33.7485 49.9536 33.8228C50.1532 33.9382 50.3513 34.0528 50.5446 34.1718C50.8018 34.3225 51.0267 34.5054 51.2571 34.6926C51.3442 34.7633 51.4319 34.8346 51.5223 34.905C52.7443 35.8216 53.722 36.9824 54.2841 38.3511C55.0664 40.2576 54.8462 42.6894 54.2107 44.6079C54.1618 44.727 54.1167 44.85 54.0714 44.9749C54.0374 45.0678 54.0031 45.1616 53.9664 45.2556C53.9222 45.3499 53.8041 45.5604 53.7014 45.7645C53.6042 45.9572 53.5206 46.144 53.5266 46.2211C53.5266 46.2561 53.577 46.2408 53.6146 46.2294C53.6292 46.225 53.6418 46.2211 53.6486 46.2211C53.7304 46.1844 53.81 46.1459 53.8894 46.1076C54.1549 45.9793 54.4166 45.8525 54.7364 45.8055C54.7549 45.7994 54.7638 45.8025 54.7683 45.7992C54.7728 45.7961 54.7728 45.7868 54.7728 45.7567C55.6529 45.8177 56.2517 45.8911 56.7893 46.5876C56.8872 46.722 57.0337 46.9298 57.0337 47.1009C57.0948 47.1009 57.0826 47.1376 57.0826 47.1376H57.1315C57.2127 46.7924 57.2959 46.4493 57.3795 46.1067C57.4973 45.6244 57.6157 45.1427 57.7303 44.6568ZM28.2917 27.5972C28.5483 29.3814 26.6785 30.2979 25.2244 30.4689L25.2733 30.4446C24.8986 30.4914 24.5191 30.4685 24.1438 30.4458C23.9317 30.4329 23.721 30.4201 23.5134 30.4201C23.5134 30.4341 23.5122 30.4462 23.511 30.4565C23.5071 30.4911 23.5056 30.5056 23.5623 30.5056C23.7568 30.7301 23.988 30.9225 24.2169 31.1223C24.3616 31.2486 24.5054 31.3778 24.6378 31.52C25.4076 32.3264 26.0553 33.8907 25.1755 34.8806C24.6623 35.4671 23.4403 35.5648 23.0736 34.7583C23.0432 34.6792 23.0157 34.591 23.002 34.4999C22.988 34.4078 22.988 34.3127 23.0124 34.2206C23.2323 33.5484 24.1611 33.6096 24.2222 34.3428C24.2222 34.4162 24.1978 34.5506 24.2712 34.5506V34.5994C25.3342 34.4284 25.151 33.2185 24.7476 32.522C24.6343 32.3264 24.5045 32.1471 24.3601 31.9759C24.2246 31.8152 24.0764 31.6615 23.9167 31.5077C23.2768 30.9643 22.6368 30.4329 21.9969 29.9016L21.9736 29.8823C20.7638 28.807 19.6885 27.4872 19.0653 26.0818C18.8821 25.6664 18.6619 25.2632 18.5277 24.8231C17.6478 21.7558 18.5277 19.0429 21.0207 17.3077C21.6926 16.8556 22.4993 16.4155 23.3791 16.4155C23.5011 16.3912 23.6112 16.3545 23.7213 16.33C25.4076 16.33 26.9107 16.7089 28.0838 17.7109C28.1002 17.7247 28.1258 17.7439 28.156 17.7664C28.2595 17.8442 28.4137 17.9596 28.4137 18.0164C28.4099 18.0552 28.4048 18.0954 28.3997 18.1358C28.3884 18.2228 28.377 18.3118 28.377 18.3952V19.3974H28.3284C28.1831 19.3043 27.9576 19.2416 27.7374 19.1805C27.4945 19.1132 27.2582 19.0477 27.1431 18.9452L27.0494 18.7717C26.9784 18.6407 26.905 18.5057 26.8376 18.3709C26.5321 17.9065 26.1042 17.5276 25.6275 17.2588C23.3424 15.9878 20.4828 17.7109 19.432 19.764C19.102 20.4238 18.8332 21.1205 18.7476 21.8903C18.5154 23.98 19.1509 26.754 21.5828 26.754C21.6803 26.7296 21.7782 26.7173 21.876 26.7051C22.0216 26.6031 22.1848 26.5446 22.334 26.4595C22.4351 26.402 22.53 26.3322 22.6091 26.2285C22.9513 25.7763 22.5604 25.2265 22.0837 25.1531C21.925 25.1286 21.8026 25.202 21.6681 25.202C21.7537 24.6887 22.047 24.2855 22.6335 24.2855C22.8048 24.2243 23.0858 24.3344 23.2201 24.3954C24.2467 24.8843 24.4421 26.1063 23.7336 26.9861C23.1103 27.7683 21.925 27.8172 21.0329 27.4627C20.7516 27.3406 20.4705 27.2062 20.1895 27.084L20.1889 27.1101C20.1877 27.1522 20.1868 27.1695 20.2384 27.1695C20.4583 27.6094 20.776 27.9883 21.106 28.3548L21.2152 28.4794C21.4634 28.7622 21.7245 29.0601 22.0225 29.2836C22.7069 29.7969 23.6846 30.0168 24.6378 30.0168C24.847 29.9936 25.0672 29.9814 25.2775 29.9698L25.31 29.968C25.3954 29.9557 25.4687 29.9313 25.5544 29.9313L25.8217 29.8427C25.9938 29.7855 26.1678 29.7266 26.3363 29.6625C27.1431 29.2591 28.0838 28.306 27.2773 27.365C27.2039 27.2794 27.1064 27.2306 27.0085 27.2062C26.9345 27.1898 26.8388 27.2781 26.7579 27.3527C26.7182 27.3892 26.6821 27.4223 26.6541 27.4383C26.4816 27.5173 26.2668 27.5118 26.0917 27.4341C25.9691 27.3798 25.8661 27.2902 25.8109 27.1695C25.5054 26.5095 26.092 25.9352 26.703 25.8742C26.9474 25.8375 27.2162 25.9597 27.3997 26.0696C27.9128 26.3751 28.2061 27.0351 28.2917 27.5972Z" fill="white"/>
</svg>
