<svg width="73" height="73" viewBox="0 0 73 73" fill="none" xmlns="http://www.w3.org/2000/svg">
<path fill-rule="evenodd" clip-rule="evenodd" d="M35.1305 66.8198C35.1526 66.864 35.3294 66.9082 35.3294 66.9082L35.2852 66.8861H37.1194C37.1857 66.8861 37.3183 66.7977 37.3183 66.7977L37.694 66.422C37.7382 66.3778 37.8708 66.422 37.8708 66.422L38.2465 66.7977C38.2907 66.8419 38.4454 66.8861 38.4454 66.8861H40.4122C40.4785 66.8861 40.6111 66.7977 40.6111 66.7977L41.4067 65.759C41.4509 65.7148 41.4509 65.5601 41.4509 65.5601L40.6553 63.4165C43.4041 62.8838 44.1805 61.2006 44.5099 60.4864C44.5221 60.4599 44.5337 60.4347 44.5448 60.411C44.8321 59.748 45.3846 58.9303 46.0476 58.3557C46.7106 57.7811 47.5062 57.317 48.6774 56.7646C49.8487 56.2121 50.4675 55.3723 50.7327 54.0905C50.7447 54.0271 50.7568 53.9621 50.7693 53.8954C51.0084 52.6152 51.3615 50.7242 53.252 47.6154C55.1084 44.5215 57.2299 43.5049 57.5172 43.4165C57.8266 43.306 58.3128 43.0629 58.5559 42.7756L58.5708 42.7593C58.8054 42.5037 58.9596 42.3357 59.241 41.3833C59.5061 40.411 59.3515 39.4607 59.1526 39.1071C58.9979 38.7977 58.8432 38.7093 58.6001 38.7535C58.357 38.7977 58.1139 38.7977 57.915 38.643C57.7382 38.4662 57.694 38.2673 57.7382 37.7148C57.7506 37.56 57.7682 37.4087 57.7851 37.2627C57.8287 36.8879 57.8681 36.5488 57.8045 36.2784C57.6277 35.6817 57.2299 35.3281 57.2299 35.3281C57.1857 35.2839 57.1857 35.1955 57.1857 35.1292C57.1857 35.1292 59.1747 31.969 59.0421 26.8419C58.8653 21.0298 54.8874 16.7646 50.1581 16.7646C46.2023 16.7646 45.2962 19.8364 45.252 20.5215L46.136 21.3612C46.1802 21.4054 46.2465 21.4054 46.2686 21.3391C46.2686 21.3391 46.6001 18.2452 50.2465 18.422C54.1139 18.6209 56.368 21.5159 57.2299 24.9193C57.473 25.8253 57.5835 27.2618 57.6056 27.9469C57.6719 30.3778 57.0531 32.4994 56.4564 33.6706C56.0144 34.5546 55.5724 34.6209 55.3294 34.643C55.1084 34.6651 54.9979 34.7314 54.8874 34.9966C54.136 36.7646 52.8321 37.0739 52.0365 37.0297C50.9316 36.9856 50.2907 35.9911 50.2907 35.0408C50.2907 34.2231 50.8211 33.317 51.6166 33.2507C52.4785 33.1844 52.9426 33.7811 52.9426 34.3557C52.9426 34.9303 52.5669 35.2618 52.1249 35.2618C52.1249 35.2618 52.589 35.748 53.1857 35.5491C54.0034 35.2839 54.1139 34.1789 54.1139 33.8253C54.1581 33.3833 54.4233 33.2286 54.8432 33.2286C55.2631 33.1844 55.5282 32.9414 55.6166 32.7646C56.0586 31.9027 56.5669 30.5546 56.5669 29.074C56.5006 21.5822 50.4896 20.2563 50.4896 20.2563C50.4233 20.2342 50.4233 20.2784 50.4675 20.3226C50.4675 20.3226 51.1968 20.7646 51.3957 21.538C51.926 23.6154 50.3128 24.6541 49.2078 24.7867C48.5006 24.8751 47.3515 24.6099 46.5117 23.5933C45.2962 22.1126 44.1249 21.0518 44.1249 21.0518C44.0807 21.0077 44.0365 20.9193 44.0365 20.853C44.0365 20.853 43.926 19.085 45.3846 17.3391C46.6222 15.8806 48.4564 15.6817 48.4564 15.6817C48.5227 15.6596 48.5669 15.527 48.5669 15.527V14.6872C48.5669 14.6209 48.4343 14.5546 48.4343 14.5546H47.1968C47.1968 14.5546 46.9979 13.096 45.7382 11.9027C44.3459 10.3778 42.0918 10.6872 41.252 11.5933C40.4122 12.5215 40.0365 14.2673 41.3183 15.4386C42.2686 16.3226 43.4619 15.8806 43.9923 15.2618C44.5006 14.6651 44.589 13.6043 43.8597 13.0739C43.2852 12.632 42.8211 12.853 42.6001 13.0077C42.2023 13.2728 42.1802 13.9579 42.5117 14.2231C42.8653 14.5104 43.2852 14.2452 43.3515 13.8916C43.3515 13.8916 43.5945 14.1347 43.484 14.5325C43.3294 15.1071 42.4233 15.2839 41.8708 14.8198C41.0752 14.1568 41.2299 12.1237 42.9758 11.8364C42.9758 11.8364 45.3846 11.5933 45.3846 14.1789C45.3846 16.0132 43.8155 16.9635 42.5559 17.0077C41.252 17.0518 39.2631 15.9027 39.3736 13.3391C39.5503 9.80323 42.6001 9.86953 42.6001 9.86953C42.6664 9.84743 42.7769 9.73693 42.7769 9.73693L42.9537 9.40544C42.9979 9.33914 42.9316 9.22864 42.9316 9.22864L36.3901 6.9082H36.1691L29.6056 9.25074C29.5614 9.29494 29.5614 9.42754 29.5614 9.42754L29.7382 9.75903C29.7603 9.82533 29.8487 9.89163 29.915 9.89163C29.915 9.89163 32.9647 9.82533 33.1415 13.3612C33.252 15.9248 31.2631 17.0739 29.9592 17.0297C28.6774 16.9856 27.1084 16.0353 27.1084 14.201C27.1084 11.6154 29.5172 11.8585 29.5172 11.8585C31.2631 12.1679 31.4178 14.1789 30.6222 14.8419C30.0697 15.306 29.1636 15.1292 29.0089 14.5546C28.8984 14.1568 29.1415 13.9137 29.1415 13.9137C29.2078 14.2452 29.6277 14.5325 29.9813 14.2452C30.3128 13.98 30.2907 13.2949 29.8929 13.0297C29.6719 12.8751 29.2078 12.6541 28.6332 13.096C27.926 13.6264 27.9923 14.6872 28.5006 15.2839C29.031 15.8806 30.2244 16.3226 31.1747 15.4607C32.4564 14.2894 32.0807 12.5436 31.241 11.6154C30.4012 10.7093 28.1691 10.3999 26.7548 11.9248C25.4951 13.1181 25.2962 14.5767 25.2962 14.5767H24.0586C23.9923 14.5767 23.926 14.7093 23.926 14.7093V15.5491C23.926 15.6154 23.9923 15.7038 24.0586 15.7038C24.0586 15.7038 25.8708 15.9027 27.1084 17.3612C28.589 19.085 28.4785 20.8751 28.4785 20.8751C28.4785 20.9414 28.4343 21.0297 28.3901 21.0739C28.3901 21.0739 27.2189 22.1347 26.0034 23.6154C25.1636 24.632 24.0365 24.8972 23.3073 24.8088C22.2023 24.6762 20.589 23.6375 21.1194 21.5601C21.3183 20.7867 22.0476 20.3447 22.0476 20.3447C22.1139 20.2784 22.0918 20.2784 22.0255 20.2784C22.0255 20.2784 16.0144 21.5822 15.9481 29.0961C15.926 30.5767 16.4564 31.9027 16.8984 32.7867C16.9868 32.9856 17.252 33.2286 17.6719 33.2507C18.1139 33.2728 18.4012 33.4054 18.4012 33.8474C18.4233 34.201 18.5117 35.306 19.3294 35.5712C19.926 35.7701 20.3901 35.2839 20.3901 35.2839C19.9481 35.2839 19.5724 34.9524 19.5724 34.3778C19.5724 33.8032 20.0144 33.2065 20.8984 33.2728C21.7161 33.3391 22.2244 34.2452 22.2244 35.0629C22.2244 36.0132 21.5835 37.0077 20.4785 37.0518C19.6608 37.096 18.357 36.7867 17.6056 35.0187C17.4951 34.7535 17.3846 34.6872 17.1636 34.6651C16.9205 34.643 16.4785 34.5767 16.0365 33.6927C15.4399 32.5215 14.799 30.3999 14.8874 27.969C14.9095 27.2839 15.0421 25.8253 15.2631 24.9414C16.1249 21.538 18.3791 18.643 22.2465 18.4441C25.8929 18.2673 26.2244 21.3612 26.2244 21.3612C26.2465 21.4275 26.357 21.3833 26.357 21.3833L27.241 20.5436C27.2189 19.8585 26.2907 16.7867 22.3349 16.7867C17.6056 16.7867 13.6056 21.0519 13.4509 26.864C13.3183 31.9911 15.3073 35.1513 15.3073 35.1513C15.3073 35.2176 15.3073 35.306 15.2631 35.3502C15.2631 35.3502 14.8653 35.7038 14.6885 36.3005C14.6114 36.5471 14.6526 36.8689 14.6996 37.236C14.7199 37.3953 14.7414 37.5631 14.7548 37.7369C14.799 38.3115 14.7769 38.4883 14.6001 38.6651C14.4012 38.8198 14.1581 38.8198 13.915 38.7756C13.6719 38.7314 13.5172 38.8198 13.3404 39.1292C13.1636 39.4828 12.9868 40.4331 13.2741 41.4054C13.5413 42.3098 13.6938 42.4877 13.9094 42.7393C13.9256 42.7583 13.9422 42.7776 13.9592 42.7977C14.1802 43.085 14.6885 43.3502 14.9758 43.4386C15.2631 43.5491 17.3846 44.5657 19.241 47.6375C21.1315 50.7464 21.4846 52.6373 21.7237 53.9176C21.7361 53.9842 21.7483 54.0492 21.7603 54.1126C22.0034 55.3944 22.6222 56.2563 23.8155 56.7867C25.0089 57.3391 25.7824 57.8253 26.4454 58.3778C27.0863 58.9303 27.6387 59.7701 27.9481 60.4331C27.9592 60.4568 27.9708 60.482 27.9831 60.5085C28.3125 61.2227 29.0889 62.9059 31.8376 63.4386L31.02 65.5822C30.9979 65.6485 31.0642 65.7811 31.0642 65.7811L31.8597 66.8198C31.9039 66.864 32.0586 66.9082 32.0586 66.9082H34.0034C34.0697 66.9082 34.2023 66.8198 34.2023 66.8198L34.578 66.4441C34.6443 66.3999 34.7548 66.4441 34.7548 66.4441L35.1305 66.8198ZM22.4012 22.0905C22.4012 21.3833 22.9758 20.8309 23.6608 20.8309C24.3459 20.8309 24.9205 21.3833 24.9205 22.0905C24.9205 22.7977 24.3459 23.3502 23.6608 23.3502C22.9758 23.3502 22.4012 22.7977 22.4012 22.0905ZM22.6443 37.1402C22.6443 47.0629 28.6553 55.085 36.0586 55.085V55.1071C43.4619 55.1071 49.473 47.0629 49.473 37.1623C49.473 27.2618 43.4619 19.2397 36.0586 19.2397C28.6553 19.2397 22.6443 27.2176 22.6443 37.1402ZM34.5338 12.7204C34.5338 14.5325 35.3073 15.9911 36.2354 15.9911C37.1636 15.9911 37.9371 14.5325 37.9371 12.7204C37.9371 10.9082 37.1636 9.44964 36.2354 9.44964C35.3073 9.44964 34.5338 10.9082 34.5338 12.7204ZM36.0586 21.0518C42.7769 21.0518 48.0365 28.2563 48.0365 37.1623C48.0365 46.0684 42.7548 53.2949 36.0586 53.2949C29.3625 53.2949 24.1028 46.0684 24.1028 37.1623C24.1028 28.2563 29.3404 21.0518 36.0586 21.0518ZM35.3957 36.411V23.1071V23.085L33.473 22.5325V33.7369H25.252L26.1581 36.411H35.3957ZM38.6001 33.7148V22.5546L36.6774 23.1071V36.3889H45.9813L46.799 33.7148H38.6001ZM33.4951 39.8143V51.7038V51.7259L35.4177 51.1513V37.0739L33.4951 38.5988H25.6719L25.3404 39.8143H33.4951ZM36.6995 37.0739V51.1292L38.6222 51.7038V39.8143H46.7769L46.4454 38.5988H38.6222L36.6995 37.0739ZM31.2455 57.6824C31.2508 57.6935 31.2566 57.7043 31.2631 57.7148L31.2852 57.6927C31.2852 57.6927 31.2702 57.6896 31.2455 57.6824ZM31.8376 56.8751C31.3905 56.8963 31.1075 57.3895 31.2455 57.6824C31.1393 57.6515 30.8528 57.546 30.799 57.2949C30.6885 56.6762 31.02 56.1458 31.7492 56.1016C32.9426 56.0353 33.5172 57.0961 33.3404 58.1347C33.1415 59.1955 32.147 59.6596 31.2631 59.6154C30.1581 59.5712 28.5448 58.7977 28.589 54.7535C28.589 54.5325 28.4343 54.3778 28.2133 54.3778H27.4399C27.2189 54.3778 27.1084 54.2673 27.1084 54.0463V53.1402C27.1084 52.9193 26.9758 52.7867 26.7548 52.7867H25.4951C25.2741 52.7867 25.1636 52.6541 25.1636 52.4331V51.4607C25.1636 51.2397 25.0531 51.1292 24.8321 51.1292H24.2575C23.926 51.1292 23.8376 50.9303 23.7934 50.6651C23.6608 49.8695 23.241 48.3226 21.8045 46.422C21.3625 45.8253 21.031 45.4938 20.2576 44.7204L20.2575 44.7204C19.484 43.9248 18.5559 42.5767 18.8432 40.1237C18.8432 40.1237 17.2078 39.2176 17.5172 38.3557C17.6277 38.0021 17.9371 37.9358 18.1802 38.0905C18.4454 38.2673 18.4675 38.4441 18.4675 38.4441C18.6443 38.0021 18.5559 37.317 18.0697 37.0518C17.5393 36.7646 16.8984 36.853 16.5448 37.2507C16.2575 37.5601 16.2133 38.0905 16.368 38.7756C16.4785 39.2397 16.5448 39.6154 16.3017 39.9248C16.0586 40.2342 15.4178 40.4773 15.0421 40.3447C14.7327 40.2342 14.578 40.2784 14.5338 40.4773C14.4896 40.6983 14.8432 41.7148 15.1526 41.9358C15.3957 42.1347 15.5724 42.1126 15.6829 41.9358C15.8155 41.7369 16.0807 41.7148 16.3238 41.759C16.5448 41.8032 16.7437 41.759 16.8321 41.5159C16.8471 41.4746 16.8622 41.4256 16.8783 41.3731C16.9569 41.1167 17.0615 40.7758 17.3183 40.8309C17.3619 40.8405 17.4002 40.8481 17.4348 40.855C17.5581 40.8793 17.6347 40.8944 17.7382 40.9635C17.8487 41.0519 17.8487 41.2507 17.7382 41.4938C17.7254 41.5296 17.7097 41.571 17.6921 41.6173C17.5575 41.9714 17.3141 42.6118 17.4509 43.2176L17.4513 43.2194C17.6058 43.8816 17.7402 44.4573 19.926 46.8419C21.6719 48.7646 22.6885 50.1568 23.2189 53.8916C23.2189 54.1126 23.3515 54.3557 23.6387 54.3557H24.6774C24.9205 54.3557 25.0531 54.4662 25.031 54.6872V55.4607C25.031 55.7038 25.1636 55.8364 25.473 55.8364H26.7327C27.0642 55.8364 27.0863 56.0574 27.0863 56.2342C27.2852 57.3833 28.1249 60.6099 31.1526 60.7646C33.3404 60.8751 34.1581 59.2397 34.1581 58.0021C34.1581 56.632 33.4067 55.2176 31.6829 55.2176C30.3791 55.2176 29.915 56.2563 29.915 57.074C29.915 58.1347 30.578 58.6872 31.484 58.6872C32.1249 58.6872 32.5448 58.201 32.5669 57.9137C32.6553 57.3391 32.2796 56.8309 31.8376 56.8751ZM24.4122 52.8972C24.4785 52.8309 24.5227 52.6983 24.5227 52.6983V51.969C24.5227 51.9027 24.3901 51.8806 24.3901 51.8806L23.9039 52.3005C23.8376 52.3668 23.8155 52.4773 23.8155 52.4773V53.2728C23.8155 53.317 23.9481 53.317 23.9481 53.317L24.4122 52.8972ZM26.3349 54.5546C26.4012 54.5104 26.4454 54.4662 26.4454 54.3557V53.6485C26.4454 53.5822 26.3349 53.5601 26.3349 53.5601L25.8266 53.98C25.7603 54.0463 25.7382 54.1568 25.7382 54.1568V54.9303C25.7382 54.9745 25.8708 54.9745 25.8708 54.9745L26.3349 54.5546ZM34.8432 59.9248C34.8432 61.2949 35.4398 62.3778 36.147 62.3778C36.8763 62.3778 37.4509 61.2507 37.4509 59.9248C37.4509 58.5988 36.8542 57.4938 36.147 57.4938C35.4398 57.4938 34.8432 58.5546 34.8432 59.9248ZM36.6332 65.6264C36.9205 65.6264 37.0531 65.4275 36.9426 65.1623H36.9647L36.3901 63.8364C36.2796 63.5933 36.0807 63.5712 35.9702 63.8364L35.3515 65.1623C35.2189 65.4275 35.3515 65.6264 35.6387 65.6264H36.6332ZM33.9371 65.6706C34.2023 65.6706 34.357 65.4717 34.2465 65.2065L33.5172 63.3944C33.4067 63.1292 33.2299 63.1292 33.1194 63.3944L32.3459 65.2065C32.2354 65.4717 32.3901 65.6706 32.6553 65.6706H33.9371ZM21.7603 26.3336C21.7824 26.1126 21.7382 25.9137 21.6056 25.8474V25.8253C21.473 25.759 21.2741 25.8253 21.0973 25.9358C20.589 26.2894 20.0365 26.0684 19.6387 25.7811C19.241 25.4717 19.2189 24.8972 19.484 24.4552C19.7492 24.0132 20.3238 23.8806 20.6553 24.19C20.8542 24.3668 20.8984 24.7204 20.7658 24.9635C20.589 25.2728 21.031 25.4054 21.252 25.2507C21.473 25.1181 21.8266 25.0518 22.0034 25.1623C22.2023 25.2728 22.3128 25.6043 22.3128 25.8695C22.2907 26.1347 22.6222 26.4441 22.799 26.1347C22.9537 25.8916 23.2631 25.759 23.5282 25.8474C23.9702 25.98 24.1249 26.5325 23.8818 26.9966C23.6387 27.4607 23.0642 27.7038 22.6222 27.527C22.1802 27.3281 21.7161 26.9524 21.7603 26.3336ZM17.8045 32.19C17.7824 32.3447 17.8708 32.4994 18.0918 32.411H18.136C18.1797 32.3672 18.3534 32.2531 18.5444 32.1276C18.7394 31.9994 18.9525 31.8594 19.0642 31.7701C19.2341 31.6465 19.1988 31.5337 19.1622 31.4166C19.1465 31.3662 19.1305 31.315 19.1305 31.2618C19.1084 31.085 19.1747 31.0187 19.2852 30.9966C19.3957 30.9745 19.4399 30.9745 19.5724 31.1071C19.5835 31.1181 19.5945 31.1294 19.6056 31.1406C19.7271 31.2638 19.8487 31.387 19.9702 31.306C20.0573 31.2407 20.0372 31.0896 19.9943 30.7681L19.9923 30.7535C19.9452 30.4395 20.0989 29.9916 20.2632 29.5129C20.3301 29.3178 20.3988 29.1176 20.4564 28.9193C20.1691 30.0684 20.6553 31.0408 21.0089 31.3723C21.3625 31.7038 21.9592 31.6817 22.357 31.4386C22.8432 31.1071 22.8874 30.5546 22.6885 30.2673C22.5117 30.0021 22.0697 29.8695 21.8266 30.0905C21.5835 30.2894 21.4288 30.2231 21.3625 30.1347C21.252 30.0021 21.2741 29.6485 21.2962 29.3391C21.3239 29.0764 21.4207 28.6665 21.4948 28.3532C21.5391 28.1659 21.5752 28.013 21.5835 27.9469C21.6498 27.5049 21.2078 27.1734 20.9647 27.085C20.7437 26.9082 20.2354 26.6872 19.9039 26.9745C19.7713 27.1071 19.1747 27.6596 18.8432 27.9248C18.6001 28.1016 18.2907 28.2563 18.136 28.2563C18.0255 28.2342 17.8929 28.1458 17.9592 27.8364C18.0476 27.527 17.7161 27.1734 17.3846 27.1734C17.031 27.1513 16.5669 27.4607 16.5448 28.0353C16.5227 28.4994 16.81 29.0298 17.2741 29.1844C17.7382 29.317 18.799 29.2286 19.6387 28.411C19.532 28.533 19.4264 28.6608 19.322 28.7873C18.9725 29.2105 18.6361 29.6178 18.3128 29.7369L18.3128 29.7369C18.0034 29.8695 17.8487 29.9358 17.8487 30.0463C17.8273 30.196 18.0129 30.2423 18.1852 30.2851C18.1909 30.2866 18.1966 30.288 18.2023 30.2894C18.3791 30.3336 18.4233 30.3778 18.4454 30.4883C18.4675 30.5988 18.4454 30.6651 18.2907 30.7535C18.2441 30.7801 18.1915 30.7927 18.1395 30.8052C18.0189 30.834 17.9017 30.8621 17.8708 31.0629C17.8266 31.3502 17.8045 32.0574 17.8045 32.19ZM48.8321 23.3723C48.147 23.3723 47.5724 22.8198 47.5724 22.1126C47.5724 21.4054 48.1249 20.853 48.8321 20.853C49.5393 20.853 50.0918 21.4054 50.0918 22.1126C50.0918 22.8198 49.5172 23.3723 48.8321 23.3723ZM40.8321 56.1237C41.5393 56.1679 41.8708 56.7204 41.7603 57.317L41.7382 57.3391C41.6719 57.6485 41.252 57.7369 41.252 57.7369C41.4288 57.4275 41.1194 56.9193 40.6774 56.8972C40.2575 56.853 39.8818 57.3612 39.9481 57.9358C39.9923 58.2231 40.3901 58.7093 41.031 58.7093C41.9371 58.6872 42.6001 58.1347 42.6001 57.0961C42.6001 56.2784 42.136 55.2397 40.8321 55.2397C39.1084 55.2397 38.357 56.6762 38.357 58.0242C38.357 59.2618 39.1526 60.8972 41.3625 60.7867C44.3901 60.632 45.252 57.4054 45.4288 56.2563C45.4304 56.2438 45.4318 56.231 45.4333 56.2182C45.4526 56.0493 45.4743 55.8585 45.7824 55.8585H47.0642C47.3736 55.8585 47.5061 55.7038 47.5061 55.4828V54.7093C47.5061 54.4662 47.6387 54.3778 47.8597 54.3778H48.8984C49.1857 54.3778 49.3183 54.1347 49.3183 53.9137C49.8266 50.1789 50.8432 48.7867 52.6111 46.864C54.797 44.4794 54.9313 43.9037 55.0858 43.2415L55.0863 43.2397C55.241 42.5546 54.9095 41.8032 54.7769 41.5159C54.6664 41.2728 54.6664 41.0739 54.799 40.9856C54.9316 40.9193 55.02 40.8972 55.2189 40.853C55.4841 40.7961 55.6031 41.1615 55.6874 41.4201C55.7014 41.4632 55.7145 41.5033 55.7271 41.538C55.8376 41.7811 56.0144 41.8253 56.2575 41.7811C56.5006 41.7148 56.7658 41.7369 56.8984 41.9579C57.0089 42.1126 57.1636 42.1347 57.4067 41.9579C57.7161 41.7148 58.0697 40.7204 58.0255 40.4994C57.9813 40.3005 57.8487 40.2563 57.5393 40.3668C57.1415 40.4994 56.5006 40.2563 56.2796 39.9469C56.0365 39.6375 56.1028 39.2618 56.2133 38.7977C56.368 38.1126 56.3238 37.5822 56.0365 37.2728C55.6829 36.8751 55.0421 36.8088 54.5117 37.0739C54.0255 37.317 53.9371 38.0242 54.1139 38.4662C54.1139 38.4662 54.136 38.2673 54.4012 38.1126C54.6443 37.9579 54.9537 38.0242 55.0642 38.3778C55.3736 39.2618 53.7603 40.1458 53.7603 40.1458C54.0476 42.5988 53.1415 43.9469 52.3459 44.7425C51.5724 45.5159 51.241 45.8474 50.799 46.4441C49.3625 48.3447 48.9426 49.9137 48.81 50.6872C48.7658 50.9524 48.6774 51.1513 48.3459 51.1513H47.7713C47.5503 51.1513 47.4178 51.2618 47.4178 51.4828V52.4552C47.4178 52.6762 47.3073 52.8088 47.0863 52.8088H45.8266C45.6056 52.8088 45.473 52.9414 45.473 53.1623V54.0684C45.473 54.2894 45.3625 54.3999 45.1415 54.3999H44.368C44.147 54.3999 43.9923 54.5767 43.9923 54.7756C44.0365 58.7977 42.4233 59.5933 41.3183 59.6375C40.4343 59.6817 39.4399 59.2176 39.241 58.1568C39.0421 57.1402 39.6387 56.0574 40.8321 56.1237ZM48.147 52.9414C48.0807 52.8751 48.0365 52.7425 48.0365 52.7425H48.0586V52.0132C48.0586 51.9469 48.1912 51.9248 48.1912 51.9248L48.6774 52.3447C48.7216 52.411 48.7658 52.5215 48.7658 52.5215V53.317C48.7658 53.3612 48.6111 53.3612 48.6111 53.3612L48.147 52.9414ZM39.9702 65.7148H38.6664C38.3791 65.7148 38.2465 65.5159 38.357 65.2507H38.3791L39.1084 63.4386C39.2189 63.1734 39.3957 63.1734 39.5061 63.4386L40.2796 65.2507C40.3901 65.5159 40.2354 65.7148 39.9702 65.7148ZM52.9205 25.8253C52.5448 26.1126 51.9923 26.3336 51.462 25.98L51.3957 26.0021C51.2189 25.8916 51.02 25.8253 50.9095 25.8916C50.7769 25.9579 50.7548 26.1568 50.7548 26.3778C50.799 26.9966 50.357 27.3723 49.8929 27.5712C49.4509 27.748 48.8763 27.5049 48.6332 27.0408C48.3901 26.5767 48.5448 26.0242 48.9868 25.8916C49.252 25.8032 49.5614 25.9358 49.7161 26.1789C49.8929 26.4883 50.2023 26.1789 50.2023 25.9137C50.1802 25.6485 50.3349 25.317 50.5117 25.2065C50.7106 25.096 51.0642 25.1402 51.2852 25.2949C51.5062 25.4496 51.9481 25.317 51.7713 25.0077C51.6387 24.7646 51.6829 24.411 51.8818 24.2342C52.2133 23.9248 52.7658 24.0574 53.0531 24.4994C53.3404 24.9414 53.3183 25.538 52.9205 25.8253ZM54.0224 32.232C54.1782 32.3326 54.3112 32.4185 54.357 32.4552H54.4454C54.6664 32.5436 54.7327 32.3889 54.7327 32.2342C54.7234 32.1785 54.7141 32.0215 54.7032 31.8368C54.6881 31.5817 54.6699 31.2738 54.6443 31.1071C54.6116 30.8787 54.4827 30.855 54.3552 30.8316C54.3099 30.8233 54.2649 30.8151 54.2244 30.7977C54.0476 30.7314 54.0255 30.643 54.0476 30.5325C54.0918 30.422 54.1139 30.3778 54.2907 30.3336C54.4675 30.2894 54.6443 30.2452 54.6443 30.0905C54.6443 29.9579 54.4896 29.8916 54.1802 29.7811C53.8342 29.6537 53.4733 29.2112 53.0973 28.7503C53.017 28.6518 52.9359 28.5524 52.8542 28.4552C53.694 29.2728 54.7548 29.3833 55.2189 29.2286C55.705 29.0519 55.9702 28.5436 55.9481 28.0795C55.926 27.5049 55.4619 27.2176 55.1084 27.2176C54.7769 27.2397 54.4675 27.5712 54.5338 27.8806C54.6001 28.19 54.4675 28.3005 54.3349 28.3005C54.1802 28.3226 53.8708 28.1458 53.6277 27.969C53.4127 27.797 53.0861 27.4948 52.847 27.2735C52.7174 27.1537 52.6135 27.0575 52.5669 27.0187C52.2133 26.7314 51.705 26.9745 51.5061 27.1292C51.241 27.2397 50.8211 27.5491 50.8874 27.9911C50.8956 28.0572 50.9318 28.2101 50.9761 28.3974C51.0501 28.7107 51.147 29.1206 51.1747 29.3833C51.2189 29.6927 51.2189 30.0463 51.1305 30.1789C51.0421 30.2673 50.9095 30.3557 50.6664 30.1347C50.4233 29.9137 49.9813 30.0463 49.8045 30.3115C49.6056 30.6209 49.6498 31.1734 50.136 31.4828C50.5117 31.7259 51.1084 31.748 51.484 31.4165C51.8376 31.085 52.3238 30.1126 52.0365 28.9635C52.0941 29.1618 52.1628 29.362 52.2298 29.5571C52.394 30.0358 52.5477 30.4837 52.5006 30.7977C52.4564 31.1071 52.4343 31.2839 52.5227 31.3502C52.6443 31.4312 52.7658 31.308 52.8874 31.1847C52.8984 31.1735 52.9095 31.1623 52.9205 31.1513C53.0531 31.0408 53.0973 31.0408 53.2078 31.0408C53.3183 31.0629 53.3625 31.1292 53.3625 31.306C53.3566 31.3533 53.3412 31.3991 53.326 31.4441C53.2845 31.5672 53.2449 31.6848 53.4067 31.8143C53.5362 31.9178 53.8021 32.0897 54.0224 32.232ZM46.0922 53.6485V54.3556C46.0922 54.4661 46.1806 54.5545 46.1806 54.5545L46.6447 54.9744C46.7331 55.0628 46.7773 54.9302 46.7773 54.9302V54.1567C46.7773 54.0904 46.6889 53.9799 46.6889 53.9799L46.2027 53.5601C46.1364 53.538 46.0922 53.6485 46.0922 53.6485Z" fill="white"/>
</svg>
