<svg width="296" height="32" viewBox="0 0 296 32" fill="none" xmlns="http://www.w3.org/2000/svg">
<path fill-rule="evenodd" clip-rule="evenodd" d="M28.7359 0.00805283V0.669431C27.5526 0.607213 26.3726 0.84272 25.3038 1.3544C24.235 1.86609 23.3117 2.63761 22.6181 3.59839C21.2718 5.62976 20.7521 9.97596 20.7521 15.9756C20.7521 21.9752 21.2718 26.3214 22.6181 28.3528C23.3063 29.3223 24.2274 30.103 25.2965 30.6231C26.3656 31.1432 27.5483 31.386 28.7359 31.329V31.9904C26.5487 32.0811 24.3846 31.5133 22.5237 30.3606C17.705 27.1482 16.1697 20.5816 16.1697 15.9992C16.1697 11.4168 17.705 4.85028 22.5237 1.63788C24.3875 0.491784 26.5495 -0.0754346 28.7359 0.00805283ZM0.580078 0.00805283C2.75868 -0.0721506 4.91219 0.494997 6.76869 1.63788C11.6109 4.85028 13.1226 11.4168 13.1226 15.9992C13.1226 20.5816 11.6109 27.1482 6.76869 30.3606C4.9168 31.5142 2.75995 32.0822 0.580078 31.9904V31.329C1.76761 31.386 2.95038 31.1432 4.01948 30.6231C5.08858 30.103 6.00963 29.3223 6.69782 28.3528C8.02058 26.3451 8.56385 21.9989 8.56385 15.9992C8.56385 9.99958 8.02058 5.65339 6.69782 3.62201C6.00696 2.65689 5.08473 1.88077 4.01581 1.36487C2.94688 0.848983 1.76549 0.609852 0.580078 0.669431V0.00805283ZM195.831 13.7795L198.359 4.09505L197.934 4.16591C197.438 5.79573 196.564 6.71694 196.139 6.71694C195.816 6.71694 195.589 6.4592 195.261 6.08765C195.157 5.96903 195.042 5.83837 194.91 5.70125C194.542 5.23671 194.076 4.85854 193.545 4.5933C193.015 4.32806 192.432 4.18218 191.84 4.16591C189.17 4.16591 185.84 6.40987 183.478 10.6852C182.024 13.059 181.21 15.769 181.116 18.5509C181.116 23.1333 183.667 26.2748 187.352 26.2748C190.328 26.2748 192.973 23.6057 195.052 18.3619L194.509 18.1966C192.525 23.3222 190.115 25.6843 187.186 25.6843C184.777 25.6843 183.501 24.1726 183.501 21.2673C183.629 16.9016 184.83 12.6344 186.997 8.8428C188.509 6.1028 190.068 4.73281 191.721 4.73281C194.084 4.73281 195.406 7.09487 195.406 11.819C195.443 12.472 195.443 13.1265 195.406 13.7795H195.831ZM44.964 25.2579H47.8221V4.99137H44.964V4.42448H53.373C58.2624 4.42448 61.7583 8.69981 61.7583 14.9829C61.8438 16.6771 61.5726 18.3705 60.9622 19.9533C60.3519 21.5361 59.416 22.9731 58.2152 24.1713C56.4986 25.4843 54.3383 26.0774 52.1919 25.8248H44.964V25.2579ZM50.4204 4.99137V25.2579H52.0974C54.4595 25.2579 56.1129 25.0217 57.2231 23.5336C58.6041 21.0361 59.1892 18.1764 58.9002 15.3372C58.9002 7.99119 57.9081 4.99137 53.184 4.99137H50.4204ZM75.2915 18.7632C75.2915 23.0386 72.6696 26.1801 69.717 26.1801C66.7645 26.1801 64.1426 23.0386 64.1426 18.7632C64.1426 14.4879 66.7172 11.3464 69.717 11.3464C72.7169 11.3464 75.2915 14.4879 75.2915 18.7632ZM66.7172 18.7632C66.7172 23.4874 67.2841 25.6841 69.7879 25.6841C72.2917 25.6841 72.8586 23.4401 72.8586 18.7632C72.8586 14.0864 72.1736 11.8188 69.717 11.8188C67.2605 11.8188 66.7172 14.1808 66.7172 18.7632ZM85.837 11.5164C85.587 11.4071 85.3174 11.3492 85.0445 11.3464C83.4147 11.3464 82.2337 12.6455 81.5487 15.1493L81.4306 11.677H77.2497V12.1495H79.3047V25.3534H77.2497V25.8258H83.6509V25.3534H81.5487V18.6924C81.5487 14.4879 83.2494 11.8188 84.8792 11.8188C85.2255 11.7991 85.5693 11.8889 85.8618 12.0754C86.1543 12.262 86.3807 12.5358 86.509 12.8581C86.3934 12.7351 86.2545 12.6363 86.1005 12.5673C85.9464 12.4984 85.7802 12.4607 85.6114 12.4565C85.45 12.4592 85.2909 12.495 85.1439 12.5616C84.9969 12.6282 84.8651 12.7242 84.7566 12.8438C84.6482 12.9633 84.5654 13.1038 84.5133 13.2566C84.4613 13.4093 84.4411 13.5712 84.454 13.732C84.4507 13.8963 84.4809 14.0594 84.543 14.2115C84.605 14.3636 84.6975 14.5014 84.8148 14.6165C84.932 14.7315 85.0715 14.8214 85.2248 14.8805C85.3781 14.9396 85.5418 14.9668 85.7059 14.9603C85.8942 14.9578 86.08 14.9164 86.2516 14.8389C86.4232 14.7613 86.577 14.6492 86.7033 14.5096C86.8297 14.3699 86.9258 14.2058 86.9859 14.0273C87.0459 13.8488 87.0685 13.6598 87.0523 13.4722C87.065 13.1996 87.0226 12.9272 86.9277 12.6713C86.8328 12.4154 86.6873 12.1812 86.5 11.9828C86.3125 11.7844 86.0871 11.6258 85.837 11.5164ZM94.2124 26.1801C91.3071 26.1801 88.6616 23.0385 88.6616 18.7868C88.6246 16.5463 89.4734 14.3817 91.0237 12.7636C91.4652 12.2964 92.001 11.9285 92.5956 11.6842C93.1901 11.4398 93.8298 11.3247 94.4723 11.3463C94.9396 11.3494 95.4016 11.4449 95.8319 11.6273C96.2621 11.8097 96.652 12.0754 96.9792 12.4091C97.3063 12.7428 97.5642 13.1379 97.738 13.5717C97.9117 14.0055 97.998 14.4694 97.9918 14.9367C97.9918 16.0941 97.3304 16.8027 96.4328 16.8027C96.0569 16.8027 95.6964 16.6534 95.4306 16.3876C95.1649 16.1218 95.0155 15.7613 95.0155 15.3855C95.0056 15.1987 95.0346 15.012 95.1008 14.8371C95.167 14.6622 95.2689 14.503 95.4 14.3697C95.5311 14.2364 95.6886 14.1318 95.8623 14.0627C96.0361 13.9936 96.2223 13.9614 96.4092 13.9682C96.6186 13.9758 96.824 14.0282 97.0114 14.1219C97.1989 14.2156 97.364 14.3485 97.4957 14.5115C97.4194 13.7702 97.07 13.0839 96.5155 12.5861C95.961 12.0884 95.241 11.8148 94.4959 11.8187C91.5433 11.8187 91.1418 14.3225 91.1418 19.3773C91.1418 23.6291 91.7795 25.6368 94.3069 25.6368C96.8343 25.6368 98.2516 23.7472 98.4878 20.4403H98.9838C98.6768 24.1015 96.858 26.1801 94.2597 26.1801H94.2124ZM104.56 18.715C104.56 14.6286 106.332 12.1012 108.245 12.1012C109.497 12.1012 110.111 13.0696 110.111 15.0301V25.376H108.009V25.8484H114.386V25.376H112.308V16.0695C112.308 13.0224 110.702 11.3453 108.788 11.3453C106.875 11.3453 105.174 12.8334 104.513 15.5026V4.42448H100.214V4.92051H102.316V25.3524H100.214V25.8248H106.615V25.3524H104.56V18.715ZM126.363 21.5028C125.82 24.5027 124.001 26.227 121.639 26.227C118.427 26.227 115.876 23.0382 115.876 18.7156C115.844 16.5984 116.631 14.5507 118.072 12.9994C118.482 12.4996 118.998 12.0966 119.582 11.8189C120.166 11.5413 120.804 11.3959 121.45 11.3932C124.096 11.3932 126.174 14.0151 126.387 18.4794H118.427V20.0384C118.427 23.9358 119.442 25.7309 121.97 25.7309C123.812 25.7309 125.418 24.2428 125.914 21.5973L126.363 21.5028ZM124.001 17.9125V16.3063C124.001 13.212 123.434 11.8184 121.403 11.8184C119.371 11.8184 118.498 13.7553 118.403 17.9125H124.001ZM134.253 25.6842C134.27 25.6844 134.287 25.6844 134.304 25.6842H134.253ZM134.326 25.6839C132.218 25.6558 130.302 23.674 129.411 20.0389H129.08V25.8496H129.411L130.781 24.1961C131.199 24.7697 131.741 25.2417 132.367 25.5771C132.992 25.9124 133.686 26.1024 134.395 26.133C134.945 26.1245 135.488 26.0044 135.99 25.7799C136.492 25.5555 136.944 25.2313 137.317 24.8271C137.69 24.4229 137.977 23.9471 138.161 23.4285C138.345 22.91 138.422 22.3595 138.387 21.8104C138.387 19.4011 136.922 18.3146 134.159 16.921C132.174 15.9997 130.828 15.362 130.828 13.6377C130.833 13.3821 130.891 13.1303 130.998 12.898C131.105 12.6657 131.258 12.4579 131.449 12.2873C131.639 12.1168 131.863 11.9872 132.105 11.9066C132.348 11.826 132.605 11.7962 132.859 11.8189C134.655 11.8189 136.473 13.6849 137.253 16.9446H137.584V11.6772L136.025 12.9999C135.644 12.5159 135.165 12.1182 134.62 11.8331C134.074 11.5481 133.474 11.3822 132.859 11.3465C132.384 11.3199 131.908 11.3928 131.462 11.5605C131.016 11.7282 130.611 11.987 130.27 12.3204C129.93 12.6539 129.664 13.0546 129.487 13.4969C129.311 13.9393 129.228 14.4136 129.245 14.8896C129.245 17.0627 130.615 17.7949 132.812 18.9287L132.939 18.994C135.437 20.2768 136.922 21.0394 136.922 22.9442C136.935 23.3015 136.875 23.6577 136.746 23.9912C136.618 24.3247 136.423 24.6287 136.173 24.8848C135.924 25.1409 135.625 25.3438 135.295 25.4812C134.987 25.6092 134.658 25.6779 134.326 25.6839ZM139.705 12.149V11.6766H142.067V7.37768C142.568 7.2884 143.037 7.06904 143.427 6.74154C143.816 6.41405 144.113 5.98993 144.287 5.51165V11.6766H146.933V12.149H144.217V23.7704C144.217 25.0223 144.406 25.5892 145.256 25.5892C146.106 25.5892 147.264 24.5026 147.405 22.4949H147.878C147.712 24.857 146.65 26.2033 144.878 26.2033C143.106 26.2033 141.996 25.164 141.996 23.1563V12.149H139.705ZM155.389 26.227C157.751 26.227 159.57 24.5027 160.113 21.5028L159.641 21.5973C159.145 24.2428 157.539 25.7309 155.696 25.7309C153.169 25.7309 152.153 23.9358 152.153 20.0384V18.4794H160.113C159.901 14.0151 157.846 11.3932 155.176 11.3932C154.534 11.3977 153.9 11.5441 153.32 11.8217C152.74 12.0993 152.229 12.5015 151.822 12.9994C150.381 14.5507 149.594 16.5984 149.626 18.7156C149.626 23.0382 152.177 26.227 155.389 26.227ZM157.751 16.3063V17.9125H152.153C152.248 13.7553 153.121 11.8184 155.153 11.8184C157.184 11.8184 157.751 13.212 157.751 16.3063ZM169.866 11.3464C170.139 11.3492 170.408 11.4071 170.658 11.5164C170.909 11.6258 171.134 11.7844 171.321 11.9828C171.509 12.1812 171.654 12.4154 171.749 12.6713C171.844 12.9272 171.886 13.1996 171.874 13.4722C171.89 13.6598 171.867 13.8488 171.807 14.0273C171.747 14.2058 171.651 14.3699 171.525 14.5096C171.398 14.6492 171.245 14.7613 171.073 14.8389C170.901 14.9164 170.716 14.9578 170.527 14.9603C170.364 14.967 170.202 14.9398 170.05 14.8804C169.897 14.821 169.759 14.7308 169.644 14.6154C169.529 14.5 169.438 14.3619 169.379 14.2099C169.32 14.0578 169.292 13.8951 169.299 13.732C169.283 13.5724 169.3 13.4111 169.349 13.2584C169.398 13.1056 169.479 12.9648 169.585 12.8449C169.692 12.7249 169.822 12.6284 169.968 12.5616C170.114 12.4947 170.272 12.459 170.433 12.4565C170.602 12.4594 170.768 12.4965 170.923 12.5655C171.077 12.6345 171.216 12.734 171.33 12.8581C171.21 12.5355 170.988 12.2603 170.699 12.0732C170.41 11.8861 170.068 11.7969 169.724 11.8188C168 11.8188 166.37 14.4879 166.37 18.6924V25.3534H168.472V25.8258H162.071V25.3534H164.15V12.1495H162.071V11.677H166.252V15.1493C166.937 12.6455 168.118 11.3464 169.748 11.3464H169.866ZM208.229 16.2831C208.217 18.2546 207.679 20.1871 206.67 21.8812C206.147 23.0325 205.339 24.0314 204.322 24.7836C203.305 25.5358 202.113 26.0165 200.859 26.1801C198.875 26.1801 197.08 24.0779 197.08 21.0072C197.171 18.6199 197.996 16.3188 199.442 14.417C200.014 13.5399 200.78 12.8064 201.681 12.2738C202.583 11.7412 203.595 11.4238 204.639 11.3464C206.717 11.3464 208.323 13.236 208.323 16.2831H208.229ZM202.253 13.4486C201.141 15.2793 200.298 17.26 199.749 19.3301C199.255 20.7153 198.953 22.1618 198.852 23.6291C198.821 23.8954 198.848 24.1652 198.931 24.4201C199.014 24.6751 199.151 24.9091 199.332 25.1064C199.514 25.3036 199.736 25.4594 199.983 25.5632C200.23 25.667 200.497 25.7163 200.765 25.7077C201.757 25.7077 202.584 25.0936 203.292 23.7944C205.092 20.8367 206.199 17.5095 206.528 14.0627C206.583 13.7806 206.572 13.4898 206.497 13.2125C206.422 12.9352 206.285 12.6786 206.096 12.4622C205.907 12.2459 205.671 12.0755 205.406 11.964C205.141 11.8525 204.855 11.8028 204.568 11.8188C204.072 11.8795 203.598 12.0595 203.186 12.3433C202.775 12.6271 202.439 13.0064 202.206 13.4486H202.253ZM211.201 25.1838C211.175 25.0927 211.169 24.9973 211.182 24.9036V24.8799C211.208 24.45 211.303 24.0271 211.466 23.6281L217.89 4.42448H212.741L212.599 4.92051H213.804C214.82 4.92051 215.198 5.08586 215.198 5.62913C215.154 6.08413 215.043 6.53004 214.867 6.95189L210.804 19.0457C210.278 20.3447 209.944 21.7132 209.812 23.1084C209.812 24.9744 210.521 26.1791 211.82 26.1791C213.119 26.1791 214.607 24.195 216.544 20.4629L216.119 20.2503C214.182 23.8406 212.907 25.683 211.82 25.683C211.726 25.6775 211.633 25.6523 211.549 25.6093C211.465 25.5663 211.39 25.5063 211.33 25.433C211.27 25.3598 211.226 25.2749 211.201 25.1838ZM220.254 24.9036C220.254 25.376 220.513 25.683 220.868 25.683C221.954 25.683 223.23 23.8406 225.19 20.2503L225.616 20.4629C223.679 24.195 222.167 26.1791 220.891 26.1791C219.616 26.1791 218.884 24.9744 218.884 23.1084C218.989 21.7162 219.299 20.3471 219.805 19.0457L223.868 6.95189C224.044 6.53004 224.155 6.08413 224.198 5.62913C224.198 5.08586 223.844 4.92051 222.828 4.92051H221.671L221.813 4.42448H226.938L220.513 23.6281C220.356 24.0276 220.269 24.4509 220.254 24.8799V24.9036ZM230.713 26.1797C233.193 26.1797 235.295 24.1956 237.35 20.2037L236.901 19.9675C234.941 23.7232 232.98 25.6364 230.807 25.6364C229.39 25.6364 228.729 24.8097 228.729 23.1327C228.773 21.9572 229.02 20.7983 229.461 19.7077C234.657 18.9046 237.445 16.7787 237.445 14.1804C237.439 13.7938 237.355 13.4122 237.199 13.0586C237.042 12.7049 236.816 12.3863 236.534 12.1218C236.252 11.8574 235.92 11.6524 235.557 11.5191C235.194 11.3858 234.807 11.3269 234.421 11.346C233.214 11.6142 232.079 12.1419 231.096 12.8924C230.114 13.6429 229.306 14.5982 228.729 15.6922C227.531 17.378 226.872 19.3876 226.839 21.4556C226.839 24.3137 228.233 26.1797 230.713 26.1797ZM234.516 11.8184C235.295 11.8184 235.838 12.4089 235.838 13.4718C235.688 15.0305 234.969 16.4793 233.819 17.5422C232.669 18.6051 231.168 19.2077 229.603 19.2352C231.138 14.1804 232.768 11.8184 234.516 11.8184ZM248.877 20.2043C246.869 24.1726 244.602 26.1804 242.429 26.1804C240.256 26.1804 238.768 24.1962 238.768 21.1255C238.786 19.3184 239.266 17.5459 240.161 15.9762C240.72 14.719 241.59 13.6251 242.689 12.7984C243.789 11.9716 245.081 11.4394 246.444 11.2521C246.834 11.2182 247.227 11.2713 247.594 11.4076C247.961 11.5439 248.293 11.7599 248.567 12.0401C248.84 12.3203 249.048 12.6577 249.175 13.0279C249.302 13.3981 249.346 13.792 249.302 14.1811C249.328 14.4524 249.299 14.7261 249.215 14.9856C249.132 15.2452 248.997 15.485 248.818 15.6905C248.639 15.896 248.42 16.063 248.174 16.1811C247.929 16.2993 247.661 16.3662 247.389 16.3778C247.228 16.382 247.067 16.3518 246.919 16.2891C246.77 16.2263 246.636 16.1326 246.527 16.0141C246.417 15.8956 246.334 15.755 246.283 15.6018C246.232 15.4487 246.215 15.2864 246.232 15.1259C246.232 14.3464 246.657 13.8976 247.554 13.4724C247.641 13.4246 247.722 13.3831 247.796 13.3453C248.121 13.1779 248.31 13.0807 248.31 12.8111C248.31 12.4804 247.649 11.819 246.586 11.819C246.018 11.8454 245.466 12.0098 244.976 12.2979C244.486 12.586 244.074 12.9892 243.775 13.4724C242.463 15.6578 241.543 18.0561 241.059 20.5586C240.802 21.4342 240.659 22.3393 240.634 23.2514C240.634 24.8576 241.295 25.6135 242.523 25.6135C244.413 25.6135 246.492 23.7002 248.428 19.9445L248.877 20.2043ZM259.58 11.6769H256.604L258.706 5.81901H256.58L254.596 11.6533H252.092L251.903 12.2911H254.407L252.045 19.0229C251.489 20.464 251.132 21.9737 250.982 23.5109C250.982 25.0934 251.879 26.1564 252.942 26.1564C254.336 26.1564 255.706 24.2431 257.666 20.4402L257.289 20.2276C255.328 23.8179 254.053 25.6603 252.966 25.6603C252.612 25.6603 252.352 25.3533 252.352 24.8809C252.367 24.4518 252.455 24.0285 252.612 23.629L256.415 12.3147H259.391L259.58 11.6769ZM263.505 11.3457C264.639 11.3457 265.418 12.4086 265.418 14.2747C265.245 16.1787 264.665 18.0234 263.718 19.6838C262.782 21.1996 262.104 22.8597 261.71 24.5969C261.71 25.3055 261.97 25.6834 262.489 25.6834C263.647 25.6834 265.229 23.7465 266.835 19.8964L267.284 20.0853C265.607 24.1717 263.883 26.1795 262.56 26.1795C261.237 26.1795 260.458 24.8567 260.458 22.9671C260.576 21.3006 261.077 19.6838 261.922 18.2429C262.991 16.4916 263.787 14.5881 264.284 12.5976C264.298 12.4864 264.287 12.3738 264.255 12.2668C264.222 12.1598 264.167 12.0609 264.093 11.9763C264.02 11.8918 263.93 11.8236 263.828 11.776C263.727 11.7284 263.617 11.7025 263.505 11.7C262.348 11.7 261.143 13.3298 259.419 16.4241L258.946 16.1879C260.765 12.9047 262.088 11.2276 263.434 11.2276L263.505 11.3457ZM265.442 8.29865C265.267 8.30981 265.092 8.28285 264.929 8.21965C264.766 8.15645 264.619 8.05851 264.498 7.93264C264.376 7.80678 264.284 7.656 264.227 7.49078C264.169 7.32556 264.149 7.14986 264.166 6.97589C264.165 6.51956 264.338 6.07997 264.65 5.74651C264.961 5.41305 265.388 5.21074 265.843 5.18072C266.02 5.17354 266.196 5.20383 266.36 5.26959C266.524 5.33536 266.672 5.43512 266.795 5.5623C266.918 5.68949 267.012 5.84122 267.072 6.00751C267.132 6.17379 267.156 6.35088 267.142 6.5271C267.143 6.98492 266.966 7.4251 266.649 7.75537C266.332 8.08564 265.899 8.28033 265.442 8.29865ZM277.956 21.8812C278.953 20.1822 279.491 18.2528 279.515 16.2831H279.681C279.681 13.236 278.074 11.3464 275.996 11.3464C274.952 11.4238 273.94 11.7412 273.038 12.2738C272.137 12.8064 271.371 13.5399 270.799 14.417C269.353 16.3188 268.528 18.6199 268.437 21.0072C268.437 24.0779 270.232 26.1801 272.217 26.1801C273.458 26.0052 274.635 25.5193 275.639 24.7678C276.642 24.0162 277.439 23.0233 277.956 21.8812ZM271.106 19.3301C271.655 17.26 272.499 15.2793 273.61 13.4486H273.657C273.89 13.0064 274.227 12.6271 274.638 12.3433C275.049 12.0595 275.523 11.8795 276.019 11.8188C276.299 11.805 276.579 11.8537 276.837 11.9612C277.096 12.0687 277.327 12.2324 277.515 12.4404C277.703 12.6483 277.842 12.8954 277.922 13.1638C278.003 13.4321 278.022 13.715 277.98 13.9919C277.65 17.4386 276.544 20.7659 274.744 23.7236C274.035 25.0227 273.209 25.6368 272.217 25.6368C271.949 25.6454 271.682 25.5961 271.435 25.4923C271.188 25.3886 270.966 25.2328 270.784 25.0355C270.602 24.8383 270.466 24.6042 270.383 24.3493C270.3 24.0944 270.273 23.8246 270.303 23.5582C270.38 22.1192 270.65 20.6972 271.106 19.3301ZM285.637 14.6298C285.86 14.0455 286.003 13.4337 286.062 12.811C286.062 12.1969 285.755 11.7953 285.33 11.7953C284.314 11.7953 282.967 13.8503 281.267 17.9367L280.794 17.795C282.684 13.5196 283.983 11.3229 285.33 11.3229C286.676 11.3229 287.125 12.4095 287.125 14.1102C287.06 15.6609 286.814 17.1988 286.392 18.6926C288.518 13.8267 290.195 11.3702 291.802 11.3702C292.983 11.3702 293.951 12.5276 293.951 14.37C293.851 15.8541 293.491 17.309 292.888 18.6689C291.949 20.5846 291.273 22.6188 290.88 24.7158C290.88 25.3063 291.117 25.6134 291.565 25.6134C292.77 25.6134 293.715 23.771 295.463 20.2279L295.864 20.4405C294.069 24.2434 292.959 26.1803 291.542 26.1803C290.125 26.1803 289.392 25.0465 289.392 23.2986C289.44 22.0859 289.713 20.8926 290.195 19.7791L291.92 15.551C292.303 14.7349 292.528 13.853 292.581 12.9527C292.581 12.2205 292.321 11.8898 291.778 11.8898C289.936 11.8898 287.455 16.6139 284.196 25.826H282.023L285.637 14.6298Z" fill="black"/>
</svg>
