<svg width="73" height="73" viewBox="0 0 73 73" fill="none" xmlns="http://www.w3.org/2000/svg">
<path fill-rule="evenodd" clip-rule="evenodd" d="M32.1074 43.5166L23.5218 27.9082C23.2963 28.3596 22.8968 29.1409 22.5844 29.7399C22.4852 29.9313 22.4091 30.0937 22.3538 30.2402C22.2735 30.4525 22.237 30.6314 22.237 30.8163C22.237 30.9845 22.2815 31.1495 22.3629 31.3402C22.4161 31.4645 22.4848 31.5997 22.567 31.7539C22.7666 32.1271 24.338 35.0179 25.9091 37.9087C25.4924 38.5511 25.0844 38.7681 24.338 38.7681H19.8411C18.6345 38.7681 18.0356 39.2195 17.5841 40.105C17.1153 41.0078 16.2733 42.6485 15.8132 43.5253H16.5944L16.7993 43.1261L16.9682 42.7997L17.2281 42.3012C17.7056 41.3637 17.9313 41.1988 18.8863 41.1988H23.3482C24.6851 41.1988 25.067 40.9384 25.4837 40.1397C25.7876 39.5494 26.022 39.1067 26.2912 38.5772C26.7153 39.3502 27.1319 40.1086 27.5155 40.8035C28.1526 41.9578 28.6984 42.9368 29.0343 43.5166H32.1074ZM2.44455 41.8672C3.17362 41.2682 3.61635 41.0251 4.64086 41.0251H12.1411L11.3599 42.5183C10.9691 43.2562 10.5351 43.5166 9.66697 43.5166H0.222168V28.3509H0.985992V43.0912C1.48087 42.6832 1.88885 42.3273 2.44455 41.8672ZM50.4502 39.4886V28.3509H51.2055V43.5166H50.3809L37.5849 29.0801V43.5166H36.8211V28.3509H38.6355C40.2066 28.3509 40.7449 28.5419 41.7432 29.6705C41.9871 29.9463 42.3171 30.3186 42.7087 30.7599L44.7128 33.0173L44.7802 33.0932L44.8406 33.161C46.7955 35.3626 49.0919 37.9489 50.4502 39.4886ZM63.6279 27.9082L72.2222 43.5166H69.1404C68.6023 42.5878 67.5258 40.6345 66.3973 38.5772C66.2381 38.8901 66.0912 39.1727 65.9348 39.4734C65.8267 39.6816 65.714 39.8983 65.5898 40.1397C65.1731 40.9384 64.7912 41.1988 63.4543 41.1988H58.9924C58.0374 41.1988 57.8117 41.3637 57.3342 42.3012C57.2295 42.5008 57.1017 42.7462 56.9741 42.993L56.7005 43.5253H55.9193C56.2037 42.9835 56.6337 42.15 57.0315 41.3792C57.2776 40.9026 57.5111 40.45 57.6902 40.105C58.1416 39.2195 58.7406 38.7681 59.9471 38.7681H64.444C65.1905 38.7681 65.5985 38.5511 66.0151 37.9087C64.444 35.0179 62.8727 32.1271 62.6731 31.7539C62.4648 31.3632 62.3431 31.0942 62.3431 30.8163C62.3431 30.5038 62.4474 30.2087 62.6905 29.7399C63.0029 29.1409 63.4024 28.3596 63.6279 27.9082Z" fill="white"/>
</svg>
