<svg width="73" height="73" viewBox="0 0 73 73" fill="none" xmlns="http://www.w3.org/2000/svg">
<path fill-rule="evenodd" clip-rule="evenodd" d="M45.2105 15.6351C45.3708 15.6389 45.5197 15.6428 45.6059 15.7001L45.6265 15.7211C45.6968 16.1265 45.4786 16.1974 45.2254 16.2795L45.1612 16.3006C45.1274 16.3121 45.0924 16.3245 45.0585 16.3383C44.9846 16.3681 44.9127 16.4051 44.8485 16.4572L42.8295 19.3597L42.3555 19.2149C40.3663 18.6059 38.3621 17.9925 36.1413 17.9925C36.0946 17.8423 36.0853 17.6808 36.0966 17.5137C36.1115 17.2973 36.1613 17.0711 36.2111 16.8464C36.3482 16.2259 36.4828 15.6171 35.8676 15.2582C35.4784 15.4528 35.3536 15.7116 35.3516 16.0033C35.3505 16.097 35.3629 16.194 35.3829 16.2934C35.4163 16.459 35.4717 16.6313 35.5277 16.8051C35.6391 17.1504 35.7531 17.5027 35.6992 17.8244L35.0122 17.9235C32.9515 18.2185 30.9145 18.5099 29.1163 19.3807C28.5864 18.9715 28.2618 18.4143 27.9409 17.8636C27.5363 17.1689 27.1378 16.4844 26.3399 16.1206C26.3342 16.0759 26.3111 16.0179 26.2864 15.9568C26.2182 15.7876 26.1406 15.5948 26.403 15.5948C26.5535 15.6875 26.6746 15.7149 26.7773 15.7006C26.953 15.6757 27.0747 15.5283 27.2005 15.376C27.4007 15.1337 27.6112 14.879 28.0647 15.09C28.1191 15.0289 28.1468 14.9676 28.172 14.9129C28.2249 14.7981 28.2644 14.7113 28.5063 14.7113C28.5792 14.6833 28.6326 14.6823 28.6737 14.699C28.7476 14.7285 28.782 14.8148 28.8179 14.9054C28.8282 14.9316 28.839 14.9581 28.8508 14.9837L28.8601 15.0025C28.8672 15.0181 28.876 15.0333 28.8847 15.0479C28.5484 15.4895 28.4852 16.0364 28.8426 16.373C29.1163 16.7306 29.6421 16.7096 29.9153 16.5203C30.1802 16.4248 30.3492 16.2171 30.4272 15.9778C30.4616 15.8731 30.4786 15.7622 30.4781 15.652C30.4775 15.5152 30.4508 15.3796 30.399 15.2582L30.3425 15.2079C30.3173 15.1868 30.2917 15.1668 30.266 15.1475C30.1992 15.0982 30.1304 15.0538 30.0642 15.0109C29.9415 14.9316 29.8269 14.8574 29.7474 14.7658C29.6503 14.6541 29.6056 14.5165 29.6631 14.3118C29.9014 14.0638 30.1833 14.1231 30.4421 14.1773C30.7528 14.2428 31.0301 14.3011 31.1564 13.8071C31.5615 14.0453 31.8116 13.8921 32.0822 13.7257C32.2891 13.5986 32.5084 13.4643 32.818 13.4915C33.0075 13.7414 32.876 14.0864 32.7456 14.4284C32.5577 14.9216 32.3718 15.4084 33.1544 15.5948C33.7854 15.7419 34.3744 15.4687 34.5428 14.8376C34.5562 14.67 34.5156 14.5357 34.4473 14.4189C34.3729 14.291 34.2645 14.1845 34.1567 14.0782C33.8938 13.8189 33.634 13.5621 33.8696 13.0078C34.2435 12.8258 34.5444 12.9306 34.8242 13.0276C35.1261 13.1326 35.4034 13.2289 35.7203 12.9447C35.8276 12.9647 35.9369 12.9593 36.0422 12.9539C36.2676 12.9426 36.4746 12.9323 36.604 13.176C36.6692 13.1416 36.739 13.1092 36.813 13.0802C36.8802 13.054 36.9501 13.0307 37.0225 13.0112C37.3074 12.9347 37.6268 12.919 37.9288 13.0289C38.0428 13.1945 38.0566 13.3639 38.013 13.5342C37.9524 13.7698 37.7824 14.0071 37.6166 14.2379C37.2181 14.7935 36.8468 15.3111 38.0972 15.679C38.1645 15.6628 38.2343 15.6487 38.3046 15.6346C38.5711 15.5809 38.8464 15.5252 39.0348 15.3552C39.1237 15.2751 39.193 15.1696 39.233 15.0269C39.2541 14.9686 39.2643 14.9129 39.2659 14.8597C39.2669 14.8074 39.2602 14.757 39.2469 14.7085C39.2074 14.5645 39.1129 14.4358 39.022 14.3123C38.8936 14.138 38.7724 13.9734 38.8233 13.7888C38.8453 13.7085 38.9003 13.6243 39.0014 13.5336C39.0584 13.5193 39.1165 13.5116 39.1735 13.51C39.2941 13.5069 39.4117 13.5316 39.5134 13.5791C39.6464 13.641 39.7516 13.7416 39.8009 13.8702C40.2302 13.5873 40.5239 13.8158 40.8069 14.0358C40.9152 14.12 41.022 14.203 41.1334 14.2556C41.1951 14.2844 41.2582 14.3041 41.324 14.31C41.3789 14.3149 41.4359 14.31 41.4955 14.2928C41.5771 14.269 41.6634 14.2217 41.7568 14.1437C41.8143 14.1437 41.8939 14.1634 41.9668 14.2002C42.0428 14.2382 42.1116 14.2946 42.1419 14.3668C42.1681 14.4287 42.1656 14.5021 42.1142 14.5853C42.0844 14.8353 41.9068 14.9522 41.7224 15.0739C41.5186 15.2079 41.306 15.3481 41.2731 15.679C41.21 16.1206 41.6726 16.6254 42.1142 16.7096C42.4105 16.7453 42.6534 16.6806 42.8541 16.5496C42.9404 16.4934 43.019 16.4248 43.0903 16.3468C43.1479 16.2841 43.2007 16.2153 43.25 16.1417C43.3913 15.8685 43.2542 15.6164 43.1294 15.3873C43.0919 15.3188 43.0559 15.2523 43.0287 15.1878C42.9948 15.108 42.9748 15.0315 42.9835 14.9583C42.9964 14.8471 43.0749 14.7437 43.2711 14.6484C43.3435 14.6864 43.4097 14.7324 43.4729 14.7817C43.5319 14.8281 43.5879 14.8774 43.6429 14.9262C43.8873 15.1419 44.1173 15.3452 44.5333 15.2161C44.5374 15.3262 44.5666 15.4068 44.6134 15.4662C44.6529 15.5162 44.7048 15.5511 44.7648 15.5753C44.8927 15.6271 45.0565 15.6312 45.2105 15.6351ZM28.9479 20.0958V19.9065C33.028 17.9083 38.9593 17.8662 42.7453 20.1379C39.3588 19.0231 35.3418 18.1817 31.5769 19.3807L28.9479 20.0958ZM40.2004 23.1456C36.9403 23.6922 33.1333 23.7343 30.189 22.6198C29.9995 22.4514 29.9995 22.094 30.1679 22.0098C33.5749 20.8319 38.2651 20.7479 41.5884 22.1359C41.7368 22.6997 41.2469 22.8345 40.7612 22.9682C40.5578 23.0239 40.355 23.0796 40.2004 23.1664V23.1456ZM42.4084 20.6216C38.5388 18.8128 33.2386 18.9181 29.3052 20.5584C29.2241 20.7718 29.3094 20.9995 29.4028 21.2491C29.5035 21.5168 29.6128 21.8095 29.5368 22.1359C29.2765 22.952 30.0765 23.1803 30.7656 23.3772L30.9361 23.4265C31.0208 23.4514 31.1025 23.4766 31.1774 23.503C34.4792 24.4496 39.0857 24.4707 42.1142 22.7669C42.0572 22.3908 42.1548 22.0029 42.2523 21.6157L42.2539 21.6095C42.336 21.2837 42.4182 20.9589 42.4084 20.6426V20.6216ZM52.8097 26.9816C52.1781 26.834 51.4977 26.6753 51.3262 27.2677C52.6515 27.3098 53.9137 27.7095 55.07 28.109L55.2385 27.9198C55.3227 27.8356 55.2174 27.5621 55.2174 27.5621L53.4294 27.0995C53.3226 27.09 53.2061 27.0692 53.0844 27.0435L52.9781 27.0204L52.8097 26.9816ZM42.9132 30.128L42.9974 30.0441H42.9764C43.2649 29.6867 43.2752 29.1948 43.1653 28.7501C43.1073 28.5141 43.0154 28.2913 42.9132 28.109C42.5558 27.6674 41.9247 27.2677 41.21 27.3729C40.3473 27.5832 39.5694 28.1301 39.1488 28.9504C39.0554 29.2669 38.8854 29.5927 38.7113 29.9262C38.2959 30.7221 37.8579 31.5609 38.3914 32.4208C39.1832 32.1268 39.308 31.3599 39.4348 30.5814C39.517 30.078 39.5997 29.5699 39.8636 29.1817C40.2841 28.6348 40.9784 28.2564 41.7779 28.4035C42.5137 28.6348 42.8084 29.5183 42.9132 30.128ZM41.3568 43.7152C41.7989 43.8834 42.5137 43.7573 42.7663 43.3154V43.2944C39.0014 41.7591 38.7488 37.1531 38.7067 33.4513L38.0972 33.914C37.7814 37.5526 38.0972 41.8012 41.3568 43.7152ZM36.2245 38.3318C36.2091 38.3531 35.9693 38.683 35.8676 38.52C35.6781 38.0784 35.7413 37.4684 35.9097 37.0268C36.3056 37.1536 36.2723 37.579 36.2404 37.9788V37.9842C36.2307 38.1056 36.2209 38.2245 36.2245 38.3318ZM33.2175 33.4934C33.3649 37.3002 32.9017 41.6541 29.2421 43.3575C29.6 43.7781 30.21 43.6731 30.6516 43.5678C33.9533 41.6119 34.0797 37.721 33.9533 33.9982C33.9076 33.9571 33.8614 33.9063 33.8126 33.8526C33.6622 33.686 33.4881 33.4934 33.2175 33.4934ZM31.1533 28.4518C31.258 28.4741 31.3587 28.4954 31.4506 28.5088C32.3441 28.8946 32.5027 29.7432 32.6583 30.5725C32.799 31.3245 32.9366 32.0606 33.617 32.4208C34.1469 31.6554 33.7295 30.7974 33.3228 29.9619C33.1482 29.6035 32.9757 29.2492 32.8807 28.9082C32.397 27.9408 31.4085 27.3519 30.3569 27.394C29.5789 27.52 28.9689 28.1511 28.8215 28.8661C28.8426 29.392 28.9479 30.002 29.3052 30.0862C29.2 29.4551 29.5158 28.9293 29.9574 28.5506C30.2901 28.2677 30.7548 28.3668 31.1533 28.4518ZM16.9173 27.6042C16.8855 27.6674 16.8927 27.7455 16.9137 27.8181C16.9487 27.9393 17.0226 28.0458 17.0226 28.0458V28.0669C18.179 27.7514 19.4832 27.4361 20.808 27.3098V27.2048L20.7033 26.9521C19.7148 26.7796 18.7731 27.0635 17.8524 27.3411C17.6722 27.3953 17.493 27.4494 17.3138 27.5C17.1813 27.5372 17.0493 27.5724 16.9173 27.6042ZM20.577 23.2085C20.7665 23.3135 21.2081 23.3978 21.2923 23.2085V23.1875C21.2327 23.0922 21.0987 23.0576 20.9441 23.0455C20.8866 23.0409 20.826 23.0396 20.7654 23.0393L20.6596 23.0399L20.577 23.0401V23.2085ZM51.5999 23.0191C51.4104 22.8509 50.9899 23.0401 50.9056 23.2296V23.3135L50.9755 23.3084C51.2199 23.2904 51.5234 23.2681 51.5999 23.0191ZM66.9116 33.8298C66.5958 34.4609 66.1752 35.6177 66.6589 36.4799L66.8063 36.4588C66.8916 36.5682 66.9804 36.6794 67.0702 36.7926L67.1534 36.8968C68.4033 38.4607 69.9237 40.3642 68.8675 42.4951C68.3627 43.3154 67.5842 43.9676 66.6168 44.1778C65.7336 44.3039 64.9136 43.8834 64.1983 43.4628C64.0607 43.6579 64.1608 43.8718 64.2666 44.0975C64.3257 44.223 64.3857 44.3522 64.4083 44.4839L64.4124 44.5124C64.4201 44.5686 64.4196 44.6254 64.4088 44.6826C61.7377 44.4302 59.0033 44.2621 56.248 44.1778C56.4164 43.631 56.8369 43.4418 57.3628 43.3365L61.9687 43.7991C61.5744 42.5627 60.4991 42.2122 59.3869 41.8497C58.3045 41.4967 57.1866 41.1323 56.6264 39.9292C56.248 39.2353 56.0374 38.3518 56.4585 37.6368C56.5294 37.4768 56.6603 37.332 56.8005 37.1769L56.879 37.0899C56.2736 36.7369 55.5137 36.6499 54.7476 36.562L54.3737 36.5181C53.9208 36.4619 53.4741 36.39 53.0649 36.2475C52.8364 36.1679 52.6197 36.0663 52.4199 35.933C51.3026 38.3505 49.95 40.454 48.4948 42.7172L48.3397 42.9581C48.2273 43.1411 48.197 43.3902 48.1667 43.642C48.1056 44.1427 48.044 44.6546 47.3302 44.6826C47.1541 44.8212 46.9646 44.8428 46.7741 44.8248C46.7197 44.8197 46.6647 44.8112 46.6103 44.8015L46.4747 44.775C46.1343 44.7057 45.8129 44.6405 45.5844 45.0402H44.9749C44.8311 44.2831 45.3923 44.1416 45.9849 43.9925C46.3469 43.9013 46.7202 43.8074 46.9518 43.5678C48.1087 41.3175 49.265 38.7934 50.233 36.3749L50.464 35.1127C49.987 34.8742 49.7821 34.4103 49.5772 33.9451C49.3482 33.4259 49.1182 32.905 48.5082 32.6942C47.8981 31.8888 47.4206 31.0585 46.9446 30.2305C46.5502 29.5445 46.1564 28.8602 45.6896 28.1932C45.5515 28.0869 45.4077 27.9981 45.2604 27.9262C45.055 27.8261 44.8424 27.7593 44.6277 27.7252C44.3869 27.6867 44.143 27.689 43.9022 27.7306L43.9248 27.9021C44.0516 28.8497 44.2144 30.0657 43.4811 30.7591C42.9764 31.4741 42.0089 31.7897 41.1257 31.7265C39.3167 33.304 39.422 36.0383 39.9267 38.2257C40.0161 38.4548 40.0962 38.6982 40.1778 38.9459L40.1794 38.9513L40.1825 38.9613L40.184 38.967C40.5635 40.1228 40.9707 41.3647 42.3663 41.6748C43.1658 41.9275 44.049 41.3596 44.3648 40.6443C44.4521 40.3316 44.4506 39.9521 44.3376 39.6073C44.2606 39.3721 44.1317 39.1534 43.9438 38.9829L43.5864 38.8145C43.5504 38.8774 43.5201 38.949 43.4924 39.026C43.4621 39.1113 43.4344 39.2034 43.4067 39.2977C43.2824 39.7156 43.1473 40.1711 42.6611 40.2448C42.03 40.434 41.4831 40.1185 41.21 39.6769C41.1468 39.4797 41.1278 39.2794 41.1468 39.0874C41.1596 38.9595 41.1889 38.8353 41.2331 38.7179C41.2993 38.5415 41.3989 38.3808 41.5252 38.2468C41.9093 37.9554 42.4351 37.7975 42.9507 37.7834C43.2536 37.7752 43.553 37.8168 43.818 37.9102C44.6169 38.1415 45.2691 39.1089 45.4796 39.8032C46.0681 41.738 45.1638 43.6099 43.7759 44.6405C42.6611 45.3976 41.0626 44.9139 40.0531 44.1568C37.7603 41.8643 37.3819 38.6042 37.1714 35.239C36.3477 35.5885 36.5829 36.1454 36.8448 36.7644C37.024 37.1888 37.2155 37.6422 37.0877 38.0784C37.0245 38.7934 36.8771 39.6769 36.1829 39.9714C35.5041 39.9115 35.2802 39.2828 35.0974 38.7695L35.0681 38.6884C34.9274 37.9123 35.0984 37.2971 35.271 36.6776C35.3557 36.3739 35.4404 36.0691 35.4892 35.7438L35.4635 35.6976C35.369 35.5269 35.2843 35.3723 35.1102 35.218C35.0532 35.3641 35.008 35.5166 34.9716 35.6735C34.91 35.9418 34.8751 36.2231 34.8509 36.5094C34.8329 36.7228 34.8211 36.9387 34.8098 37.1538C34.7795 37.7207 34.7498 38.2817 34.6055 38.7726C34.0586 41.0019 33.2596 43.5889 31.0932 44.6405C30.2311 45.1032 29.0742 44.9771 28.2536 44.5565C26.9078 43.3786 26.0451 41.633 26.592 39.7611C26.8236 38.8566 27.602 38.1205 28.3799 37.826C29.2631 37.6368 30.1469 37.7839 30.6937 38.3729C30.7918 38.4881 30.8647 38.6178 30.9114 38.7546C30.9689 38.9215 30.9879 39.0992 30.9679 39.2751C30.9443 39.4812 30.8673 39.6851 30.7358 39.8661C30.5813 40.1493 30.2223 40.2671 29.8655 40.2581C29.639 40.2522 29.4136 40.1955 29.2421 40.0974C28.7163 39.845 28.6742 39.3192 28.6742 38.8776C28.478 38.7706 28.3081 38.8073 28.1715 38.9125C28.0919 38.9736 28.0236 39.0579 27.9676 39.1503C27.8926 39.2738 27.8397 39.4119 27.812 39.5298C27.4757 40.5182 28.1278 41.2754 28.9479 41.6119C29.7258 41.7591 30.6095 41.3806 31.0301 40.7495C32.4391 38.3939 33.1965 34.8185 31.619 32.3155C31.3304 31.6354 30.7086 31.5815 30.0904 31.5276C29.7268 31.4957 29.3638 31.4641 29.0706 31.3052C28.8446 31.183 28.6603 30.9853 28.5484 30.6539C27.9804 29.7707 28.1278 28.6348 28.3589 27.7306C27.6436 27.499 26.9499 27.7724 26.4241 28.1511C26.0461 28.7319 25.7134 29.3103 25.3878 29.8772L25.3786 29.8926C24.6941 31.0852 24.0399 32.2246 23.0587 33.22L22.9744 33.1358C22.9062 33.2642 22.8384 33.4041 22.7691 33.5476C22.4974 34.1089 22.1986 34.7268 21.7128 34.9446C21.7903 36.895 22.6848 38.5521 23.568 40.1883L23.5696 40.1922C24.1241 41.2189 24.6746 42.2376 25.0145 43.3154C25.2235 43.7332 25.6831 43.8413 26.1216 43.9442C26.5216 44.0379 26.9031 44.1278 27.0598 44.4454C27.1291 44.5856 27.1542 44.7702 27.1178 45.0192C26.7465 45.1196 26.5042 44.9897 26.2772 44.868C26.0287 44.7347 25.7981 44.611 25.4356 44.8089C24.2274 45.0189 24.0523 44.1881 23.871 43.3296C23.7621 42.8125 23.6512 42.2856 23.3113 41.9693C22.007 40.1395 20.6822 38.0573 19.8196 35.9751C19.2306 36.237 18.5374 36.3076 17.8349 36.3792C16.9569 36.4686 16.0639 36.5595 15.3399 37.0268C15.9078 37.721 16.0131 38.5831 15.7815 39.4034C15.2136 40.6653 14.0778 41.3175 12.8582 41.8012C12.6092 41.9162 12.3684 42.0094 12.1306 42.0867C11.8466 42.1788 11.5668 42.2487 11.2808 42.3059L10.166 43.4839L10.4392 43.652C10.9424 43.6877 11.4821 43.6079 12.0289 43.5077L12.3848 43.4407L12.3894 43.44C13.668 43.1958 14.9466 42.9514 15.8447 43.9044V43.9886L7.81012 44.4513C7.80293 44.2646 7.84966 44.1096 7.91692 43.9689C7.94619 43.9072 7.97957 43.8482 8.01449 43.7907L8.06738 43.7044C8.16802 43.5403 8.26661 43.3807 8.29382 43.1894C7.62115 43.652 6.48532 44.22 5.41264 43.9044C4.52893 43.5889 3.68784 42.6425 3.39361 41.7801C2.83596 40.1182 3.74329 38.9837 4.61571 37.8928C5.58671 36.6786 6.51407 35.5186 5.32843 33.7458C5.95078 33.6513 6.25168 34.1322 6.50483 34.5361L6.59007 34.6711C7.12102 36.1566 6.32408 37.2794 5.57182 38.3395C4.684 39.5911 3.8578 40.7557 5.34948 42.327C5.98056 42.8317 6.96902 42.6215 7.558 42.0746C8.11154 41.4831 8.25891 40.7709 8.40936 40.042C8.51 39.5529 8.6127 39.0561 8.84069 38.5831C9.91337 36.4167 11.4487 34.608 13.2367 32.8624C13.5386 32.5799 13.877 32.3453 14.2297 32.1306C14.4721 31.983 14.7212 31.8446 14.9702 31.7065C15.8955 31.193 16.8141 30.6831 17.3589 29.7075C17.4221 28.9925 17.2326 28.2982 16.77 27.9619C16.8167 27.4122 16.7407 26.8286 16.6637 26.2381C16.5312 25.2237 16.3967 24.1888 16.8752 23.2714L17.4642 22.283C17.4036 22.1487 17.3066 22.0142 17.2049 21.8729C16.9877 21.572 16.7479 21.2401 16.791 20.8108C17.0842 20.9448 17.3846 21.0632 17.6901 21.172C17.8935 21.2444 18.0989 21.3127 18.3058 21.3785C18.5923 21.4696 18.8814 21.5561 19.171 21.6426C20.4712 22.0314 21.7765 22.4216 22.8902 23.2506L25.204 23.9657C25.2533 24.1336 25.205 24.283 25.1121 24.4052C25.0068 24.5431 24.8441 24.646 24.6993 24.7018C24.5719 24.6722 24.4307 24.6751 24.2885 24.6776C24.1257 24.6804 23.9619 24.6835 23.8161 24.6386L24.2787 24.9752C23.795 25.1223 23.2902 25.1855 22.7855 25.2486L22.7809 25.2494C22.2776 25.3123 21.7744 25.3752 21.2923 25.5221L20.4085 25.4589C20.1539 26.0106 20.4347 26.3377 20.7238 26.6746C21.0083 27.0058 21.301 27.3465 21.1028 27.9198C21.3493 28.2777 21.6204 28.5968 21.8874 28.9118C22.3275 29.4297 22.7583 29.937 23.0587 30.5909C23.9301 30.2703 24.3675 29.5206 24.7958 28.7866C25.2661 27.9796 25.7257 27.1917 26.7393 27.0153C26.8487 26.9976 26.9622 26.9747 27.0782 26.9493C27.1851 26.9257 27.2944 26.9 27.4048 26.8741L27.4125 26.8725C28.0292 26.7275 28.6814 26.5739 29.2 26.7418V27.0153C30.2516 26.805 31.4927 26.7629 32.397 27.4361C33.846 28.7018 34.2532 30.5214 34.663 32.352C34.7061 32.5458 34.7498 32.7396 34.7944 32.933C34.8232 33.0593 34.853 33.1853 34.8833 33.3109C34.9223 33.4706 34.9623 33.6298 35.005 33.7877C35.0394 33.8203 35.0722 33.8547 35.1041 33.8904C35.1462 33.9374 35.1862 33.9866 35.2252 34.0372C35.2745 34.1019 35.3218 34.1689 35.3695 34.2359L35.3757 34.2442C35.5539 34.4953 35.7341 34.7492 36.015 34.9025C37.215 34.3091 37.3567 33.1201 37.4974 31.9376C37.5462 31.5268 37.595 31.1165 37.6885 30.7324C37.7157 30.6194 37.747 30.5085 37.7829 30.4004C37.8343 30.2472 37.8959 30.0998 37.9709 29.9599C38.5598 28.719 39.0435 27.7095 40.2631 27.0574C40.6528 26.9139 41.1021 26.8502 41.5437 26.852C41.7121 26.8528 41.879 26.863 42.0413 26.8818C42.3263 26.9149 42.5959 26.975 42.8295 27.0574L42.9974 26.6997C43.191 26.7185 43.3964 26.7313 43.6095 26.7444C44.8321 26.8199 46.2858 26.9095 46.9307 28.2353C47.3934 29.1817 47.9613 29.9599 48.9498 30.5488C49.0227 30.3491 49.1218 30.1663 49.2378 29.9943C49.4453 29.6857 49.7072 29.4117 49.969 29.1378C50.5308 28.5498 51.0915 27.9627 51.1162 27.0363C51.5937 26.806 51.6841 26.3305 51.7719 25.8728L51.8109 25.6756C51.8232 25.6163 51.8366 25.5577 51.852 25.501C51.3724 25.5695 50.918 25.5575 50.4743 25.4781C50.101 25.4114 49.7359 25.2971 49.3703 25.1434C49.1988 25.1228 49.0186 25.138 48.8378 25.1534C48.7485 25.1608 48.6591 25.1685 48.5703 25.1719C48.4676 25.1757 48.3659 25.1737 48.2668 25.1595C48.0912 25.1346 47.9238 25.0712 47.7718 24.9331C48.1359 24.6599 48.6098 24.6168 49.0745 24.5744L49.0807 24.5736C49.2579 24.5575 49.434 24.5415 49.6019 24.5125C49.5249 24.4715 49.4278 24.4522 49.3164 24.4476C49.0992 24.4388 48.8281 24.4853 48.5472 24.5336C47.7883 24.6635 46.9574 24.8057 46.9307 23.9025C47.0992 23.8548 47.2696 23.808 47.4401 23.7613L47.5017 23.7444C48.7356 23.4073 49.9942 23.0632 51.032 22.2619C51.2702 22.2398 51.5018 22.2 51.7293 22.1466C51.91 22.1043 52.0887 22.0534 52.2654 21.9964C52.7326 21.8455 53.1871 21.6506 53.6466 21.4537L53.6513 21.4521C54.2438 21.1982 54.8441 20.9412 55.4911 20.7687C55.5281 20.9607 55.487 21.1297 55.4033 21.2914C55.3216 21.4503 55.1994 21.6026 55.0695 21.7636C54.9555 21.9053 54.8359 22.054 54.7337 22.2198C55.8485 23.587 55.7432 25.8165 55.2806 27.415C55.4058 27.8271 55.2107 28.2317 55.0171 28.6333C54.8667 28.9445 54.7173 29.2541 54.7183 29.5642C54.7188 29.7938 54.802 30.0235 55.0279 30.2544C55.3299 30.4623 55.6369 30.6705 55.9466 30.8803C58.1412 32.3668 60.4627 33.9394 61.8635 36.2065C63.0599 37.815 63.6494 39.7672 64.2466 41.7462L64.2825 41.8643C64.8294 42.4741 65.5652 43.0631 66.4279 42.7686C67.1426 42.5794 67.5637 41.9483 67.7106 41.3175C67.8528 40.2545 67.2258 39.235 66.6143 38.2401C65.6884 36.7348 64.7975 35.286 66.6589 33.8298H66.9116ZM55.4911 48.3422C55.5681 48.1779 55.5876 47.9961 55.5676 47.8231C55.5445 47.619 55.467 47.4272 55.3648 47.2906C53.5768 46.5545 51.6209 46.365 49.4966 46.4282C49.2363 46.6762 48.9754 46.9273 48.7141 47.1794C45.8668 49.922 42.885 52.7944 38.6856 53.1795C32.7128 54.0841 26.8657 51.7284 23.7108 46.9751C23.0587 46.1894 22.0404 46.25 21.0324 46.3101C20.8168 46.3229 20.6011 46.3358 20.3901 46.3404C20.1883 46.3448 19.9901 46.3414 19.7985 46.3232C19.4391 46.5029 18.9615 46.571 18.4814 46.6393C17.4447 46.7871 16.3962 46.9366 16.4968 48.2159L16.2503 48.2824L15.9761 48.3546L15.9576 48.3592C14.982 48.6123 13.9884 48.8704 13.2788 49.562C13.1103 50.0039 13.2156 50.5297 13.4888 50.8871C13.8677 51.3289 14.6667 51.8126 15.2767 51.0974C15.3656 50.9977 15.4539 50.8052 15.4657 50.6203C15.4765 50.454 15.4251 50.2937 15.2557 50.2142C15.0185 50.1238 14.8598 50.2093 14.696 50.2981C14.5543 50.3746 14.4084 50.4537 14.2041 50.4244C14.0403 50.4244 13.9294 50.3713 13.8652 50.2794C13.8498 50.2573 13.8369 50.2329 13.8267 50.2067C13.8169 50.181 13.8097 50.1533 13.8051 50.1238C13.7964 50.0709 13.7958 50.0124 13.8025 49.9495C13.8071 49.9066 13.8148 49.8614 13.8256 49.8144C13.9504 49.5489 14.2262 49.5156 14.506 49.4814C14.6031 49.4696 14.7011 49.4575 14.793 49.436C15.6362 49.409 15.6449 49.9448 15.6531 50.495C15.6583 50.8093 15.6629 51.1282 15.8236 51.3497L19.5885 50.2352L19.6727 50.0668L18.0111 48.1741C17.9258 48.1338 17.8262 48.1248 17.7225 48.1271C17.6614 48.1286 17.5987 48.134 17.5371 48.1391C17.3589 48.1546 17.1859 48.1694 17.0693 48.0873C17.0072 48.0434 16.961 47.972 16.9384 47.8585C17.0827 47.4793 17.4288 47.4721 17.8031 47.4644L17.8822 47.4626L17.99 47.4588C19.2578 48.2008 20.0763 49.2976 20.9107 50.416C21.377 51.0414 21.8484 51.6735 22.4065 52.2542C26.1925 56.6289 31.6611 58.9216 37.6551 58.5219C44.8906 58.0171 49.5808 53.2427 53.9137 47.7954L54.6284 47.6061C54.9858 47.6691 55.2385 47.8585 55.2595 48.1949C55.1655 48.2721 55.0531 48.3119 54.9304 48.3317C54.7943 48.3535 54.6459 48.3512 54.497 48.3489C54.2685 48.3453 54.0384 48.3417 53.8505 48.4264C53.7052 48.6991 53.4962 48.9759 53.2928 49.2444L53.2836 49.2575C53.1198 49.4737 52.9606 49.6847 52.8405 49.884C52.767 50.0057 52.7085 50.1233 52.6726 50.2352L56.3532 51.5182C56.5422 51.4152 56.6125 51.2843 56.6254 51.1389C56.6372 51.0011 56.5977 50.8504 56.5576 50.6981C56.5196 50.5536 56.4816 50.4077 56.4867 50.2704C56.4914 50.1438 56.5335 50.0242 56.6475 49.9197C57.1733 49.6252 57.8675 49.5199 58.4144 49.9407C58.6475 50.75 58.2511 50.6586 57.7802 50.55C57.4434 50.4722 57.0685 50.3857 56.858 50.6136C56.7738 50.8871 56.879 51.3918 57.2364 51.5603C57.9517 51.9808 58.646 51.2447 58.9823 50.8031C59.1774 49.4052 57.9764 49.0922 56.8149 48.7895L56.8041 48.7864C56.5509 48.7204 56.2998 48.6552 56.0662 48.579L55.9337 48.534L55.8069 48.4868C55.7109 48.4488 55.6189 48.408 55.5327 48.3633L55.4911 48.3422ZM43.4914 47.973C43.6449 48.1597 43.8133 48.3348 44.0069 48.4893L44.0619 48.5022C44.1902 48.5327 44.3659 48.5743 44.522 48.5828C44.7217 48.5938 44.8906 48.5512 44.8906 48.3633C44.6221 48.1427 44.4049 47.7484 44.1861 47.3504C43.7368 46.5335 43.2788 45.7009 42.3453 46.3232C42.4896 46.5063 42.622 46.7027 42.7525 46.9032C42.8726 47.0873 42.9907 47.2747 43.1145 47.459C43.2326 47.6354 43.3563 47.8087 43.4914 47.973ZM36.9773 46.9181C37.3501 47.4367 37.7182 47.9489 38.4125 48.153V48.1741L38.4741 48.1707L38.5665 48.17C38.6343 48.1697 38.7031 48.1694 38.7658 48.161C38.9095 48.1417 39.0225 48.0804 39.0225 47.8796C38.8967 47.8092 38.7786 47.7045 38.6646 47.5792C38.4957 47.3936 38.337 47.1625 38.1778 46.9307C37.673 46.1961 37.1621 45.4523 36.3092 46.1127C36.4869 46.2752 36.6389 46.4595 36.7821 46.6503C36.8484 46.7386 36.9131 46.8285 36.9773 46.9181ZM30.9248 46.0287L32.6706 48.0899H32.6917C32.9649 48.258 33.5749 48.3212 33.6591 47.9635C33.3515 47.7399 33.0999 47.3584 32.8499 46.9794C32.6306 46.647 32.4124 46.3165 32.1587 46.0965C31.8321 45.8125 31.447 45.7124 30.9248 46.0287ZM28.3589 48.3212C27.981 48.125 27.6708 47.7456 27.3704 47.3782C26.8015 46.6816 26.2669 46.0279 25.3724 46.7437C25.642 46.9191 25.9003 47.2046 26.1648 47.497C26.7871 48.1859 27.4433 48.9119 28.3589 48.3212ZM36.6789 45.5558C38.5034 45.4888 40.3591 45.4207 41.9668 45.8184C44.2806 45.5658 46.5097 46.0916 48.634 46.4703C48.2345 46.9473 47.759 47.4303 47.2599 47.8881C46.8131 48.2983 46.3474 48.6883 45.9002 49.0362C45.5864 48.6981 45.2583 48.79 44.9163 48.8858C44.6627 48.9566 44.4018 49.0298 44.1332 48.9312C43.4293 48.7576 42.6986 48.7122 41.9761 48.6673C41.1227 48.6144 40.2805 48.562 39.5062 48.3001C38.3627 48.3902 37.0938 48.3938 35.8384 48.3972C35.0383 48.3995 34.244 48.4018 33.4907 48.4264C32.9654 48.4452 32.4324 48.4881 31.8989 48.5381L31.2293 48.6031L31.0691 48.619C30.6064 48.6647 30.1458 48.7091 29.6914 48.7407C29.181 48.7764 28.6788 48.7962 28.1905 48.7838L26.4241 49.0152C25.8849 48.5612 25.3653 47.8963 24.8579 47.2472L24.8533 47.2418L24.8441 47.2295C24.6037 46.9224 24.3665 46.6195 24.1313 46.3443C24.3054 46.4005 24.4666 46.4107 24.6227 46.3925C24.8564 46.3653 25.0782 46.2747 25.3124 46.1789C25.5665 46.0749 25.8356 45.965 26.1504 45.9234C26.3707 45.9016 26.593 45.878 26.8164 45.8544L26.821 45.8536C28.1109 45.7173 29.4459 45.5763 30.7353 45.7553C32.3127 45.4397 34.1849 45.3766 35.7834 45.5869C36.0746 45.5781 36.3678 45.5673 36.662 45.5566L36.6789 45.5558ZM18.8101 53.874C18.3895 54.2525 17.6742 54.4417 17.1484 54.1054C16.6015 53.7688 16.0547 53.264 16.3073 52.5279C16.7433 52.3148 17.0139 52.5878 17.2881 52.8643C17.6095 53.1883 17.9356 53.5172 18.5369 53.0748C18.7582 53.0219 18.8845 52.8846 18.9662 52.7261C19.0473 52.5688 19.0838 52.3908 19.1259 52.2545C19.399 52.7803 19.2517 53.4743 18.8311 53.853L18.8101 53.874ZM19.8617 50.3615L16.1178 51.8126L15.7605 52.0861C15.5289 53.0748 15.9078 53.9369 16.56 54.4417C17.9649 55.3388 19.285 54.6741 20.5575 54.033C21.0756 53.7721 21.586 53.5151 22.0913 53.369L22.1755 53.0959C21.7395 52.7308 21.3965 52.2337 21.0566 51.7413C20.6915 51.2124 20.3305 50.6889 19.8617 50.3405V50.3615ZM53.7658 54.4209C54.2916 54.4838 55.0069 54.547 55.3432 54.1054V54.1264C55.7011 53.8319 56.1217 53.2851 55.8269 52.7803C55.3822 52.4804 55.1717 52.7344 54.9324 53.0229C54.6849 53.3213 54.4066 53.6566 53.8079 53.4532C53.2821 53.2851 52.8194 52.675 53.072 52.1492C52.8826 52.4804 52.9067 52.8119 52.9303 53.1431C52.938 53.2535 52.9457 53.3639 52.9457 53.4743C53.1352 53.9159 53.4084 54.2525 53.7658 54.4209ZM54.7845 51.4845C55.4598 51.6155 56.2588 51.77 56.4369 52.5908C56.5422 53.3061 56.3106 54.0843 55.869 54.4628C54.363 55.7999 52.7778 54.9244 51.3031 54.1102C50.7598 53.8101 50.2314 53.5182 49.7277 53.3482L52.1883 50.6139L52.2515 50.6255C53.0541 50.769 53.906 50.9212 54.439 51.4131C54.5473 51.4386 54.6639 51.4612 54.7845 51.4845Z" fill="white"/>
</svg>
