<svg width="296" height="32" viewBox="0 0 296 32" fill="none" xmlns="http://www.w3.org/2000/svg">
<path fill-rule="evenodd" clip-rule="evenodd" d="M28.5137 0.00805283V0.669431C27.3304 0.607213 26.1504 0.84272 25.0816 1.3544C24.0129 1.86609 23.0895 2.63761 22.396 3.59839C21.0496 5.62976 20.5299 9.97596 20.5299 15.9756C20.5299 21.9752 21.0496 26.3214 22.396 28.3528C23.0842 29.3223 24.0052 30.103 25.0743 30.6231C26.1434 31.1432 27.3262 31.386 28.5137 31.329V31.9904C26.3265 32.0811 24.1624 31.5133 22.3015 30.3606C17.4829 27.1482 15.9475 20.5816 15.9475 15.9992C15.9475 11.4168 17.4829 4.85028 22.3015 1.63788C24.1653 0.491784 26.3273 -0.0754346 28.5137 0.00805283ZM0.35791 0.00805283C2.53651 -0.0721506 4.69003 0.494997 6.54652 1.63788C11.3887 4.85028 12.9005 11.4168 12.9005 15.9992C12.9005 20.5816 11.3887 27.1482 6.54652 30.3606C4.69463 31.5142 2.53778 32.0822 0.35791 31.9904V31.329C1.54544 31.386 2.72821 31.1432 3.79731 30.6231C4.86641 30.103 5.78746 29.3223 6.47566 28.3528C7.79841 26.3451 8.34169 21.9989 8.34169 15.9992C8.34169 9.99958 7.79841 5.65339 6.47566 3.62201C5.78479 2.65689 4.86257 1.88077 3.79364 1.36487C2.72471 0.848983 1.54332 0.609852 0.35791 0.669431V0.00805283ZM195.609 13.7795L198.137 4.09505L197.712 4.16591C197.215 5.79573 196.342 6.71694 195.916 6.71694C195.594 6.71694 195.367 6.4592 195.039 6.08765C194.935 5.96903 194.819 5.83837 194.688 5.70125C194.319 5.23671 193.853 4.85854 193.323 4.5933C192.792 4.32806 192.21 4.18218 191.617 4.16591C188.948 4.16591 185.618 6.40987 183.256 10.6852C181.802 13.059 180.988 15.769 180.894 18.5509C180.894 23.1333 183.445 26.2748 187.129 26.2748C190.106 26.2748 192.751 23.6057 194.83 18.3619L194.287 18.1966C192.302 23.3222 189.893 25.6843 186.964 25.6843C184.555 25.6843 183.279 24.1726 183.279 21.2673C183.407 16.9016 184.607 12.6344 186.775 8.8428C188.287 6.1028 189.846 4.73281 191.499 4.73281C193.861 4.73281 195.184 7.09487 195.184 11.819C195.221 12.472 195.221 13.1265 195.184 13.7795H195.609ZM44.7418 25.2579H47.5999V4.99137H44.7418V4.42448H53.1508C58.0403 4.42448 61.5361 8.69981 61.5361 14.9829C61.6216 16.6771 61.3504 18.3705 60.7401 19.9533C60.1297 21.5361 59.1939 22.9731 57.993 24.1713C56.2764 25.4843 54.1161 26.0774 51.9698 25.8248H44.7418V25.2579ZM50.1982 4.99137V25.2579H51.8753C54.2373 25.2579 55.8908 25.0217 57.0009 23.5336C58.3819 21.0361 58.967 18.1764 58.678 15.3372C58.678 7.99119 57.6859 4.99137 52.9618 4.99137H50.1982ZM75.0693 18.7632C75.0693 23.0386 72.4475 26.1801 69.4949 26.1801C66.5423 26.1801 63.9204 23.0386 63.9204 18.7632C63.9204 14.4879 66.4951 11.3464 69.4949 11.3464C72.4947 11.3464 75.0693 14.4879 75.0693 18.7632ZM66.4951 18.7632C66.4951 23.4874 67.062 25.6841 69.5657 25.6841C72.0695 25.6841 72.6364 23.4401 72.6364 18.7632C72.6364 14.0864 71.9514 11.8188 69.4949 11.8188C67.0383 11.8188 66.4951 14.1808 66.4951 18.7632ZM85.6149 11.5164C85.3648 11.4071 85.0953 11.3492 84.8224 11.3464C83.1925 11.3464 82.0115 12.6455 81.3265 15.1493L81.2084 11.677H77.0276V12.1495H79.0826V25.3534H77.0276V25.8258H83.4287V25.3534H81.3265V18.6924C81.3265 14.4879 83.0272 11.8188 84.657 11.8188C85.0034 11.7991 85.3471 11.8889 85.6396 12.0754C85.9321 12.262 86.1585 12.5358 86.2868 12.8581C86.1712 12.7351 86.0324 12.6363 85.8783 12.5673C85.7242 12.4984 85.558 12.4607 85.3893 12.4565C85.2279 12.4592 85.0688 12.495 84.9218 12.5616C84.7747 12.6282 84.6429 12.7242 84.5345 12.8438C84.426 12.9633 84.3432 13.1038 84.2911 13.2566C84.2391 13.4093 84.2189 13.5712 84.2318 13.732C84.2285 13.8963 84.2588 14.0594 84.3208 14.2115C84.3828 14.3636 84.4753 14.5014 84.5926 14.6165C84.7098 14.7315 84.8494 14.8214 85.0026 14.8805C85.1559 14.9396 85.3196 14.9668 85.4837 14.9603C85.6721 14.9578 85.8578 14.9164 86.0294 14.8389C86.201 14.7613 86.3548 14.6492 86.4811 14.5096C86.6075 14.3699 86.7037 14.2058 86.7637 14.0273C86.8238 13.8488 86.8464 13.6598 86.8301 13.4722C86.8428 13.1996 86.8005 12.9272 86.7056 12.6713C86.6107 12.4154 86.4652 12.1812 86.2778 11.9828C86.0904 11.7844 85.8649 11.6258 85.6149 11.5164ZM93.9903 26.1801C91.0849 26.1801 88.4394 23.0385 88.4394 18.7868C88.4024 16.5463 89.2513 14.3817 90.8015 12.7636C91.243 12.2964 91.7789 11.9285 92.3734 11.6842C92.968 11.4398 93.6077 11.3247 94.2501 11.3463C94.7174 11.3494 95.1795 11.4449 95.6097 11.6273C96.04 11.8097 96.4299 12.0754 96.757 12.4091C97.0841 12.7428 97.342 13.1379 97.5158 13.5717C97.6896 14.0055 97.7758 14.4694 97.7696 14.9367C97.7696 16.0941 97.1082 16.8027 96.2106 16.8027C95.8348 16.8027 95.4743 16.6534 95.2085 16.3876C94.9427 16.1218 94.7934 15.7613 94.7934 15.3855C94.7834 15.1987 94.8125 15.012 94.8786 14.8371C94.9448 14.6622 95.0467 14.503 95.1778 14.3697C95.309 14.2364 95.4664 14.1318 95.6401 14.0627C95.8139 13.9936 96.0001 13.9614 96.187 13.9682C96.3964 13.9758 96.6018 14.0282 96.7893 14.1219C96.9767 14.2156 97.1419 14.3485 97.2735 14.5115C97.1973 13.7702 96.8479 13.0839 96.2933 12.5861C95.7388 12.0884 95.0189 11.8148 94.2737 11.8187C91.3211 11.8187 90.9196 14.3225 90.9196 19.3773C90.9196 23.6291 91.5574 25.6368 94.0848 25.6368C96.6122 25.6368 98.0294 23.7472 98.2656 20.4403H98.7617C98.4546 24.1015 96.6358 26.1801 94.0375 26.1801H93.9903ZM104.338 18.715C104.338 14.6286 106.11 12.1012 108.023 12.1012C109.275 12.1012 109.889 13.0696 109.889 15.0301V25.376H107.787V25.8484H114.164V25.376H112.086V16.0695C112.086 13.0224 110.479 11.3453 108.566 11.3453C106.653 11.3453 104.952 12.8334 104.291 15.5026V4.42448H99.9918V4.92051H102.094V25.3524H99.9918V25.8248H106.393V25.3524H104.338V18.715ZM126.141 21.5028C125.598 24.5027 123.779 26.227 121.417 26.227C118.204 26.227 115.653 23.0382 115.653 18.7156C115.622 16.5984 116.409 14.5507 117.85 12.9994C118.26 12.4996 118.776 12.0966 119.36 11.8189C119.943 11.5413 120.581 11.3959 121.228 11.3932C123.873 11.3932 125.952 14.0151 126.165 18.4794H118.204V20.0384C118.204 23.9358 119.22 25.7309 121.748 25.7309C123.59 25.7309 125.196 24.2428 125.692 21.5973L126.141 21.5028ZM123.779 17.9125V16.3063C123.779 13.212 123.212 11.8184 121.181 11.8184C119.149 11.8184 118.275 13.7553 118.181 17.9125H123.779ZM134.031 25.6842C134.048 25.6844 134.065 25.6844 134.081 25.6842H134.031ZM134.104 25.6839C131.996 25.6558 130.08 23.674 129.189 20.0389H128.858V25.8496H129.189L130.559 24.1961C130.977 24.7697 131.519 25.2417 132.144 25.5771C132.77 25.9124 133.463 26.1024 134.173 26.133C134.723 26.1245 135.265 26.0044 135.768 25.7799C136.27 25.5555 136.721 25.2313 137.095 24.8271C137.468 24.4229 137.755 23.9471 137.939 23.4285C138.123 22.91 138.2 22.3595 138.164 21.8104C138.164 19.4011 136.7 18.3146 133.936 16.921C131.952 15.9997 130.606 15.362 130.606 13.6377C130.611 13.3821 130.669 13.1303 130.776 12.898C130.883 12.6657 131.036 12.4579 131.227 12.2873C131.417 12.1168 131.641 11.9872 131.883 11.9066C132.126 11.826 132.383 11.7962 132.637 11.8189C134.432 11.8189 136.251 13.6849 137.031 16.9446H137.361V11.6772L135.802 12.9999C135.422 12.5159 134.943 12.1182 134.397 11.8331C133.852 11.5481 133.252 11.3822 132.637 11.3465C132.162 11.3199 131.686 11.3928 131.24 11.5605C130.794 11.7282 130.388 11.987 130.048 12.3204C129.708 12.6539 129.441 13.0546 129.265 13.4969C129.088 13.9393 129.006 14.4136 129.023 14.8896C129.023 17.0627 130.393 17.7949 132.59 18.9287L132.717 18.994C135.215 20.2768 136.7 21.0394 136.7 22.9442C136.713 23.3015 136.653 23.6577 136.524 23.9912C136.396 24.3247 136.201 24.6287 135.951 24.8848C135.702 25.1409 135.403 25.3438 135.073 25.4812C134.765 25.6092 134.436 25.6779 134.104 25.6839ZM139.483 12.149V11.6766H141.845V7.37768C142.346 7.2884 142.815 7.06904 143.205 6.74154C143.594 6.41405 143.891 5.98993 144.065 5.51165V11.6766H146.711V12.149H143.994V23.7704C143.994 25.0223 144.183 25.5892 145.034 25.5892C145.884 25.5892 147.042 24.5026 147.183 22.4949H147.656C147.49 24.857 146.427 26.2033 144.656 26.2033C142.884 26.2033 141.774 25.164 141.774 23.1563V12.149H139.483ZM155.167 26.227C157.529 26.227 159.348 24.5027 159.891 21.5028L159.419 21.5973C158.923 24.2428 157.316 25.7309 155.474 25.7309C152.947 25.7309 151.931 23.9358 151.931 20.0384V18.4794H159.891C159.678 14.0151 157.623 11.3932 154.954 11.3932C154.311 11.3977 153.678 11.5441 153.098 11.8217C152.518 12.0993 152.007 12.5015 151.6 12.9994C150.159 14.5507 149.372 16.5984 149.403 18.7156C149.403 23.0382 151.954 26.227 155.167 26.227ZM157.529 16.3063V17.9125H151.931C152.025 13.7553 152.899 11.8184 154.931 11.8184C156.962 11.8184 157.529 13.212 157.529 16.3063ZM169.644 11.3464C169.917 11.3492 170.186 11.4071 170.436 11.5164C170.686 11.6258 170.912 11.7844 171.099 11.9828C171.287 12.1812 171.432 12.4154 171.527 12.6713C171.622 12.9272 171.664 13.1996 171.652 13.4722C171.668 13.6598 171.645 13.8488 171.585 14.0273C171.525 14.2058 171.429 14.3699 171.303 14.5096C171.176 14.6492 171.022 14.7613 170.851 14.8389C170.679 14.9164 170.493 14.9578 170.305 14.9603C170.142 14.967 169.979 14.9398 169.827 14.8804C169.675 14.821 169.537 14.7308 169.422 14.6154C169.306 14.5 169.216 14.3619 169.157 14.2099C169.097 14.0578 169.07 13.8951 169.077 13.732C169.061 13.5724 169.077 13.4111 169.127 13.2584C169.176 13.1056 169.257 12.9648 169.363 12.8449C169.47 12.7249 169.6 12.6284 169.746 12.5616C169.892 12.4947 170.05 12.459 170.211 12.4565C170.38 12.4594 170.546 12.4965 170.701 12.5655C170.855 12.6345 170.993 12.734 171.108 12.8581C170.987 12.5355 170.766 12.2603 170.477 12.0732C170.188 11.8861 169.846 11.7969 169.502 11.8188C167.778 11.8188 166.148 14.4879 166.148 18.6924V25.3534H168.25V25.8258H161.849V25.3534H163.928V12.1495H161.849V11.677H166.03V15.1493C166.715 12.6455 167.896 11.3464 169.526 11.3464H169.644ZM208.007 16.2831C207.995 18.2546 207.456 20.1871 206.448 21.8812C205.925 23.0325 205.116 24.0314 204.1 24.7836C203.083 25.5358 201.891 26.0165 200.637 26.1801C198.653 26.1801 196.858 24.0779 196.858 21.0072C196.949 18.6199 197.774 16.3188 199.22 14.417C199.791 13.5399 200.558 12.8064 201.459 12.2738C202.36 11.7412 203.372 11.4238 204.417 11.3464C206.495 11.3464 208.101 13.236 208.101 16.2831H208.007ZM202.031 13.4486C200.919 15.2793 200.076 17.26 199.527 19.3301C199.033 20.7153 198.731 22.1618 198.629 23.6291C198.599 23.8954 198.626 24.1652 198.709 24.4201C198.792 24.6751 198.929 24.9091 199.11 25.1064C199.292 25.3036 199.514 25.4594 199.761 25.5632C200.008 25.667 200.275 25.7163 200.543 25.7077C201.535 25.7077 202.362 25.0936 203.07 23.7944C204.87 20.8367 205.977 17.5095 206.306 14.0627C206.36 13.7806 206.35 13.4898 206.275 13.2125C206.2 12.9352 206.063 12.6786 205.874 12.4622C205.685 12.2459 205.449 12.0755 205.184 11.964C204.919 11.8525 204.632 11.8028 204.346 11.8188C203.85 11.8795 203.376 12.0595 202.964 12.3433C202.553 12.6271 202.216 13.0064 201.984 13.4486H202.031ZM210.979 25.1838C210.953 25.0927 210.947 24.9973 210.96 24.9036V24.8799C210.986 24.45 211.081 24.0271 211.243 23.6281L217.668 4.42448H212.519L212.377 4.92051H213.582C214.598 4.92051 214.976 5.08586 214.976 5.62913C214.932 6.08413 214.821 6.53004 214.645 6.95189L210.582 19.0457C210.056 20.3447 209.722 21.7132 209.59 23.1084C209.59 24.9744 210.299 26.1791 211.598 26.1791C212.897 26.1791 214.385 24.195 216.322 20.4629L215.897 20.2503C213.96 23.8406 212.684 25.683 211.598 25.683C211.503 25.6775 211.411 25.6523 211.327 25.6093C211.243 25.5663 211.168 25.5063 211.108 25.433C211.048 25.3598 211.004 25.2749 210.979 25.1838ZM220.031 24.9036C220.031 25.376 220.291 25.683 220.646 25.683C221.732 25.683 223.008 23.8406 224.968 20.2503L225.393 20.4629C223.456 24.195 221.945 26.1791 220.669 26.1791C219.394 26.1791 218.661 24.9744 218.661 23.1084C218.767 21.7162 219.077 20.3471 219.583 19.0457L223.645 6.95189C223.821 6.53004 223.933 6.08413 223.976 5.62913C223.976 5.08586 223.622 4.92051 222.606 4.92051H221.449L221.59 4.42448H226.716L220.291 23.6281C220.134 24.0276 220.046 24.4509 220.031 24.8799V24.9036ZM230.491 26.1797C232.971 26.1797 235.073 24.1956 237.128 20.2037L236.679 19.9675C234.719 23.7232 232.758 25.6364 230.585 25.6364C229.168 25.6364 228.506 24.8097 228.506 23.1327C228.55 21.9572 228.798 20.7983 229.239 19.7077C234.435 18.9046 237.222 16.7787 237.222 14.1804C237.217 13.7938 237.133 13.4122 236.977 13.0586C236.82 12.7049 236.594 12.3863 236.312 12.1218C236.03 11.8574 235.697 11.6524 235.334 11.5191C234.971 11.3858 234.585 11.3269 234.199 11.346C232.992 11.6142 231.857 12.1419 230.874 12.8924C229.891 13.6429 229.083 14.5982 228.506 15.6922C227.308 17.378 226.649 19.3876 226.617 21.4556C226.617 24.3137 228.01 26.1797 230.491 26.1797ZM234.294 11.8184C235.073 11.8184 235.616 12.4089 235.616 13.4718C235.466 15.0305 234.747 16.4793 233.597 17.5422C232.447 18.6051 230.946 19.2077 229.38 19.2352C230.916 14.1804 232.546 11.8184 234.294 11.8184ZM248.655 20.2043C246.647 24.1726 244.38 26.1804 242.207 26.1804C240.034 26.1804 238.545 24.1962 238.545 21.1255C238.564 19.3184 239.043 17.5459 239.939 15.9762C240.497 14.719 241.368 13.6251 242.467 12.7984C243.567 11.9716 244.859 11.4394 246.222 11.2521C246.612 11.2182 247.005 11.2713 247.372 11.4076C247.739 11.5439 248.071 11.7599 248.344 12.0401C248.618 12.3203 248.826 12.6577 248.953 13.0279C249.08 13.3981 249.124 13.792 249.08 14.1811C249.106 14.4524 249.077 14.7261 248.993 14.9856C248.91 15.2452 248.775 15.485 248.596 15.6905C248.417 15.896 248.198 16.063 247.952 16.1811C247.706 16.2993 247.439 16.3662 247.167 16.3778C247.006 16.382 246.845 16.3518 246.697 16.2891C246.548 16.2263 246.414 16.1326 246.305 16.0141C246.195 15.8956 246.112 15.755 246.061 15.6018C246.01 15.4487 245.993 15.2864 246.01 15.1259C246.01 14.3464 246.435 13.8976 247.332 13.4724C247.419 13.4246 247.5 13.3831 247.573 13.3453C247.899 13.1779 248.088 13.0807 248.088 12.8111C248.088 12.4804 247.427 11.819 246.364 11.819C245.796 11.8454 245.244 12.0098 244.754 12.2979C244.264 12.586 243.852 12.9892 243.553 13.4724C242.241 15.6578 241.321 18.0561 240.837 20.5586C240.58 21.4342 240.437 22.3393 240.411 23.2514C240.411 24.8576 241.073 25.6135 242.301 25.6135C244.191 25.6135 246.269 23.7002 248.206 19.9445L248.655 20.2043ZM259.358 11.6769H256.381L258.484 5.81901H256.358L254.374 11.6533H251.87L251.681 12.2911H254.185L251.823 19.0229C251.267 20.464 250.909 21.9737 250.76 23.5109C250.76 25.0934 251.657 26.1564 252.72 26.1564C254.114 26.1564 255.484 24.2431 257.444 20.4402L257.066 20.2276C255.106 23.8179 253.83 25.6603 252.744 25.6603C252.389 25.6603 252.13 25.3533 252.13 24.8809C252.145 24.4518 252.232 24.0285 252.39 23.629L256.192 12.3147H259.169L259.358 11.6769ZM263.283 11.3457C264.417 11.3457 265.196 12.4086 265.196 14.2747C265.023 16.1787 264.443 18.0234 263.495 19.6838C262.56 21.1996 261.881 22.8597 261.488 24.5969C261.488 25.3055 261.747 25.6834 262.267 25.6834C263.424 25.6834 265.007 23.7465 266.613 19.8964L267.062 20.0853C265.385 24.1717 263.661 26.1795 262.338 26.1795C261.015 26.1795 260.236 24.8567 260.236 22.9671C260.353 21.3006 260.855 19.6838 261.7 18.2429C262.769 16.4916 263.565 14.5881 264.062 12.5976C264.075 12.4864 264.065 12.3738 264.032 12.2668C263.999 12.1598 263.945 12.0609 263.871 11.9763C263.798 11.8918 263.707 11.8236 263.606 11.776C263.505 11.7284 263.395 11.7025 263.283 11.7C262.125 11.7 260.921 13.3298 259.196 16.4241L258.724 16.1879C260.543 12.9047 261.866 11.2276 263.212 11.2276L263.283 11.3457ZM265.22 8.29865C265.045 8.30981 264.87 8.28285 264.707 8.21965C264.544 8.15645 264.397 8.05851 264.276 7.93264C264.154 7.80678 264.062 7.656 264.004 7.49078C263.947 7.32556 263.927 7.14986 263.944 6.97589C263.943 6.51956 264.116 6.07997 264.428 5.74651C264.739 5.41305 265.166 5.21074 265.621 5.18072C265.798 5.17354 265.974 5.20383 266.138 5.26959C266.302 5.33536 266.45 5.43512 266.573 5.5623C266.696 5.68949 266.79 5.84122 266.85 6.00751C266.91 6.17379 266.934 6.35088 266.92 6.5271C266.921 6.98492 266.744 7.4251 266.427 7.75537C266.11 8.08564 265.677 8.28033 265.22 8.29865ZM277.734 21.8812C278.731 20.1822 279.269 18.2528 279.293 16.2831H279.458C279.458 13.236 277.852 11.3464 275.774 11.3464C274.73 11.4238 273.717 11.7412 272.816 12.2738C271.915 12.8064 271.149 13.5399 270.577 14.417C269.131 16.3188 268.306 18.6199 268.215 21.0072C268.215 24.0779 270.01 26.1801 271.994 26.1801C273.236 26.0052 274.413 25.5193 275.416 24.7678C276.42 24.0162 277.217 23.0233 277.734 21.8812ZM270.884 19.3301C271.433 17.26 272.276 15.2793 273.388 13.4486H273.435C273.668 13.0064 274.005 12.6271 274.416 12.3433C274.827 12.0595 275.301 11.8795 275.797 11.8188C276.077 11.805 276.356 11.8537 276.615 11.9612C276.874 12.0687 277.105 12.2324 277.293 12.4404C277.481 12.6483 277.62 12.8954 277.7 13.1638C277.78 13.4321 277.8 13.715 277.758 13.9919C277.428 17.4386 276.322 20.7659 274.522 23.7236C273.813 25.0227 272.986 25.6368 271.994 25.6368C271.726 25.6454 271.46 25.5961 271.213 25.4923C270.965 25.3886 270.743 25.2328 270.562 25.0355C270.38 24.8383 270.243 24.6042 270.16 24.3493C270.077 24.0944 270.05 23.8246 270.081 23.5582C270.158 22.1192 270.428 20.6972 270.884 19.3301ZM285.414 14.6298C285.637 14.0455 285.78 13.4337 285.84 12.811C285.84 12.1969 285.533 11.7953 285.107 11.7953C284.092 11.7953 282.745 13.8503 281.045 17.9367L280.572 17.795C282.462 13.5196 283.761 11.3229 285.107 11.3229C286.454 11.3229 286.903 12.4095 286.903 14.1102C286.837 15.6609 286.592 17.1988 286.17 18.6926C288.296 13.8267 289.973 11.3702 291.579 11.3702C292.76 11.3702 293.729 12.5276 293.729 14.37C293.628 15.8541 293.269 17.309 292.666 18.6689C291.727 20.5846 291.051 22.6188 290.658 24.7158C290.658 25.3063 290.894 25.6134 291.343 25.6134C292.548 25.6134 293.493 23.771 295.241 20.2279L295.642 20.4405C293.847 24.2434 292.737 26.1803 291.32 26.1803C289.902 26.1803 289.17 25.0465 289.17 23.2986C289.218 22.0859 289.49 20.8926 289.973 19.7791L291.698 15.551C292.081 14.7349 292.306 13.853 292.359 12.9527C292.359 12.2205 292.099 11.8898 291.556 11.8898C289.713 11.8898 287.233 16.6139 283.974 25.826H281.8L285.414 14.6298Z" fill="black"/>
</svg>
