<svg width="73" height="73" viewBox="0 0 73 73" fill="none" xmlns="http://www.w3.org/2000/svg">
<path fill-rule="evenodd" clip-rule="evenodd" d="M31.1987 57.9906H32.7255V48.8435V47.4666V47.2621V47.1531H32.8209H33.039H36.6515H40.1823V45.599H36.6515H33.039H32.8209H32.7255V45.5036V45.2855V43.9086V37.6106H31.1987V43.9086V45.2855V45.5036V45.599H31.0896H30.8852H29.8628H19.2025H17.4167H17.1304H16.9804L17.0213 45.4627L17.1304 45.1901L17.812 43.1861L28.077 15.6084H26.5638L14.6221 47.1531H29.8628H30.8852H31.0896H31.1987V47.2621V47.4666V48.8435V57.9906ZM43.0721 26.6231L41.4772 26.4323L41.4908 26.405L44.8307 17.2852H54.8775V15.7856H43.6447C42.9658 17.8429 42.2624 19.7771 41.536 21.774C40.833 23.7069 40.1084 25.6989 39.3642 27.9182C41.3409 27.9591 43.2902 28.1772 45.1442 28.5862C47.2708 29.0497 49.1657 29.8267 50.7743 30.9036C52.4374 32.0215 53.787 33.521 54.7821 35.3613C55.7636 37.2153 56.268 39.4646 56.268 42.0547C56.268 43.9223 55.8727 45.7353 55.0956 47.4394C54.3322 49.1025 53.2962 50.5884 52.0148 51.8698C50.7334 53.1512 49.2338 54.1736 47.5707 54.9234C45.8803 55.6868 44.0673 56.0685 42.1997 56.0685H40.7001V57.6771H42.1997C44.2854 57.6771 46.2757 57.2545 48.1296 56.4365C50.0109 55.605 51.7013 54.4599 53.119 53.0285C54.5367 51.6108 55.6955 49.9204 56.5543 48.0119C57.3995 46.1307 57.8221 44.1268 57.8221 42.0547C57.8221 39.6554 57.4404 37.5288 56.6906 35.743C55.9408 33.9708 54.8912 32.444 53.5961 31.2172C52.2602 29.963 50.6925 28.9406 48.9203 28.1772C47.1209 27.4138 45.1442 26.8822 43.0721 26.6231Z" fill="white"/>
</svg>
