<svg width="73" height="73" viewBox="0 0 73 73" fill="none" xmlns="http://www.w3.org/2000/svg">
<path fill-rule="evenodd" clip-rule="evenodd" d="M36.1872 60.5855L36.1694 60.582L36.1697 60.5819C36.1855 60.5852 36.1959 60.5867 36.1959 60.5867C36.2601 60.5867 36.3243 60.5439 36.3672 60.4797C36.7515 59.7538 37.4339 59.0705 38.2444 58.5783C39.8451 58.6292 41.0769 58.8311 41.0769 58.8311C42.233 59.0452 43.3035 59.3236 44.8236 59.8374C45.7014 60.1371 46.5149 60.4369 47.093 60.6724L47.4355 60.8008C48.7201 61.2932 49.5123 61.593 51.482 61.8713C51.8245 61.9141 52.1885 61.9355 52.5096 61.9355L52.4668 61.9569C53.4945 61.9569 54.3937 61.7428 55.0788 61.2932C55.7425 60.865 56.3634 59.8374 56.8344 58.3387C57.0913 57.5037 57.648 56.3262 58.4829 54.8489C58.4949 54.825 58.5018 54.7994 58.5038 54.7735C58.5505 54.7126 58.5893 54.6568 58.6214 54.6072C59.5538 55.2172 60.8087 55.5152 61.6302 55.5768H61.9085L61.9299 55.5983C62.8077 55.5983 63.7926 55.2985 64.4777 54.8061C64.756 54.6134 64.9487 54.3137 65.0129 53.9711L65.7837 50.3315C65.7951 50.2856 65.7881 50.2396 65.766 50.2003C65.8674 49.8971 66.0094 49.257 65.6553 48.7259C65.2485 48.1264 64.2637 47.7624 63.0005 47.7624H62.9577C62.8662 47.7624 62.7698 47.7721 62.6687 47.7822C62.5568 47.7935 62.4391 47.8053 62.3154 47.8053C61.5447 47.8695 60.4742 47.9551 58.8899 47.4199C58.7186 47.3771 58.5901 47.5912 58.5901 47.5912V47.6768V48.7474C58.5412 48.726 58.4912 48.7046 58.4401 48.6829C58.1832 48.5759 55.871 47.6553 54.5222 48.4688C54.1938 48.6565 53.8769 48.9697 53.7298 49.3251C53.6767 49.3383 53.63 49.3761 53.6018 49.4325L53.4623 49.7269L53.4621 49.7272L53.4621 49.7273C53.2321 50.2134 52.9143 50.8852 52.8097 51.0596C52.5099 51.5949 52.1031 52.1301 51.7606 52.5583C51.7001 52.6369 51.6397 52.7137 51.5802 52.7894C51.429 52.9817 51.284 53.1661 51.1611 53.3504C50.9898 53.586 50.9898 53.9285 51.1397 54.3139C51.3297 54.7946 51.6599 55.2111 51.9747 55.5237C51.4652 55.36 50.9302 55.1565 50.3687 54.9132L50.2616 54.8703C49.5293 54.5511 48.4676 54.1001 47.0476 53.7774L47.8853 53.3504C52.059 51.233 53.2124 46.7341 53.3523 46.1138C53.3794 46.0929 53.3998 46.0644 53.4089 46.0283C53.4231 45.9713 53.4089 45.9047 53.3661 45.854V42.6764C53.3863 42.657 53.4014 42.6325 53.4089 42.6028C53.4231 42.5458 53.4089 42.4792 53.3661 42.4285V39.2292C53.3863 39.2098 53.4014 39.1853 53.4089 39.1556C53.4231 39.0986 53.4089 39.032 53.3661 38.9813V35.8037C53.3863 35.7844 53.4014 35.7598 53.4089 35.7301C53.4231 35.6731 53.4089 35.6066 53.3661 35.5558V32.3669C53.3743 32.3545 53.3815 32.3409 53.3874 32.3261C53.399 32.28 53.3919 32.2276 53.3661 32.1825V28.9099C53.3863 28.8905 53.4014 28.866 53.4089 28.8363C53.4231 28.7793 53.4089 28.7127 53.3661 28.662V25.7086C53.3743 25.6962 53.3815 25.6826 53.3875 25.6677C53.399 25.6216 53.3919 25.5692 53.3661 25.5241V22.6367C53.3863 22.6174 53.4014 22.5928 53.4089 22.5631C53.4231 22.5061 53.4089 22.4396 53.3661 22.3888V20.2938C53.3661 20.2082 53.2805 20.1226 53.1949 20.1012L53.0807 20.0663C52.8121 19.9839 52.3169 19.832 51.9317 19.7586C51.8889 19.7372 51.8247 19.7586 51.7818 19.8014C51.739 19.8442 51.7176 19.8871 51.7176 19.9513V21.9475C51.4481 21.8998 51.1586 21.8579 50.8612 21.8297V19.78C50.8612 19.673 50.7756 19.5873 50.6685 19.5873C50.6465 19.5873 50.6044 19.5855 50.5463 19.583C50.3224 19.5733 49.8599 19.5533 49.3839 19.5873C49.2983 19.5873 49.2127 19.78 49.2127 19.78V21.8353C49.1607 21.8457 49.1012 21.8561 49.0372 21.8665C48.8856 21.8861 48.7376 21.9087 48.5948 21.9331C48.5267 21.9434 48.4604 21.9536 48.3991 21.9638V19.9513C48.3991 19.8871 48.3563 19.8442 48.3135 19.8014C48.2706 19.7586 48.2064 19.7586 48.1422 19.7586C47.714 19.8442 47.1359 20.0155 46.9004 20.1012H46.8576C46.772 20.144 46.7292 20.2938 46.7292 20.2938V28.558L41.8692 28.3439V13.4856C41.8692 13.4213 41.8477 13.3571 41.7835 13.3143C41.5908 13.1858 41.1198 12.8861 40.6488 12.8005C40.606 12.8005 40.5418 12.8005 40.4989 12.8433C40.4561 12.8861 40.4347 12.9931 40.4347 12.9931V14.9797C40.2779 14.9412 40.1095 14.9021 39.9306 14.8634C39.8095 14.8347 39.6916 14.8083 39.5997 14.7916V12.6934C39.5997 12.6078 39.5141 12.5221 39.4499 12.5007C39.0431 12.3294 38.5935 12.201 38.1439 12.1582C38.0796 12.1368 38.0368 12.1582 37.994 12.201C37.9512 12.2438 37.9298 12.3509 37.9298 12.3509V14.5346C37.8656 14.5293 37.792 14.5226 37.7147 14.5156C37.4829 14.4945 37.2179 14.4704 37.0734 14.4704V12.2224C37.0734 12.1153 36.9878 12.0297 36.8807 12.0297C36.8807 12.0297 36.3883 12.0083 36.1528 12.0083H35.4677C35.3606 12.0083 35.275 12.201 35.275 12.201V14.449L35.1804 14.4575C34.9673 14.4764 34.7303 14.4974 34.5256 14.5346H34.44V12.3723C34.44 12.3257 34.4175 12.2904 34.397 12.2582C34.3892 12.2459 34.3817 12.2342 34.3758 12.2224C34.3544 12.1796 34.2901 12.1796 34.2259 12.1796C33.6264 12.2438 33.134 12.4151 32.9199 12.5007C32.8343 12.5221 32.7915 12.672 32.7915 12.672V14.7701C32.6737 14.8023 32.5238 14.8344 32.374 14.8665C32.2241 14.8986 32.0742 14.9307 31.9565 14.9628V12.9931C31.9565 12.9289 31.9137 12.8861 31.8708 12.8433C31.828 12.8005 31.7638 12.8005 31.6996 12.8005C31.3998 12.8647 31.0359 13.036 30.5863 13.3143C30.522 13.3357 30.4792 13.4856 30.4792 13.4856V18.9664V19.0521V28.3225L25.6192 28.5366V20.2724C25.6192 20.1868 25.5336 20.1012 25.4479 20.0797C25.191 19.9941 24.6344 19.8228 24.1848 19.7372C24.142 19.7372 24.0777 19.7372 24.0349 19.78C23.9921 19.8228 23.9707 19.9299 23.9707 19.9299V21.9424L23.9162 21.9325L23.9161 21.9324L23.916 21.9324L23.9159 21.9324C23.6844 21.8902 23.3749 21.8337 23.1571 21.8139V19.7586C23.1571 19.6516 23.0715 19.5659 22.9644 19.5659C22.5303 19.5325 22.0702 19.5512 21.8277 19.5611C21.7593 19.5638 21.7081 19.5659 21.6798 19.5659C21.5728 19.5659 21.4872 19.7586 21.4872 19.7586V21.8139C21.415 21.8284 21.3308 21.8428 21.2417 21.858L21.2417 21.858L21.2003 21.8651C21.004 21.8902 20.8128 21.9204 20.6308 21.9531V19.9299C20.6308 19.8656 20.588 19.8228 20.5451 19.78C20.5023 19.7372 20.4381 19.7372 20.3739 19.7372C20.0043 19.7926 19.5231 19.9437 19.2194 20.0391L19.0893 20.0797C19.0036 20.1226 18.9608 20.2724 18.9608 20.2724V22.4304C18.9443 22.4697 18.9425 22.516 18.9608 22.5623V28.7035C18.9443 28.7428 18.9425 28.7891 18.9608 28.8354V32.1933C18.9443 32.2326 18.9425 32.2789 18.9608 32.3252V35.5974C18.9443 35.6367 18.9425 35.683 18.9608 35.7293V39.0229C18.9443 39.0622 18.9425 39.1084 18.9608 39.1548V42.4701C18.9443 42.5094 18.9425 42.5556 18.9608 42.602V45.8955C18.9443 45.9348 18.9425 45.9811 18.9608 46.0275V46.0497C18.9608 46.0925 20.0099 51.0809 24.4417 53.3504C24.6772 53.4574 24.8913 53.5645 25.084 53.6715L25.2527 53.7558C23.8668 54.0635 22.8242 54.5181 22.0978 54.8348L22.0977 54.8348L22.0654 54.8489L21.9584 54.8917C21.4267 55.1202 20.9203 55.3135 20.4376 55.4719C20.7254 55.1734 21.0144 54.794 21.1874 54.3565C21.3372 53.9925 21.3372 53.6286 21.1659 53.3931C20.9947 53.1362 20.7806 52.8578 20.5665 52.6009C20.2239 52.1727 19.8171 51.6375 19.5174 51.1022C19.4127 50.9278 19.0948 50.2558 18.8649 49.7697L18.7491 49.5253C18.6594 49.0811 18.2666 48.6734 17.8903 48.4477C16.5415 47.6341 14.2293 48.5547 13.9723 48.6618C13.9137 48.6866 13.8567 48.7114 13.8011 48.7361V47.6555C13.816 47.6406 13.8101 47.6152 13.8052 47.594C13.8031 47.5848 13.8011 47.5763 13.8011 47.5699C13.7959 47.5647 13.7898 47.5579 13.7827 47.5502C13.7314 47.4936 13.6305 47.3824 13.48 47.42C11.917 47.9552 10.8466 47.8696 10.0544 47.8054C9.81892 47.7626 9.60484 47.7626 9.41217 47.7626H9.41211H9.36929C8.10612 47.7626 7.09987 48.1265 6.7145 48.726C6.33075 49.3191 6.54388 50.0116 6.63602 50.271C6.63082 50.2944 6.62883 50.3103 6.62883 50.3103L7.39957 53.95C7.48521 54.2925 7.65649 54.5922 7.93482 54.7849C8.61993 55.2773 9.60477 55.5771 10.4826 55.5771L10.504 55.5557H10.7823C11.5785 55.496 12.7819 55.2142 13.7041 54.6415C13.7429 54.6995 13.7914 54.7667 13.8516 54.8408C14.6823 56.3118 15.2152 57.4848 15.4927 58.3173C15.9637 59.816 16.5846 60.8436 17.2483 61.2718C17.9334 61.7 18.8326 61.9355 19.8602 61.9355V61.9141C20.1814 61.9141 20.5239 61.8927 20.8879 61.8499C22.8362 61.593 23.6283 61.2932 24.9343 60.7794L25.2769 60.6509C25.8763 60.4154 26.6685 60.1157 27.5463 59.816C29.0664 59.3021 30.1369 59.0024 31.293 58.8097C31.293 58.8097 32.5293 58.6273 34.1146 58.5583L34.1403 58.5743C34.9324 59.0667 35.6175 59.7519 36.0243 60.5012C36.0401 60.5485 36.1254 60.5725 36.1694 60.582C36.1568 60.5852 36.1441 60.5868 36.1314 60.5868H36.1956L36.1872 60.5855ZM53.0664 45.7273V42.7051C52.7157 42.6004 51.3472 42.2175 50.0904 42.2175C49.7234 42.2175 49.3509 42.2501 48.9988 42.2989V45.3367C49.3568 45.289 49.7356 45.2576 50.1118 45.2576C51.3231 45.2576 52.5752 45.5839 53.0664 45.7273ZM48.6134 45.3951C47.9861 45.5014 47.4588 45.6439 47.1788 45.7265V42.7C47.4012 42.6339 47.9477 42.4768 48.6134 42.3597V45.3951ZM47.1788 46.1255V49.1457C47.6802 48.999 48.8984 48.6831 50.0903 48.6831C50.4116 48.6831 50.7542 48.7045 51.1182 48.7513V45.7147C50.7825 45.6713 50.4323 45.6429 50.0904 45.6429C48.8533 45.6429 47.5543 46.014 47.1788 46.1255ZM51.891 48.8838C51.7594 48.8559 51.6303 48.8311 51.5036 48.8093V45.7716C52.1954 45.886 52.7787 46.0461 53.0256 46.1185C52.9195 46.514 52.594 47.6197 51.891 48.8838ZM47.1788 53.3075V49.566C47.5802 49.4475 48.8544 49.0899 50.0689 49.0899C50.5534 49.0899 51.0906 49.1425 51.6803 49.2477C50.8689 50.5956 49.6285 52.0592 47.7782 53.0078L47.1788 53.3075ZM53.0664 39.2579V42.3018C52.7673 42.2144 52.186 42.0593 51.5036 41.9513V38.8989C52.237 39.0202 52.8484 39.1928 53.0664 39.2579ZM51.1182 38.842V41.8973C50.7912 41.8575 50.4499 41.8321 50.1118 41.8321C48.9025 41.8321 47.6661 42.1573 47.1788 42.301V39.2528C47.5543 39.1413 48.8533 38.7703 50.0904 38.7703C50.4323 38.7703 50.7825 38.7986 51.1182 38.842ZM53.0664 38.8546V35.8324C52.7157 35.7277 51.3472 35.3448 50.0904 35.3448C49.7234 35.3448 49.3509 35.3774 48.9988 35.4263V38.464C49.3568 38.4164 49.7356 38.3849 50.1118 38.3849C51.3231 38.3849 52.5752 38.7112 53.0664 38.8546ZM48.6134 38.5225V35.487C47.9477 35.6041 47.4012 35.7612 47.1788 35.8273V38.8538C47.4588 38.7712 47.9861 38.6287 48.6134 38.5225ZM53.0664 32.4284V35.4291C52.7704 35.3427 52.1982 35.1899 51.525 35.082V32.0729C52.2489 32.194 52.8505 32.3639 53.0664 32.4284ZM51.1396 32.0152C50.7974 31.9703 50.4396 31.9407 50.0903 31.9407C48.8533 31.9407 47.5543 32.3117 47.1788 32.4232V35.4283C47.6661 35.2846 48.9025 34.9594 50.1118 34.9594C50.4573 34.9594 50.8061 34.9859 51.1396 35.0272V32.0152ZM53.0664 32.0313V28.9386C52.7157 28.8339 51.3472 28.4509 50.0904 28.4509C49.7234 28.4509 49.3509 28.4836 48.9987 28.5324L48.9988 28.5366V31.6317C49.3505 31.5856 49.7217 31.5553 50.0903 31.5553C51.3197 31.5553 52.5911 31.8914 53.0664 32.0313ZM48.6134 31.6893C47.9924 31.7933 47.4671 31.9336 47.1788 32.018V28.9334C47.4012 28.8674 47.9477 28.7103 48.6134 28.5932V31.6893ZM53.0664 25.7696V28.5352C52.7673 28.4479 52.186 28.2928 51.5036 28.1848V25.4072C52.2354 25.5284 52.8481 25.7036 53.0664 25.7696ZM50.1118 28.0655C50.4499 28.0655 50.7912 28.091 51.1182 28.1307V25.3504C50.7958 25.3091 50.4606 25.2823 50.1332 25.2823C48.9129 25.2823 47.5997 25.6542 47.2216 25.7652V28.522C47.7356 28.3727 48.9365 28.0655 50.1118 28.0655ZM48.0994 22.0286V20.1868C47.7782 20.251 47.4357 20.3581 47.2216 20.4437V22.2488C47.423 22.1903 47.7299 22.1076 48.0994 22.0286ZM47.2216 22.6476V25.3534C47.5106 25.2695 48.0167 25.1356 48.6134 25.0345V22.3372C48.5388 22.3496 48.4724 22.3611 48.4205 22.3706H48.3445C47.8399 22.4714 47.4303 22.5864 47.2216 22.6476ZM50.1118 24.897C49.7356 24.897 49.3568 24.9284 48.9988 24.9761V22.2763C49.1653 22.2515 49.3244 22.23 49.4268 22.2207H49.5124C49.5307 22.2207 49.549 22.2119 49.5664 22.1981C49.7405 22.1851 49.916 22.1778 50.0904 22.1778C51.3472 22.1778 52.7157 22.5607 53.0664 22.6654V25.3723C52.5949 25.2321 51.3394 24.897 50.1118 24.897ZM49.6837 21.8052C49.8259 21.7969 49.969 21.7924 50.1118 21.7924C50.2687 21.7924 50.4263 21.7979 50.5829 21.8077V19.9727H49.6837V21.8052ZM52.1886 22.0403C52.5657 22.1219 52.8743 22.206 53.0664 22.2621V20.4223C52.9787 20.3984 52.8762 20.3656 52.7666 20.3305C52.5818 20.2713 52.3768 20.2057 52.1886 20.1654V22.0403ZM20.495 48.8534C19.8095 47.6126 19.4924 46.5248 19.3834 46.11C19.6438 46.0363 20.186 45.8904 20.8237 45.7812V48.7965C20.7159 48.8141 20.6063 48.8331 20.495 48.8534ZM21.2091 48.7389C21.573 48.6901 21.9155 48.6616 22.2367 48.6616C23.5248 48.6616 24.8436 49.0306 25.2553 49.1562V46.1432C24.9924 46.0619 23.5749 45.6429 22.2797 45.6429C21.9244 45.6429 21.5587 45.6745 21.2091 45.7219V48.7389ZM20.7037 49.2163C21.5124 50.5662 22.7577 52.0333 24.6344 52.9864C24.8485 53.0934 25.0626 53.2005 25.2553 53.3075V49.5754C25.0613 49.5145 23.5946 49.0684 22.2581 49.0684C21.7893 49.0684 21.2711 49.1177 20.7037 49.2163ZM25.2553 42.7177V45.7461C24.9938 45.6678 24.4208 45.5086 23.7353 45.3931V42.3568C24.4834 42.4865 25.092 42.6672 25.2553 42.7177ZM22.2582 45.2576C22.6248 45.2576 22.9966 45.2883 23.3499 45.3351V42.2968C23.0016 42.2492 22.636 42.2175 22.2797 42.2175C21.1349 42.2175 19.881 42.5447 19.4104 42.6769V45.6975C19.9634 45.5434 21.1406 45.2576 22.2582 45.2576ZM25.2553 42.3206V39.2705C24.9924 39.1892 23.5749 38.7703 22.2797 38.7703C21.9244 38.7703 21.5587 38.8018 21.2091 38.8492V41.9037C21.5506 41.8602 21.9073 41.8321 22.2582 41.8321C23.5082 41.8321 24.8178 42.1895 25.2553 42.3206ZM20.8237 41.9597V38.9085C20.2073 39.0141 19.6802 39.1539 19.4104 39.2297V42.272C19.7231 42.1849 20.2354 42.0556 20.8237 41.9597ZM25.2553 35.845V38.8734C24.9938 38.7951 24.4208 38.6359 23.7353 38.5205V35.4841C24.4834 35.6138 25.092 35.7945 25.2553 35.845ZM23.3499 35.4242V38.4624C22.9966 38.4156 22.6248 38.3849 22.2582 38.3849C21.1406 38.3849 19.9634 38.6707 19.4104 38.8249V35.8042C19.881 35.672 21.1349 35.3448 22.2797 35.3448C22.636 35.3448 23.0016 35.3765 23.3499 35.4242ZM25.2553 35.4479V32.441C24.9924 32.3597 23.5749 31.9407 22.2797 31.9407C21.9244 31.9407 21.5587 31.9722 21.2091 32.0196V35.031C21.5506 34.9876 21.9073 34.9594 22.2582 34.9594C23.5082 34.9594 24.8178 35.3168 25.2553 35.4479ZM19.4104 32.4001C19.6802 32.3244 20.2073 32.1845 20.8237 32.0789V35.087C20.2354 35.1829 19.7231 35.3122 19.4104 35.3994V32.4001ZM25.2553 28.9512V32.0438C24.9938 31.9655 24.4208 31.8063 23.7353 31.6909V28.5902C24.4834 28.72 25.092 28.9007 25.2553 28.9512ZM22.2582 31.5553C22.6248 31.5553 22.9966 31.5861 23.3499 31.6328V28.5366L23.35 28.5303C23.0017 28.4826 22.6361 28.4509 22.2797 28.4509C21.1349 28.4509 19.881 28.7782 19.4104 28.9104V31.9953C19.9634 31.8411 21.1406 31.5553 22.2582 31.5553ZM25.2553 28.5541V25.7962H25.2551C25.2551 25.7962 23.6708 25.2823 22.2363 25.2823C21.8946 25.2823 21.5444 25.3115 21.2091 25.3559V28.1371C21.5506 28.0937 21.9073 28.0655 22.2582 28.0655C23.5082 28.0655 24.8178 28.423 25.2553 28.5541ZM20.8237 28.1932C20.2354 28.2891 19.7231 28.4183 19.4104 28.5055V25.7379C19.6803 25.6598 20.2072 25.5188 20.8237 25.4143V28.1932ZM19.4104 25.341V22.6372C19.6104 22.581 19.9519 22.4896 20.3663 22.4031C20.4147 22.4348 20.5023 22.4348 20.5023 22.4348L20.802 22.3706C21.059 22.3063 21.4443 22.2421 21.637 22.2207H21.7227C21.7415 22.2207 21.7604 22.2114 21.7784 22.1968C21.9459 22.1846 22.1139 22.1778 22.2797 22.1778C22.4902 22.1778 22.7039 22.1888 22.9154 22.2077C22.9431 22.2288 22.9644 22.2421 22.9644 22.2421H23.0501C23.1216 22.2493 23.229 22.2636 23.3499 22.2819V24.9734C22.998 24.9272 22.6266 24.897 22.2577 24.897C21.114 24.897 19.946 25.1879 19.4104 25.341ZM23.7353 25.031C24.424 25.1464 24.9949 25.3064 25.2553 25.3852V22.678C25.1307 22.6395 24.747 22.5252 24.2399 22.4156C24.2126 22.4241 24.1852 22.4243 24.1634 22.4134H24.0563C23.9721 22.3924 23.8581 22.369 23.7353 22.3464V25.031ZM20.2882 20.2082V22.0195C19.929 22.0941 19.6234 22.173 19.4104 22.2324V20.4651L19.4834 20.4406C19.6863 20.3722 20.004 20.265 20.2882 20.2082ZM22.2582 21.7924C22.1372 21.7924 22.0155 21.7958 21.8939 21.8019V19.9941H22.7931V21.8125C22.6154 21.7996 22.4362 21.7924 22.2582 21.7924ZM25.2553 22.2809C25.0812 22.2288 24.769 22.1408 24.3775 22.0537V20.2082C24.6772 20.2724 25.0198 20.3795 25.2553 20.4651V22.2809ZM38.8522 58.2273C40.1867 58.3132 41.1411 58.4672 41.1411 58.4672C42.2972 58.6599 43.4105 58.9596 44.9306 59.4734C45.4812 59.6614 46.0065 59.8578 46.4695 60.031L46.4697 60.0311C46.7449 60.1339 46.998 60.2286 47.2214 60.3084L47.5426 60.4369C48.87 60.9507 49.5979 61.229 51.5034 61.4859C52.8522 61.6786 54.0511 61.4859 54.8647 60.9507C55.4428 60.5653 56.0208 59.6019 56.4704 58.2102C56.6845 57.5251 57.0913 56.6473 57.648 55.5769C57.3054 55.8338 56.92 56.0479 56.6417 56.1549C54.9932 56.733 52.895 56.4332 50.2188 55.2771L50.1118 55.2343C49.3151 54.8779 48.1079 54.3573 46.47 54.0544C46.4373 54.0682 46.4024 54.0831 46.3652 54.0997C46.0608 54.235 44.0332 55.3588 43.0363 55.92C42.8928 56.0233 42.7396 56.1234 42.576 56.2192C41.7624 56.6902 40.5421 57.311 40.328 57.4181C40.0442 57.5442 39.4355 57.8908 38.8522 58.2273ZM44.0847 54.9285C45.0361 54.3977 46.0811 53.8185 46.301 53.7143C46.3464 53.6916 46.3888 53.6719 46.4286 53.654L46.4293 53.65L46.4352 53.6511L46.5034 53.621C46.5808 53.587 46.6476 53.5577 46.7077 53.5216L46.7505 53.496V32.4331H36.3668V32.4331H35.9814V32.4331H25.662V53.4788L25.6192 53.5002L25.7263 53.543C25.7263 53.543 25.9618 53.6501 26.1116 53.7143C26.2053 53.7587 26.3104 53.8065 26.428 53.86L26.4281 53.86C26.8215 54.039 27.3563 54.2823 28.0813 54.6778L28.1507 54.717C27.2413 53.5304 27.2462 52.5267 27.2466 52.4338L27.2466 52.4296V34.574C27.2466 34.4669 27.3323 34.3813 27.4393 34.3813H44.9524C45.0595 34.3813 45.1451 34.4669 45.1451 34.574V52.4296C45.1451 52.5072 45.044 53.7309 44.0847 54.9285ZM25.662 32.0477H29.6656V28.7345L25.662 28.9219V32.0477ZM30.051 32.0477H35.9814V28.6224C33.6545 28.6257 31.2146 28.6765 30.7981 28.6852L30.7361 28.6864H30.6933L30.051 28.7165V32.0477ZM36.3668 32.0477H42.7043V28.7312L41.7407 28.6864C41.7407 28.6864 38.939 28.6246 36.3668 28.6223V32.0477ZM43.0897 32.0477H46.7505V28.919L43.0897 28.749V32.0477ZM42.5713 55.7745C43.4837 55.1922 44.0224 54.4564 44.339 53.8213H28.0533C28.3566 54.3898 28.8782 55.0653 29.7752 55.7142C29.8536 55.7632 29.9309 55.8102 30.0082 55.8553C30.8004 56.3049 31.9993 56.9258 32.2348 57.0328C32.6416 57.2041 33.6478 57.7822 34.3544 58.2104C35.123 58.6801 35.7852 59.3202 36.2135 59.982C36.4162 59.677 36.6571 59.3809 36.9304 59.107C37.267 58.7661 37.6537 58.4588 38.0796 58.2104L38.1009 58.1975V58.1888L38.1143 58.1894C38.8187 57.7635 39.799 57.2013 40.1992 57.0328C40.4347 56.9258 41.6337 56.3049 42.4258 55.8553L42.5713 55.7745ZM44.557 53.3146C44.2158 53.128 43.9818 52.694 43.7392 52.2442C43.7226 52.2134 43.7059 52.1825 43.6892 52.1515C43.4808 51.7593 43.2514 51.3319 42.9365 51.0382H44.7812V52.4082C44.7812 52.4171 44.7484 52.7897 44.557 53.3146ZM44.1093 53.4359H40.025C40.3397 53.1423 40.5691 52.715 40.7775 52.3228C41.1415 51.6591 41.484 51.0382 42.0835 51.0382C42.683 51.0382 43.0255 51.6591 43.3681 52.3228C43.3765 52.3385 43.3849 52.3541 43.3933 52.3698C43.6042 52.7618 43.818 53.1594 44.1093 53.4359ZM38.2667 53.4359H34.1588C34.4735 53.1423 34.7029 52.715 34.9112 52.3228C34.9219 52.3033 34.9326 52.2838 34.9432 52.2644C35.2944 51.6232 35.6146 51.0382 36.2172 51.0382C36.8381 51.0382 37.1807 51.6591 37.5232 52.3228L37.5406 52.3555C37.744 52.7386 37.9626 53.1504 38.2667 53.4359ZM39.1107 53.4359C38.5013 53.4239 38.1621 52.8087 37.823 52.1515C37.6146 51.7593 37.3851 51.3319 37.0703 51.0382H41.1876C40.8728 51.3319 40.6433 51.7593 40.4349 52.1515C40.4242 52.1711 40.4136 52.1905 40.4029 52.21C40.0554 52.8447 39.7381 53.4243 39.1472 53.4359H39.1107ZM32.4094 53.4359C32.0947 53.1423 31.8653 52.715 31.657 52.3228C31.3144 51.6591 30.9719 51.0382 30.3724 51.0382C29.7729 51.0382 29.4304 51.6591 29.0664 52.3228L29.0628 52.3295C28.8491 52.7265 28.624 53.1444 28.318 53.4359H32.4094ZM33.2445 53.4359C32.6355 53.4239 32.3173 52.8087 31.9781 52.1515C31.7697 51.7593 31.5403 51.3319 31.2255 51.0382H35.3214C35.0065 51.3319 34.7771 51.7593 34.5687 52.1515C34.558 52.1711 34.5473 52.1905 34.5367 52.21C34.1891 52.8447 33.8718 53.4243 33.2809 53.4359H33.2445ZM29.4765 51.0382C29.1617 51.3319 28.9322 51.7593 28.7239 52.1515C28.4624 52.6543 28.201 53.1382 27.8331 53.337C27.6278 52.7927 27.632 52.4296 27.632 52.4296V51.0371C27.6389 51.0378 27.646 51.0382 27.6531 51.0382H29.4765ZM27.632 38.6429V34.7667H27.6534H44.7812V38.6418H42.3619H36.196H30.0728H27.6531L27.6445 38.642L27.632 38.6429ZM31.014 39.0272C31.3306 39.32 31.5608 39.7362 31.7642 40.1191C32.1281 40.7828 32.4707 41.4036 33.113 41.4036C33.7553 41.4036 34.1192 40.7828 34.4832 40.1191C34.6985 39.7362 34.9339 39.32 35.2529 39.0272H31.014ZM30.0728 39.0272C30.7151 39.0272 31.0576 39.6481 31.4216 40.3118L31.4436 40.3509C31.6526 40.7228 31.8764 41.1209 32.1788 41.4037H27.9521C28.2553 41.1169 28.4789 40.7143 28.7026 40.3118C29.0665 39.6481 29.4305 39.0272 30.0728 39.0272ZM29.1297 39.0272C28.8108 39.32 28.5754 39.7362 28.36 40.1191L28.3359 40.1622C28.1151 40.5567 27.9036 40.9348 27.632 41.1669V39.0261C27.6389 39.0268 27.646 39.0272 27.6531 39.0272H29.1297ZM34.0559 41.4037C34.3749 41.1109 34.6104 40.6946 34.8257 40.3118C35.1897 39.6481 35.5323 39.0272 36.196 39.0272C36.8597 39.0272 37.2022 39.6481 37.5662 40.3118C37.7815 40.6946 38.017 41.1109 38.336 41.4037H34.0559ZM40.2433 41.4037C40.5623 41.1109 40.7978 40.6946 41.0131 40.3118C41.3771 39.6481 41.7411 39.0272 42.3833 39.0272C43.0256 39.0272 43.3682 39.6481 43.7322 40.3118C43.946 40.7089 44.1708 41.117 44.4764 41.4037H40.2433ZM44.7812 41.1634C44.4902 40.9257 44.2718 40.5224 44.0533 40.1191C43.8499 39.7362 43.6198 39.32 43.3032 39.0272H44.7812V41.1634ZM41.4189 39.0272C41.0999 39.32 40.8645 39.7362 40.6492 40.1191C40.2852 40.7828 39.9426 41.4036 39.2789 41.4036C38.6152 41.4036 38.2727 40.7828 37.9087 40.1191C37.6934 39.7362 37.458 39.32 37.139 39.0272H41.4189ZM44.7812 44.6795V41.7891H27.632V44.6806C27.6389 44.6798 27.646 44.6795 27.6531 44.6795H30.0728H36.196H42.3619H44.7812ZM27.6531 45.0648H29.1297C28.8108 45.3576 28.5754 45.7739 28.36 46.1567L28.3359 46.1998C28.1151 46.5944 27.9036 46.9725 27.632 47.2046V45.0637C27.6389 45.0645 27.646 45.0648 27.6531 45.0648ZM28.652 46.4373C28.4437 46.7997 28.2303 47.1712 27.9478 47.4414H32.1788C31.8764 47.1586 31.6526 46.7605 31.4436 46.3886L31.4216 46.3494C31.0576 45.6857 30.7151 45.0648 30.0728 45.0648C29.4305 45.0648 29.0665 45.6857 28.7026 46.3494L28.652 46.4373ZM34.8257 46.3494C34.6104 46.7323 34.3749 47.1486 34.0559 47.4414H38.336C38.017 47.1486 37.7815 46.7323 37.5662 46.3494C37.2022 45.6857 36.8597 45.0648 36.196 45.0648C35.5323 45.0648 35.1897 45.6857 34.8257 46.3494ZM41.0131 46.3494C40.7978 46.7323 40.5623 47.1486 40.2433 47.4414H44.4764C44.1708 47.1546 43.946 46.7466 43.7322 46.3494C43.3682 45.6857 43.0256 45.0648 42.3833 45.0648C41.7411 45.0648 41.3771 45.6857 41.0131 46.3494ZM44.7812 45.0648V47.201C44.4902 46.9634 44.2718 46.5601 44.0533 46.1567L44.0313 46.1176C43.8223 45.7457 43.5986 45.3477 43.2962 45.0648H44.7812ZM40.6492 46.1567C40.8645 45.7739 41.0999 45.3576 41.4189 45.0648H37.139C37.458 45.3576 37.6934 45.7739 37.9087 46.1567C38.2727 46.8204 38.6152 47.4413 39.2789 47.4413C39.9426 47.4413 40.2852 46.8204 40.6492 46.1567ZM35.2529 45.0648H31.007C31.3094 45.3477 31.5331 45.7457 31.7421 46.1175L31.7642 46.1567C32.1281 46.8204 32.4707 47.4413 33.113 47.4413C33.7553 47.4413 34.1192 46.8204 34.4832 46.1567C34.6985 45.7739 34.9339 45.3576 35.2529 45.0648ZM44.7812 50.6528V47.8268H27.632V50.654L27.6433 50.6531L27.6531 50.6528H44.7812ZM29.6614 56.1283C29.4483 56.0012 29.2213 55.8602 28.9805 55.7054C28.6166 55.4699 28.2312 55.2344 27.9101 55.0417C26.968 54.5493 26.3686 54.271 25.9832 54.0997C25.9318 54.0769 25.885 54.0555 25.8419 54.0357C24.2117 54.3391 23.0095 54.8576 22.2153 55.2129L22.1082 55.2557C21.2445 55.6288 20.441 55.9105 19.6933 56.1022L19.6459 56.1335C19.6459 56.1335 19.603 56.1335 19.5816 56.1549C18.7038 56.369 17.9545 56.4761 17.2908 56.4761L17.3336 56.4332C16.6913 56.4332 16.1561 56.3262 15.6851 56.1335L15.6823 56.1323C15.5738 56.0904 15.4493 56.0324 15.3175 55.962C15.0853 55.8447 14.8823 55.724 14.7053 55.6041C15.2688 56.6532 15.6458 57.5352 15.8566 58.1888C16.3062 59.5804 16.8629 60.5439 17.4623 60.9293C18.2759 61.4645 19.4749 61.6572 20.8237 61.4645C22.7505 61.2076 23.4785 60.9293 24.7845 60.4154L25.127 60.287L25.3157 60.2126C25.8886 59.9866 26.61 59.702 27.4178 59.452C28.9593 58.9382 30.0512 58.6384 31.2288 58.4457C31.2288 58.4457 32.2071 58.2905 33.5289 58.2047C32.9597 57.8705 32.3591 57.5426 32.0635 57.4182L32.0338 57.4044C31.7363 57.2687 30.5369 56.7141 29.7944 56.2192C29.7493 56.1889 29.7049 56.1587 29.6614 56.1283ZM39.1929 12.8005V14.7189C38.9161 14.6704 38.6225 14.6253 38.3152 14.5863V12.565C38.6791 12.6078 39.0003 12.7148 39.1929 12.8005ZM36.8593 14.8558L36.845 14.8489C36.6876 14.8422 36.5281 14.8376 36.3668 14.8356V17.8974C38.8582 17.9316 40.8812 18.5517 41.5266 18.7786V15.6963C41.3568 15.6387 40.9917 15.5212 40.4801 15.391H40.4561C40.4561 15.391 40.3293 15.3568 40.1608 15.3129C39.576 15.1755 38.846 15.0344 38.0242 14.9414H37.994C37.7157 14.8986 36.9449 14.8558 36.9449 14.8558H36.8593ZM35.9814 14.8356C35.8199 14.8377 35.6603 14.8422 35.503 14.849C35.4916 14.8533 35.4798 14.8558 35.4677 14.8558H35.382L35.3557 14.856C35.2707 14.8604 35.1864 14.8655 35.1028 14.8712C34.9264 14.8874 34.7304 14.9144 34.5685 14.9414L34.2687 14.9842C34.2687 14.9842 34.2013 14.9842 34.152 14.9628C32.4381 15.1764 31.1747 15.5923 30.8432 15.7049V18.7679C31.5372 18.533 33.5608 17.9247 35.9814 17.8969V14.8356ZM36.1955 14.449C36.3542 14.449 36.5113 14.4515 36.6666 14.4561V12.4151H36.1314H35.6604V14.4581C35.8364 14.4522 36.0149 14.449 36.1955 14.449ZM34.0546 12.5864V14.5891C33.739 14.6294 33.4383 14.6763 33.1554 14.7266V12.8219C33.3481 12.7576 33.6693 12.6506 34.0546 12.5864ZM31.5497 13.2501V15.0859C31.2409 15.1698 31.0007 15.2445 30.8432 15.2962V13.5926C31.1001 13.4427 31.3356 13.3143 31.5497 13.2501ZM33.5838 18.4921C32.1837 18.7176 31.1645 19.0591 30.8432 19.1797V22.1606C31.2612 22.0482 32.2619 21.8029 33.5838 21.6374V18.4921ZM33.9692 18.4346C34.6343 18.3429 35.372 18.2813 36.1526 18.2813C36.9461 18.2813 37.6997 18.3464 38.3795 18.4424V21.5922C37.7036 21.5199 36.9582 21.4715 36.1741 21.4715C35.3887 21.4715 34.6435 21.5201 33.9692 21.5926V18.4346ZM41.5266 19.1919C41.2309 19.0859 40.1912 18.7351 38.7649 18.5012V21.6368C40.0846 21.801 41.0916 22.0442 41.5266 22.1579V19.1919ZM36.3668 21.8578C38.9126 21.8841 41.0357 22.421 41.5266 22.5548V25.2384C40.9339 25.1612 38.8691 24.9113 36.3668 24.8975V21.8578ZM35.9814 21.8578C33.4286 21.8842 31.3313 22.4246 30.8432 22.5561V25.2317C31.4898 25.1471 33.529 24.9081 35.9814 24.8973V21.8578ZM36.1527 25.2823C35.3644 25.2823 34.6194 25.3068 33.9477 25.343V28.2531C34.648 28.2438 35.3978 28.2368 36.1314 28.2368L36.1742 28.2582C36.9097 28.2582 37.6686 28.2629 38.3799 28.2699L38.3795 28.2581V25.3437C37.6988 25.3071 36.9454 25.2823 36.1527 25.2823ZM38.7649 25.3661C40.1511 25.4526 41.1789 25.5815 41.5266 25.6284V28.3225C41.1091 28.3094 40.0398 28.2884 38.7643 28.274L38.7647 28.2666L38.7649 28.2581V25.3661ZM30.8432 25.6261C31.2073 25.5773 32.2083 25.4507 33.5624 25.3656V28.2581L33.5624 28.2586C33.0435 28.2663 32.5608 28.2749 32.1433 28.2823L32.1413 28.2823L32.1406 28.2823L32.1393 28.2824L32.1388 28.2824C31.5474 28.2929 31.0876 28.3011 30.8432 28.3011V25.6261ZM41.5266 13.5712V15.2855C41.3619 15.2329 41.1222 15.1599 40.8201 15.0787V13.2287C41.0984 13.3143 41.3553 13.4642 41.5266 13.5712ZM6.9945 50.1646C6.91386 49.9877 6.7419 49.4119 7.03564 48.9615C7.35679 48.4691 8.2774 48.1693 9.36929 48.1693V47.9766L9.41211 48.1693C9.50592 48.1693 9.6048 48.1795 9.70629 48.1899C9.81326 48.2009 9.92313 48.2122 10.033 48.2122C10.7823 48.2764 11.8742 48.362 13.4157 47.8696V48.9175C12.9802 49.1356 12.5997 49.3739 12.1097 49.7108L12.0332 49.7635L12.0332 49.7635L12.0331 49.7636L12.033 49.7636C11.712 49.9848 11.3603 50.2271 10.8251 50.5244C10.3274 50.8009 9.79185 50.955 9.27 50.9898C8.895 51.007 8.5167 50.9679 8.17179 50.8776C7.71707 50.7463 7.3095 50.5077 6.9945 50.1646ZM18.7453 55.9005C18.9778 55.859 19.2207 55.8083 19.4746 55.7481C19.7529 55.5769 20.5022 54.9774 20.8234 54.1852C20.9304 53.9069 20.909 53.6928 20.8448 53.5858C20.6735 53.3289 20.4594 53.0719 20.2454 52.815L20.2453 52.815C19.9028 52.3868 19.4746 51.8302 19.1534 51.2735C19.0745 51.1354 18.8682 50.7243 18.6855 50.3422C18.4144 51.4191 17.4215 52.8122 14.9144 53.2006C14.8313 53.2157 14.7541 53.2322 14.6827 53.2504C14.4392 53.3225 14.2438 53.4311 14.1202 53.5331C14.0798 53.5746 14.0449 53.6206 14.0152 53.6716C13.8867 53.9071 13.9295 54.164 13.9723 54.2925C13.9782 54.3159 13.9809 54.3394 13.9803 54.362C14.0103 54.4112 14.0539 54.4769 14.1145 54.5548C14.1332 54.5645 14.1504 54.5771 14.1653 54.592C14.5078 54.9774 15.3642 55.5983 15.8138 55.7481C16.6573 56.037 17.6255 56.0889 18.7453 55.9005ZM13.6512 53.5001C13.6981 53.4196 13.7725 53.3327 13.8709 53.2487C14.1185 53.0093 14.4421 52.901 14.7232 52.8542C14.7578 52.8475 14.7929 52.8415 14.8287 52.8364C17.4294 52.4314 18.3533 50.8802 18.3612 49.5776C18.2811 49.2791 17.9894 48.9726 17.6976 48.7902C16.7342 48.2122 15 48.6832 14.1222 49.0471C13.4371 49.3255 12.9875 49.5824 12.3238 50.0534L12.191 50.1451C11.8803 50.3602 11.5225 50.608 11.0178 50.8884C9.80706 51.5523 8.43601 51.575 7.42454 51.0053C7.32849 50.9561 7.23709 50.9022 7.15127 50.8438L7.78495 53.8643C7.84918 54.1212 7.97764 54.3353 8.17032 54.4638C8.85543 54.9562 9.9045 55.2559 10.7395 55.1703C11.501 55.1068 12.6597 54.8344 13.534 54.2909C13.4643 54.0065 13.5424 53.6996 13.6512 53.5001ZM64.5919 51.1583C64.0205 51.3834 63.3744 51.4456 62.7207 51.3378C62.3467 51.2823 61.9885 51.1738 61.6768 51.0186C61.5749 50.9723 61.4736 50.9217 61.3733 50.8667C61.287 50.8188 61.2051 50.7719 61.127 50.7259C60.823 50.5531 60.5393 50.3717 60.2815 50.1817C59.8961 49.9034 58.7186 49.2183 58.6972 49.2183L58.6859 49.2102L58.6781 49.2039L58.6741 49.2005C58.5467 49.1416 58.413 49.084 58.2689 49.0255C57.3911 48.6615 55.6569 48.1905 54.6934 48.7686C54.3509 48.9827 54.0083 49.368 54.0083 49.7106C54.0083 50.3783 54.3848 51.444 55.5952 52.1605C56.0933 52.4492 56.7209 52.6727 57.4984 52.7938C57.6704 52.8184 57.8283 52.8623 57.9696 52.9186C58.2494 53.0119 58.538 53.1733 58.7185 53.4787C58.8469 53.6928 58.8897 53.9711 58.8255 54.2494C59.6819 54.8275 60.8808 55.0844 61.6516 55.1487V55.1701C62.4866 55.2343 63.5356 54.9346 64.2207 54.4635C64.4134 54.3351 64.5419 54.121 64.6061 53.8641L65.2434 50.8265C65.0516 50.9606 64.8309 51.0717 64.5919 51.1583ZM58.2279 54.569C58.3472 54.415 58.4017 54.3058 58.4178 54.2734L58.419 54.2711C58.5046 54.0784 58.4404 53.8215 58.3548 53.6716C58.2881 53.5549 58.0655 53.3732 57.7478 53.2682C57.6713 53.2495 57.5882 53.2341 57.4981 53.2218C56.7458 53.0999 56.1298 52.8902 55.6287 52.6274C54.4713 52.0316 53.8754 51.1284 53.666 50.246C53.4734 50.6528 53.2378 51.1238 53.1522 51.2737C52.8607 51.8151 52.4275 52.3564 52.0888 52.7796L52.0603 52.8152C51.8462 53.0721 51.6535 53.329 51.4608 53.586C51.3966 53.6716 51.3752 53.9071 51.4823 54.1854C51.8034 54.9776 52.5527 55.577 52.8311 55.7483H52.8739C53.4763 55.891 54.0142 55.9838 54.4972 56.0245C55.2403 56.0615 55.9102 55.9761 56.5132 55.7695C56.9843 55.5983 57.8192 54.9774 58.1618 54.6134C58.1807 54.5946 58.2032 54.5794 58.2279 54.569ZM60.3423 49.7592C60.4004 49.7966 60.4523 49.8308 60.4956 49.8606C60.9024 50.1389 61.3306 50.3958 61.8444 50.6527C63.0005 51.2308 64.7347 50.9953 65.377 50.1817C65.4198 50.0747 65.6553 49.411 65.3556 48.94C65.0344 48.469 64.1352 48.1478 63.0219 48.1478H62.9791C62.7864 48.1478 62.5723 48.1478 62.3582 48.1906C61.6089 48.2549 60.517 48.3405 58.9541 47.8481V48.9127C59.414 49.132 59.8115 49.3675 60.3028 49.732L60.3423 49.7592ZM54.6292 47.3771C54.672 47.4413 54.7791 47.4413 54.7791 47.4413V47.3985C54.8219 47.3985 54.8647 47.3985 54.9075 47.3557C54.9163 47.3469 54.9462 47.319 54.9922 47.2761C55.1127 47.1637 55.3433 46.9484 55.5917 46.706C55.5995 46.7021 55.607 46.6974 55.6142 46.692C55.6357 46.6706 56.2351 46.3066 57.0059 46.3066H57.0273C57.7552 46.3066 57.8837 46.2852 58.2048 46.221L58.4403 46.1782C58.8043 46.0925 59.3395 45.9855 60.3244 46.3709C60.3672 46.3923 61.2236 46.7348 61.9943 46.7348L62.0371 46.7562C62.2084 46.7562 62.3583 46.7562 62.5082 46.7134C63.1411 46.5657 63.4206 46.3141 63.6335 46.1224L63.6429 46.1139C63.6578 46.0841 63.6831 46.0646 63.7044 46.0483C63.7136 46.0413 63.722 46.0348 63.7285 46.0283C63.8142 45.9427 64.0068 45.8784 64.1567 45.8356C64.2852 45.7928 64.3708 45.75 64.4564 45.7072C64.5421 45.6429 64.6063 45.5787 64.6063 45.4931C64.6063 45.3646 64.5207 45.279 64.435 45.1933C64.4136 45.1612 64.3869 45.1344 64.3574 45.105C64.328 45.0756 64.2959 45.0435 64.2638 45.0006C64.2415 44.9784 64.2218 44.9561 64.2029 44.9348L64.2029 44.9347C64.1673 44.8944 64.1344 44.8573 64.0925 44.8294C64.328 44.7223 65.4199 44.2085 65.7838 43.5662C66.1692 42.9025 66.212 42.6242 66.212 42.3672C66.2334 42.303 66.2334 42.1317 66.0836 42.0461C65.9411 41.9851 65.818 42.0594 65.7143 42.1221L65.6982 42.1317C65.6768 42.1531 65.6126 42.196 65.5912 42.196C65.4271 42.237 65.3024 42.1994 65.1041 42.1398L65.0773 42.1317C64.9275 42.0675 64.7348 42.0247 64.4778 41.9819C63.9212 41.8962 63.3217 41.8748 62.8293 42.303C62.7437 42.3672 62.6152 42.4957 62.6152 42.4957V42.3887V41.9605C62.658 41.7678 62.5724 41.6821 62.5082 41.6393C62.3369 41.5323 62.1442 41.6179 61.8873 41.8106C61.7415 41.9356 61.4335 41.9795 61.1408 42.0212L61.1165 42.0247C60.9453 42.0461 60.774 42.0675 60.6241 42.1103C60.0889 42.2388 59.4466 42.8811 59.1897 43.3949C58.9113 43.9515 58.7829 44.5296 58.6973 44.915L58.6972 44.915C58.5902 45.4074 58.4617 45.7928 57.8623 45.9212H57.8409C57.6696 45.9427 57.4769 45.9427 57.0487 45.9427C56.7462 45.9427 56.4655 45.9911 56.2253 46.0555C56.3369 45.9315 56.4304 45.8187 56.4919 45.7286L56.5572 45.6305C56.5981 45.6035 56.6301 45.5623 56.6421 45.5144L56.6443 45.5092C57.0358 44.9734 57.807 43.8666 58.3117 42.8168C58.3903 42.6564 58.4733 42.5 58.561 42.3464C58.606 42.3259 58.6418 42.29 58.6546 42.2387C58.6586 42.2309 58.6725 42.1902 58.6919 42.1246C59.1576 41.3612 59.7412 40.6565 60.4526 39.8623C60.8383 39.4361 61.1854 39.1638 61.4758 38.936L61.5231 38.8989C61.5708 38.8591 61.6181 38.8204 61.6651 38.782C61.9976 38.5099 62.3095 38.2546 62.5722 37.7856C62.979 37.1005 63.4928 36.03 63.4072 34.7668C63.3215 33.7606 63.0218 33.3324 62.8933 33.1611L62.8505 33.1183C62.7863 33.0326 62.6792 32.9684 62.5722 32.9684C62.3581 32.9684 62.2082 33.1611 62.1868 33.2039C62.1868 33.2253 62.0798 33.3324 61.9513 33.4394V33.3324C61.9318 32.9037 61.8414 32.5814 61.7446 32.2364L61.7158 32.1334C61.7019 32.0824 61.687 32.0303 61.6717 31.977L61.6716 31.9769C61.6164 31.7844 61.5567 31.576 61.5231 31.3413C61.5166 31.3019 61.508 31.2606 61.4993 31.2185L61.4992 31.2183C61.4795 31.1229 61.4589 31.0235 61.4589 30.9345C61.7372 30.7204 62.1868 30.8488 62.4437 30.9559C62.5936 31.0201 62.7435 31.1272 62.8719 31.2342L62.8896 31.2484C63.1012 31.418 63.3714 31.6346 63.6213 31.4055C63.7497 31.2984 63.7497 31.1272 63.7069 30.9345C63.9638 31.1914 64.3492 31.7266 64.5205 32.1548C64.6061 32.4117 64.7774 32.4974 64.8844 32.4974C65.0771 32.5188 65.227 32.3903 65.3126 32.2619C65.5267 31.9407 65.5696 31.2556 65.4197 30.4849C65.2099 29.4777 64.7327 28.8818 64.4719 28.5561L64.4563 28.5366L64.4134 28.4724C64.1779 28.1512 63.6213 27.8515 63.5999 27.8515C63.5809 27.8325 63.5452 27.8304 63.5224 27.8301C63.1673 27.6458 62.6567 27.4402 62.2087 27.3804C61.5878 27.2948 60.8384 27.359 60.1961 27.5303C59.5753 27.7016 58.6332 28.2796 58.1194 28.9862C57.7126 29.5428 57.2844 30.2493 57.1346 31.277C57.0917 31.6195 57.0917 31.9193 57.1346 32.1976C57.0489 32.1334 56.9633 32.0691 56.8776 32.0263C56.6421 31.8979 56.3852 31.8979 56.2354 32.0263C56.1069 32.1334 56.0641 32.3046 56.1711 32.5187C56.2354 32.6472 56.3424 32.8613 56.2782 33.2895C56.1071 34.4487 56.2397 35.3887 56.2717 35.6152V35.6153C56.2757 35.6439 56.2782 35.6612 56.2782 35.666C56.3852 36.5009 57.0917 37.4858 57.627 38.2137L57.7554 38.385C58.1622 38.9416 58.3977 39.6053 58.5262 40.4617C58.5954 40.9634 58.413 41.7026 58.3404 41.968C58.1973 42.2024 58.0662 42.4414 57.9477 42.6884C57.6267 43.3303 57.2057 44.003 56.8415 44.5449C56.8656 44.3343 56.8757 44.1184 56.8562 43.9301C56.8374 43.6295 56.8022 43.4608 56.7793 43.3517V43.3516L56.7793 43.3516L56.7793 43.3516L56.7706 43.3092C57.0061 42.881 57.2844 42.1959 57.37 41.1254C57.4771 39.9051 56.7278 38.9202 56.2139 38.5563C55.7001 38.1923 55.5288 38.0425 55.3789 37.8498C55.2505 37.6571 55.0578 37.5928 54.8865 37.6571C54.7795 37.6999 54.6082 37.8284 54.6724 38.2565L54.7152 38.4492L54.7295 38.5857C54.7698 38.9647 54.8108 39.3498 54.7152 40.0764C54.6296 40.6758 54.651 41.2111 55.0578 41.9604C55.4218 42.6455 56.2567 43.2878 56.4066 43.3949C56.428 43.4377 56.4708 43.5876 56.4922 43.9301C56.5431 44.3713 56.3923 45.0277 56.3276 45.281C56.2942 45.3269 56.2632 45.3692 56.2349 45.4074L56.1493 45.5359C55.8496 45.9641 54.6292 47.0988 54.6292 47.0988C54.565 47.1844 54.565 47.2915 54.6292 47.3771ZM60.1529 39.6482C59.8846 39.947 59.632 40.2354 59.3959 40.5197C59.7989 39.2419 59.9195 37.9435 59.7464 36.7151C59.6822 36.1798 59.5966 35.6446 59.4895 35.1093C59.2968 34.1459 59.1256 33.1611 59.2112 32.1976C59.2112 32.1334 59.1684 32.0906 59.1256 32.0906C59.0613 32.0906 59.0185 32.1334 59.0185 32.1762C58.9115 33.2253 59.0827 34.3172 59.254 35.3663C59.4681 36.6508 59.6822 37.9996 59.3397 39.3056C59.234 39.7812 59.0993 40.2713 58.9118 40.752C58.9108 40.6517 58.9041 40.554 58.8902 40.4617C58.7617 39.5411 58.4834 38.8132 58.0552 38.2137L57.9267 38.0424C57.4129 37.3573 56.7278 36.4153 56.6421 35.666C56.6421 35.6641 56.6407 35.6552 56.6383 35.6396C56.6121 35.4717 56.4658 34.5327 56.6421 33.3965C56.7278 32.8613 56.5993 32.5616 56.5137 32.3903L56.4709 32.3475C56.4923 32.3261 56.5565 32.3261 56.6635 32.3903C56.8991 32.5187 57.156 32.69 57.2844 32.8827V32.9255C57.4129 33.2681 57.5628 33.4822 57.5628 33.4822C57.627 33.5678 57.734 33.5892 57.8197 33.5464C57.9053 33.4822 57.9481 33.3751 57.9053 33.2895C57.8473 33.1639 57.8024 33.0644 57.7667 32.9852C57.7232 32.889 57.6933 32.8226 57.6698 32.7757C57.5413 32.4331 57.4129 31.9193 57.4985 31.3412C57.6484 30.3992 58.0552 29.7355 58.4191 29.2217C58.8473 28.6008 59.7037 28.0655 60.2818 27.9157C60.8598 27.7658 61.5664 27.7016 62.1444 27.7872C62.345 27.8193 62.5667 27.8845 62.7812 27.9636C62.6822 27.9946 62.5835 28.0292 62.4866 28.0656L62.3795 28.1084C61.9299 28.2797 61.6088 28.5366 61.3304 29.0504C60.9022 29.8212 61.0521 30.699 61.1806 31.4055C61.2222 31.6135 61.2727 31.7945 61.3207 31.9661C61.3467 32.0594 61.372 32.1499 61.3947 32.2405C61.4088 32.2972 61.4236 32.3539 61.4385 32.411C61.5134 32.6988 61.5909 32.9965 61.6088 33.3538C61.6302 33.7177 61.5445 34.1673 61.4375 34.5099C61.309 34.8524 61.2448 35.0879 61.2448 35.0879C61.2234 35.195 61.2876 35.2806 61.3733 35.3235C61.4589 35.3663 61.5659 35.302 61.6088 35.2164C61.6088 35.2096 61.6198 35.1807 61.6375 35.1342L61.6375 35.1341L61.6376 35.134C61.6752 35.0351 61.7433 34.8565 61.8014 34.6383C61.8404 34.5605 61.8636 34.4826 61.8854 34.4095L61.8854 34.4094L61.8854 34.4094L61.8854 34.4093C61.8996 34.3619 61.9131 34.3165 61.9299 34.2744C61.9727 34.1031 62.037 33.9318 62.1012 33.8676C62.2725 33.7177 62.5294 33.4822 62.5294 33.4608C62.5508 33.4394 62.5936 33.418 62.5936 33.418L62.6174 33.4554C62.7347 33.6384 62.9619 33.993 63.0218 34.831C63.086 35.7088 62.8505 36.5866 62.2296 37.6357C61.9513 38.1067 61.6516 38.3422 61.2662 38.642C60.9451 38.8775 60.5811 39.1772 60.1529 39.6482ZM63.6645 28.3867C63.6834 28.3942 63.7023 28.3998 63.7209 28.4033C63.8752 28.5035 64.0422 28.6312 64.1351 28.7507L64.1779 28.8149C64.4134 29.0932 64.863 29.6499 65.0557 30.5919C65.2056 31.3198 65.1414 31.8765 65.0129 32.0692C64.9915 32.112 64.9487 32.1334 64.9487 32.1334C64.9487 32.1334 64.9273 32.112 64.8844 32.0264C64.6918 31.5125 64.2207 30.8702 63.921 30.5919C63.4928 30.1851 63.3001 30.0353 63.1717 30.0353V30.0567C63.1289 30.0567 63.086 30.0781 63.0432 30.1209C62.9009 30.2632 63.0095 30.4248 63.0942 30.5507L63.1074 30.5705C63.1931 30.6776 63.3429 30.9987 63.3429 31.1486C63.2787 31.1272 63.1931 31.0629 63.1289 30.9987C63.0964 30.9755 63.0629 30.9503 63.0283 30.9242L63.0281 30.9241C62.9027 30.8297 62.7613 30.7232 62.5936 30.6561C62.1226 30.4635 61.7158 30.4421 61.4161 30.5705C61.3733 30.0995 61.4375 29.6713 61.6516 29.2859C61.9299 28.7935 62.2082 28.6222 62.508 28.5152L62.615 28.4724C62.9029 28.3695 63.2105 28.2667 63.4431 28.2588C63.5294 28.3046 63.6047 28.3482 63.6645 28.3867ZM55.0364 38.1923V38.021H55.0578C55.0792 38.0425 55.0792 38.0639 55.0792 38.0639C55.2719 38.3208 55.486 38.4921 55.9998 38.856C56.428 39.1558 57.0703 39.9907 56.9847 41.0612C56.935 41.7735 56.7828 42.2935 56.6272 42.6709C56.4943 41.6085 56.2423 40.6652 55.8714 39.8408C55.85 39.798 55.7858 39.798 55.7429 39.798C55.6787 39.8194 55.6787 39.8836 55.6787 39.9265C55.9356 40.74 56.1711 41.5322 56.2139 42.3672C56.2139 42.461 56.219 42.5599 56.2242 42.6613L56.2279 42.7349C55.9439 42.4758 55.5903 42.1159 55.4004 41.7677C55.0578 41.1254 55.015 40.6544 55.1006 40.1192C55.2077 39.2628 55.1434 38.8132 55.0364 38.385V38.1923ZM60.2815 44.5724C59.9329 44.8687 59.4849 45.236 58.9838 45.4893C59.0559 45.3137 59.0943 45.1408 59.1229 45.0122L59.1254 45.0006C59.1897 44.6153 59.3181 44.08 59.575 43.5662C59.7891 43.1166 60.3886 42.5813 60.7526 42.4957C60.8683 42.4571 61.0188 42.4359 61.1571 42.4164L61.2022 42.4101L61.3121 42.3901L61.3499 42.3834C61.6461 42.331 61.9423 42.2785 62.1442 42.1317C62.1656 42.1103 62.2084 42.0675 62.2298 42.0675V42.3887V42.6028C62.2298 43.0095 61.8659 43.1594 61.8659 43.1594C61.7802 43.1808 61.7374 43.2665 61.7374 43.3521C61.7588 43.4377 61.8231 43.5234 61.9087 43.5234C61.9729 43.5448 62.1228 43.5234 62.3369 43.3307C62.3931 43.2885 62.4402 43.2371 62.4901 43.1825L62.4901 43.1824C62.5162 43.1539 62.543 43.1245 62.5724 43.0952C62.6113 43.0563 62.6522 43.0134 62.6968 42.9667C62.7995 42.8591 62.922 42.7306 63.0862 42.5813C63.4074 42.2816 63.8142 42.2602 64.4136 42.3458C64.5828 42.3628 64.7253 42.4064 64.8516 42.4451C64.8851 42.4554 64.9174 42.4653 64.9489 42.4743C64.9871 42.4838 65.0243 42.4939 65.061 42.5037C65.2709 42.5602 65.4613 42.6114 65.6982 42.5385L65.8267 42.4743C65.8052 42.6242 65.7196 42.8597 65.4627 43.3307C65.1201 43.9302 63.9426 44.444 63.9426 44.444C63.8038 44.4903 63.5204 44.5477 63.3008 44.5921C63.2156 44.6094 63.1401 44.6247 63.0862 44.6367H63.022H63.0006C62.8935 44.6795 62.8079 44.7223 62.8293 44.8722C62.8507 45.022 62.9792 45.022 63.0648 45.022H63.1076C63.5144 44.9578 63.7927 45.0006 63.9212 45.1933C63.9854 45.279 64.0497 45.3432 64.0925 45.386C64.0711 45.4074 64.0282 45.4074 64.0068 45.4074C63.8356 45.4716 63.6215 45.5573 63.4502 45.6857C63.4074 45.7071 63.386 45.7286 63.3432 45.7713L63.3431 45.7714L63.3354 45.7782C63.1441 45.9483 62.9078 46.1585 62.3797 46.2852C61.6518 46.4779 60.4742 46.0069 60.4742 46.0069C59.9977 45.8197 59.6159 45.7407 59.2965 45.7162C59.7394 45.4523 60.1227 45.1194 60.4742 44.7865C61.0308 44.3155 61.7801 44.0371 62.5937 44.0157C62.6365 44.0157 62.6794 43.9515 62.6794 43.9087C62.6579 43.8658 62.6151 43.823 62.5723 43.823C61.6945 43.823 60.8809 44.0799 60.2815 44.5724ZM17.5051 47.3986C17.548 47.4414 17.6336 47.4414 17.6336 47.4414L17.6122 47.4628C17.6764 47.4628 17.7192 47.4414 17.7621 47.3986C17.8477 47.3129 17.8477 47.1845 17.7621 47.1202C17.7621 47.1142 17.6662 47.0225 17.5217 46.8841L17.5215 46.8839C17.3951 46.7629 17.2314 46.6062 17.0621 46.4401C17.0482 46.4059 17.0246 46.3743 16.9912 46.3493C16.9884 46.3493 16.974 46.3417 16.9492 46.3284L16.9485 46.328C16.6563 46.038 16.3679 45.7372 16.242 45.5573L16.1563 45.4289L16.1179 45.3768C16.117 45.3657 16.1155 45.3544 16.1133 45.3432C16.1133 45.3401 16.1082 45.318 16.0996 45.2808C16.0501 45.0654 15.8841 44.3439 15.9206 43.8874C15.9345 43.6651 15.9574 43.533 15.9717 43.4501C15.9795 43.4052 15.9848 43.3747 15.9848 43.3521L16.0012 43.3394C16.2197 43.1698 17 42.564 17.3336 41.9177C17.7404 41.1683 17.7618 40.6331 17.6762 40.0336C17.5477 39.2201 17.6119 38.8133 17.6762 38.4065L17.719 38.2138C17.7832 37.807 17.6119 37.6572 17.5049 37.6143C17.355 37.5501 17.1409 37.6357 17.0125 37.807C16.8626 38.0211 16.6913 38.1496 16.1775 38.5135C15.6637 38.8775 14.9357 39.8623 15.0214 41.0827C15.107 42.1746 15.4067 42.8383 15.6208 43.2665L15.6121 43.3089C15.5893 43.418 15.554 43.5867 15.5352 43.8874C15.5196 44.113 15.5437 44.3782 15.5805 44.6264C15.2039 44.0799 14.7621 43.3866 14.4436 42.7098C14.2972 42.4171 14.1364 42.1356 13.9608 41.8596C13.8787 41.5378 13.7394 40.9104 13.8013 40.4618C13.9298 39.6054 14.1653 38.9417 14.572 38.3851L14.7005 38.2138C15.2357 37.5073 15.9423 36.5224 16.0493 35.6875C16.0707 35.6446 16.2634 34.617 16.0493 33.2896C15.9851 32.8614 16.0921 32.6473 16.1778 32.476C16.2634 32.2833 16.242 32.112 16.1135 32.005C15.9637 31.8551 15.7068 31.8551 15.4712 32.005C15.4284 32.0371 15.3856 32.0639 15.3428 32.0906C15.3 32.1174 15.2571 32.1442 15.2143 32.1763C15.2572 31.898 15.2572 31.5768 15.2143 31.2557C15.0645 30.228 14.6363 29.5215 14.2295 28.9648C13.7157 28.2369 12.7736 27.6802 12.1528 27.509C11.5319 27.3163 10.7611 27.2735 10.1402 27.3591C9.49795 27.4447 8.74861 27.8515 8.47029 28.0228C8.41407 28.0565 8.38147 28.108 8.37249 28.1616C8.23031 28.2632 8.08144 28.3857 7.97784 28.5152L7.93502 28.5795L7.91938 28.599C7.65859 28.9247 7.18141 29.5205 6.97158 30.5277C6.82171 31.2985 6.86453 31.9622 7.07863 32.3047C7.16427 32.4332 7.31414 32.5402 7.50682 32.5402C7.61387 32.5188 7.76374 32.4546 7.87079 32.1977C8.04206 31.7909 8.42744 31.2557 8.68435 30.9773C8.64154 31.17 8.64154 31.3413 8.76999 31.4483C9.04832 31.6624 9.32664 31.4483 9.51933 31.2771C9.54174 31.2584 9.56414 31.2391 9.58677 31.2196L9.58678 31.2196L9.5868 31.2195L9.58688 31.2195C9.69397 31.1271 9.80617 31.0303 9.94753 30.9773C10.2044 30.8703 10.654 30.7418 10.9324 30.9559C10.911 31.0844 10.8896 31.2128 10.8681 31.3627C10.8346 31.5974 10.7748 31.8058 10.7196 31.9983C10.7043 32.0517 10.6894 32.1038 10.6755 32.1549C10.5684 32.5188 10.4614 32.8828 10.4399 33.3538V33.4609C10.3329 33.3538 10.2259 33.2682 10.2259 33.2682C10.183 33.2039 10.0118 33.0113 9.81907 33.0113C9.71202 33.0113 9.51933 33.1611 9.51933 33.1611V33.2039C9.39087 33.3752 9.09114 33.8034 9.0055 34.8097C8.89845 36.0514 9.43369 37.1219 9.84048 37.8284C10.1277 38.3413 10.4542 38.5986 10.8389 38.9018L10.8896 38.9417C11.2107 39.1772 11.5532 39.4556 11.96 39.9052C12.6414 40.6658 13.2173 41.356 13.6702 42.0801C13.6851 42.1342 13.6942 42.1676 13.6942 42.1746C13.7107 42.2075 13.7429 42.234 13.7763 42.2543C13.8938 42.4523 14.0022 42.6534 14.101 42.8597C14.6362 43.973 15.4712 45.1505 15.8352 45.643L15.9208 45.7714C15.9696 45.8385 16.0357 45.9186 16.1134 46.0067C15.9037 45.9564 15.665 45.9211 15.4069 45.9211H15.3855C15.1232 45.9211 14.9493 45.9131 14.8145 45.9069H14.8145H14.8144H14.8144H14.8144C14.7292 45.9029 14.6597 45.8997 14.5933 45.8997H14.5719C13.9511 45.7712 13.8226 45.3645 13.737 44.8934C13.6513 44.5081 13.5229 43.93 13.2445 43.3734C13.009 42.8595 12.3453 42.2172 11.8101 42.0888C11.6602 42.046 11.4889 42.0246 11.3177 42.0031C11.2555 41.9898 11.1924 41.9774 11.1301 41.9652C10.8921 41.9184 10.6657 41.8739 10.5469 41.789C10.29 41.6178 10.0759 41.5107 9.92604 41.6178C9.86181 41.6606 9.77617 41.7462 9.81899 41.9389V42.3671V42.4742C9.75476 42.4099 9.69053 42.3457 9.6049 42.2815C9.11247 41.8533 8.49159 41.8961 7.95635 41.9603C7.74507 41.9955 7.57723 42.0452 7.44092 42.0856L7.35688 42.1102L7.33014 42.1182C7.13183 42.1779 7.00707 42.2154 6.84305 42.1744C6.83103 42.1744 6.81225 42.1609 6.79052 42.1453C6.77355 42.1331 6.75477 42.1196 6.736 42.1102C6.62895 42.0246 6.50049 41.9389 6.35063 42.0246C6.22217 42.1102 6.22217 42.2815 6.22217 42.3457C6.22217 42.6026 6.26499 42.8809 6.65036 43.5446C7.01433 44.1655 8.0634 44.6794 8.34172 44.8078C8.2775 44.8506 8.21327 44.9149 8.17045 44.9791L8.14654 45.0112C8.0948 45.081 8.0551 45.1345 7.99917 45.1718C7.91353 45.2574 7.82789 45.3431 7.82789 45.4715C7.8493 45.5572 7.89212 45.6214 7.97776 45.6856L7.97779 45.6856C8.06342 45.7284 8.14905 45.7713 8.2775 45.8141C8.42736 45.8569 8.59864 45.9211 8.70569 46.0068C8.71217 46.0132 8.71865 46.0217 8.72573 46.0309C8.74203 46.0521 8.76147 46.0775 8.79133 46.0924C9.00542 46.2851 9.30516 46.542 9.92604 46.6919C10.0759 46.7347 10.2257 46.7347 10.397 46.7347H10.3971L10.4185 46.7133C11.0422 46.7133 11.722 46.4749 11.9814 46.384L11.9815 46.3839L11.9819 46.3838L11.9822 46.3837L11.9824 46.3836L11.9828 46.3835C12.0431 46.3624 12.0803 46.3493 12.0884 46.3493C13.0733 45.9639 13.6085 46.071 13.9725 46.1566L14.208 46.1994C14.5291 46.2851 14.6576 46.2851 15.3855 46.2851C15.9847 46.3013 16.4859 46.5135 16.6945 46.6159C17.012 46.9326 17.3244 47.2276 17.4493 47.3456L17.5051 47.3986ZM13.0754 40.6437C12.6395 39.3273 12.4861 37.9694 12.6663 36.6722C12.7305 36.137 12.8162 35.6017 12.9232 35.0665L12.9543 34.8923L12.9543 34.8923C13.1167 33.9846 13.282 33.0602 13.2015 32.1548C13.2015 32.1119 13.2444 32.0477 13.2872 32.0477C13.33 32.0477 13.3942 32.0905 13.3942 32.1334C13.5013 33.2038 13.33 34.2743 13.1587 35.3234C12.9446 36.6294 12.7305 37.9568 13.0731 39.2628C13.1674 39.6873 13.2849 40.1234 13.4424 40.5541C13.4457 40.5006 13.4511 40.4483 13.4587 40.3976C13.5872 39.4984 13.8655 38.749 14.2937 38.1496L14.4222 37.9783L14.5101 37.8562C14.9947 37.1843 15.6261 36.3088 15.7068 35.6232C15.7068 35.6232 15.878 34.5956 15.7068 33.3538C15.6294 32.87 15.7443 32.5787 15.8146 32.4006L15.8352 32.3476V32.3047C15.8352 32.3047 15.7496 32.3047 15.6639 32.369L15.6034 32.4073C15.3856 32.5448 15.1606 32.6869 15.0431 32.8828V32.9042C14.9146 33.2468 14.7861 33.4609 14.7647 33.4609C14.7005 33.5465 14.5935 33.5679 14.5078 33.5251C14.4222 33.4823 14.3794 33.3752 14.4222 33.2682C14.4801 33.1426 14.525 33.0431 14.5608 32.9639L14.5608 32.9639L14.5608 32.9638C14.6043 32.8676 14.6342 32.8013 14.6577 32.7543C14.7861 32.4118 14.9146 31.898 14.829 31.3199C14.7005 30.3779 14.2937 29.7142 13.9298 29.2003C13.4801 28.5795 12.6238 28.0442 12.0671 27.8943C11.4891 27.7445 10.7611 27.6802 10.2045 27.7659C9.98372 27.7935 9.72741 27.8724 9.48307 27.9688C9.62429 28.0081 9.76625 28.0565 9.90471 28.1084L10.0118 28.1513C10.4828 28.3011 10.7825 28.5795 11.0608 29.0933C11.5055 29.8768 11.3428 30.7441 11.2149 31.4259L11.2107 31.4483C11.1465 31.7695 11.0822 32.0264 10.9966 32.2833C10.8896 32.6473 10.8039 32.9898 10.7825 33.3966C10.7611 33.7606 10.8681 34.2102 10.9538 34.5528C11.0822 34.8953 11.1465 35.1308 11.1465 35.1308C11.1679 35.2379 11.1036 35.3235 11.018 35.3663C10.911 35.3877 10.8253 35.3663 10.7825 35.2593C10.7825 35.2593 10.6755 35.0024 10.5898 34.6812C10.5684 34.617 10.547 34.5581 10.5256 34.4992C10.5042 34.4404 10.4828 34.3815 10.4614 34.3172C10.4185 34.146 10.3543 33.9533 10.2901 33.9105C10.1188 33.7606 9.8833 33.5251 9.8833 33.5251C9.85821 33.5 9.84048 33.4749 9.82578 33.4541C9.81539 33.4394 9.80653 33.4269 9.79766 33.418L9.79265 33.4255C9.66317 33.6196 9.43287 33.9648 9.36946 34.8525C9.30524 35.7303 9.54074 36.6081 10.1616 37.6572C10.4399 38.1282 10.7397 38.3637 11.1251 38.6634L11.2053 38.7274C11.5066 38.9675 11.8454 39.2375 12.2384 39.6697C12.539 40.0044 12.8177 40.3261 13.0754 40.6437ZM9.77624 28.4296C9.48611 28.326 9.19598 28.2223 8.94469 28.2158C8.84197 28.2699 8.75313 28.3212 8.68512 28.3649L8.6843 28.3654C8.67837 28.3699 8.67224 28.3739 8.66593 28.3775C8.51913 28.4749 8.36532 28.5951 8.27757 28.7079L8.23475 28.7721L8.21917 28.792C7.97991 29.0961 7.54547 29.6484 7.35696 30.5491C7.20709 31.2985 7.27132 31.8337 7.39977 32.0264C7.42118 32.0692 7.464 32.0906 7.464 32.0906C7.464 32.0906 7.48541 32.0692 7.50682 32.005C7.72092 31.4912 8.17052 30.8489 8.47026 30.5706C9.04832 30.0353 9.17678 29.9283 9.34805 30.0781C9.49792 30.2066 9.36946 30.3993 9.28383 30.5277C9.19819 30.6348 9.04832 30.9559 9.04832 31.1058C9.07401 31.0929 9.12283 31.057 9.17165 31.021C9.20419 30.997 9.23673 30.9731 9.26242 30.9559C9.29488 30.9327 9.32835 30.9075 9.36304 30.8814L9.36312 30.8814C9.48855 30.7869 9.62997 30.6804 9.79766 30.6134C10.2687 30.4207 10.6755 30.3993 10.9752 30.5277C11.018 30.0567 10.9752 29.6499 10.7397 29.2432C10.4614 28.7507 10.2044 28.5795 9.8833 28.4724L9.77625 28.4296L9.77624 28.4296ZM17.355 38.0639L17.3764 38.0211H17.3978C17.3978 38.0639 17.355 38.1924 17.355 38.1924V38.3851L17.3412 38.4755C17.2798 38.8757 17.2142 39.3032 17.3336 40.1193C17.4193 40.6545 17.3764 41.1041 17.0339 41.7678C16.8595 42.1325 16.5088 42.4855 16.2169 42.7397C16.2204 42.6258 16.2204 42.5148 16.2204 42.4101C16.2632 41.5751 16.4987 40.7829 16.7556 39.9694C16.7556 39.9051 16.7342 39.8409 16.6914 39.8409C16.6486 39.8195 16.5629 39.8409 16.5629 39.8837C16.1965 40.698 15.9462 41.609 15.8121 42.6721C15.6547 42.2843 15.4998 41.7644 15.4496 41.0613C15.3639 40.0122 15.9848 39.1558 16.4344 38.8561C16.9482 38.4921 17.1623 38.3208 17.355 38.0639ZM8.32032 45.3859C8.32032 45.3859 8.38454 45.3859 8.40595 45.4073C8.434 45.4178 8.46377 45.4283 8.4946 45.4392C8.65206 45.4948 8.83728 45.5603 8.96261 45.6856C8.98402 45.6963 9.00007 45.7124 9.01613 45.7284C9.03219 45.7445 9.04824 45.7605 9.06965 45.7712L9.07736 45.7781C9.26865 45.9482 9.50496 46.1583 10.0331 46.2851C10.761 46.4564 11.9385 46.0068 11.9385 46.0068C12.411 45.823 12.795 45.7439 13.1102 45.72C12.6897 45.4612 12.323 45.133 11.986 44.8314L11.9597 44.8079C11.4245 44.3369 10.6752 44.08 9.84019 44.0371C9.79737 44.0371 9.75455 43.9943 9.75455 43.9301C9.75455 43.8873 9.79737 43.8445 9.8616 43.8445C10.7394 43.8445 11.553 44.1014 12.1524 44.5938C12.5184 44.9049 12.9938 45.2785 13.5252 45.5409C13.4319 45.341 13.3867 45.137 13.3542 44.9907L13.3516 44.9791C13.2874 44.6151 13.1589 44.0585 12.902 43.5661C12.6665 43.1164 12.0884 42.5812 11.7245 42.4956C11.5746 42.4527 11.4247 42.4313 11.2748 42.4099C10.9323 42.3671 10.5683 42.3029 10.3328 42.1316C10.29 42.1102 10.2686 42.0888 10.2472 42.0674V42.3885V42.6026C10.2472 42.9335 10.4738 43.0802 10.5584 43.135C10.5778 43.1476 10.5897 43.1553 10.5897 43.1593C10.6754 43.1807 10.7182 43.2663 10.7182 43.352C10.7182 43.4376 10.6326 43.5018 10.5469 43.5232C10.4827 43.5232 10.3328 43.5232 10.1187 43.3305C10.0625 43.2884 10.0155 43.2369 9.96555 43.1823C9.93947 43.1538 9.91261 43.1244 9.88322 43.095C9.84433 43.0561 9.80543 43.0133 9.76298 42.9666C9.6652 42.8589 9.54852 42.7305 9.36939 42.5812C9.04824 42.2815 8.64146 42.2815 8.04199 42.3457C7.87279 42.3626 7.73034 42.4063 7.60406 42.445C7.57055 42.4553 7.53818 42.4652 7.50675 42.4742C7.27124 42.5598 7.03574 42.624 6.75741 42.5384C6.72886 42.5384 6.70032 42.5194 6.67178 42.5003C6.6575 42.4908 6.64323 42.4813 6.62895 42.4742C6.65036 42.6454 6.736 42.8809 6.99292 43.3305C7.27124 43.823 8.21327 44.3154 8.53441 44.4438C8.70569 44.4867 9.1767 44.5937 9.36939 44.6365H9.43362H9.45503C9.54067 44.6579 9.64771 44.7222 9.62631 44.872C9.6049 45.0219 9.47644 45.0219 9.3908 45.0219H9.34798C8.91979 44.9363 8.66287 45.0005 8.53441 45.1932C8.47019 45.2788 8.40597 45.343 8.36315 45.3859L8.36313 45.3859H8.32032ZM13.4156 41.0398C13.4156 41.0398 13.4156 41.0826 13.437 41.104C13.437 41.104 13.437 41.0612 13.4156 41.0398Z" fill="white"/>
</svg>
